G04 #@! TF.GenerationSoftware,KiCad,Pcbnew,(5.1.0-0)*
G04 #@! TF.CreationDate,2020-07-10T00:17:45+02:00*
G04 #@! TF.ProjectId,POxiM-fingersensor-PhotoDiodeBoard,504f7869-4d2d-4666-996e-67657273656e,Test proto*
G04 #@! TF.SameCoordinates,Original*
G04 #@! TF.FileFunction,Copper,L2,Bot*
G04 #@! TF.FilePolarity,Positive*
%FSLAX46Y46*%
G04 Gerber Fmt 4.6, Leading zero omitted, Abs format (unit mm)*
G04 Created by KiCad (PCBNEW (5.1.0-0)) date 2020-07-10 00:17:45*
%MOMM*%
%LPD*%
G04 APERTURE LIST*
%ADD10C,0.800000*%
%ADD11C,1.800000*%
%ADD12C,0.250000*%
G04 APERTURE END LIST*
D10*
X105250000Y-80250000D03*
X106750000Y-80250000D03*
D11*
X106750000Y-82250000D03*
D10*
X108250000Y-82000000D03*
X105250000Y-82000000D03*
X106000000Y-81125000D03*
X108250000Y-80250000D03*
X107500000Y-81125000D03*
D11*
X111250000Y-82250000D03*
D10*
X109750000Y-82000000D03*
X109750000Y-80250000D03*
X111250000Y-80250000D03*
X112750000Y-82000000D03*
X110500000Y-81125000D03*
X112000000Y-81125000D03*
X112750000Y-80250000D03*
D12*
G36*
X113575000Y-93075000D02*
G01*
X104425000Y-93075000D01*
X104425000Y-89599801D01*
X109725000Y-89599801D01*
X109725000Y-89900199D01*
X109783605Y-90194826D01*
X109898562Y-90472358D01*
X110065455Y-90722131D01*
X110277869Y-90934545D01*
X110527642Y-91101438D01*
X110805174Y-91216395D01*
X111099801Y-91275000D01*
X111400199Y-91275000D01*
X111694826Y-91216395D01*
X111972358Y-91101438D01*
X112222131Y-90934545D01*
X112434545Y-90722131D01*
X112601438Y-90472358D01*
X112716395Y-90194826D01*
X112775000Y-89900199D01*
X112775000Y-89599801D01*
X112716395Y-89305174D01*
X112601438Y-89027642D01*
X112434545Y-88777869D01*
X112222131Y-88565455D01*
X111972358Y-88398562D01*
X111694826Y-88283605D01*
X111400199Y-88225000D01*
X111099801Y-88225000D01*
X110805174Y-88283605D01*
X110527642Y-88398562D01*
X110277869Y-88565455D01*
X110065455Y-88777869D01*
X109898562Y-89027642D01*
X109783605Y-89305174D01*
X109725000Y-89599801D01*
X104425000Y-89599801D01*
X104425000Y-84125000D01*
X105500554Y-84125000D01*
X105398562Y-84277642D01*
X105283605Y-84555174D01*
X105225000Y-84849801D01*
X105225000Y-85150199D01*
X105283605Y-85444826D01*
X105398562Y-85722358D01*
X105565455Y-85972131D01*
X105777869Y-86184545D01*
X106027642Y-86351438D01*
X106305174Y-86466395D01*
X106599801Y-86525000D01*
X106900199Y-86525000D01*
X107194826Y-86466395D01*
X107472358Y-86351438D01*
X107722131Y-86184545D01*
X107934545Y-85972131D01*
X108101438Y-85722358D01*
X108216395Y-85444826D01*
X108275000Y-85150199D01*
X108275000Y-84849801D01*
X108216395Y-84555174D01*
X108101438Y-84277642D01*
X107999446Y-84125000D01*
X109000000Y-84125000D01*
X109024386Y-84122598D01*
X109047835Y-84115485D01*
X109069446Y-84103934D01*
X109088388Y-84088388D01*
X109338388Y-83838388D01*
X109353934Y-83819446D01*
X109365485Y-83797835D01*
X109372598Y-83774386D01*
X109375000Y-83750000D01*
X109375000Y-79425000D01*
X113575001Y-79425000D01*
X113575000Y-93075000D01*
X113575000Y-93075000D01*
G37*
X113575000Y-93075000D02*
X104425000Y-93075000D01*
X104425000Y-89599801D01*
X109725000Y-89599801D01*
X109725000Y-89900199D01*
X109783605Y-90194826D01*
X109898562Y-90472358D01*
X110065455Y-90722131D01*
X110277869Y-90934545D01*
X110527642Y-91101438D01*
X110805174Y-91216395D01*
X111099801Y-91275000D01*
X111400199Y-91275000D01*
X111694826Y-91216395D01*
X111972358Y-91101438D01*
X112222131Y-90934545D01*
X112434545Y-90722131D01*
X112601438Y-90472358D01*
X112716395Y-90194826D01*
X112775000Y-89900199D01*
X112775000Y-89599801D01*
X112716395Y-89305174D01*
X112601438Y-89027642D01*
X112434545Y-88777869D01*
X112222131Y-88565455D01*
X111972358Y-88398562D01*
X111694826Y-88283605D01*
X111400199Y-88225000D01*
X111099801Y-88225000D01*
X110805174Y-88283605D01*
X110527642Y-88398562D01*
X110277869Y-88565455D01*
X110065455Y-88777869D01*
X109898562Y-89027642D01*
X109783605Y-89305174D01*
X109725000Y-89599801D01*
X104425000Y-89599801D01*
X104425000Y-84125000D01*
X105500554Y-84125000D01*
X105398562Y-84277642D01*
X105283605Y-84555174D01*
X105225000Y-84849801D01*
X105225000Y-85150199D01*
X105283605Y-85444826D01*
X105398562Y-85722358D01*
X105565455Y-85972131D01*
X105777869Y-86184545D01*
X106027642Y-86351438D01*
X106305174Y-86466395D01*
X106599801Y-86525000D01*
X106900199Y-86525000D01*
X107194826Y-86466395D01*
X107472358Y-86351438D01*
X107722131Y-86184545D01*
X107934545Y-85972131D01*
X108101438Y-85722358D01*
X108216395Y-85444826D01*
X108275000Y-85150199D01*
X108275000Y-84849801D01*
X108216395Y-84555174D01*
X108101438Y-84277642D01*
X107999446Y-84125000D01*
X109000000Y-84125000D01*
X109024386Y-84122598D01*
X109047835Y-84115485D01*
X109069446Y-84103934D01*
X109088388Y-84088388D01*
X109338388Y-83838388D01*
X109353934Y-83819446D01*
X109365485Y-83797835D01*
X109372598Y-83774386D01*
X109375000Y-83750000D01*
X109375000Y-79425000D01*
X113575001Y-79425000D01*
X113575000Y-93075000D01*
G36*
X108625000Y-83375000D02*
G01*
X104425000Y-83375000D01*
X104425000Y-79425000D01*
X108625000Y-79425000D01*
X108625000Y-83375000D01*
X108625000Y-83375000D01*
G37*
X108625000Y-83375000D02*
X104425000Y-83375000D01*
X104425000Y-79425000D01*
X108625000Y-79425000D01*
X108625000Y-83375000D01*
M02*
