G04 #@! TF.GenerationSoftware,KiCad,Pcbnew,(5.1.0-0)*
G04 #@! TF.CreationDate,2020-07-10T00:17:45+02:00*
G04 #@! TF.ProjectId,POxiM-fingersensor-PhotoDiodeBoard,504f7869-4d2d-4666-996e-67657273656e,Test proto*
G04 #@! TF.SameCoordinates,Original*
G04 #@! TF.FileFunction,Paste,Top*
G04 #@! TF.FilePolarity,Positive*
%FSLAX46Y46*%
G04 Gerber Fmt 4.6, Leading zero omitted, Abs format (unit mm)*
G04 Created by KiCad (PCBNEW (5.1.0-0)) date 2020-07-10 00:17:45*
%MOMM*%
%LPD*%
G04 APERTURE LIST*
%ADD10C,0.100000*%
%ADD11C,1.650000*%
G04 APERTURE END LIST*
D10*
G36*
X109592830Y-87501239D02*
G01*
X109617816Y-87504946D01*
X109642319Y-87511084D01*
X109666103Y-87519593D01*
X109688938Y-87530393D01*
X109710604Y-87543380D01*
X109730893Y-87558427D01*
X109749609Y-87575391D01*
X109766573Y-87594107D01*
X109781620Y-87614396D01*
X109794607Y-87636062D01*
X109805407Y-87658897D01*
X109813916Y-87682681D01*
X109820054Y-87707184D01*
X109823761Y-87732170D01*
X109825000Y-87757400D01*
X109825000Y-88967600D01*
X109823761Y-88992830D01*
X109820054Y-89017816D01*
X109813916Y-89042319D01*
X109805407Y-89066103D01*
X109794607Y-89088938D01*
X109781620Y-89110604D01*
X109766573Y-89130893D01*
X109749609Y-89149609D01*
X109730893Y-89166573D01*
X109710604Y-89181620D01*
X109688938Y-89194607D01*
X109666103Y-89205407D01*
X109642319Y-89213916D01*
X109617816Y-89220054D01*
X109592830Y-89223761D01*
X109567600Y-89225000D01*
X108432400Y-89225000D01*
X108407170Y-89223761D01*
X108382184Y-89220054D01*
X108357681Y-89213916D01*
X108333897Y-89205407D01*
X108311062Y-89194607D01*
X108289396Y-89181620D01*
X108269107Y-89166573D01*
X108250391Y-89149609D01*
X108233427Y-89130893D01*
X108218380Y-89110604D01*
X108205393Y-89088938D01*
X108194593Y-89066103D01*
X108186084Y-89042319D01*
X108179946Y-89017816D01*
X108176239Y-88992830D01*
X108175000Y-88967600D01*
X108175000Y-87757400D01*
X108176239Y-87732170D01*
X108179946Y-87707184D01*
X108186084Y-87682681D01*
X108194593Y-87658897D01*
X108205393Y-87636062D01*
X108218380Y-87614396D01*
X108233427Y-87594107D01*
X108250391Y-87575391D01*
X108269107Y-87558427D01*
X108289396Y-87543380D01*
X108311062Y-87530393D01*
X108333897Y-87519593D01*
X108357681Y-87511084D01*
X108382184Y-87504946D01*
X108407170Y-87501239D01*
X108432400Y-87500000D01*
X109567600Y-87500000D01*
X109592830Y-87501239D01*
X109592830Y-87501239D01*
G37*
D11*
X109000000Y-88362500D03*
D10*
G36*
X109592830Y-84776239D02*
G01*
X109617816Y-84779946D01*
X109642319Y-84786084D01*
X109666103Y-84794593D01*
X109688938Y-84805393D01*
X109710604Y-84818380D01*
X109730893Y-84833427D01*
X109749609Y-84850391D01*
X109766573Y-84869107D01*
X109781620Y-84889396D01*
X109794607Y-84911062D01*
X109805407Y-84933897D01*
X109813916Y-84957681D01*
X109820054Y-84982184D01*
X109823761Y-85007170D01*
X109825000Y-85032400D01*
X109825000Y-86242600D01*
X109823761Y-86267830D01*
X109820054Y-86292816D01*
X109813916Y-86317319D01*
X109805407Y-86341103D01*
X109794607Y-86363938D01*
X109781620Y-86385604D01*
X109766573Y-86405893D01*
X109749609Y-86424609D01*
X109730893Y-86441573D01*
X109710604Y-86456620D01*
X109688938Y-86469607D01*
X109666103Y-86480407D01*
X109642319Y-86488916D01*
X109617816Y-86495054D01*
X109592830Y-86498761D01*
X109567600Y-86500000D01*
X108432400Y-86500000D01*
X108407170Y-86498761D01*
X108382184Y-86495054D01*
X108357681Y-86488916D01*
X108333897Y-86480407D01*
X108311062Y-86469607D01*
X108289396Y-86456620D01*
X108269107Y-86441573D01*
X108250391Y-86424609D01*
X108233427Y-86405893D01*
X108218380Y-86385604D01*
X108205393Y-86363938D01*
X108194593Y-86341103D01*
X108186084Y-86317319D01*
X108179946Y-86292816D01*
X108176239Y-86267830D01*
X108175000Y-86242600D01*
X108175000Y-85032400D01*
X108176239Y-85007170D01*
X108179946Y-84982184D01*
X108186084Y-84957681D01*
X108194593Y-84933897D01*
X108205393Y-84911062D01*
X108218380Y-84889396D01*
X108233427Y-84869107D01*
X108250391Y-84850391D01*
X108269107Y-84833427D01*
X108289396Y-84818380D01*
X108311062Y-84805393D01*
X108333897Y-84794593D01*
X108357681Y-84786084D01*
X108382184Y-84779946D01*
X108407170Y-84776239D01*
X108432400Y-84775000D01*
X109567600Y-84775000D01*
X109592830Y-84776239D01*
X109592830Y-84776239D01*
G37*
D11*
X109000000Y-85637500D03*
M02*
