G04 #@! TF.GenerationSoftware,KiCad,Pcbnew,(5.1.0-0)*
G04 #@! TF.CreationDate,2020-07-10T00:17:45+02:00*
G04 #@! TF.ProjectId,POxiM-fingersensor-PhotoDiodeBoard,504f7869-4d2d-4666-996e-67657273656e,Test proto*
G04 #@! TF.SameCoordinates,Original*
G04 #@! TF.FileFunction,Legend,Bot*
G04 #@! TF.FilePolarity,Positive*
%FSLAX46Y46*%
G04 Gerber Fmt 4.6, Leading zero omitted, Abs format (unit mm)*
G04 Created by KiCad (PCBNEW (5.1.0-0)) date 2020-07-10 00:17:45*
%MOMM*%
%LPD*%
G04 APERTURE LIST*
%ADD10C,0.010000*%
G04 APERTURE END LIST*
D10*
G36*
X112566099Y-88122038D02*
G01*
X112591610Y-88121569D01*
X112612434Y-88120754D01*
X112629304Y-88119544D01*
X112642952Y-88117887D01*
X112654112Y-88115735D01*
X112663517Y-88113038D01*
X112671900Y-88109746D01*
X112678418Y-88106622D01*
X112700420Y-88091897D01*
X112720516Y-88071970D01*
X112736413Y-88049250D01*
X112740348Y-88041547D01*
X112751321Y-88017792D01*
X112751321Y-86482208D01*
X112740348Y-86458453D01*
X112723796Y-86431418D01*
X112701724Y-86409160D01*
X112675081Y-86392433D01*
X112644819Y-86381991D01*
X112643490Y-86381703D01*
X112631897Y-86380165D01*
X112614334Y-86378974D01*
X112592445Y-86378134D01*
X112567873Y-86377652D01*
X112542263Y-86377532D01*
X112517257Y-86377781D01*
X112494499Y-86378403D01*
X112475632Y-86379405D01*
X112462301Y-86380793D01*
X112460629Y-86381081D01*
X112429617Y-86390709D01*
X112402095Y-86406851D01*
X112378926Y-86428870D01*
X112361978Y-86454180D01*
X112351231Y-86474588D01*
X112350382Y-86667012D01*
X112350255Y-86699622D01*
X112350189Y-86729324D01*
X112350208Y-86756822D01*
X112350331Y-86782818D01*
X112350582Y-86808016D01*
X112350982Y-86833119D01*
X112351552Y-86858829D01*
X112352315Y-86885851D01*
X112353293Y-86914886D01*
X112354506Y-86946638D01*
X112355977Y-86981811D01*
X112357727Y-87021107D01*
X112359779Y-87065229D01*
X112362153Y-87114881D01*
X112364872Y-87170766D01*
X112367828Y-87230948D01*
X112370384Y-87283501D01*
X112372773Y-87333908D01*
X112374975Y-87381647D01*
X112376967Y-87426196D01*
X112378728Y-87467034D01*
X112380238Y-87503638D01*
X112381475Y-87535487D01*
X112382418Y-87562057D01*
X112383045Y-87582827D01*
X112383335Y-87597275D01*
X112383268Y-87604879D01*
X112383107Y-87605939D01*
X112379911Y-87605326D01*
X112376199Y-87599151D01*
X112375904Y-87598402D01*
X112374219Y-87593608D01*
X112370210Y-87581998D01*
X112364011Y-87563967D01*
X112355757Y-87539913D01*
X112345586Y-87510231D01*
X112333631Y-87475317D01*
X112320029Y-87435567D01*
X112304914Y-87391379D01*
X112288423Y-87343147D01*
X112270692Y-87291268D01*
X112251855Y-87236139D01*
X112232048Y-87178155D01*
X112211406Y-87117712D01*
X112190066Y-87055208D01*
X112179197Y-87023366D01*
X112152055Y-86943905D01*
X112127248Y-86871402D01*
X112104683Y-86805592D01*
X112084267Y-86746208D01*
X112065905Y-86692986D01*
X112049504Y-86645660D01*
X112034971Y-86603965D01*
X112022213Y-86567634D01*
X112011135Y-86536404D01*
X112001645Y-86510007D01*
X111993650Y-86488179D01*
X111987055Y-86470654D01*
X111981767Y-86457167D01*
X111977693Y-86447452D01*
X111974739Y-86441244D01*
X111973645Y-86439359D01*
X111955046Y-86417182D01*
X111931381Y-86398773D01*
X111905416Y-86386091D01*
X111896649Y-86383486D01*
X111886390Y-86381619D01*
X111873271Y-86380380D01*
X111855924Y-86379663D01*
X111832981Y-86379359D01*
X111819682Y-86379328D01*
X111795540Y-86379370D01*
X111777579Y-86379611D01*
X111764357Y-86380227D01*
X111754436Y-86381391D01*
X111746375Y-86383278D01*
X111738734Y-86386063D01*
X111730072Y-86389919D01*
X111729291Y-86390280D01*
X111710879Y-86401102D01*
X111692373Y-86415901D01*
X111676040Y-86432585D01*
X111664144Y-86449057D01*
X111662594Y-86451946D01*
X111660752Y-86456765D01*
X111656598Y-86468403D01*
X111650268Y-86486465D01*
X111641897Y-86510553D01*
X111631623Y-86540271D01*
X111619581Y-86575223D01*
X111605908Y-86615010D01*
X111590739Y-86659237D01*
X111574210Y-86707507D01*
X111556459Y-86759423D01*
X111537621Y-86814588D01*
X111517831Y-86872606D01*
X111497227Y-86933080D01*
X111475944Y-86995613D01*
X111465239Y-87027093D01*
X111443719Y-87090353D01*
X111422840Y-87151663D01*
X111402734Y-87210633D01*
X111383536Y-87266874D01*
X111365380Y-87319996D01*
X111348398Y-87369609D01*
X111332726Y-87415323D01*
X111318497Y-87456749D01*
X111305844Y-87493497D01*
X111294901Y-87525177D01*
X111285802Y-87551400D01*
X111278682Y-87571777D01*
X111273673Y-87585916D01*
X111270910Y-87593429D01*
X111270406Y-87594586D01*
X111266355Y-87596736D01*
X111265480Y-87596318D01*
X111265410Y-87592340D01*
X111265701Y-87581259D01*
X111266329Y-87563585D01*
X111267272Y-87539826D01*
X111268507Y-87510490D01*
X111270013Y-87476087D01*
X111271766Y-87437125D01*
X111273745Y-87394112D01*
X111275925Y-87347558D01*
X111278286Y-87297971D01*
X111280805Y-87245860D01*
X111282661Y-87207913D01*
X111285801Y-87143860D01*
X111288573Y-87086761D01*
X111290999Y-87035958D01*
X111293099Y-86990795D01*
X111294895Y-86950615D01*
X111296408Y-86914761D01*
X111297659Y-86882574D01*
X111298668Y-86853400D01*
X111299459Y-86826579D01*
X111300050Y-86801456D01*
X111300465Y-86777374D01*
X111300723Y-86753674D01*
X111300845Y-86729701D01*
X111300854Y-86704797D01*
X111300770Y-86678305D01*
X111300616Y-86649865D01*
X111300358Y-86609223D01*
X111300102Y-86575474D01*
X111299812Y-86547892D01*
X111299451Y-86525748D01*
X111298984Y-86508316D01*
X111298373Y-86494870D01*
X111297582Y-86484680D01*
X111296576Y-86477021D01*
X111295316Y-86471165D01*
X111293767Y-86466385D01*
X111291892Y-86461953D01*
X111291113Y-86460265D01*
X111280195Y-86442076D01*
X111265047Y-86423667D01*
X111247896Y-86407394D01*
X111230970Y-86395618D01*
X111229149Y-86394663D01*
X111214560Y-86388528D01*
X111197970Y-86383225D01*
X111191735Y-86381707D01*
X111180971Y-86380328D01*
X111164177Y-86379256D01*
X111142940Y-86378495D01*
X111118843Y-86378047D01*
X111093473Y-86377914D01*
X111068414Y-86378101D01*
X111045252Y-86378608D01*
X111025572Y-86379440D01*
X111010959Y-86380598D01*
X111005614Y-86381384D01*
X110978510Y-86390378D01*
X110952975Y-86405652D01*
X110930702Y-86425868D01*
X110913387Y-86449685D01*
X110909361Y-86457441D01*
X110899475Y-86478398D01*
X110899475Y-88021602D01*
X110909361Y-88042559D01*
X110925457Y-88068065D01*
X110947594Y-88090072D01*
X110974548Y-88107392D01*
X110977588Y-88108881D01*
X111002356Y-88120672D01*
X111179538Y-88120672D01*
X111220870Y-88120666D01*
X111255307Y-88120625D01*
X111283573Y-88120518D01*
X111306393Y-88120313D01*
X111324493Y-88119978D01*
X111338598Y-88119480D01*
X111349432Y-88118788D01*
X111357722Y-88117870D01*
X111364191Y-88116693D01*
X111369566Y-88115227D01*
X111374570Y-88113438D01*
X111378447Y-88111894D01*
X111401285Y-88099598D01*
X111422374Y-88082605D01*
X111439528Y-88062896D01*
X111447784Y-88049047D01*
X111449650Y-88043985D01*
X111453662Y-88032201D01*
X111459669Y-88014171D01*
X111467516Y-87990371D01*
X111477050Y-87961277D01*
X111488119Y-87927366D01*
X111500569Y-87889112D01*
X111514247Y-87846993D01*
X111528999Y-87801485D01*
X111544673Y-87753063D01*
X111561115Y-87702203D01*
X111578173Y-87649382D01*
X111595692Y-87595076D01*
X111613520Y-87539760D01*
X111631503Y-87483912D01*
X111649488Y-87428006D01*
X111667323Y-87372519D01*
X111684853Y-87317927D01*
X111701926Y-87264706D01*
X111718389Y-87213332D01*
X111734088Y-87164282D01*
X111748870Y-87118031D01*
X111762581Y-87075055D01*
X111775070Y-87035830D01*
X111786182Y-87000833D01*
X111795764Y-86970540D01*
X111803663Y-86945426D01*
X111809726Y-86925968D01*
X111813800Y-86912642D01*
X111815731Y-86905923D01*
X111815872Y-86905222D01*
X111818910Y-86903395D01*
X111820635Y-86903264D01*
X111822452Y-86906864D01*
X111826511Y-86917536D01*
X111832750Y-86935087D01*
X111841103Y-86959325D01*
X111851509Y-86990058D01*
X111863902Y-87027093D01*
X111878219Y-87070238D01*
X111894396Y-87119302D01*
X111912371Y-87174091D01*
X111932078Y-87234415D01*
X111953454Y-87300080D01*
X111976436Y-87370894D01*
X112000960Y-87446666D01*
X112006056Y-87462437D01*
X112026602Y-87525964D01*
X112046628Y-87587758D01*
X112065999Y-87647407D01*
X112084579Y-87704495D01*
X112102232Y-87758611D01*
X112118822Y-87809340D01*
X112134214Y-87856271D01*
X112148271Y-87898988D01*
X112160857Y-87937079D01*
X112171837Y-87970130D01*
X112181075Y-87997729D01*
X112188435Y-88019461D01*
X112193781Y-88034914D01*
X112196977Y-88043674D01*
X112197574Y-88045105D01*
X112212931Y-88069801D01*
X112233994Y-88091162D01*
X112259043Y-88107571D01*
X112268539Y-88111887D01*
X112273981Y-88114010D01*
X112279321Y-88115766D01*
X112285323Y-88117196D01*
X112292747Y-88118341D01*
X112302357Y-88119243D01*
X112314916Y-88119941D01*
X112331185Y-88120478D01*
X112351927Y-88120894D01*
X112377905Y-88121230D01*
X112409880Y-88121527D01*
X112448616Y-88121826D01*
X112454111Y-88121867D01*
X112498082Y-88122137D01*
X112535167Y-88122211D01*
X112566099Y-88122038D01*
X112566099Y-88122038D01*
G37*
X112566099Y-88122038D02*
X112591610Y-88121569D01*
X112612434Y-88120754D01*
X112629304Y-88119544D01*
X112642952Y-88117887D01*
X112654112Y-88115735D01*
X112663517Y-88113038D01*
X112671900Y-88109746D01*
X112678418Y-88106622D01*
X112700420Y-88091897D01*
X112720516Y-88071970D01*
X112736413Y-88049250D01*
X112740348Y-88041547D01*
X112751321Y-88017792D01*
X112751321Y-86482208D01*
X112740348Y-86458453D01*
X112723796Y-86431418D01*
X112701724Y-86409160D01*
X112675081Y-86392433D01*
X112644819Y-86381991D01*
X112643490Y-86381703D01*
X112631897Y-86380165D01*
X112614334Y-86378974D01*
X112592445Y-86378134D01*
X112567873Y-86377652D01*
X112542263Y-86377532D01*
X112517257Y-86377781D01*
X112494499Y-86378403D01*
X112475632Y-86379405D01*
X112462301Y-86380793D01*
X112460629Y-86381081D01*
X112429617Y-86390709D01*
X112402095Y-86406851D01*
X112378926Y-86428870D01*
X112361978Y-86454180D01*
X112351231Y-86474588D01*
X112350382Y-86667012D01*
X112350255Y-86699622D01*
X112350189Y-86729324D01*
X112350208Y-86756822D01*
X112350331Y-86782818D01*
X112350582Y-86808016D01*
X112350982Y-86833119D01*
X112351552Y-86858829D01*
X112352315Y-86885851D01*
X112353293Y-86914886D01*
X112354506Y-86946638D01*
X112355977Y-86981811D01*
X112357727Y-87021107D01*
X112359779Y-87065229D01*
X112362153Y-87114881D01*
X112364872Y-87170766D01*
X112367828Y-87230948D01*
X112370384Y-87283501D01*
X112372773Y-87333908D01*
X112374975Y-87381647D01*
X112376967Y-87426196D01*
X112378728Y-87467034D01*
X112380238Y-87503638D01*
X112381475Y-87535487D01*
X112382418Y-87562057D01*
X112383045Y-87582827D01*
X112383335Y-87597275D01*
X112383268Y-87604879D01*
X112383107Y-87605939D01*
X112379911Y-87605326D01*
X112376199Y-87599151D01*
X112375904Y-87598402D01*
X112374219Y-87593608D01*
X112370210Y-87581998D01*
X112364011Y-87563967D01*
X112355757Y-87539913D01*
X112345586Y-87510231D01*
X112333631Y-87475317D01*
X112320029Y-87435567D01*
X112304914Y-87391379D01*
X112288423Y-87343147D01*
X112270692Y-87291268D01*
X112251855Y-87236139D01*
X112232048Y-87178155D01*
X112211406Y-87117712D01*
X112190066Y-87055208D01*
X112179197Y-87023366D01*
X112152055Y-86943905D01*
X112127248Y-86871402D01*
X112104683Y-86805592D01*
X112084267Y-86746208D01*
X112065905Y-86692986D01*
X112049504Y-86645660D01*
X112034971Y-86603965D01*
X112022213Y-86567634D01*
X112011135Y-86536404D01*
X112001645Y-86510007D01*
X111993650Y-86488179D01*
X111987055Y-86470654D01*
X111981767Y-86457167D01*
X111977693Y-86447452D01*
X111974739Y-86441244D01*
X111973645Y-86439359D01*
X111955046Y-86417182D01*
X111931381Y-86398773D01*
X111905416Y-86386091D01*
X111896649Y-86383486D01*
X111886390Y-86381619D01*
X111873271Y-86380380D01*
X111855924Y-86379663D01*
X111832981Y-86379359D01*
X111819682Y-86379328D01*
X111795540Y-86379370D01*
X111777579Y-86379611D01*
X111764357Y-86380227D01*
X111754436Y-86381391D01*
X111746375Y-86383278D01*
X111738734Y-86386063D01*
X111730072Y-86389919D01*
X111729291Y-86390280D01*
X111710879Y-86401102D01*
X111692373Y-86415901D01*
X111676040Y-86432585D01*
X111664144Y-86449057D01*
X111662594Y-86451946D01*
X111660752Y-86456765D01*
X111656598Y-86468403D01*
X111650268Y-86486465D01*
X111641897Y-86510553D01*
X111631623Y-86540271D01*
X111619581Y-86575223D01*
X111605908Y-86615010D01*
X111590739Y-86659237D01*
X111574210Y-86707507D01*
X111556459Y-86759423D01*
X111537621Y-86814588D01*
X111517831Y-86872606D01*
X111497227Y-86933080D01*
X111475944Y-86995613D01*
X111465239Y-87027093D01*
X111443719Y-87090353D01*
X111422840Y-87151663D01*
X111402734Y-87210633D01*
X111383536Y-87266874D01*
X111365380Y-87319996D01*
X111348398Y-87369609D01*
X111332726Y-87415323D01*
X111318497Y-87456749D01*
X111305844Y-87493497D01*
X111294901Y-87525177D01*
X111285802Y-87551400D01*
X111278682Y-87571777D01*
X111273673Y-87585916D01*
X111270910Y-87593429D01*
X111270406Y-87594586D01*
X111266355Y-87596736D01*
X111265480Y-87596318D01*
X111265410Y-87592340D01*
X111265701Y-87581259D01*
X111266329Y-87563585D01*
X111267272Y-87539826D01*
X111268507Y-87510490D01*
X111270013Y-87476087D01*
X111271766Y-87437125D01*
X111273745Y-87394112D01*
X111275925Y-87347558D01*
X111278286Y-87297971D01*
X111280805Y-87245860D01*
X111282661Y-87207913D01*
X111285801Y-87143860D01*
X111288573Y-87086761D01*
X111290999Y-87035958D01*
X111293099Y-86990795D01*
X111294895Y-86950615D01*
X111296408Y-86914761D01*
X111297659Y-86882574D01*
X111298668Y-86853400D01*
X111299459Y-86826579D01*
X111300050Y-86801456D01*
X111300465Y-86777374D01*
X111300723Y-86753674D01*
X111300845Y-86729701D01*
X111300854Y-86704797D01*
X111300770Y-86678305D01*
X111300616Y-86649865D01*
X111300358Y-86609223D01*
X111300102Y-86575474D01*
X111299812Y-86547892D01*
X111299451Y-86525748D01*
X111298984Y-86508316D01*
X111298373Y-86494870D01*
X111297582Y-86484680D01*
X111296576Y-86477021D01*
X111295316Y-86471165D01*
X111293767Y-86466385D01*
X111291892Y-86461953D01*
X111291113Y-86460265D01*
X111280195Y-86442076D01*
X111265047Y-86423667D01*
X111247896Y-86407394D01*
X111230970Y-86395618D01*
X111229149Y-86394663D01*
X111214560Y-86388528D01*
X111197970Y-86383225D01*
X111191735Y-86381707D01*
X111180971Y-86380328D01*
X111164177Y-86379256D01*
X111142940Y-86378495D01*
X111118843Y-86378047D01*
X111093473Y-86377914D01*
X111068414Y-86378101D01*
X111045252Y-86378608D01*
X111025572Y-86379440D01*
X111010959Y-86380598D01*
X111005614Y-86381384D01*
X110978510Y-86390378D01*
X110952975Y-86405652D01*
X110930702Y-86425868D01*
X110913387Y-86449685D01*
X110909361Y-86457441D01*
X110899475Y-86478398D01*
X110899475Y-88021602D01*
X110909361Y-88042559D01*
X110925457Y-88068065D01*
X110947594Y-88090072D01*
X110974548Y-88107392D01*
X110977588Y-88108881D01*
X111002356Y-88120672D01*
X111179538Y-88120672D01*
X111220870Y-88120666D01*
X111255307Y-88120625D01*
X111283573Y-88120518D01*
X111306393Y-88120313D01*
X111324493Y-88119978D01*
X111338598Y-88119480D01*
X111349432Y-88118788D01*
X111357722Y-88117870D01*
X111364191Y-88116693D01*
X111369566Y-88115227D01*
X111374570Y-88113438D01*
X111378447Y-88111894D01*
X111401285Y-88099598D01*
X111422374Y-88082605D01*
X111439528Y-88062896D01*
X111447784Y-88049047D01*
X111449650Y-88043985D01*
X111453662Y-88032201D01*
X111459669Y-88014171D01*
X111467516Y-87990371D01*
X111477050Y-87961277D01*
X111488119Y-87927366D01*
X111500569Y-87889112D01*
X111514247Y-87846993D01*
X111528999Y-87801485D01*
X111544673Y-87753063D01*
X111561115Y-87702203D01*
X111578173Y-87649382D01*
X111595692Y-87595076D01*
X111613520Y-87539760D01*
X111631503Y-87483912D01*
X111649488Y-87428006D01*
X111667323Y-87372519D01*
X111684853Y-87317927D01*
X111701926Y-87264706D01*
X111718389Y-87213332D01*
X111734088Y-87164282D01*
X111748870Y-87118031D01*
X111762581Y-87075055D01*
X111775070Y-87035830D01*
X111786182Y-87000833D01*
X111795764Y-86970540D01*
X111803663Y-86945426D01*
X111809726Y-86925968D01*
X111813800Y-86912642D01*
X111815731Y-86905923D01*
X111815872Y-86905222D01*
X111818910Y-86903395D01*
X111820635Y-86903264D01*
X111822452Y-86906864D01*
X111826511Y-86917536D01*
X111832750Y-86935087D01*
X111841103Y-86959325D01*
X111851509Y-86990058D01*
X111863902Y-87027093D01*
X111878219Y-87070238D01*
X111894396Y-87119302D01*
X111912371Y-87174091D01*
X111932078Y-87234415D01*
X111953454Y-87300080D01*
X111976436Y-87370894D01*
X112000960Y-87446666D01*
X112006056Y-87462437D01*
X112026602Y-87525964D01*
X112046628Y-87587758D01*
X112065999Y-87647407D01*
X112084579Y-87704495D01*
X112102232Y-87758611D01*
X112118822Y-87809340D01*
X112134214Y-87856271D01*
X112148271Y-87898988D01*
X112160857Y-87937079D01*
X112171837Y-87970130D01*
X112181075Y-87997729D01*
X112188435Y-88019461D01*
X112193781Y-88034914D01*
X112196977Y-88043674D01*
X112197574Y-88045105D01*
X112212931Y-88069801D01*
X112233994Y-88091162D01*
X112259043Y-88107571D01*
X112268539Y-88111887D01*
X112273981Y-88114010D01*
X112279321Y-88115766D01*
X112285323Y-88117196D01*
X112292747Y-88118341D01*
X112302357Y-88119243D01*
X112314916Y-88119941D01*
X112331185Y-88120478D01*
X112351927Y-88120894D01*
X112377905Y-88121230D01*
X112409880Y-88121527D01*
X112448616Y-88121826D01*
X112454111Y-88121867D01*
X112498082Y-88122137D01*
X112535167Y-88122211D01*
X112566099Y-88122038D01*
G36*
X110265978Y-87517674D02*
G01*
X110407984Y-87375732D01*
X110501315Y-87469345D01*
X110525675Y-87493691D01*
X110550517Y-87518362D01*
X110574776Y-87542310D01*
X110597384Y-87564486D01*
X110617276Y-87583843D01*
X110633386Y-87599335D01*
X110639465Y-87605092D01*
X110684284Y-87647228D01*
X110682284Y-86478398D01*
X110673831Y-86460265D01*
X110662913Y-86442076D01*
X110647765Y-86423667D01*
X110630614Y-86407394D01*
X110613688Y-86395618D01*
X110611867Y-86394663D01*
X110603217Y-86390571D01*
X110594472Y-86387178D01*
X110584850Y-86384422D01*
X110573567Y-86382239D01*
X110559837Y-86380567D01*
X110542878Y-86379342D01*
X110521904Y-86378500D01*
X110496133Y-86377980D01*
X110464779Y-86377717D01*
X110427058Y-86377648D01*
X110401081Y-86377674D01*
X110360482Y-86377793D01*
X110326780Y-86378023D01*
X110299248Y-86378388D01*
X110277162Y-86378912D01*
X110259799Y-86379620D01*
X110246432Y-86380536D01*
X110236337Y-86381684D01*
X110228791Y-86383089D01*
X110227036Y-86383531D01*
X110196919Y-86395359D01*
X110170987Y-86413224D01*
X110149996Y-86436462D01*
X110134706Y-86464408D01*
X110134668Y-86464501D01*
X110125968Y-86486019D01*
X110124969Y-87072818D01*
X110123971Y-87659616D01*
X110265978Y-87517674D01*
X110265978Y-87517674D01*
G37*
X110265978Y-87517674D02*
X110407984Y-87375732D01*
X110501315Y-87469345D01*
X110525675Y-87493691D01*
X110550517Y-87518362D01*
X110574776Y-87542310D01*
X110597384Y-87564486D01*
X110617276Y-87583843D01*
X110633386Y-87599335D01*
X110639465Y-87605092D01*
X110684284Y-87647228D01*
X110682284Y-86478398D01*
X110673831Y-86460265D01*
X110662913Y-86442076D01*
X110647765Y-86423667D01*
X110630614Y-86407394D01*
X110613688Y-86395618D01*
X110611867Y-86394663D01*
X110603217Y-86390571D01*
X110594472Y-86387178D01*
X110584850Y-86384422D01*
X110573567Y-86382239D01*
X110559837Y-86380567D01*
X110542878Y-86379342D01*
X110521904Y-86378500D01*
X110496133Y-86377980D01*
X110464779Y-86377717D01*
X110427058Y-86377648D01*
X110401081Y-86377674D01*
X110360482Y-86377793D01*
X110326780Y-86378023D01*
X110299248Y-86378388D01*
X110277162Y-86378912D01*
X110259799Y-86379620D01*
X110246432Y-86380536D01*
X110236337Y-86381684D01*
X110228791Y-86383089D01*
X110227036Y-86383531D01*
X110196919Y-86395359D01*
X110170987Y-86413224D01*
X110149996Y-86436462D01*
X110134706Y-86464408D01*
X110134668Y-86464501D01*
X110125968Y-86486019D01*
X110124969Y-87072818D01*
X110123971Y-87659616D01*
X110265978Y-87517674D01*
G36*
X109717183Y-88110460D02*
G01*
X109743940Y-88094198D01*
X109766747Y-88072880D01*
X109784047Y-88048035D01*
X109787286Y-88041547D01*
X109793042Y-88027821D01*
X109796379Y-88015648D01*
X109797912Y-88001878D01*
X109798258Y-87985404D01*
X109797905Y-87967978D01*
X109796391Y-87955041D01*
X109793069Y-87943480D01*
X109787292Y-87930180D01*
X109786368Y-87928248D01*
X109782782Y-87921450D01*
X109775655Y-87908552D01*
X109765270Y-87890044D01*
X109751907Y-87866421D01*
X109735847Y-87838174D01*
X109717372Y-87805797D01*
X109696763Y-87769780D01*
X109674301Y-87730618D01*
X109650267Y-87688802D01*
X109624943Y-87644825D01*
X109598609Y-87599179D01*
X109587714Y-87580319D01*
X109400967Y-87257157D01*
X109611368Y-86913055D01*
X109644889Y-86858142D01*
X109676143Y-86806758D01*
X109704956Y-86759197D01*
X109731154Y-86715750D01*
X109754562Y-86676712D01*
X109775007Y-86642374D01*
X109792313Y-86613030D01*
X109806306Y-86588973D01*
X109816812Y-86570496D01*
X109823657Y-86557891D01*
X109826666Y-86551452D01*
X109826716Y-86551284D01*
X109829491Y-86534854D01*
X109830218Y-86514415D01*
X109829849Y-86505348D01*
X109824269Y-86473655D01*
X109811990Y-86445424D01*
X109793298Y-86421066D01*
X109768478Y-86400992D01*
X109750646Y-86391120D01*
X109725878Y-86379328D01*
X109628899Y-86378031D01*
X109592646Y-86377711D01*
X109563000Y-86377893D01*
X109538958Y-86378683D01*
X109519517Y-86380189D01*
X109503673Y-86382519D01*
X109490424Y-86385780D01*
X109478766Y-86390080D01*
X109468152Y-86395278D01*
X109462130Y-86398578D01*
X109456555Y-86401891D01*
X109451219Y-86405586D01*
X109445916Y-86410036D01*
X109440438Y-86415610D01*
X109434579Y-86422679D01*
X109428130Y-86431614D01*
X109420886Y-86442785D01*
X109412638Y-86456563D01*
X109403181Y-86473318D01*
X109392306Y-86493421D01*
X109379806Y-86517243D01*
X109365475Y-86545154D01*
X109349106Y-86577524D01*
X109330491Y-86614725D01*
X109309423Y-86657127D01*
X109285695Y-86705100D01*
X109259100Y-86759016D01*
X109229431Y-86819244D01*
X109216206Y-86846100D01*
X109151472Y-86977558D01*
X109017076Y-86706918D01*
X108991526Y-86655469D01*
X108969099Y-86610386D01*
X108949518Y-86571212D01*
X108932505Y-86537493D01*
X108917784Y-86508772D01*
X108905076Y-86484595D01*
X108894105Y-86464506D01*
X108884593Y-86448050D01*
X108876263Y-86434772D01*
X108868837Y-86424216D01*
X108862039Y-86415928D01*
X108855591Y-86409451D01*
X108849215Y-86404331D01*
X108842634Y-86400112D01*
X108835572Y-86396340D01*
X108827750Y-86392558D01*
X108824723Y-86391120D01*
X108799955Y-86379328D01*
X108706601Y-86378626D01*
X108679662Y-86378567D01*
X108654361Y-86378783D01*
X108631989Y-86379239D01*
X108613835Y-86379905D01*
X108601190Y-86380748D01*
X108596602Y-86381362D01*
X108568157Y-86390997D01*
X108542204Y-86407128D01*
X108520044Y-86428722D01*
X108502976Y-86454748D01*
X108502220Y-86456270D01*
X108494028Y-86479423D01*
X108489927Y-86505407D01*
X108490086Y-86531428D01*
X108494676Y-86554697D01*
X108496000Y-86558416D01*
X108498924Y-86564322D01*
X108505431Y-86576334D01*
X108515251Y-86593983D01*
X108528116Y-86616800D01*
X108543757Y-86644314D01*
X108561905Y-86676057D01*
X108582291Y-86711558D01*
X108604647Y-86750349D01*
X108628703Y-86791959D01*
X108654191Y-86835920D01*
X108680841Y-86881761D01*
X108698916Y-86912782D01*
X108726023Y-86959297D01*
X108752049Y-87004021D01*
X108776735Y-87046505D01*
X108799823Y-87086302D01*
X108821056Y-87122966D01*
X108840174Y-87156049D01*
X108856919Y-87185104D01*
X108871034Y-87209684D01*
X108882260Y-87229342D01*
X108890340Y-87243630D01*
X108895014Y-87252102D01*
X108896123Y-87254338D01*
X108894491Y-87258489D01*
X108889256Y-87268815D01*
X108880646Y-87284909D01*
X108868894Y-87306358D01*
X108854228Y-87332755D01*
X108836879Y-87363688D01*
X108817078Y-87398748D01*
X108795055Y-87437526D01*
X108771040Y-87479610D01*
X108745263Y-87524593D01*
X108717954Y-87572063D01*
X108705167Y-87594231D01*
X108678214Y-87640999D01*
X108652258Y-87686199D01*
X108627565Y-87729356D01*
X108604401Y-87769999D01*
X108583033Y-87807654D01*
X108563728Y-87841849D01*
X108546752Y-87872109D01*
X108532372Y-87897962D01*
X108520854Y-87918935D01*
X108512465Y-87934555D01*
X108507472Y-87944349D01*
X108506203Y-87947276D01*
X108501977Y-87968947D01*
X108501593Y-87993818D01*
X108504866Y-88018620D01*
X108511441Y-88039705D01*
X108523968Y-88060721D01*
X108541788Y-88081039D01*
X108562719Y-88098488D01*
X108581916Y-88109721D01*
X108605626Y-88120672D01*
X108706601Y-88120594D01*
X108738098Y-88120507D01*
X108762956Y-88120262D01*
X108782155Y-88119804D01*
X108796678Y-88119080D01*
X108807506Y-88118035D01*
X108815619Y-88116615D01*
X108821998Y-88114764D01*
X108823812Y-88114081D01*
X108845334Y-88103346D01*
X108865428Y-88089359D01*
X108881453Y-88074044D01*
X108885173Y-88069340D01*
X108888499Y-88063603D01*
X108894823Y-88051560D01*
X108903861Y-88033787D01*
X108915330Y-88010856D01*
X108928947Y-87983341D01*
X108944430Y-87951817D01*
X108961496Y-87916857D01*
X108979862Y-87879034D01*
X108999244Y-87838923D01*
X109018840Y-87798183D01*
X109038731Y-87756767D01*
X109057695Y-87717345D01*
X109075470Y-87680457D01*
X109091795Y-87646643D01*
X109106406Y-87616443D01*
X109119043Y-87590399D01*
X109129444Y-87569050D01*
X109137346Y-87552938D01*
X109142489Y-87542603D01*
X109144609Y-87538584D01*
X109144623Y-87538568D01*
X109146659Y-87541437D01*
X109151751Y-87550649D01*
X109159640Y-87565687D01*
X109170063Y-87586032D01*
X109182763Y-87611166D01*
X109197477Y-87640572D01*
X109213947Y-87673730D01*
X109231911Y-87710124D01*
X109251110Y-87749235D01*
X109271284Y-87790544D01*
X109274607Y-87797370D01*
X109298347Y-87846122D01*
X109319024Y-87888507D01*
X109336897Y-87925018D01*
X109352223Y-87956146D01*
X109365261Y-87982384D01*
X109376269Y-88004224D01*
X109385507Y-88022158D01*
X109393233Y-88036679D01*
X109399704Y-88048277D01*
X109405179Y-88057447D01*
X109409917Y-88064679D01*
X109414176Y-88070466D01*
X109418215Y-88075300D01*
X109422291Y-88079673D01*
X109423468Y-88080875D01*
X109444479Y-88099080D01*
X109465856Y-88111072D01*
X109467287Y-88111662D01*
X109474253Y-88114355D01*
X109480875Y-88116451D01*
X109488196Y-88118024D01*
X109497257Y-88119148D01*
X109509097Y-88119900D01*
X109524760Y-88120353D01*
X109545285Y-88120582D01*
X109571715Y-88120664D01*
X109592515Y-88120672D01*
X109695395Y-88120672D01*
X109717183Y-88110460D01*
X109717183Y-88110460D01*
G37*
X109717183Y-88110460D02*
X109743940Y-88094198D01*
X109766747Y-88072880D01*
X109784047Y-88048035D01*
X109787286Y-88041547D01*
X109793042Y-88027821D01*
X109796379Y-88015648D01*
X109797912Y-88001878D01*
X109798258Y-87985404D01*
X109797905Y-87967978D01*
X109796391Y-87955041D01*
X109793069Y-87943480D01*
X109787292Y-87930180D01*
X109786368Y-87928248D01*
X109782782Y-87921450D01*
X109775655Y-87908552D01*
X109765270Y-87890044D01*
X109751907Y-87866421D01*
X109735847Y-87838174D01*
X109717372Y-87805797D01*
X109696763Y-87769780D01*
X109674301Y-87730618D01*
X109650267Y-87688802D01*
X109624943Y-87644825D01*
X109598609Y-87599179D01*
X109587714Y-87580319D01*
X109400967Y-87257157D01*
X109611368Y-86913055D01*
X109644889Y-86858142D01*
X109676143Y-86806758D01*
X109704956Y-86759197D01*
X109731154Y-86715750D01*
X109754562Y-86676712D01*
X109775007Y-86642374D01*
X109792313Y-86613030D01*
X109806306Y-86588973D01*
X109816812Y-86570496D01*
X109823657Y-86557891D01*
X109826666Y-86551452D01*
X109826716Y-86551284D01*
X109829491Y-86534854D01*
X109830218Y-86514415D01*
X109829849Y-86505348D01*
X109824269Y-86473655D01*
X109811990Y-86445424D01*
X109793298Y-86421066D01*
X109768478Y-86400992D01*
X109750646Y-86391120D01*
X109725878Y-86379328D01*
X109628899Y-86378031D01*
X109592646Y-86377711D01*
X109563000Y-86377893D01*
X109538958Y-86378683D01*
X109519517Y-86380189D01*
X109503673Y-86382519D01*
X109490424Y-86385780D01*
X109478766Y-86390080D01*
X109468152Y-86395278D01*
X109462130Y-86398578D01*
X109456555Y-86401891D01*
X109451219Y-86405586D01*
X109445916Y-86410036D01*
X109440438Y-86415610D01*
X109434579Y-86422679D01*
X109428130Y-86431614D01*
X109420886Y-86442785D01*
X109412638Y-86456563D01*
X109403181Y-86473318D01*
X109392306Y-86493421D01*
X109379806Y-86517243D01*
X109365475Y-86545154D01*
X109349106Y-86577524D01*
X109330491Y-86614725D01*
X109309423Y-86657127D01*
X109285695Y-86705100D01*
X109259100Y-86759016D01*
X109229431Y-86819244D01*
X109216206Y-86846100D01*
X109151472Y-86977558D01*
X109017076Y-86706918D01*
X108991526Y-86655469D01*
X108969099Y-86610386D01*
X108949518Y-86571212D01*
X108932505Y-86537493D01*
X108917784Y-86508772D01*
X108905076Y-86484595D01*
X108894105Y-86464506D01*
X108884593Y-86448050D01*
X108876263Y-86434772D01*
X108868837Y-86424216D01*
X108862039Y-86415928D01*
X108855591Y-86409451D01*
X108849215Y-86404331D01*
X108842634Y-86400112D01*
X108835572Y-86396340D01*
X108827750Y-86392558D01*
X108824723Y-86391120D01*
X108799955Y-86379328D01*
X108706601Y-86378626D01*
X108679662Y-86378567D01*
X108654361Y-86378783D01*
X108631989Y-86379239D01*
X108613835Y-86379905D01*
X108601190Y-86380748D01*
X108596602Y-86381362D01*
X108568157Y-86390997D01*
X108542204Y-86407128D01*
X108520044Y-86428722D01*
X108502976Y-86454748D01*
X108502220Y-86456270D01*
X108494028Y-86479423D01*
X108489927Y-86505407D01*
X108490086Y-86531428D01*
X108494676Y-86554697D01*
X108496000Y-86558416D01*
X108498924Y-86564322D01*
X108505431Y-86576334D01*
X108515251Y-86593983D01*
X108528116Y-86616800D01*
X108543757Y-86644314D01*
X108561905Y-86676057D01*
X108582291Y-86711558D01*
X108604647Y-86750349D01*
X108628703Y-86791959D01*
X108654191Y-86835920D01*
X108680841Y-86881761D01*
X108698916Y-86912782D01*
X108726023Y-86959297D01*
X108752049Y-87004021D01*
X108776735Y-87046505D01*
X108799823Y-87086302D01*
X108821056Y-87122966D01*
X108840174Y-87156049D01*
X108856919Y-87185104D01*
X108871034Y-87209684D01*
X108882260Y-87229342D01*
X108890340Y-87243630D01*
X108895014Y-87252102D01*
X108896123Y-87254338D01*
X108894491Y-87258489D01*
X108889256Y-87268815D01*
X108880646Y-87284909D01*
X108868894Y-87306358D01*
X108854228Y-87332755D01*
X108836879Y-87363688D01*
X108817078Y-87398748D01*
X108795055Y-87437526D01*
X108771040Y-87479610D01*
X108745263Y-87524593D01*
X108717954Y-87572063D01*
X108705167Y-87594231D01*
X108678214Y-87640999D01*
X108652258Y-87686199D01*
X108627565Y-87729356D01*
X108604401Y-87769999D01*
X108583033Y-87807654D01*
X108563728Y-87841849D01*
X108546752Y-87872109D01*
X108532372Y-87897962D01*
X108520854Y-87918935D01*
X108512465Y-87934555D01*
X108507472Y-87944349D01*
X108506203Y-87947276D01*
X108501977Y-87968947D01*
X108501593Y-87993818D01*
X108504866Y-88018620D01*
X108511441Y-88039705D01*
X108523968Y-88060721D01*
X108541788Y-88081039D01*
X108562719Y-88098488D01*
X108581916Y-88109721D01*
X108605626Y-88120672D01*
X108706601Y-88120594D01*
X108738098Y-88120507D01*
X108762956Y-88120262D01*
X108782155Y-88119804D01*
X108796678Y-88119080D01*
X108807506Y-88118035D01*
X108815619Y-88116615D01*
X108821998Y-88114764D01*
X108823812Y-88114081D01*
X108845334Y-88103346D01*
X108865428Y-88089359D01*
X108881453Y-88074044D01*
X108885173Y-88069340D01*
X108888499Y-88063603D01*
X108894823Y-88051560D01*
X108903861Y-88033787D01*
X108915330Y-88010856D01*
X108928947Y-87983341D01*
X108944430Y-87951817D01*
X108961496Y-87916857D01*
X108979862Y-87879034D01*
X108999244Y-87838923D01*
X109018840Y-87798183D01*
X109038731Y-87756767D01*
X109057695Y-87717345D01*
X109075470Y-87680457D01*
X109091795Y-87646643D01*
X109106406Y-87616443D01*
X109119043Y-87590399D01*
X109129444Y-87569050D01*
X109137346Y-87552938D01*
X109142489Y-87542603D01*
X109144609Y-87538584D01*
X109144623Y-87538568D01*
X109146659Y-87541437D01*
X109151751Y-87550649D01*
X109159640Y-87565687D01*
X109170063Y-87586032D01*
X109182763Y-87611166D01*
X109197477Y-87640572D01*
X109213947Y-87673730D01*
X109231911Y-87710124D01*
X109251110Y-87749235D01*
X109271284Y-87790544D01*
X109274607Y-87797370D01*
X109298347Y-87846122D01*
X109319024Y-87888507D01*
X109336897Y-87925018D01*
X109352223Y-87956146D01*
X109365261Y-87982384D01*
X109376269Y-88004224D01*
X109385507Y-88022158D01*
X109393233Y-88036679D01*
X109399704Y-88048277D01*
X109405179Y-88057447D01*
X109409917Y-88064679D01*
X109414176Y-88070466D01*
X109418215Y-88075300D01*
X109422291Y-88079673D01*
X109423468Y-88080875D01*
X109444479Y-88099080D01*
X109465856Y-88111072D01*
X109467287Y-88111662D01*
X109474253Y-88114355D01*
X109480875Y-88116451D01*
X109488196Y-88118024D01*
X109497257Y-88119148D01*
X109509097Y-88119900D01*
X109524760Y-88120353D01*
X109545285Y-88120582D01*
X109571715Y-88120664D01*
X109592515Y-88120672D01*
X109695395Y-88120672D01*
X109717183Y-88110460D01*
G36*
X107605445Y-88121167D02*
G01*
X107682389Y-88114336D01*
X107756079Y-88100769D01*
X107826380Y-88080519D01*
X107893156Y-88053641D01*
X107956271Y-88020186D01*
X108015590Y-87980210D01*
X108070977Y-87933765D01*
X108115164Y-87888907D01*
X108161082Y-87832538D01*
X108200470Y-87772258D01*
X108233302Y-87708132D01*
X108259548Y-87640223D01*
X108279183Y-87568599D01*
X108292177Y-87493322D01*
X108294840Y-87469388D01*
X108295836Y-87454775D01*
X108296687Y-87433574D01*
X108297393Y-87406819D01*
X108297955Y-87375541D01*
X108298371Y-87340773D01*
X108298644Y-87303547D01*
X108298771Y-87264895D01*
X108298754Y-87225849D01*
X108298592Y-87187442D01*
X108298286Y-87150707D01*
X108297834Y-87116674D01*
X108297238Y-87086377D01*
X108296498Y-87060848D01*
X108295612Y-87041119D01*
X108294840Y-87030613D01*
X108283895Y-86953577D01*
X108266431Y-86880482D01*
X108242432Y-86811300D01*
X108211886Y-86746004D01*
X108174779Y-86684566D01*
X108131097Y-86626961D01*
X108080827Y-86573160D01*
X108052111Y-86546707D01*
X107998301Y-86504584D01*
X107939828Y-86468292D01*
X107877056Y-86437932D01*
X107810347Y-86413608D01*
X107740066Y-86395423D01*
X107666575Y-86383478D01*
X107590240Y-86377877D01*
X107511422Y-86378721D01*
X107468227Y-86381869D01*
X107393857Y-86392476D01*
X107322308Y-86409918D01*
X107253925Y-86434009D01*
X107189050Y-86464561D01*
X107128029Y-86501387D01*
X107071204Y-86544299D01*
X107018920Y-86593111D01*
X106971520Y-86647636D01*
X106965395Y-86655581D01*
X106924533Y-86715544D01*
X106890374Y-86779053D01*
X106862891Y-86846174D01*
X106842058Y-86916975D01*
X106827848Y-86991522D01*
X106826230Y-87003473D01*
X106824696Y-87019904D01*
X106823378Y-87042938D01*
X106822276Y-87071583D01*
X106821389Y-87104848D01*
X106820717Y-87141741D01*
X106820260Y-87181268D01*
X106820018Y-87222438D01*
X106820006Y-87240720D01*
X107221078Y-87240720D01*
X107221115Y-87188857D01*
X107221744Y-87143297D01*
X107222997Y-87103389D01*
X107224903Y-87068483D01*
X107227497Y-87037931D01*
X107230808Y-87011081D01*
X107234868Y-86987283D01*
X107237343Y-86975653D01*
X107252771Y-86921146D01*
X107272877Y-86871766D01*
X107297439Y-86827782D01*
X107326233Y-86789462D01*
X107359036Y-86757077D01*
X107395625Y-86730894D01*
X107435777Y-86711182D01*
X107464633Y-86701711D01*
X107480377Y-86697551D01*
X107492883Y-86694576D01*
X107503945Y-86692616D01*
X107515354Y-86691499D01*
X107528905Y-86691052D01*
X107546388Y-86691103D01*
X107569597Y-86691482D01*
X107571108Y-86691510D01*
X107594338Y-86692035D01*
X107611893Y-86692820D01*
X107625716Y-86694137D01*
X107637752Y-86696261D01*
X107649945Y-86699464D01*
X107664241Y-86704019D01*
X107667232Y-86705019D01*
X107709728Y-86723200D01*
X107748345Y-86747836D01*
X107782921Y-86778729D01*
X107813293Y-86815683D01*
X107839299Y-86858498D01*
X107860777Y-86906977D01*
X107877565Y-86960923D01*
X107877705Y-86961475D01*
X107881465Y-86977052D01*
X107884646Y-86992176D01*
X107887294Y-87007634D01*
X107889457Y-87024216D01*
X107891181Y-87042711D01*
X107892514Y-87063907D01*
X107893503Y-87088594D01*
X107894196Y-87117560D01*
X107894639Y-87151595D01*
X107894880Y-87191487D01*
X107894966Y-87238025D01*
X107894968Y-87250000D01*
X107894912Y-87298240D01*
X107894710Y-87339647D01*
X107894318Y-87375008D01*
X107893687Y-87405111D01*
X107892770Y-87430742D01*
X107891522Y-87452689D01*
X107889895Y-87471738D01*
X107887843Y-87488678D01*
X107885318Y-87504294D01*
X107882274Y-87519375D01*
X107878664Y-87534707D01*
X107877836Y-87538008D01*
X107861037Y-87592128D01*
X107839493Y-87640761D01*
X107813360Y-87683728D01*
X107782796Y-87720846D01*
X107747956Y-87751934D01*
X107708995Y-87776810D01*
X107666072Y-87795294D01*
X107652859Y-87799445D01*
X107640396Y-87802792D01*
X107628695Y-87805169D01*
X107616053Y-87806732D01*
X107600766Y-87807635D01*
X107581132Y-87808033D01*
X107557771Y-87808086D01*
X107527087Y-87807669D01*
X107502177Y-87806334D01*
X107481216Y-87803739D01*
X107462380Y-87799545D01*
X107443845Y-87793411D01*
X107423786Y-87784997D01*
X107416787Y-87781786D01*
X107379353Y-87760214D01*
X107344993Y-87731999D01*
X107314099Y-87697634D01*
X107287065Y-87657609D01*
X107264282Y-87612416D01*
X107249090Y-87571977D01*
X107243209Y-87552939D01*
X107238273Y-87534655D01*
X107234189Y-87516206D01*
X107230864Y-87496673D01*
X107228206Y-87475139D01*
X107226122Y-87450685D01*
X107224520Y-87422392D01*
X107223306Y-87389341D01*
X107222389Y-87350615D01*
X107221675Y-87305294D01*
X107221601Y-87299535D01*
X107221078Y-87240720D01*
X106820006Y-87240720D01*
X106819990Y-87264260D01*
X106820176Y-87305740D01*
X106820577Y-87345886D01*
X106821191Y-87383707D01*
X106822020Y-87418210D01*
X106823062Y-87448403D01*
X106824317Y-87473294D01*
X106825786Y-87491890D01*
X106826324Y-87496527D01*
X106839620Y-87571147D01*
X106859553Y-87642519D01*
X106885957Y-87710344D01*
X106918670Y-87774323D01*
X106957530Y-87834154D01*
X107002372Y-87889540D01*
X107053034Y-87940180D01*
X107080728Y-87963814D01*
X107135957Y-88004508D01*
X107193353Y-88038804D01*
X107253493Y-88066908D01*
X107316956Y-88089025D01*
X107384322Y-88105360D01*
X107456168Y-88116117D01*
X107525383Y-88121209D01*
X107605445Y-88121167D01*
X107605445Y-88121167D01*
G37*
X107605445Y-88121167D02*
X107682389Y-88114336D01*
X107756079Y-88100769D01*
X107826380Y-88080519D01*
X107893156Y-88053641D01*
X107956271Y-88020186D01*
X108015590Y-87980210D01*
X108070977Y-87933765D01*
X108115164Y-87888907D01*
X108161082Y-87832538D01*
X108200470Y-87772258D01*
X108233302Y-87708132D01*
X108259548Y-87640223D01*
X108279183Y-87568599D01*
X108292177Y-87493322D01*
X108294840Y-87469388D01*
X108295836Y-87454775D01*
X108296687Y-87433574D01*
X108297393Y-87406819D01*
X108297955Y-87375541D01*
X108298371Y-87340773D01*
X108298644Y-87303547D01*
X108298771Y-87264895D01*
X108298754Y-87225849D01*
X108298592Y-87187442D01*
X108298286Y-87150707D01*
X108297834Y-87116674D01*
X108297238Y-87086377D01*
X108296498Y-87060848D01*
X108295612Y-87041119D01*
X108294840Y-87030613D01*
X108283895Y-86953577D01*
X108266431Y-86880482D01*
X108242432Y-86811300D01*
X108211886Y-86746004D01*
X108174779Y-86684566D01*
X108131097Y-86626961D01*
X108080827Y-86573160D01*
X108052111Y-86546707D01*
X107998301Y-86504584D01*
X107939828Y-86468292D01*
X107877056Y-86437932D01*
X107810347Y-86413608D01*
X107740066Y-86395423D01*
X107666575Y-86383478D01*
X107590240Y-86377877D01*
X107511422Y-86378721D01*
X107468227Y-86381869D01*
X107393857Y-86392476D01*
X107322308Y-86409918D01*
X107253925Y-86434009D01*
X107189050Y-86464561D01*
X107128029Y-86501387D01*
X107071204Y-86544299D01*
X107018920Y-86593111D01*
X106971520Y-86647636D01*
X106965395Y-86655581D01*
X106924533Y-86715544D01*
X106890374Y-86779053D01*
X106862891Y-86846174D01*
X106842058Y-86916975D01*
X106827848Y-86991522D01*
X106826230Y-87003473D01*
X106824696Y-87019904D01*
X106823378Y-87042938D01*
X106822276Y-87071583D01*
X106821389Y-87104848D01*
X106820717Y-87141741D01*
X106820260Y-87181268D01*
X106820018Y-87222438D01*
X106820006Y-87240720D01*
X107221078Y-87240720D01*
X107221115Y-87188857D01*
X107221744Y-87143297D01*
X107222997Y-87103389D01*
X107224903Y-87068483D01*
X107227497Y-87037931D01*
X107230808Y-87011081D01*
X107234868Y-86987283D01*
X107237343Y-86975653D01*
X107252771Y-86921146D01*
X107272877Y-86871766D01*
X107297439Y-86827782D01*
X107326233Y-86789462D01*
X107359036Y-86757077D01*
X107395625Y-86730894D01*
X107435777Y-86711182D01*
X107464633Y-86701711D01*
X107480377Y-86697551D01*
X107492883Y-86694576D01*
X107503945Y-86692616D01*
X107515354Y-86691499D01*
X107528905Y-86691052D01*
X107546388Y-86691103D01*
X107569597Y-86691482D01*
X107571108Y-86691510D01*
X107594338Y-86692035D01*
X107611893Y-86692820D01*
X107625716Y-86694137D01*
X107637752Y-86696261D01*
X107649945Y-86699464D01*
X107664241Y-86704019D01*
X107667232Y-86705019D01*
X107709728Y-86723200D01*
X107748345Y-86747836D01*
X107782921Y-86778729D01*
X107813293Y-86815683D01*
X107839299Y-86858498D01*
X107860777Y-86906977D01*
X107877565Y-86960923D01*
X107877705Y-86961475D01*
X107881465Y-86977052D01*
X107884646Y-86992176D01*
X107887294Y-87007634D01*
X107889457Y-87024216D01*
X107891181Y-87042711D01*
X107892514Y-87063907D01*
X107893503Y-87088594D01*
X107894196Y-87117560D01*
X107894639Y-87151595D01*
X107894880Y-87191487D01*
X107894966Y-87238025D01*
X107894968Y-87250000D01*
X107894912Y-87298240D01*
X107894710Y-87339647D01*
X107894318Y-87375008D01*
X107893687Y-87405111D01*
X107892770Y-87430742D01*
X107891522Y-87452689D01*
X107889895Y-87471738D01*
X107887843Y-87488678D01*
X107885318Y-87504294D01*
X107882274Y-87519375D01*
X107878664Y-87534707D01*
X107877836Y-87538008D01*
X107861037Y-87592128D01*
X107839493Y-87640761D01*
X107813360Y-87683728D01*
X107782796Y-87720846D01*
X107747956Y-87751934D01*
X107708995Y-87776810D01*
X107666072Y-87795294D01*
X107652859Y-87799445D01*
X107640396Y-87802792D01*
X107628695Y-87805169D01*
X107616053Y-87806732D01*
X107600766Y-87807635D01*
X107581132Y-87808033D01*
X107557771Y-87808086D01*
X107527087Y-87807669D01*
X107502177Y-87806334D01*
X107481216Y-87803739D01*
X107462380Y-87799545D01*
X107443845Y-87793411D01*
X107423786Y-87784997D01*
X107416787Y-87781786D01*
X107379353Y-87760214D01*
X107344993Y-87731999D01*
X107314099Y-87697634D01*
X107287065Y-87657609D01*
X107264282Y-87612416D01*
X107249090Y-87571977D01*
X107243209Y-87552939D01*
X107238273Y-87534655D01*
X107234189Y-87516206D01*
X107230864Y-87496673D01*
X107228206Y-87475139D01*
X107226122Y-87450685D01*
X107224520Y-87422392D01*
X107223306Y-87389341D01*
X107222389Y-87350615D01*
X107221675Y-87305294D01*
X107221601Y-87299535D01*
X107221078Y-87240720D01*
X106820006Y-87240720D01*
X106819990Y-87264260D01*
X106820176Y-87305740D01*
X106820577Y-87345886D01*
X106821191Y-87383707D01*
X106822020Y-87418210D01*
X106823062Y-87448403D01*
X106824317Y-87473294D01*
X106825786Y-87491890D01*
X106826324Y-87496527D01*
X106839620Y-87571147D01*
X106859553Y-87642519D01*
X106885957Y-87710344D01*
X106918670Y-87774323D01*
X106957530Y-87834154D01*
X107002372Y-87889540D01*
X107053034Y-87940180D01*
X107080728Y-87963814D01*
X107135957Y-88004508D01*
X107193353Y-88038804D01*
X107253493Y-88066908D01*
X107316956Y-88089025D01*
X107384322Y-88105360D01*
X107456168Y-88116117D01*
X107525383Y-88121209D01*
X107605445Y-88121167D01*
G36*
X105591771Y-88122091D02*
G01*
X105643516Y-88121894D01*
X105702267Y-88121623D01*
X105717357Y-88121550D01*
X105778502Y-88121245D01*
X105832598Y-88120940D01*
X105880216Y-88120603D01*
X105921928Y-88120204D01*
X105958306Y-88119711D01*
X105989921Y-88119093D01*
X106017345Y-88118317D01*
X106041149Y-88117353D01*
X106061906Y-88116169D01*
X106080186Y-88114734D01*
X106096562Y-88113016D01*
X106111604Y-88110983D01*
X106125885Y-88108604D01*
X106139975Y-88105848D01*
X106154448Y-88102684D01*
X106169873Y-88099079D01*
X106183068Y-88095909D01*
X106249110Y-88076552D01*
X106311013Y-88051496D01*
X106368443Y-88021024D01*
X106421064Y-87985419D01*
X106468543Y-87944964D01*
X106510545Y-87899940D01*
X106546736Y-87850632D01*
X106576781Y-87797323D01*
X106598998Y-87744162D01*
X106608157Y-87716773D01*
X106615221Y-87691801D01*
X106620439Y-87667557D01*
X106624057Y-87642352D01*
X106626322Y-87614493D01*
X106627481Y-87582293D01*
X106627782Y-87547210D01*
X106627692Y-87517734D01*
X106627356Y-87494414D01*
X106626673Y-87475787D01*
X106625545Y-87460390D01*
X106623872Y-87446758D01*
X106621555Y-87433429D01*
X106619313Y-87422655D01*
X106604243Y-87365646D01*
X106584795Y-87314001D01*
X106560248Y-87266399D01*
X106529886Y-87221520D01*
X106492991Y-87178045D01*
X106477612Y-87162124D01*
X106432817Y-87121352D01*
X106384916Y-87086044D01*
X106333298Y-87055911D01*
X106277351Y-87030666D01*
X106216463Y-87010022D01*
X106150022Y-86993690D01*
X106100058Y-86984698D01*
X106089254Y-86983230D01*
X106076593Y-86981965D01*
X106061390Y-86980880D01*
X106042959Y-86979954D01*
X106020618Y-86979162D01*
X105993681Y-86978484D01*
X105961464Y-86977896D01*
X105923282Y-86977376D01*
X105878451Y-86976901D01*
X105857494Y-86976710D01*
X105654696Y-86974929D01*
X105653638Y-86724759D01*
X105652581Y-86474588D01*
X105641834Y-86454180D01*
X105623508Y-86427249D01*
X105600025Y-86405599D01*
X105572247Y-86389866D01*
X105543183Y-86381081D01*
X105530995Y-86379628D01*
X105513076Y-86378596D01*
X105491003Y-86377971D01*
X105466351Y-86377739D01*
X105440698Y-86377885D01*
X105415619Y-86378395D01*
X105392692Y-86379254D01*
X105373491Y-86380450D01*
X105359594Y-86381967D01*
X105355371Y-86382779D01*
X105325393Y-86393967D01*
X105299197Y-86411426D01*
X105277703Y-86434396D01*
X105263463Y-86458453D01*
X105252491Y-86482208D01*
X105252491Y-87287704D01*
X105654486Y-87287704D01*
X105840242Y-87289029D01*
X105882763Y-87289342D01*
X105918395Y-87289646D01*
X105947868Y-87289975D01*
X105971915Y-87290362D01*
X105991265Y-87290842D01*
X106006650Y-87291449D01*
X106018802Y-87292217D01*
X106028452Y-87293180D01*
X106036329Y-87294372D01*
X106043167Y-87295827D01*
X106049696Y-87297580D01*
X106054549Y-87299025D01*
X106095187Y-87315049D01*
X106130939Y-87336840D01*
X106161546Y-87364144D01*
X106186748Y-87396712D01*
X106206285Y-87434290D01*
X106213249Y-87453038D01*
X106217287Y-87465954D01*
X106220129Y-87477352D01*
X106221990Y-87489076D01*
X106223087Y-87502972D01*
X106223637Y-87520884D01*
X106223850Y-87543400D01*
X106223540Y-87573885D01*
X106222015Y-87598765D01*
X106218881Y-87620011D01*
X106213745Y-87639596D01*
X106206212Y-87659491D01*
X106196428Y-87680573D01*
X106184487Y-87701423D01*
X106169226Y-87721317D01*
X106153715Y-87737894D01*
X106128550Y-87760538D01*
X106102848Y-87777805D01*
X106074017Y-87791236D01*
X106050738Y-87799134D01*
X106043928Y-87801114D01*
X106037295Y-87802772D01*
X106030101Y-87804143D01*
X106021610Y-87805263D01*
X106011085Y-87806166D01*
X105997791Y-87806887D01*
X105980990Y-87807461D01*
X105959945Y-87807923D01*
X105933922Y-87808308D01*
X105902181Y-87808650D01*
X105863989Y-87808985D01*
X105838337Y-87809191D01*
X105654486Y-87810648D01*
X105654486Y-87287704D01*
X105252491Y-87287704D01*
X105252491Y-88017792D01*
X105263463Y-88041547D01*
X105277471Y-88064660D01*
X105296434Y-88085776D01*
X105318060Y-88102484D01*
X105325393Y-88106622D01*
X105331105Y-88109428D01*
X105336881Y-88111897D01*
X105343219Y-88114048D01*
X105350614Y-88115899D01*
X105359562Y-88117470D01*
X105370558Y-88118779D01*
X105384098Y-88119845D01*
X105400679Y-88120687D01*
X105420796Y-88121323D01*
X105444944Y-88121774D01*
X105473620Y-88122057D01*
X105507319Y-88122192D01*
X105546538Y-88122197D01*
X105591771Y-88122091D01*
X105591771Y-88122091D01*
G37*
X105591771Y-88122091D02*
X105643516Y-88121894D01*
X105702267Y-88121623D01*
X105717357Y-88121550D01*
X105778502Y-88121245D01*
X105832598Y-88120940D01*
X105880216Y-88120603D01*
X105921928Y-88120204D01*
X105958306Y-88119711D01*
X105989921Y-88119093D01*
X106017345Y-88118317D01*
X106041149Y-88117353D01*
X106061906Y-88116169D01*
X106080186Y-88114734D01*
X106096562Y-88113016D01*
X106111604Y-88110983D01*
X106125885Y-88108604D01*
X106139975Y-88105848D01*
X106154448Y-88102684D01*
X106169873Y-88099079D01*
X106183068Y-88095909D01*
X106249110Y-88076552D01*
X106311013Y-88051496D01*
X106368443Y-88021024D01*
X106421064Y-87985419D01*
X106468543Y-87944964D01*
X106510545Y-87899940D01*
X106546736Y-87850632D01*
X106576781Y-87797323D01*
X106598998Y-87744162D01*
X106608157Y-87716773D01*
X106615221Y-87691801D01*
X106620439Y-87667557D01*
X106624057Y-87642352D01*
X106626322Y-87614493D01*
X106627481Y-87582293D01*
X106627782Y-87547210D01*
X106627692Y-87517734D01*
X106627356Y-87494414D01*
X106626673Y-87475787D01*
X106625545Y-87460390D01*
X106623872Y-87446758D01*
X106621555Y-87433429D01*
X106619313Y-87422655D01*
X106604243Y-87365646D01*
X106584795Y-87314001D01*
X106560248Y-87266399D01*
X106529886Y-87221520D01*
X106492991Y-87178045D01*
X106477612Y-87162124D01*
X106432817Y-87121352D01*
X106384916Y-87086044D01*
X106333298Y-87055911D01*
X106277351Y-87030666D01*
X106216463Y-87010022D01*
X106150022Y-86993690D01*
X106100058Y-86984698D01*
X106089254Y-86983230D01*
X106076593Y-86981965D01*
X106061390Y-86980880D01*
X106042959Y-86979954D01*
X106020618Y-86979162D01*
X105993681Y-86978484D01*
X105961464Y-86977896D01*
X105923282Y-86977376D01*
X105878451Y-86976901D01*
X105857494Y-86976710D01*
X105654696Y-86974929D01*
X105653638Y-86724759D01*
X105652581Y-86474588D01*
X105641834Y-86454180D01*
X105623508Y-86427249D01*
X105600025Y-86405599D01*
X105572247Y-86389866D01*
X105543183Y-86381081D01*
X105530995Y-86379628D01*
X105513076Y-86378596D01*
X105491003Y-86377971D01*
X105466351Y-86377739D01*
X105440698Y-86377885D01*
X105415619Y-86378395D01*
X105392692Y-86379254D01*
X105373491Y-86380450D01*
X105359594Y-86381967D01*
X105355371Y-86382779D01*
X105325393Y-86393967D01*
X105299197Y-86411426D01*
X105277703Y-86434396D01*
X105263463Y-86458453D01*
X105252491Y-86482208D01*
X105252491Y-87287704D01*
X105654486Y-87287704D01*
X105840242Y-87289029D01*
X105882763Y-87289342D01*
X105918395Y-87289646D01*
X105947868Y-87289975D01*
X105971915Y-87290362D01*
X105991265Y-87290842D01*
X106006650Y-87291449D01*
X106018802Y-87292217D01*
X106028452Y-87293180D01*
X106036329Y-87294372D01*
X106043167Y-87295827D01*
X106049696Y-87297580D01*
X106054549Y-87299025D01*
X106095187Y-87315049D01*
X106130939Y-87336840D01*
X106161546Y-87364144D01*
X106186748Y-87396712D01*
X106206285Y-87434290D01*
X106213249Y-87453038D01*
X106217287Y-87465954D01*
X106220129Y-87477352D01*
X106221990Y-87489076D01*
X106223087Y-87502972D01*
X106223637Y-87520884D01*
X106223850Y-87543400D01*
X106223540Y-87573885D01*
X106222015Y-87598765D01*
X106218881Y-87620011D01*
X106213745Y-87639596D01*
X106206212Y-87659491D01*
X106196428Y-87680573D01*
X106184487Y-87701423D01*
X106169226Y-87721317D01*
X106153715Y-87737894D01*
X106128550Y-87760538D01*
X106102848Y-87777805D01*
X106074017Y-87791236D01*
X106050738Y-87799134D01*
X106043928Y-87801114D01*
X106037295Y-87802772D01*
X106030101Y-87804143D01*
X106021610Y-87805263D01*
X106011085Y-87806166D01*
X105997791Y-87806887D01*
X105980990Y-87807461D01*
X105959945Y-87807923D01*
X105933922Y-87808308D01*
X105902181Y-87808650D01*
X105863989Y-87808985D01*
X105838337Y-87809191D01*
X105654486Y-87810648D01*
X105654486Y-87287704D01*
X105252491Y-87287704D01*
X105252491Y-88017792D01*
X105263463Y-88041547D01*
X105277471Y-88064660D01*
X105296434Y-88085776D01*
X105318060Y-88102484D01*
X105325393Y-88106622D01*
X105331105Y-88109428D01*
X105336881Y-88111897D01*
X105343219Y-88114048D01*
X105350614Y-88115899D01*
X105359562Y-88117470D01*
X105370558Y-88118779D01*
X105384098Y-88119845D01*
X105400679Y-88120687D01*
X105420796Y-88121323D01*
X105444944Y-88121774D01*
X105473620Y-88122057D01*
X105507319Y-88122192D01*
X105546538Y-88122197D01*
X105591771Y-88122091D01*
M02*
