G04 #@! TF.GenerationSoftware,KiCad,Pcbnew,(5.1.0-0)*
G04 #@! TF.CreationDate,2020-07-10T00:17:45+02:00*
G04 #@! TF.ProjectId,POxiM-fingersensor-PhotoDiodeBoard,504f7869-4d2d-4666-996e-67657273656e,Test proto*
G04 #@! TF.SameCoordinates,Original*
G04 #@! TF.FileFunction,Other,Fab,Top*
%FSLAX46Y46*%
G04 Gerber Fmt 4.6, Leading zero omitted, Abs format (unit mm)*
G04 Created by KiCad (PCBNEW (5.1.0-0)) date 2020-07-10 00:17:45*
%MOMM*%
%LPD*%
G04 APERTURE LIST*
%ADD10C,0.100000*%
%ADD11C,0.060000*%
%ADD12C,0.120000*%
%ADD13C,0.150000*%
G04 APERTURE END LIST*
D10*
X113500000Y-84750000D02*
G75*
G03X113500000Y-84750000I-1000000J0D01*
G01*
X106500000Y-90000000D02*
G75*
G03X106500000Y-90000000I-1000000J0D01*
G01*
X108200000Y-88600000D02*
X109800000Y-88600000D01*
X108200000Y-85400000D02*
X108200000Y-88600000D01*
X109400000Y-85400000D02*
X108200000Y-85400000D01*
X109800000Y-85800000D02*
X109400000Y-85400000D01*
X109800000Y-88600000D02*
X109800000Y-85800000D01*
D11*
X112071428Y-84721428D02*
X111938095Y-84721428D01*
X111938095Y-84930952D02*
X111938095Y-84530952D01*
X112128571Y-84530952D01*
X112280952Y-84930952D02*
X112280952Y-84530952D01*
X112471428Y-84930952D02*
X112471428Y-84530952D01*
X112566666Y-84530952D01*
X112623809Y-84550000D01*
X112661904Y-84588095D01*
X112680952Y-84626190D01*
X112700000Y-84702380D01*
X112700000Y-84759523D01*
X112680952Y-84835714D01*
X112661904Y-84873809D01*
X112623809Y-84911904D01*
X112566666Y-84930952D01*
X112471428Y-84930952D01*
X112852380Y-84569047D02*
X112871428Y-84550000D01*
X112909523Y-84530952D01*
X113004761Y-84530952D01*
X113042857Y-84550000D01*
X113061904Y-84569047D01*
X113080952Y-84607142D01*
X113080952Y-84645238D01*
X113061904Y-84702380D01*
X112833333Y-84930952D01*
X113080952Y-84930952D01*
X105071428Y-89971428D02*
X104938095Y-89971428D01*
X104938095Y-90180952D02*
X104938095Y-89780952D01*
X105128571Y-89780952D01*
X105280952Y-90180952D02*
X105280952Y-89780952D01*
X105471428Y-90180952D02*
X105471428Y-89780952D01*
X105566666Y-89780952D01*
X105623809Y-89800000D01*
X105661904Y-89838095D01*
X105680952Y-89876190D01*
X105700000Y-89952380D01*
X105700000Y-90009523D01*
X105680952Y-90085714D01*
X105661904Y-90123809D01*
X105623809Y-90161904D01*
X105566666Y-90180952D01*
X105471428Y-90180952D01*
X106080952Y-90180952D02*
X105852380Y-90180952D01*
X105966666Y-90180952D02*
X105966666Y-89780952D01*
X105928571Y-89838095D01*
X105890476Y-89876190D01*
X105852380Y-89895238D01*
D12*
X109361904Y-87590476D02*
X108561904Y-87590476D01*
X108561904Y-87400000D01*
X108600000Y-87285714D01*
X108676190Y-87209523D01*
X108752380Y-87171428D01*
X108904761Y-87133333D01*
X109019047Y-87133333D01*
X109171428Y-87171428D01*
X109247619Y-87209523D01*
X109323809Y-87285714D01*
X109361904Y-87400000D01*
X109361904Y-87590476D01*
X109361904Y-86371428D02*
X109361904Y-86828571D01*
X109361904Y-86600000D02*
X108561904Y-86600000D01*
X108676190Y-86676190D01*
X108752380Y-86752380D01*
X108790476Y-86828571D01*
D13*
X106288095Y-85452380D02*
X106288095Y-84452380D01*
X106288095Y-84928571D02*
X106859523Y-84928571D01*
X106859523Y-85452380D02*
X106859523Y-84452380D01*
X107859523Y-85452380D02*
X107288095Y-85452380D01*
X107573809Y-85452380D02*
X107573809Y-84452380D01*
X107478571Y-84595238D01*
X107383333Y-84690476D01*
X107288095Y-84738095D01*
X110788095Y-90202380D02*
X110788095Y-89202380D01*
X110788095Y-89678571D02*
X111359523Y-89678571D01*
X111359523Y-90202380D02*
X111359523Y-89202380D01*
X111788095Y-89297619D02*
X111835714Y-89250000D01*
X111930952Y-89202380D01*
X112169047Y-89202380D01*
X112264285Y-89250000D01*
X112311904Y-89297619D01*
X112359523Y-89392857D01*
X112359523Y-89488095D01*
X112311904Y-89630952D01*
X111740476Y-90202380D01*
X112359523Y-90202380D01*
M02*
