G04 #@! TF.GenerationSoftware,KiCad,Pcbnew,(5.1.0-0)*
G04 #@! TF.CreationDate,2020-07-10T00:17:45+02:00*
G04 #@! TF.ProjectId,POxiM-fingersensor-PhotoDiodeBoard,504f7869-4d2d-4666-996e-67657273656e,Test proto*
G04 #@! TF.SameCoordinates,Original*
G04 #@! TF.FileFunction,Copper,L1,Top*
G04 #@! TF.FilePolarity,Positive*
%FSLAX46Y46*%
G04 Gerber Fmt 4.6, Leading zero omitted, Abs format (unit mm)*
G04 Created by KiCad (PCBNEW (5.1.0-0)) date 2020-07-10 00:17:45*
%MOMM*%
%LPD*%
G04 APERTURE LIST*
%ADD10C,1.000000*%
%ADD11C,0.100000*%
%ADD12C,1.650000*%
%ADD13C,0.800000*%
%ADD14C,1.800000*%
%ADD15C,0.400000*%
%ADD16C,0.250000*%
G04 APERTURE END LIST*
D10*
X112500000Y-84750000D03*
X105500000Y-90000000D03*
D11*
G36*
X109592830Y-87501239D02*
G01*
X109617816Y-87504946D01*
X109642319Y-87511084D01*
X109666103Y-87519593D01*
X109688938Y-87530393D01*
X109710604Y-87543380D01*
X109730893Y-87558427D01*
X109749609Y-87575391D01*
X109766573Y-87594107D01*
X109781620Y-87614396D01*
X109794607Y-87636062D01*
X109805407Y-87658897D01*
X109813916Y-87682681D01*
X109820054Y-87707184D01*
X109823761Y-87732170D01*
X109825000Y-87757400D01*
X109825000Y-88967600D01*
X109823761Y-88992830D01*
X109820054Y-89017816D01*
X109813916Y-89042319D01*
X109805407Y-89066103D01*
X109794607Y-89088938D01*
X109781620Y-89110604D01*
X109766573Y-89130893D01*
X109749609Y-89149609D01*
X109730893Y-89166573D01*
X109710604Y-89181620D01*
X109688938Y-89194607D01*
X109666103Y-89205407D01*
X109642319Y-89213916D01*
X109617816Y-89220054D01*
X109592830Y-89223761D01*
X109567600Y-89225000D01*
X108432400Y-89225000D01*
X108407170Y-89223761D01*
X108382184Y-89220054D01*
X108357681Y-89213916D01*
X108333897Y-89205407D01*
X108311062Y-89194607D01*
X108289396Y-89181620D01*
X108269107Y-89166573D01*
X108250391Y-89149609D01*
X108233427Y-89130893D01*
X108218380Y-89110604D01*
X108205393Y-89088938D01*
X108194593Y-89066103D01*
X108186084Y-89042319D01*
X108179946Y-89017816D01*
X108176239Y-88992830D01*
X108175000Y-88967600D01*
X108175000Y-87757400D01*
X108176239Y-87732170D01*
X108179946Y-87707184D01*
X108186084Y-87682681D01*
X108194593Y-87658897D01*
X108205393Y-87636062D01*
X108218380Y-87614396D01*
X108233427Y-87594107D01*
X108250391Y-87575391D01*
X108269107Y-87558427D01*
X108289396Y-87543380D01*
X108311062Y-87530393D01*
X108333897Y-87519593D01*
X108357681Y-87511084D01*
X108382184Y-87504946D01*
X108407170Y-87501239D01*
X108432400Y-87500000D01*
X109567600Y-87500000D01*
X109592830Y-87501239D01*
X109592830Y-87501239D01*
G37*
D12*
X109000000Y-88362500D03*
D11*
G36*
X109592830Y-84776239D02*
G01*
X109617816Y-84779946D01*
X109642319Y-84786084D01*
X109666103Y-84794593D01*
X109688938Y-84805393D01*
X109710604Y-84818380D01*
X109730893Y-84833427D01*
X109749609Y-84850391D01*
X109766573Y-84869107D01*
X109781620Y-84889396D01*
X109794607Y-84911062D01*
X109805407Y-84933897D01*
X109813916Y-84957681D01*
X109820054Y-84982184D01*
X109823761Y-85007170D01*
X109825000Y-85032400D01*
X109825000Y-86242600D01*
X109823761Y-86267830D01*
X109820054Y-86292816D01*
X109813916Y-86317319D01*
X109805407Y-86341103D01*
X109794607Y-86363938D01*
X109781620Y-86385604D01*
X109766573Y-86405893D01*
X109749609Y-86424609D01*
X109730893Y-86441573D01*
X109710604Y-86456620D01*
X109688938Y-86469607D01*
X109666103Y-86480407D01*
X109642319Y-86488916D01*
X109617816Y-86495054D01*
X109592830Y-86498761D01*
X109567600Y-86500000D01*
X108432400Y-86500000D01*
X108407170Y-86498761D01*
X108382184Y-86495054D01*
X108357681Y-86488916D01*
X108333897Y-86480407D01*
X108311062Y-86469607D01*
X108289396Y-86456620D01*
X108269107Y-86441573D01*
X108250391Y-86424609D01*
X108233427Y-86405893D01*
X108218380Y-86385604D01*
X108205393Y-86363938D01*
X108194593Y-86341103D01*
X108186084Y-86317319D01*
X108179946Y-86292816D01*
X108176239Y-86267830D01*
X108175000Y-86242600D01*
X108175000Y-85032400D01*
X108176239Y-85007170D01*
X108179946Y-84982184D01*
X108186084Y-84957681D01*
X108194593Y-84933897D01*
X108205393Y-84911062D01*
X108218380Y-84889396D01*
X108233427Y-84869107D01*
X108250391Y-84850391D01*
X108269107Y-84833427D01*
X108289396Y-84818380D01*
X108311062Y-84805393D01*
X108333897Y-84794593D01*
X108357681Y-84786084D01*
X108382184Y-84779946D01*
X108407170Y-84776239D01*
X108432400Y-84775000D01*
X109567600Y-84775000D01*
X109592830Y-84776239D01*
X109592830Y-84776239D01*
G37*
D12*
X109000000Y-85637500D03*
D13*
X105250000Y-80250000D03*
X106750000Y-80250000D03*
D14*
X106750000Y-82250000D03*
D13*
X108250000Y-82000000D03*
X105250000Y-82000000D03*
X106000000Y-81125000D03*
X108250000Y-80250000D03*
X107500000Y-81125000D03*
D14*
X111250000Y-82250000D03*
D13*
X109750000Y-82000000D03*
X109750000Y-80250000D03*
X111250000Y-80250000D03*
X112750000Y-82000000D03*
X110500000Y-81125000D03*
X112000000Y-81125000D03*
X112750000Y-80250000D03*
D15*
X109000000Y-84250000D02*
X108250000Y-83500000D01*
X109000000Y-85637500D02*
X109000000Y-84250000D01*
X108250000Y-83500000D02*
X108000000Y-83500000D01*
X108000000Y-83500000D02*
X106750000Y-82250000D01*
X109000000Y-88362500D02*
X109000000Y-90250000D01*
D16*
G36*
X113575001Y-84153910D02*
G01*
X113451519Y-83969108D01*
X113280892Y-83798481D01*
X113080255Y-83664419D01*
X112857319Y-83572076D01*
X112620652Y-83525000D01*
X112379348Y-83525000D01*
X112142681Y-83572076D01*
X111919745Y-83664419D01*
X111719108Y-83798481D01*
X111548481Y-83969108D01*
X111414419Y-84169745D01*
X111322076Y-84392681D01*
X111275000Y-84629348D01*
X111275000Y-84870652D01*
X111322076Y-85107319D01*
X111414419Y-85330255D01*
X111548481Y-85530892D01*
X111719108Y-85701519D01*
X111919745Y-85835581D01*
X112142681Y-85927924D01*
X112379348Y-85975000D01*
X112620652Y-85975000D01*
X112857319Y-85927924D01*
X113080255Y-85835581D01*
X113280892Y-85701519D01*
X113451519Y-85530892D01*
X113575001Y-85346090D01*
X113575000Y-93075000D01*
X104425000Y-93075000D01*
X104425000Y-90596091D01*
X104548481Y-90780892D01*
X104719108Y-90951519D01*
X104919745Y-91085581D01*
X105142681Y-91177924D01*
X105379348Y-91225000D01*
X105620652Y-91225000D01*
X105857319Y-91177924D01*
X106080255Y-91085581D01*
X106280892Y-90951519D01*
X106451519Y-90780892D01*
X106585581Y-90580255D01*
X106677924Y-90357319D01*
X106725000Y-90120652D01*
X106725000Y-89879348D01*
X106677924Y-89642681D01*
X106585581Y-89419745D01*
X106451519Y-89219108D01*
X106280892Y-89048481D01*
X106080255Y-88914419D01*
X105857319Y-88822076D01*
X105620652Y-88775000D01*
X105379348Y-88775000D01*
X105142681Y-88822076D01*
X104919745Y-88914419D01*
X104719108Y-89048481D01*
X104548481Y-89219108D01*
X104425000Y-89403909D01*
X104425000Y-84625000D01*
X105269716Y-84625000D01*
X105225000Y-84849801D01*
X105225000Y-85150199D01*
X105283605Y-85444826D01*
X105398562Y-85722358D01*
X105565455Y-85972131D01*
X105777869Y-86184545D01*
X106027642Y-86351438D01*
X106305174Y-86466395D01*
X106599801Y-86525000D01*
X106900199Y-86525000D01*
X107194826Y-86466395D01*
X107472358Y-86351438D01*
X107647460Y-86234439D01*
X107647460Y-86242600D01*
X107662542Y-86395734D01*
X107707210Y-86542984D01*
X107779746Y-86678689D01*
X107877364Y-86797636D01*
X107996311Y-86895254D01*
X108132016Y-86967790D01*
X108238198Y-87000000D01*
X108132016Y-87032210D01*
X107996311Y-87104746D01*
X107877364Y-87202364D01*
X107779746Y-87321311D01*
X107707210Y-87457016D01*
X107662542Y-87604266D01*
X107647460Y-87757400D01*
X107647460Y-88967600D01*
X107662542Y-89120734D01*
X107707210Y-89267984D01*
X107779746Y-89403689D01*
X107877364Y-89522636D01*
X107996311Y-89620254D01*
X108132016Y-89692790D01*
X108279266Y-89737458D01*
X108432400Y-89752540D01*
X109567600Y-89752540D01*
X109720734Y-89737458D01*
X109725000Y-89736164D01*
X109725000Y-89900199D01*
X109783605Y-90194826D01*
X109898562Y-90472358D01*
X110065455Y-90722131D01*
X110277869Y-90934545D01*
X110527642Y-91101438D01*
X110805174Y-91216395D01*
X111099801Y-91275000D01*
X111400199Y-91275000D01*
X111694826Y-91216395D01*
X111972358Y-91101438D01*
X112222131Y-90934545D01*
X112434545Y-90722131D01*
X112601438Y-90472358D01*
X112716395Y-90194826D01*
X112775000Y-89900199D01*
X112775000Y-89599801D01*
X112716395Y-89305174D01*
X112601438Y-89027642D01*
X112434545Y-88777869D01*
X112222131Y-88565455D01*
X111972358Y-88398562D01*
X111694826Y-88283605D01*
X111400199Y-88225000D01*
X111099801Y-88225000D01*
X110805174Y-88283605D01*
X110527642Y-88398562D01*
X110352540Y-88515561D01*
X110352540Y-87757400D01*
X110337458Y-87604266D01*
X110292790Y-87457016D01*
X110220254Y-87321311D01*
X110122636Y-87202364D01*
X110003689Y-87104746D01*
X109867984Y-87032210D01*
X109761802Y-87000000D01*
X109867984Y-86967790D01*
X110003689Y-86895254D01*
X110122636Y-86797636D01*
X110220254Y-86678689D01*
X110292790Y-86542984D01*
X110337458Y-86395734D01*
X110352540Y-86242600D01*
X110352540Y-85032400D01*
X110350000Y-85006610D01*
X110350000Y-84475000D01*
X110347598Y-84450614D01*
X110340485Y-84427165D01*
X110328934Y-84405554D01*
X110313388Y-84386612D01*
X109375000Y-83448224D01*
X109375000Y-79425000D01*
X113575001Y-79425000D01*
X113575001Y-84153910D01*
X113575001Y-84153910D01*
G37*
X113575001Y-84153910D02*
X113451519Y-83969108D01*
X113280892Y-83798481D01*
X113080255Y-83664419D01*
X112857319Y-83572076D01*
X112620652Y-83525000D01*
X112379348Y-83525000D01*
X112142681Y-83572076D01*
X111919745Y-83664419D01*
X111719108Y-83798481D01*
X111548481Y-83969108D01*
X111414419Y-84169745D01*
X111322076Y-84392681D01*
X111275000Y-84629348D01*
X111275000Y-84870652D01*
X111322076Y-85107319D01*
X111414419Y-85330255D01*
X111548481Y-85530892D01*
X111719108Y-85701519D01*
X111919745Y-85835581D01*
X112142681Y-85927924D01*
X112379348Y-85975000D01*
X112620652Y-85975000D01*
X112857319Y-85927924D01*
X113080255Y-85835581D01*
X113280892Y-85701519D01*
X113451519Y-85530892D01*
X113575001Y-85346090D01*
X113575000Y-93075000D01*
X104425000Y-93075000D01*
X104425000Y-90596091D01*
X104548481Y-90780892D01*
X104719108Y-90951519D01*
X104919745Y-91085581D01*
X105142681Y-91177924D01*
X105379348Y-91225000D01*
X105620652Y-91225000D01*
X105857319Y-91177924D01*
X106080255Y-91085581D01*
X106280892Y-90951519D01*
X106451519Y-90780892D01*
X106585581Y-90580255D01*
X106677924Y-90357319D01*
X106725000Y-90120652D01*
X106725000Y-89879348D01*
X106677924Y-89642681D01*
X106585581Y-89419745D01*
X106451519Y-89219108D01*
X106280892Y-89048481D01*
X106080255Y-88914419D01*
X105857319Y-88822076D01*
X105620652Y-88775000D01*
X105379348Y-88775000D01*
X105142681Y-88822076D01*
X104919745Y-88914419D01*
X104719108Y-89048481D01*
X104548481Y-89219108D01*
X104425000Y-89403909D01*
X104425000Y-84625000D01*
X105269716Y-84625000D01*
X105225000Y-84849801D01*
X105225000Y-85150199D01*
X105283605Y-85444826D01*
X105398562Y-85722358D01*
X105565455Y-85972131D01*
X105777869Y-86184545D01*
X106027642Y-86351438D01*
X106305174Y-86466395D01*
X106599801Y-86525000D01*
X106900199Y-86525000D01*
X107194826Y-86466395D01*
X107472358Y-86351438D01*
X107647460Y-86234439D01*
X107647460Y-86242600D01*
X107662542Y-86395734D01*
X107707210Y-86542984D01*
X107779746Y-86678689D01*
X107877364Y-86797636D01*
X107996311Y-86895254D01*
X108132016Y-86967790D01*
X108238198Y-87000000D01*
X108132016Y-87032210D01*
X107996311Y-87104746D01*
X107877364Y-87202364D01*
X107779746Y-87321311D01*
X107707210Y-87457016D01*
X107662542Y-87604266D01*
X107647460Y-87757400D01*
X107647460Y-88967600D01*
X107662542Y-89120734D01*
X107707210Y-89267984D01*
X107779746Y-89403689D01*
X107877364Y-89522636D01*
X107996311Y-89620254D01*
X108132016Y-89692790D01*
X108279266Y-89737458D01*
X108432400Y-89752540D01*
X109567600Y-89752540D01*
X109720734Y-89737458D01*
X109725000Y-89736164D01*
X109725000Y-89900199D01*
X109783605Y-90194826D01*
X109898562Y-90472358D01*
X110065455Y-90722131D01*
X110277869Y-90934545D01*
X110527642Y-91101438D01*
X110805174Y-91216395D01*
X111099801Y-91275000D01*
X111400199Y-91275000D01*
X111694826Y-91216395D01*
X111972358Y-91101438D01*
X112222131Y-90934545D01*
X112434545Y-90722131D01*
X112601438Y-90472358D01*
X112716395Y-90194826D01*
X112775000Y-89900199D01*
X112775000Y-89599801D01*
X112716395Y-89305174D01*
X112601438Y-89027642D01*
X112434545Y-88777869D01*
X112222131Y-88565455D01*
X111972358Y-88398562D01*
X111694826Y-88283605D01*
X111400199Y-88225000D01*
X111099801Y-88225000D01*
X110805174Y-88283605D01*
X110527642Y-88398562D01*
X110352540Y-88515561D01*
X110352540Y-87757400D01*
X110337458Y-87604266D01*
X110292790Y-87457016D01*
X110220254Y-87321311D01*
X110122636Y-87202364D01*
X110003689Y-87104746D01*
X109867984Y-87032210D01*
X109761802Y-87000000D01*
X109867984Y-86967790D01*
X110003689Y-86895254D01*
X110122636Y-86797636D01*
X110220254Y-86678689D01*
X110292790Y-86542984D01*
X110337458Y-86395734D01*
X110352540Y-86242600D01*
X110352540Y-85032400D01*
X110350000Y-85006610D01*
X110350000Y-84475000D01*
X110347598Y-84450614D01*
X110340485Y-84427165D01*
X110328934Y-84405554D01*
X110313388Y-84386612D01*
X109375000Y-83448224D01*
X109375000Y-79425000D01*
X113575001Y-79425000D01*
X113575001Y-84153910D01*
G36*
X108625000Y-83198224D02*
G01*
X107948224Y-83875000D01*
X107781676Y-83875000D01*
X107722131Y-83815455D01*
X107472358Y-83648562D01*
X107194826Y-83533605D01*
X106900199Y-83475000D01*
X106599801Y-83475000D01*
X106305174Y-83533605D01*
X106027642Y-83648562D01*
X105777869Y-83815455D01*
X105718324Y-83875000D01*
X104425000Y-83875000D01*
X104425000Y-79425000D01*
X108625000Y-79425000D01*
X108625000Y-83198224D01*
X108625000Y-83198224D01*
G37*
X108625000Y-83198224D02*
X107948224Y-83875000D01*
X107781676Y-83875000D01*
X107722131Y-83815455D01*
X107472358Y-83648562D01*
X107194826Y-83533605D01*
X106900199Y-83475000D01*
X106599801Y-83475000D01*
X106305174Y-83533605D01*
X106027642Y-83648562D01*
X105777869Y-83815455D01*
X105718324Y-83875000D01*
X104425000Y-83875000D01*
X104425000Y-79425000D01*
X108625000Y-79425000D01*
X108625000Y-83198224D01*
M02*
