G04 #@! TF.GenerationSoftware,KiCad,Pcbnew,(5.1.0-0)*
G04 #@! TF.CreationDate,2020-07-06T15:42:16+02:00*
G04 #@! TF.ProjectId,POxiM-fingersensor,504f7869-4d2d-4666-996e-67657273656e,Test proto*
G04 #@! TF.SameCoordinates,Original*
G04 #@! TF.FileFunction,Soldermask,Top*
G04 #@! TF.FilePolarity,Negative*
%FSLAX46Y46*%
G04 Gerber Fmt 4.6, Leading zero omitted, Abs format (unit mm)*
G04 Created by KiCad (PCBNEW (5.1.0-0)) date 2020-07-06 15:42:16*
%MOMM*%
%LPD*%
G04 APERTURE LIST*
%ADD10C,0.550000*%
%ADD11C,0.010000*%
%ADD12C,0.100000*%
G04 APERTURE END LIST*
D10*
G36*
X112750000Y-83000000D02*
G01*
X109750000Y-83000000D01*
X109750000Y-80250000D01*
X112750000Y-80250000D01*
X112750000Y-83000000D01*
G37*
X112750000Y-83000000D02*
X109750000Y-83000000D01*
X109750000Y-80250000D01*
X112750000Y-80250000D01*
X112750000Y-83000000D01*
G36*
X108250000Y-83000000D02*
G01*
X105250000Y-83000000D01*
X105250000Y-80250000D01*
X108250000Y-80250000D01*
X108250000Y-83000000D01*
G37*
X108250000Y-83000000D02*
X105250000Y-83000000D01*
X105250000Y-80250000D01*
X108250000Y-80250000D01*
X108250000Y-83000000D01*
G36*
X112750000Y-76325000D02*
G01*
X109750000Y-76325000D01*
X109750000Y-73500000D01*
X112750000Y-73500000D01*
X112750000Y-76325000D01*
G37*
X112750000Y-76325000D02*
X109750000Y-76325000D01*
X109750000Y-73500000D01*
X112750000Y-73500000D01*
X112750000Y-76325000D01*
G36*
X108250000Y-76325000D02*
G01*
X105250000Y-76325000D01*
X105250000Y-73500000D01*
X108250000Y-73500000D01*
X108250000Y-76325000D01*
G37*
X108250000Y-76325000D02*
X105250000Y-76325000D01*
X105250000Y-73500000D01*
X108250000Y-73500000D01*
X108250000Y-76325000D01*
D11*
G36*
X109875377Y-88525316D02*
G01*
X109893713Y-88533718D01*
X109902417Y-88539614D01*
X109914050Y-88550735D01*
X109924475Y-88564847D01*
X109932406Y-88580015D01*
X109935597Y-88589460D01*
X109939113Y-88603430D01*
X109941014Y-88594540D01*
X109946999Y-88577321D01*
X109957003Y-88560550D01*
X109970027Y-88545462D01*
X109985071Y-88533291D01*
X109995043Y-88527723D01*
X110006922Y-88524051D01*
X110021795Y-88522073D01*
X110037868Y-88521788D01*
X110053344Y-88523197D01*
X110066430Y-88526300D01*
X110069976Y-88527723D01*
X110082863Y-88535542D01*
X110095885Y-88546615D01*
X110107484Y-88559408D01*
X110116101Y-88572384D01*
X110116887Y-88573936D01*
X110120532Y-88582264D01*
X110122658Y-88589959D01*
X110123650Y-88598990D01*
X110123891Y-88609780D01*
X110123451Y-88621468D01*
X110121781Y-88631865D01*
X110118456Y-88641955D01*
X110113053Y-88652724D01*
X110105148Y-88665156D01*
X110094318Y-88680237D01*
X110092586Y-88682560D01*
X110087774Y-88688467D01*
X110080255Y-88697032D01*
X110070475Y-88707794D01*
X110058880Y-88720294D01*
X110045915Y-88734070D01*
X110032027Y-88748664D01*
X110017661Y-88763614D01*
X110003263Y-88778462D01*
X109989279Y-88792747D01*
X109976154Y-88806010D01*
X109964335Y-88817789D01*
X109954267Y-88827625D01*
X109946395Y-88835059D01*
X109941166Y-88839629D01*
X109939133Y-88840920D01*
X109936829Y-88839180D01*
X109931388Y-88834239D01*
X109923237Y-88826510D01*
X109912806Y-88816409D01*
X109900525Y-88804350D01*
X109886821Y-88790747D01*
X109875385Y-88779297D01*
X109850966Y-88754492D01*
X109830075Y-88732669D01*
X109812411Y-88713472D01*
X109797673Y-88696547D01*
X109785561Y-88681537D01*
X109775774Y-88668087D01*
X109768010Y-88655841D01*
X109762885Y-88646332D01*
X109757826Y-88635485D01*
X109754878Y-88627125D01*
X109753536Y-88619384D01*
X109753291Y-88610830D01*
X109755819Y-88590453D01*
X109762510Y-88572125D01*
X109772762Y-88556132D01*
X109785975Y-88542762D01*
X109801546Y-88532303D01*
X109818873Y-88525041D01*
X109837355Y-88521265D01*
X109856391Y-88521260D01*
X109875377Y-88525316D01*
X109875377Y-88525316D01*
G37*
X109875377Y-88525316D02*
X109893713Y-88533718D01*
X109902417Y-88539614D01*
X109914050Y-88550735D01*
X109924475Y-88564847D01*
X109932406Y-88580015D01*
X109935597Y-88589460D01*
X109939113Y-88603430D01*
X109941014Y-88594540D01*
X109946999Y-88577321D01*
X109957003Y-88560550D01*
X109970027Y-88545462D01*
X109985071Y-88533291D01*
X109995043Y-88527723D01*
X110006922Y-88524051D01*
X110021795Y-88522073D01*
X110037868Y-88521788D01*
X110053344Y-88523197D01*
X110066430Y-88526300D01*
X110069976Y-88527723D01*
X110082863Y-88535542D01*
X110095885Y-88546615D01*
X110107484Y-88559408D01*
X110116101Y-88572384D01*
X110116887Y-88573936D01*
X110120532Y-88582264D01*
X110122658Y-88589959D01*
X110123650Y-88598990D01*
X110123891Y-88609780D01*
X110123451Y-88621468D01*
X110121781Y-88631865D01*
X110118456Y-88641955D01*
X110113053Y-88652724D01*
X110105148Y-88665156D01*
X110094318Y-88680237D01*
X110092586Y-88682560D01*
X110087774Y-88688467D01*
X110080255Y-88697032D01*
X110070475Y-88707794D01*
X110058880Y-88720294D01*
X110045915Y-88734070D01*
X110032027Y-88748664D01*
X110017661Y-88763614D01*
X110003263Y-88778462D01*
X109989279Y-88792747D01*
X109976154Y-88806010D01*
X109964335Y-88817789D01*
X109954267Y-88827625D01*
X109946395Y-88835059D01*
X109941166Y-88839629D01*
X109939133Y-88840920D01*
X109936829Y-88839180D01*
X109931388Y-88834239D01*
X109923237Y-88826510D01*
X109912806Y-88816409D01*
X109900525Y-88804350D01*
X109886821Y-88790747D01*
X109875385Y-88779297D01*
X109850966Y-88754492D01*
X109830075Y-88732669D01*
X109812411Y-88713472D01*
X109797673Y-88696547D01*
X109785561Y-88681537D01*
X109775774Y-88668087D01*
X109768010Y-88655841D01*
X109762885Y-88646332D01*
X109757826Y-88635485D01*
X109754878Y-88627125D01*
X109753536Y-88619384D01*
X109753291Y-88610830D01*
X109755819Y-88590453D01*
X109762510Y-88572125D01*
X109772762Y-88556132D01*
X109785975Y-88542762D01*
X109801546Y-88532303D01*
X109818873Y-88525041D01*
X109837355Y-88521265D01*
X109856391Y-88521260D01*
X109875377Y-88525316D01*
D12*
G36*
X112719149Y-84524000D02*
G01*
X112791689Y-84538429D01*
X112973678Y-84613811D01*
X113137463Y-84723249D01*
X113276751Y-84862537D01*
X113386189Y-85026322D01*
X113461571Y-85208311D01*
X113461571Y-85208312D01*
X113500000Y-85401507D01*
X113500000Y-85598493D01*
X113492227Y-85637571D01*
X113461571Y-85791689D01*
X113386189Y-85973678D01*
X113276751Y-86137463D01*
X113137463Y-86276751D01*
X112973678Y-86386189D01*
X112791689Y-86461571D01*
X112727290Y-86474381D01*
X112598493Y-86500000D01*
X112401507Y-86500000D01*
X112287400Y-86477303D01*
X112263014Y-86474901D01*
X112238628Y-86477303D01*
X112215179Y-86484416D01*
X112193568Y-86495967D01*
X112174626Y-86511513D01*
X112159081Y-86530455D01*
X112147530Y-86552065D01*
X112140417Y-86575514D01*
X112138015Y-86599900D01*
X112140417Y-86624286D01*
X112147530Y-86647735D01*
X112159081Y-86669346D01*
X112174626Y-86688288D01*
X112316365Y-86830027D01*
X112431385Y-87002167D01*
X112510611Y-87193436D01*
X112551000Y-87396484D01*
X112551000Y-87603516D01*
X112510611Y-87806564D01*
X112431385Y-87997833D01*
X112431384Y-87997835D01*
X112316365Y-88169973D01*
X112169973Y-88316365D01*
X111997835Y-88431384D01*
X111997834Y-88431385D01*
X111997833Y-88431385D01*
X111806564Y-88510611D01*
X111603516Y-88551000D01*
X111396484Y-88551000D01*
X111193436Y-88510611D01*
X111002167Y-88431385D01*
X111002166Y-88431385D01*
X111002165Y-88431384D01*
X110830027Y-88316365D01*
X110683635Y-88169973D01*
X110568616Y-87997835D01*
X110568615Y-87997833D01*
X110489389Y-87806564D01*
X110449000Y-87603516D01*
X110449000Y-87396484D01*
X110489389Y-87193436D01*
X110568615Y-87002167D01*
X110683635Y-86830027D01*
X110830027Y-86683635D01*
X110918849Y-86624286D01*
X111002165Y-86568616D01*
X111002167Y-86568615D01*
X111128025Y-86516483D01*
X111149636Y-86504932D01*
X111168578Y-86489387D01*
X111184123Y-86470445D01*
X111193922Y-86452112D01*
X111203438Y-86458471D01*
X111226077Y-86467848D01*
X111250110Y-86472628D01*
X111286748Y-86470828D01*
X111396484Y-86449000D01*
X111603516Y-86449000D01*
X111737725Y-86475696D01*
X111762111Y-86478098D01*
X111786497Y-86475696D01*
X111809946Y-86468583D01*
X111831557Y-86457032D01*
X111850499Y-86441487D01*
X111866044Y-86422545D01*
X111877595Y-86400934D01*
X111884708Y-86377485D01*
X111887110Y-86353099D01*
X111884708Y-86328713D01*
X111877595Y-86305264D01*
X111866044Y-86283653D01*
X111850508Y-86264722D01*
X111723249Y-86137463D01*
X111613811Y-85973678D01*
X111538429Y-85791689D01*
X111523596Y-85717118D01*
X111516483Y-85693669D01*
X111504932Y-85672058D01*
X111489387Y-85653116D01*
X111470445Y-85637571D01*
X111448834Y-85626020D01*
X111425385Y-85618907D01*
X111400999Y-85616505D01*
X111376613Y-85618907D01*
X111353164Y-85626020D01*
X111331553Y-85637571D01*
X111312611Y-85653116D01*
X111297066Y-85672058D01*
X111285515Y-85693669D01*
X111278402Y-85717118D01*
X111276000Y-85741504D01*
X111276000Y-86082548D01*
X111271808Y-86125111D01*
X111261182Y-86160140D01*
X111243930Y-86192416D01*
X111220710Y-86220710D01*
X111183063Y-86251606D01*
X111165736Y-86268933D01*
X111152122Y-86289307D01*
X111149040Y-86296748D01*
X111128025Y-86285515D01*
X111104576Y-86278402D01*
X111080190Y-86276000D01*
X109642452Y-86276000D01*
X109599889Y-86271808D01*
X109564860Y-86261182D01*
X109532584Y-86243930D01*
X109504290Y-86220710D01*
X109481070Y-86192416D01*
X109463818Y-86160140D01*
X109453192Y-86125111D01*
X109449000Y-86082548D01*
X109449000Y-84717452D01*
X109453192Y-84674889D01*
X109463818Y-84639860D01*
X109481070Y-84607584D01*
X109504290Y-84579290D01*
X109532584Y-84556070D01*
X109564860Y-84538818D01*
X109599889Y-84528192D01*
X109642452Y-84524000D01*
X111082548Y-84524000D01*
X111125111Y-84528192D01*
X111160140Y-84538818D01*
X111192416Y-84556070D01*
X111220710Y-84579290D01*
X111243930Y-84607584D01*
X111261182Y-84639860D01*
X111271808Y-84674889D01*
X111276000Y-84717452D01*
X111276000Y-85258496D01*
X111278402Y-85282882D01*
X111285515Y-85306331D01*
X111297066Y-85327942D01*
X111312611Y-85346884D01*
X111331553Y-85362429D01*
X111353164Y-85373980D01*
X111376613Y-85381093D01*
X111400999Y-85383495D01*
X111425385Y-85381093D01*
X111448834Y-85373980D01*
X111470445Y-85362429D01*
X111489387Y-85346884D01*
X111504932Y-85327942D01*
X111516483Y-85306331D01*
X111523596Y-85282882D01*
X111538429Y-85208312D01*
X111538429Y-85208311D01*
X111613811Y-85026322D01*
X111723249Y-84862537D01*
X111862537Y-84723249D01*
X112026322Y-84613811D01*
X112208311Y-84538429D01*
X112280851Y-84524000D01*
X112401507Y-84500000D01*
X112598493Y-84500000D01*
X112719149Y-84524000D01*
X112719149Y-84524000D01*
G37*
G36*
X105719149Y-84524000D02*
G01*
X105791689Y-84538429D01*
X105973678Y-84613811D01*
X106137463Y-84723249D01*
X106276751Y-84862537D01*
X106386189Y-85026322D01*
X106461571Y-85208311D01*
X106461571Y-85208312D01*
X106476404Y-85282882D01*
X106483517Y-85306331D01*
X106495068Y-85327942D01*
X106510613Y-85346884D01*
X106529555Y-85362429D01*
X106551166Y-85373980D01*
X106574615Y-85381093D01*
X106599001Y-85383495D01*
X106623387Y-85381093D01*
X106646836Y-85373980D01*
X106668447Y-85362429D01*
X106687389Y-85346884D01*
X106702934Y-85327942D01*
X106714485Y-85306331D01*
X106721598Y-85282882D01*
X106724000Y-85258496D01*
X106724000Y-84717452D01*
X106728192Y-84674889D01*
X106738818Y-84639860D01*
X106756070Y-84607584D01*
X106779290Y-84579290D01*
X106807584Y-84556070D01*
X106839860Y-84538818D01*
X106874889Y-84528192D01*
X106917452Y-84524000D01*
X108357548Y-84524000D01*
X108400111Y-84528192D01*
X108435140Y-84538818D01*
X108467416Y-84556070D01*
X108495710Y-84579290D01*
X108518930Y-84607584D01*
X108536182Y-84639860D01*
X108546808Y-84674889D01*
X108551000Y-84717452D01*
X108551000Y-86082548D01*
X108546808Y-86125111D01*
X108536182Y-86160140D01*
X108518930Y-86192416D01*
X108495710Y-86220710D01*
X108467416Y-86243930D01*
X108435140Y-86261182D01*
X108400111Y-86271808D01*
X108357548Y-86276000D01*
X106919810Y-86276000D01*
X106895424Y-86278402D01*
X106871975Y-86285515D01*
X106851125Y-86296659D01*
X106841571Y-86278785D01*
X106816937Y-86251606D01*
X106779290Y-86220710D01*
X106756070Y-86192416D01*
X106738818Y-86160140D01*
X106728192Y-86125111D01*
X106724000Y-86082548D01*
X106724000Y-85741504D01*
X106721598Y-85717118D01*
X106714485Y-85693669D01*
X106702934Y-85672058D01*
X106687389Y-85653116D01*
X106668447Y-85637571D01*
X106646836Y-85626020D01*
X106623387Y-85618907D01*
X106599001Y-85616505D01*
X106574615Y-85618907D01*
X106551166Y-85626020D01*
X106529555Y-85637571D01*
X106510613Y-85653116D01*
X106495068Y-85672058D01*
X106483517Y-85693669D01*
X106476404Y-85717118D01*
X106461571Y-85791689D01*
X106386189Y-85973678D01*
X106276751Y-86137463D01*
X106149492Y-86264722D01*
X106133956Y-86283653D01*
X106122405Y-86305264D01*
X106115292Y-86328713D01*
X106112890Y-86353099D01*
X106115292Y-86377485D01*
X106122405Y-86400934D01*
X106133956Y-86422545D01*
X106149501Y-86441487D01*
X106168443Y-86457032D01*
X106190054Y-86468583D01*
X106213503Y-86475696D01*
X106237889Y-86478098D01*
X106262275Y-86475696D01*
X106396484Y-86449000D01*
X106603516Y-86449000D01*
X106713252Y-86470828D01*
X106737638Y-86473230D01*
X106762024Y-86470828D01*
X106785473Y-86463715D01*
X106806323Y-86452571D01*
X106815877Y-86470445D01*
X106831422Y-86489387D01*
X106850364Y-86504932D01*
X106871975Y-86516483D01*
X106997833Y-86568615D01*
X106997835Y-86568616D01*
X107081151Y-86624286D01*
X107169973Y-86683635D01*
X107316365Y-86830027D01*
X107431385Y-87002167D01*
X107510611Y-87193436D01*
X107551000Y-87396484D01*
X107551000Y-87603516D01*
X107510611Y-87806564D01*
X107431385Y-87997833D01*
X107431384Y-87997835D01*
X107316365Y-88169973D01*
X107169973Y-88316365D01*
X106997835Y-88431384D01*
X106997834Y-88431385D01*
X106997833Y-88431385D01*
X106806564Y-88510611D01*
X106603516Y-88551000D01*
X106396484Y-88551000D01*
X106193436Y-88510611D01*
X106002167Y-88431385D01*
X106002166Y-88431385D01*
X106002165Y-88431384D01*
X105830027Y-88316365D01*
X105683635Y-88169973D01*
X105568616Y-87997835D01*
X105568615Y-87997833D01*
X105489389Y-87806564D01*
X105449000Y-87603516D01*
X105449000Y-87396484D01*
X105489389Y-87193436D01*
X105568615Y-87002167D01*
X105683635Y-86830027D01*
X105825374Y-86688288D01*
X105840919Y-86669346D01*
X105852470Y-86647735D01*
X105859583Y-86624286D01*
X105861985Y-86599900D01*
X105859583Y-86575514D01*
X105852470Y-86552065D01*
X105840919Y-86530454D01*
X105825374Y-86511512D01*
X105806432Y-86495967D01*
X105784821Y-86484416D01*
X105761372Y-86477303D01*
X105736986Y-86474901D01*
X105712600Y-86477303D01*
X105598493Y-86500000D01*
X105401507Y-86500000D01*
X105272710Y-86474381D01*
X105208311Y-86461571D01*
X105026322Y-86386189D01*
X104862537Y-86276751D01*
X104723249Y-86137463D01*
X104613811Y-85973678D01*
X104538429Y-85791689D01*
X104507773Y-85637571D01*
X104500000Y-85598493D01*
X104500000Y-85401507D01*
X104538429Y-85208312D01*
X104538429Y-85208311D01*
X104613811Y-85026322D01*
X104723249Y-84862537D01*
X104862537Y-84723249D01*
X105026322Y-84613811D01*
X105208311Y-84538429D01*
X105280851Y-84524000D01*
X105401507Y-84500000D01*
X105598493Y-84500000D01*
X105719149Y-84524000D01*
X105719149Y-84524000D01*
G37*
G36*
X112727290Y-68275619D02*
G01*
X112791689Y-68288429D01*
X112973678Y-68363811D01*
X113137463Y-68473249D01*
X113276751Y-68612537D01*
X113386189Y-68776322D01*
X113461571Y-68958311D01*
X113500000Y-69151509D01*
X113500000Y-69348491D01*
X113461571Y-69541689D01*
X113386189Y-69723678D01*
X113276751Y-69887463D01*
X113137463Y-70026751D01*
X112973678Y-70136189D01*
X112791689Y-70211571D01*
X112748971Y-70220068D01*
X112590107Y-70251668D01*
X112582655Y-70252402D01*
X112559206Y-70259515D01*
X112537595Y-70271066D01*
X112518653Y-70286611D01*
X112503108Y-70305553D01*
X112491557Y-70327164D01*
X112484444Y-70350613D01*
X112482042Y-70374999D01*
X112484444Y-70399385D01*
X112491557Y-70422834D01*
X112503108Y-70444445D01*
X112518653Y-70463387D01*
X112537595Y-70478932D01*
X112559206Y-70490483D01*
X112747833Y-70568615D01*
X112747835Y-70568616D01*
X112919973Y-70683635D01*
X113066365Y-70830027D01*
X113181385Y-71002167D01*
X113260611Y-71193436D01*
X113301000Y-71396484D01*
X113301000Y-71603516D01*
X113260611Y-71806564D01*
X113204368Y-71942347D01*
X113181384Y-71997835D01*
X113066365Y-72169973D01*
X112919973Y-72316365D01*
X112747835Y-72431384D01*
X112747834Y-72431385D01*
X112747833Y-72431385D01*
X112556564Y-72510611D01*
X112353516Y-72551000D01*
X112146484Y-72551000D01*
X111943436Y-72510611D01*
X111752167Y-72431385D01*
X111752166Y-72431385D01*
X111752165Y-72431384D01*
X111580027Y-72316365D01*
X111433635Y-72169973D01*
X111318616Y-71997835D01*
X111295632Y-71942347D01*
X111239389Y-71806564D01*
X111199000Y-71603516D01*
X111199000Y-71396484D01*
X111239389Y-71193436D01*
X111318615Y-71002167D01*
X111433635Y-70830027D01*
X111580027Y-70683635D01*
X111752165Y-70568616D01*
X111752167Y-70568615D01*
X111943436Y-70489389D01*
X112146484Y-70449000D01*
X112153104Y-70449000D01*
X112177490Y-70446598D01*
X112200939Y-70439485D01*
X112222550Y-70427934D01*
X112241492Y-70412389D01*
X112257037Y-70393447D01*
X112268588Y-70371836D01*
X112275701Y-70348387D01*
X112278103Y-70324001D01*
X112275701Y-70299615D01*
X112268588Y-70276166D01*
X112257037Y-70254555D01*
X112241492Y-70235613D01*
X112222550Y-70220068D01*
X112200943Y-70208519D01*
X112026322Y-70136189D01*
X111862537Y-70026751D01*
X111723249Y-69887463D01*
X111613811Y-69723678D01*
X111538429Y-69541689D01*
X111500000Y-69348491D01*
X111500000Y-69151509D01*
X111538429Y-68958311D01*
X111613811Y-68776322D01*
X111723249Y-68612537D01*
X111862537Y-68473249D01*
X112026322Y-68363811D01*
X112208311Y-68288429D01*
X112272710Y-68275619D01*
X112401507Y-68250000D01*
X112598493Y-68250000D01*
X112727290Y-68275619D01*
X112727290Y-68275619D01*
G37*
G36*
X110529130Y-70804886D02*
G01*
X110580697Y-70820529D01*
X110628222Y-70845932D01*
X110669881Y-70880119D01*
X110704068Y-70921778D01*
X110729471Y-70969303D01*
X110745114Y-71020870D01*
X110751000Y-71080638D01*
X110751000Y-71869362D01*
X110745114Y-71929130D01*
X110729471Y-71980697D01*
X110704068Y-72028222D01*
X110669881Y-72069881D01*
X110628222Y-72104068D01*
X110580697Y-72129471D01*
X110529130Y-72145114D01*
X110469362Y-72151000D01*
X109530638Y-72151000D01*
X109470870Y-72145114D01*
X109419303Y-72129471D01*
X109371778Y-72104068D01*
X109330119Y-72069881D01*
X109295932Y-72028222D01*
X109270529Y-71980697D01*
X109254886Y-71929130D01*
X109249000Y-71869362D01*
X109249000Y-71080638D01*
X109254886Y-71020870D01*
X109270529Y-70969303D01*
X109295932Y-70921778D01*
X109330119Y-70880119D01*
X109371778Y-70845932D01*
X109419303Y-70820529D01*
X109470870Y-70804886D01*
X109530638Y-70799000D01*
X110469362Y-70799000D01*
X110529130Y-70804886D01*
X110529130Y-70804886D01*
G37*
G36*
X108529130Y-70804886D02*
G01*
X108580697Y-70820529D01*
X108628222Y-70845932D01*
X108669881Y-70880119D01*
X108704068Y-70921778D01*
X108729471Y-70969303D01*
X108745114Y-71020870D01*
X108751000Y-71080638D01*
X108751000Y-71869362D01*
X108745114Y-71929130D01*
X108729471Y-71980697D01*
X108704068Y-72028222D01*
X108669881Y-72069881D01*
X108628222Y-72104068D01*
X108580697Y-72129471D01*
X108529130Y-72145114D01*
X108469362Y-72151000D01*
X107530638Y-72151000D01*
X107470870Y-72145114D01*
X107419303Y-72129471D01*
X107371778Y-72104068D01*
X107330119Y-72069881D01*
X107295932Y-72028222D01*
X107270529Y-71980697D01*
X107254886Y-71929130D01*
X107249000Y-71869362D01*
X107249000Y-71080638D01*
X107254886Y-71020870D01*
X107270529Y-70969303D01*
X107295932Y-70921778D01*
X107330119Y-70880119D01*
X107371778Y-70845932D01*
X107419303Y-70820529D01*
X107470870Y-70804886D01*
X107530638Y-70799000D01*
X108469362Y-70799000D01*
X108529130Y-70804886D01*
X108529130Y-70804886D01*
G37*
G36*
X108529130Y-68854886D02*
G01*
X108580697Y-68870529D01*
X108628222Y-68895932D01*
X108669881Y-68930119D01*
X108704068Y-68971778D01*
X108729471Y-69019303D01*
X108745114Y-69070870D01*
X108751000Y-69130638D01*
X108751000Y-69919362D01*
X108745114Y-69979130D01*
X108729471Y-70030697D01*
X108704068Y-70078222D01*
X108669881Y-70119881D01*
X108628222Y-70154068D01*
X108580697Y-70179471D01*
X108529130Y-70195114D01*
X108469362Y-70201000D01*
X107530638Y-70201000D01*
X107470870Y-70195114D01*
X107419303Y-70179471D01*
X107371778Y-70154068D01*
X107330119Y-70119881D01*
X107295932Y-70078222D01*
X107270529Y-70030697D01*
X107254886Y-69979130D01*
X107249000Y-69919362D01*
X107249000Y-69130638D01*
X107254886Y-69070870D01*
X107270529Y-69019303D01*
X107295932Y-68971778D01*
X107330119Y-68930119D01*
X107371778Y-68895932D01*
X107419303Y-68870529D01*
X107470870Y-68854886D01*
X107530638Y-68849000D01*
X108469362Y-68849000D01*
X108529130Y-68854886D01*
X108529130Y-68854886D01*
G37*
G36*
X110529130Y-68854886D02*
G01*
X110580697Y-68870529D01*
X110628222Y-68895932D01*
X110669881Y-68930119D01*
X110704068Y-68971778D01*
X110729471Y-69019303D01*
X110745114Y-69070870D01*
X110751000Y-69130638D01*
X110751000Y-69919362D01*
X110745114Y-69979130D01*
X110729471Y-70030697D01*
X110704068Y-70078222D01*
X110669881Y-70119881D01*
X110628222Y-70154068D01*
X110580697Y-70179471D01*
X110529130Y-70195114D01*
X110469362Y-70201000D01*
X109530638Y-70201000D01*
X109470870Y-70195114D01*
X109419303Y-70179471D01*
X109371778Y-70154068D01*
X109330119Y-70119881D01*
X109295932Y-70078222D01*
X109270529Y-70030697D01*
X109254886Y-69979130D01*
X109249000Y-69919362D01*
X109249000Y-69130638D01*
X109254886Y-69070870D01*
X109270529Y-69019303D01*
X109295932Y-68971778D01*
X109330119Y-68930119D01*
X109371778Y-68895932D01*
X109419303Y-68870529D01*
X109470870Y-68854886D01*
X109530638Y-68849000D01*
X110469362Y-68849000D01*
X110529130Y-68854886D01*
X110529130Y-68854886D01*
G37*
G36*
X111806564Y-64239389D02*
G01*
X111997833Y-64318615D01*
X111997835Y-64318616D01*
X112169973Y-64433635D01*
X112316365Y-64580027D01*
X112412350Y-64723678D01*
X112431385Y-64752167D01*
X112510611Y-64943436D01*
X112551000Y-65146484D01*
X112551000Y-65353516D01*
X112510611Y-65556564D01*
X112431385Y-65747833D01*
X112431384Y-65747835D01*
X112316365Y-65919973D01*
X112169973Y-66066365D01*
X111997835Y-66181384D01*
X111997834Y-66181385D01*
X111997833Y-66181385D01*
X111806564Y-66260611D01*
X111603516Y-66301000D01*
X111396484Y-66301000D01*
X111193436Y-66260611D01*
X111002167Y-66181385D01*
X111002166Y-66181385D01*
X111002165Y-66181384D01*
X110830027Y-66066365D01*
X110683635Y-65919973D01*
X110568616Y-65747835D01*
X110568615Y-65747833D01*
X110489389Y-65556564D01*
X110449000Y-65353516D01*
X110449000Y-65146484D01*
X110489389Y-64943436D01*
X110568615Y-64752167D01*
X110587651Y-64723678D01*
X110683635Y-64580027D01*
X110830027Y-64433635D01*
X111002165Y-64318616D01*
X111002167Y-64318615D01*
X111193436Y-64239389D01*
X111396484Y-64199000D01*
X111603516Y-64199000D01*
X111806564Y-64239389D01*
X111806564Y-64239389D01*
G37*
G36*
X106527290Y-63275619D02*
G01*
X106591689Y-63288429D01*
X106773678Y-63363811D01*
X106937463Y-63473249D01*
X107076751Y-63612537D01*
X107186189Y-63776322D01*
X107261571Y-63958311D01*
X107300000Y-64151509D01*
X107300000Y-64348491D01*
X107261571Y-64541689D01*
X107186189Y-64723678D01*
X107076751Y-64887463D01*
X106937463Y-65026751D01*
X106773678Y-65136189D01*
X106591689Y-65211571D01*
X106527290Y-65224381D01*
X106398493Y-65250000D01*
X106201507Y-65250000D01*
X106072710Y-65224381D01*
X106008311Y-65211571D01*
X105826322Y-65136189D01*
X105662537Y-65026751D01*
X105523249Y-64887463D01*
X105413811Y-64723678D01*
X105338429Y-64541689D01*
X105300000Y-64348491D01*
X105300000Y-64151509D01*
X105338429Y-63958311D01*
X105413811Y-63776322D01*
X105523249Y-63612537D01*
X105662537Y-63473249D01*
X105826322Y-63363811D01*
X106008311Y-63288429D01*
X106072710Y-63275619D01*
X106201507Y-63250000D01*
X106398493Y-63250000D01*
X106527290Y-63275619D01*
X106527290Y-63275619D01*
G37*
M02*
