M48
METRIC
T1C0.400
T2C1.200
%
G90
G05
T1
X105.25Y-74.75
X105.25Y-76.0
X105.25Y-80.25
X105.25Y-82.0
X106.0Y-75.375
X106.0Y-81.125
X106.75Y-76.0
X106.75Y-80.25
X107.5Y-75.375
X107.5Y-81.125
X108.25Y-74.75
X108.25Y-76.0
X108.25Y-80.25
X108.25Y-82.0
X109.75Y-74.75
X109.75Y-76.0
X109.75Y-80.25
X109.75Y-82.0
X110.5Y-75.375
X110.5Y-81.125
X111.25Y-76.0
X111.25Y-80.25
X112.0Y-75.375
X112.0Y-81.125
X112.75Y-74.75
X112.75Y-76.0
X112.75Y-80.25
X112.75Y-82.0
T2
X106.75Y-74.25
X106.75Y-82.25
X111.25Y-74.25
X111.25Y-82.25
T0
M30
