G04 #@! TF.GenerationSoftware,KiCad,Pcbnew,(5.1.0-0)*
G04 #@! TF.CreationDate,2020-07-06T15:42:16+02:00*
G04 #@! TF.ProjectId,POxiM-fingersensor,504f7869-4d2d-4666-996e-67657273656e,Test proto*
G04 #@! TF.SameCoordinates,Original*
G04 #@! TF.FileFunction,Legend,Top*
G04 #@! TF.FilePolarity,Positive*
%FSLAX46Y46*%
G04 Gerber Fmt 4.6, Leading zero omitted, Abs format (unit mm)*
G04 Created by KiCad (PCBNEW (5.1.0-0)) date 2020-07-06 15:42:16*
%MOMM*%
%LPD*%
G04 APERTURE LIST*
%ADD10C,0.100000*%
%ADD11C,0.150000*%
%ADD12C,0.120000*%
%ADD13C,0.010000*%
G04 APERTURE END LIST*
D10*
G36*
X114000000Y-80600000D02*
G01*
X113250000Y-80600000D01*
X113250000Y-80000000D01*
X113000000Y-79750000D01*
X109500000Y-79750000D01*
X109250000Y-80000000D01*
X109250000Y-80600000D01*
X108750000Y-80600000D01*
X108750000Y-80000000D01*
X108500000Y-79750000D01*
X105000000Y-79750000D01*
X104750000Y-80000000D01*
X104750000Y-80600000D01*
X104000000Y-80600000D01*
X104000000Y-79000000D01*
X114000000Y-79000000D01*
X114000000Y-80600000D01*
G37*
X114000000Y-80600000D02*
X113250000Y-80600000D01*
X113250000Y-80000000D01*
X113000000Y-79750000D01*
X109500000Y-79750000D01*
X109250000Y-80000000D01*
X109250000Y-80600000D01*
X108750000Y-80600000D01*
X108750000Y-80000000D01*
X108500000Y-79750000D01*
X105000000Y-79750000D01*
X104750000Y-80000000D01*
X104750000Y-80600000D01*
X104000000Y-80600000D01*
X104000000Y-79000000D01*
X114000000Y-79000000D01*
X114000000Y-80600000D01*
D11*
X104000000Y-79000000D02*
X114000000Y-79000000D01*
X112750000Y-79750000D02*
G75*
G02X113250000Y-80250000I0J-500000D01*
G01*
X109250000Y-80250000D02*
G75*
G02X109750000Y-79750000I500000J0D01*
G01*
X108750000Y-80600000D02*
X109250000Y-80600000D01*
X109750000Y-79750000D02*
X112750000Y-79750000D01*
X104000000Y-80600000D02*
X104750000Y-80600000D01*
X104000000Y-79000000D02*
X104000000Y-80600000D01*
X114000000Y-79000000D02*
X114000000Y-80600000D01*
X104750000Y-80250000D02*
G75*
G02X105250000Y-79750000I500000J0D01*
G01*
X108250000Y-79750000D02*
G75*
G02X108750000Y-80250000I0J-500000D01*
G01*
X113250000Y-80600000D02*
X114000000Y-80600000D01*
X108750000Y-80250000D02*
X108750000Y-80600000D01*
X105250000Y-79750000D02*
X108250000Y-79750000D01*
X109250000Y-80250000D02*
X109250000Y-80600000D01*
X113250000Y-80250000D02*
X113250000Y-80600000D01*
X104750000Y-80250000D02*
X104750000Y-80600000D01*
X110361904Y-68462023D02*
X109561904Y-68462023D01*
X110361904Y-67623928D02*
X109980952Y-67890595D01*
X110361904Y-68081071D02*
X109561904Y-68081071D01*
X109561904Y-67776309D01*
X109600000Y-67700119D01*
X109638095Y-67662023D01*
X109714285Y-67623928D01*
X109828571Y-67623928D01*
X109904761Y-67662023D01*
X109942857Y-67700119D01*
X109980952Y-67776309D01*
X109980952Y-68081071D01*
X112942857Y-67859404D02*
X112942857Y-68126071D01*
X113361904Y-68126071D02*
X112561904Y-68126071D01*
X112561904Y-67745119D01*
X113361904Y-67440357D02*
X112828571Y-67440357D01*
X112561904Y-67440357D02*
X112600000Y-67478452D01*
X112638095Y-67440357D01*
X112600000Y-67402261D01*
X112561904Y-67440357D01*
X112638095Y-67440357D01*
X112828571Y-67059404D02*
X113361904Y-67059404D01*
X112904761Y-67059404D02*
X112866666Y-67021309D01*
X112828571Y-66945119D01*
X112828571Y-66830833D01*
X112866666Y-66754642D01*
X112942857Y-66716547D01*
X113361904Y-66716547D01*
X112828571Y-65992738D02*
X113476190Y-65992738D01*
X113552380Y-66030833D01*
X113590476Y-66068928D01*
X113628571Y-66145119D01*
X113628571Y-66259404D01*
X113590476Y-66335595D01*
X113323809Y-65992738D02*
X113361904Y-66068928D01*
X113361904Y-66221309D01*
X113323809Y-66297500D01*
X113285714Y-66335595D01*
X113209523Y-66373690D01*
X112980952Y-66373690D01*
X112904761Y-66335595D01*
X112866666Y-66297500D01*
X112828571Y-66221309D01*
X112828571Y-66068928D01*
X112866666Y-65992738D01*
X113323809Y-65649880D02*
X113361904Y-65573690D01*
X113361904Y-65421309D01*
X113323809Y-65345119D01*
X113247619Y-65307023D01*
X113209523Y-65307023D01*
X113133333Y-65345119D01*
X113095238Y-65421309D01*
X113095238Y-65535595D01*
X113057142Y-65611785D01*
X112980952Y-65649880D01*
X112942857Y-65649880D01*
X112866666Y-65611785D01*
X112828571Y-65535595D01*
X112828571Y-65421309D01*
X112866666Y-65345119D01*
X113323809Y-64659404D02*
X113361904Y-64735595D01*
X113361904Y-64887976D01*
X113323809Y-64964166D01*
X113247619Y-65002261D01*
X112942857Y-65002261D01*
X112866666Y-64964166D01*
X112828571Y-64887976D01*
X112828571Y-64735595D01*
X112866666Y-64659404D01*
X112942857Y-64621309D01*
X113019047Y-64621309D01*
X113095238Y-65002261D01*
X112828571Y-64278452D02*
X113361904Y-64278452D01*
X112904761Y-64278452D02*
X112866666Y-64240357D01*
X112828571Y-64164166D01*
X112828571Y-64049880D01*
X112866666Y-63973690D01*
X112942857Y-63935595D01*
X113361904Y-63935595D01*
X113323809Y-63592738D02*
X113361904Y-63516547D01*
X113361904Y-63364166D01*
X113323809Y-63287976D01*
X113247619Y-63249880D01*
X113209523Y-63249880D01*
X113133333Y-63287976D01*
X113095238Y-63364166D01*
X113095238Y-63478452D01*
X113057142Y-63554642D01*
X112980952Y-63592738D01*
X112942857Y-63592738D01*
X112866666Y-63554642D01*
X112828571Y-63478452D01*
X112828571Y-63364166D01*
X112866666Y-63287976D01*
X108361904Y-68004880D02*
X107980952Y-68271547D01*
X108361904Y-68462023D02*
X107561904Y-68462023D01*
X107561904Y-68157261D01*
X107600000Y-68081071D01*
X107638095Y-68042976D01*
X107714285Y-68004880D01*
X107828571Y-68004880D01*
X107904761Y-68042976D01*
X107942857Y-68081071D01*
X107980952Y-68157261D01*
X107980952Y-68462023D01*
X108323809Y-67357261D02*
X108361904Y-67433452D01*
X108361904Y-67585833D01*
X108323809Y-67662023D01*
X108247619Y-67700119D01*
X107942857Y-67700119D01*
X107866666Y-67662023D01*
X107828571Y-67585833D01*
X107828571Y-67433452D01*
X107866666Y-67357261D01*
X107942857Y-67319166D01*
X108019047Y-67319166D01*
X108095238Y-67700119D01*
X108361904Y-66633452D02*
X107561904Y-66633452D01*
X108323809Y-66633452D02*
X108361904Y-66709642D01*
X108361904Y-66862023D01*
X108323809Y-66938214D01*
X108285714Y-66976309D01*
X108209523Y-67014404D01*
X107980952Y-67014404D01*
X107904761Y-66976309D01*
X107866666Y-66938214D01*
X107828571Y-66862023D01*
X107828571Y-66709642D01*
X107866666Y-66633452D01*
X110111904Y-65535595D02*
X109730952Y-65802261D01*
X110111904Y-65992738D02*
X109311904Y-65992738D01*
X109311904Y-65687976D01*
X109350000Y-65611785D01*
X109388095Y-65573690D01*
X109464285Y-65535595D01*
X109578571Y-65535595D01*
X109654761Y-65573690D01*
X109692857Y-65611785D01*
X109730952Y-65687976D01*
X109730952Y-65992738D01*
X110073809Y-64887976D02*
X110111904Y-64964166D01*
X110111904Y-65116547D01*
X110073809Y-65192738D01*
X109997619Y-65230833D01*
X109692857Y-65230833D01*
X109616666Y-65192738D01*
X109578571Y-65116547D01*
X109578571Y-64964166D01*
X109616666Y-64887976D01*
X109692857Y-64849880D01*
X109769047Y-64849880D01*
X109845238Y-65230833D01*
X109578571Y-64583214D02*
X110111904Y-64392738D01*
X109578571Y-64202261D01*
X110111904Y-63287976D02*
X109311904Y-63287976D01*
D12*
X106515000Y-86485000D02*
X110600000Y-86485000D01*
X106515000Y-84315000D02*
X106515000Y-86485000D01*
X110600000Y-84315000D02*
X106515000Y-84315000D01*
D13*
G36*
X111377161Y-88518699D02*
G01*
X111394167Y-88519012D01*
X111408048Y-88519555D01*
X111419293Y-88520362D01*
X111428391Y-88521466D01*
X111435831Y-88522901D01*
X111442100Y-88524698D01*
X111447688Y-88526893D01*
X111452033Y-88528976D01*
X111466699Y-88538791D01*
X111480095Y-88552075D01*
X111490692Y-88567220D01*
X111493316Y-88572354D01*
X111500630Y-88588190D01*
X111500630Y-89611810D01*
X111493316Y-89627645D01*
X111482282Y-89645667D01*
X111467568Y-89660504D01*
X111449808Y-89671654D01*
X111429635Y-89678614D01*
X111428749Y-89678807D01*
X111421021Y-89679831D01*
X111409314Y-89680625D01*
X111394723Y-89681185D01*
X111378344Y-89681507D01*
X111361272Y-89681587D01*
X111344603Y-89681421D01*
X111329432Y-89681006D01*
X111316856Y-89680338D01*
X111307969Y-89679413D01*
X111306854Y-89679221D01*
X111286182Y-89672803D01*
X111267836Y-89662042D01*
X111252392Y-89647365D01*
X111241093Y-89630493D01*
X111233930Y-89616890D01*
X111233364Y-89488620D01*
X111233279Y-89466882D01*
X111233235Y-89447082D01*
X111233248Y-89428752D01*
X111233330Y-89411423D01*
X111233497Y-89394626D01*
X111233764Y-89377893D01*
X111234144Y-89360754D01*
X111234653Y-89342742D01*
X111235304Y-89323387D01*
X111236113Y-89302221D01*
X111237093Y-89278774D01*
X111238260Y-89252580D01*
X111239628Y-89223168D01*
X111241210Y-89190070D01*
X111243023Y-89152817D01*
X111244993Y-89112700D01*
X111246697Y-89077668D01*
X111248290Y-89044067D01*
X111249757Y-89012244D01*
X111251085Y-88982547D01*
X111252259Y-88955325D01*
X111253266Y-88930924D01*
X111254091Y-88909694D01*
X111254719Y-88891983D01*
X111255137Y-88878137D01*
X111255331Y-88868506D01*
X111255286Y-88863438D01*
X111255178Y-88862731D01*
X111253048Y-88863139D01*
X111250573Y-88867256D01*
X111250377Y-88867755D01*
X111249254Y-88870951D01*
X111246581Y-88878690D01*
X111242449Y-88890709D01*
X111236947Y-88906744D01*
X111230167Y-88926530D01*
X111222198Y-88949804D01*
X111213130Y-88976301D01*
X111203055Y-89005757D01*
X111192062Y-89037908D01*
X111180242Y-89072490D01*
X111167685Y-89109240D01*
X111154482Y-89147892D01*
X111140723Y-89188183D01*
X111126497Y-89229848D01*
X111119252Y-89251074D01*
X111101159Y-89304042D01*
X111084623Y-89352373D01*
X111069581Y-89396242D01*
X111055971Y-89435827D01*
X111043731Y-89471305D01*
X111032799Y-89502853D01*
X111023111Y-89530647D01*
X111014606Y-89554865D01*
X111007222Y-89575683D01*
X111000896Y-89593279D01*
X110995566Y-89607830D01*
X110991170Y-89619512D01*
X110987645Y-89628502D01*
X110984929Y-89634978D01*
X110982960Y-89639117D01*
X110982231Y-89640373D01*
X110969833Y-89655156D01*
X110954058Y-89667427D01*
X110936750Y-89675881D01*
X110930905Y-89677618D01*
X110924067Y-89678863D01*
X110915322Y-89679688D01*
X110903758Y-89680166D01*
X110888464Y-89680369D01*
X110879600Y-89680390D01*
X110863506Y-89680362D01*
X110851533Y-89680201D01*
X110842720Y-89679791D01*
X110836106Y-89679015D01*
X110830733Y-89677757D01*
X110825639Y-89675900D01*
X110819865Y-89673329D01*
X110819345Y-89673089D01*
X110807071Y-89665875D01*
X110794735Y-89656010D01*
X110783847Y-89644889D01*
X110775918Y-89633908D01*
X110774884Y-89631982D01*
X110773657Y-89628770D01*
X110770887Y-89621012D01*
X110766668Y-89608972D01*
X110761088Y-89592915D01*
X110754239Y-89573105D01*
X110746212Y-89549806D01*
X110737097Y-89523284D01*
X110726986Y-89493802D01*
X110715968Y-89461626D01*
X110704135Y-89427018D01*
X110691577Y-89390245D01*
X110678385Y-89351570D01*
X110664651Y-89311258D01*
X110650464Y-89269574D01*
X110643327Y-89248590D01*
X110628982Y-89206420D01*
X110615064Y-89165551D01*
X110601662Y-89126241D01*
X110588865Y-89088751D01*
X110576761Y-89053340D01*
X110565442Y-89020269D01*
X110554994Y-88989795D01*
X110545509Y-88962181D01*
X110537075Y-88937685D01*
X110529780Y-88916566D01*
X110523715Y-88899086D01*
X110518969Y-88885503D01*
X110515630Y-88876078D01*
X110513788Y-88871070D01*
X110513452Y-88870299D01*
X110510752Y-88868865D01*
X110510168Y-88869144D01*
X110510122Y-88871796D01*
X110510315Y-88879182D01*
X110510734Y-88890964D01*
X110511363Y-88906802D01*
X110512186Y-88926357D01*
X110513190Y-88949290D01*
X110514359Y-88975262D01*
X110515677Y-89003934D01*
X110517131Y-89034967D01*
X110518705Y-89068022D01*
X110520384Y-89102760D01*
X110521621Y-89128055D01*
X110523714Y-89170753D01*
X110525562Y-89208815D01*
X110527179Y-89242680D01*
X110528579Y-89272785D01*
X110529776Y-89299570D01*
X110530785Y-89323470D01*
X110531618Y-89344926D01*
X110532292Y-89364373D01*
X110532818Y-89382252D01*
X110533213Y-89398999D01*
X110533489Y-89415052D01*
X110533661Y-89430850D01*
X110533743Y-89446831D01*
X110533749Y-89463432D01*
X110533693Y-89481092D01*
X110533590Y-89500050D01*
X110533418Y-89527142D01*
X110533247Y-89549639D01*
X110533054Y-89568025D01*
X110532814Y-89582786D01*
X110532502Y-89594406D01*
X110532095Y-89603370D01*
X110531568Y-89610162D01*
X110530896Y-89615268D01*
X110530057Y-89619171D01*
X110529024Y-89622358D01*
X110527775Y-89625312D01*
X110527255Y-89626437D01*
X110519977Y-89638562D01*
X110509879Y-89650833D01*
X110498447Y-89661681D01*
X110487164Y-89669531D01*
X110485950Y-89670167D01*
X110476225Y-89674257D01*
X110465166Y-89677792D01*
X110461009Y-89678804D01*
X110453834Y-89679723D01*
X110442640Y-89680437D01*
X110428483Y-89680945D01*
X110412420Y-89681244D01*
X110395508Y-89681332D01*
X110378804Y-89681208D01*
X110363364Y-89680870D01*
X110350246Y-89680315D01*
X110340504Y-89679543D01*
X110336941Y-89679019D01*
X110318874Y-89673024D01*
X110301852Y-89662842D01*
X110287005Y-89649366D01*
X110275463Y-89633490D01*
X110272779Y-89628320D01*
X110266190Y-89614350D01*
X110266190Y-88585650D01*
X110272779Y-88571680D01*
X110283509Y-88554677D01*
X110298265Y-88540008D01*
X110316233Y-88528462D01*
X110318260Y-88527470D01*
X110334770Y-88519610D01*
X110452880Y-88519610D01*
X110480431Y-88519614D01*
X110503387Y-88519641D01*
X110522229Y-88519712D01*
X110537441Y-88519849D01*
X110549506Y-88520073D01*
X110558909Y-88520404D01*
X110566131Y-88520866D01*
X110571657Y-88521478D01*
X110575969Y-88522262D01*
X110579552Y-88523239D01*
X110582888Y-88524432D01*
X110585472Y-88525461D01*
X110600696Y-88533658D01*
X110614754Y-88544985D01*
X110626188Y-88558123D01*
X110631692Y-88567355D01*
X110632936Y-88570729D01*
X110635610Y-88578584D01*
X110639614Y-88590603D01*
X110644845Y-88606468D01*
X110651201Y-88625862D01*
X110658579Y-88648468D01*
X110666879Y-88673967D01*
X110675996Y-88702044D01*
X110685830Y-88732380D01*
X110696278Y-88764658D01*
X110707239Y-88798561D01*
X110718609Y-88833772D01*
X110730287Y-88869972D01*
X110742171Y-88906845D01*
X110754159Y-88944074D01*
X110766148Y-88981341D01*
X110778037Y-89018329D01*
X110789722Y-89054720D01*
X110801103Y-89090197D01*
X110812077Y-89124442D01*
X110822542Y-89157139D01*
X110832396Y-89187970D01*
X110841536Y-89216618D01*
X110849861Y-89242765D01*
X110857268Y-89266094D01*
X110863655Y-89286288D01*
X110868921Y-89303029D01*
X110872962Y-89315999D01*
X110875678Y-89324883D01*
X110876965Y-89329361D01*
X110877060Y-89329829D01*
X110879085Y-89331047D01*
X110880235Y-89331134D01*
X110881446Y-89328734D01*
X110884152Y-89321620D01*
X110888310Y-89309920D01*
X110893879Y-89293763D01*
X110900815Y-89273277D01*
X110909076Y-89248590D01*
X110918620Y-89219829D01*
X110929404Y-89187123D01*
X110941385Y-89150600D01*
X110954522Y-89110389D01*
X110968772Y-89066616D01*
X110984092Y-89019411D01*
X111000439Y-88968902D01*
X111003836Y-88958389D01*
X111017532Y-88916042D01*
X111030882Y-88874850D01*
X111043794Y-88835088D01*
X111056180Y-88797033D01*
X111067947Y-88760960D01*
X111079006Y-88727143D01*
X111089266Y-88695860D01*
X111098636Y-88667384D01*
X111107026Y-88641993D01*
X111114346Y-88619961D01*
X111120504Y-88601564D01*
X111125410Y-88587077D01*
X111128974Y-88576776D01*
X111131104Y-88570937D01*
X111131502Y-88569982D01*
X111141739Y-88553520D01*
X111155780Y-88539281D01*
X111172478Y-88528343D01*
X111178807Y-88525466D01*
X111182435Y-88524051D01*
X111185995Y-88522880D01*
X111189995Y-88521927D01*
X111194944Y-88521163D01*
X111201351Y-88520562D01*
X111209722Y-88520097D01*
X111220567Y-88519739D01*
X111234394Y-88519462D01*
X111251710Y-88519238D01*
X111273025Y-88519040D01*
X111298847Y-88518840D01*
X111302510Y-88518813D01*
X111331821Y-88518633D01*
X111356542Y-88518584D01*
X111377161Y-88518699D01*
X111377161Y-88518699D01*
G37*
X111377161Y-88518699D02*
X111394167Y-88519012D01*
X111408048Y-88519555D01*
X111419293Y-88520362D01*
X111428391Y-88521466D01*
X111435831Y-88522901D01*
X111442100Y-88524698D01*
X111447688Y-88526893D01*
X111452033Y-88528976D01*
X111466699Y-88538791D01*
X111480095Y-88552075D01*
X111490692Y-88567220D01*
X111493316Y-88572354D01*
X111500630Y-88588190D01*
X111500630Y-89611810D01*
X111493316Y-89627645D01*
X111482282Y-89645667D01*
X111467568Y-89660504D01*
X111449808Y-89671654D01*
X111429635Y-89678614D01*
X111428749Y-89678807D01*
X111421021Y-89679831D01*
X111409314Y-89680625D01*
X111394723Y-89681185D01*
X111378344Y-89681507D01*
X111361272Y-89681587D01*
X111344603Y-89681421D01*
X111329432Y-89681006D01*
X111316856Y-89680338D01*
X111307969Y-89679413D01*
X111306854Y-89679221D01*
X111286182Y-89672803D01*
X111267836Y-89662042D01*
X111252392Y-89647365D01*
X111241093Y-89630493D01*
X111233930Y-89616890D01*
X111233364Y-89488620D01*
X111233279Y-89466882D01*
X111233235Y-89447082D01*
X111233248Y-89428752D01*
X111233330Y-89411423D01*
X111233497Y-89394626D01*
X111233764Y-89377893D01*
X111234144Y-89360754D01*
X111234653Y-89342742D01*
X111235304Y-89323387D01*
X111236113Y-89302221D01*
X111237093Y-89278774D01*
X111238260Y-89252580D01*
X111239628Y-89223168D01*
X111241210Y-89190070D01*
X111243023Y-89152817D01*
X111244993Y-89112700D01*
X111246697Y-89077668D01*
X111248290Y-89044067D01*
X111249757Y-89012244D01*
X111251085Y-88982547D01*
X111252259Y-88955325D01*
X111253266Y-88930924D01*
X111254091Y-88909694D01*
X111254719Y-88891983D01*
X111255137Y-88878137D01*
X111255331Y-88868506D01*
X111255286Y-88863438D01*
X111255178Y-88862731D01*
X111253048Y-88863139D01*
X111250573Y-88867256D01*
X111250377Y-88867755D01*
X111249254Y-88870951D01*
X111246581Y-88878690D01*
X111242449Y-88890709D01*
X111236947Y-88906744D01*
X111230167Y-88926530D01*
X111222198Y-88949804D01*
X111213130Y-88976301D01*
X111203055Y-89005757D01*
X111192062Y-89037908D01*
X111180242Y-89072490D01*
X111167685Y-89109240D01*
X111154482Y-89147892D01*
X111140723Y-89188183D01*
X111126497Y-89229848D01*
X111119252Y-89251074D01*
X111101159Y-89304042D01*
X111084623Y-89352373D01*
X111069581Y-89396242D01*
X111055971Y-89435827D01*
X111043731Y-89471305D01*
X111032799Y-89502853D01*
X111023111Y-89530647D01*
X111014606Y-89554865D01*
X111007222Y-89575683D01*
X111000896Y-89593279D01*
X110995566Y-89607830D01*
X110991170Y-89619512D01*
X110987645Y-89628502D01*
X110984929Y-89634978D01*
X110982960Y-89639117D01*
X110982231Y-89640373D01*
X110969833Y-89655156D01*
X110954058Y-89667427D01*
X110936750Y-89675881D01*
X110930905Y-89677618D01*
X110924067Y-89678863D01*
X110915322Y-89679688D01*
X110903758Y-89680166D01*
X110888464Y-89680369D01*
X110879600Y-89680390D01*
X110863506Y-89680362D01*
X110851533Y-89680201D01*
X110842720Y-89679791D01*
X110836106Y-89679015D01*
X110830733Y-89677757D01*
X110825639Y-89675900D01*
X110819865Y-89673329D01*
X110819345Y-89673089D01*
X110807071Y-89665875D01*
X110794735Y-89656010D01*
X110783847Y-89644889D01*
X110775918Y-89633908D01*
X110774884Y-89631982D01*
X110773657Y-89628770D01*
X110770887Y-89621012D01*
X110766668Y-89608972D01*
X110761088Y-89592915D01*
X110754239Y-89573105D01*
X110746212Y-89549806D01*
X110737097Y-89523284D01*
X110726986Y-89493802D01*
X110715968Y-89461626D01*
X110704135Y-89427018D01*
X110691577Y-89390245D01*
X110678385Y-89351570D01*
X110664651Y-89311258D01*
X110650464Y-89269574D01*
X110643327Y-89248590D01*
X110628982Y-89206420D01*
X110615064Y-89165551D01*
X110601662Y-89126241D01*
X110588865Y-89088751D01*
X110576761Y-89053340D01*
X110565442Y-89020269D01*
X110554994Y-88989795D01*
X110545509Y-88962181D01*
X110537075Y-88937685D01*
X110529780Y-88916566D01*
X110523715Y-88899086D01*
X110518969Y-88885503D01*
X110515630Y-88876078D01*
X110513788Y-88871070D01*
X110513452Y-88870299D01*
X110510752Y-88868865D01*
X110510168Y-88869144D01*
X110510122Y-88871796D01*
X110510315Y-88879182D01*
X110510734Y-88890964D01*
X110511363Y-88906802D01*
X110512186Y-88926357D01*
X110513190Y-88949290D01*
X110514359Y-88975262D01*
X110515677Y-89003934D01*
X110517131Y-89034967D01*
X110518705Y-89068022D01*
X110520384Y-89102760D01*
X110521621Y-89128055D01*
X110523714Y-89170753D01*
X110525562Y-89208815D01*
X110527179Y-89242680D01*
X110528579Y-89272785D01*
X110529776Y-89299570D01*
X110530785Y-89323470D01*
X110531618Y-89344926D01*
X110532292Y-89364373D01*
X110532818Y-89382252D01*
X110533213Y-89398999D01*
X110533489Y-89415052D01*
X110533661Y-89430850D01*
X110533743Y-89446831D01*
X110533749Y-89463432D01*
X110533693Y-89481092D01*
X110533590Y-89500050D01*
X110533418Y-89527142D01*
X110533247Y-89549639D01*
X110533054Y-89568025D01*
X110532814Y-89582786D01*
X110532502Y-89594406D01*
X110532095Y-89603370D01*
X110531568Y-89610162D01*
X110530896Y-89615268D01*
X110530057Y-89619171D01*
X110529024Y-89622358D01*
X110527775Y-89625312D01*
X110527255Y-89626437D01*
X110519977Y-89638562D01*
X110509879Y-89650833D01*
X110498447Y-89661681D01*
X110487164Y-89669531D01*
X110485950Y-89670167D01*
X110476225Y-89674257D01*
X110465166Y-89677792D01*
X110461009Y-89678804D01*
X110453834Y-89679723D01*
X110442640Y-89680437D01*
X110428483Y-89680945D01*
X110412420Y-89681244D01*
X110395508Y-89681332D01*
X110378804Y-89681208D01*
X110363364Y-89680870D01*
X110350246Y-89680315D01*
X110340504Y-89679543D01*
X110336941Y-89679019D01*
X110318874Y-89673024D01*
X110301852Y-89662842D01*
X110287005Y-89649366D01*
X110275463Y-89633490D01*
X110272779Y-89628320D01*
X110266190Y-89614350D01*
X110266190Y-88585650D01*
X110272779Y-88571680D01*
X110283509Y-88554677D01*
X110298265Y-88540008D01*
X110316233Y-88528462D01*
X110318260Y-88527470D01*
X110334770Y-88519610D01*
X110452880Y-88519610D01*
X110480431Y-88519614D01*
X110503387Y-88519641D01*
X110522229Y-88519712D01*
X110537441Y-88519849D01*
X110549506Y-88520073D01*
X110558909Y-88520404D01*
X110566131Y-88520866D01*
X110571657Y-88521478D01*
X110575969Y-88522262D01*
X110579552Y-88523239D01*
X110582888Y-88524432D01*
X110585472Y-88525461D01*
X110600696Y-88533658D01*
X110614754Y-88544985D01*
X110626188Y-88558123D01*
X110631692Y-88567355D01*
X110632936Y-88570729D01*
X110635610Y-88578584D01*
X110639614Y-88590603D01*
X110644845Y-88606468D01*
X110651201Y-88625862D01*
X110658579Y-88648468D01*
X110666879Y-88673967D01*
X110675996Y-88702044D01*
X110685830Y-88732380D01*
X110696278Y-88764658D01*
X110707239Y-88798561D01*
X110718609Y-88833772D01*
X110730287Y-88869972D01*
X110742171Y-88906845D01*
X110754159Y-88944074D01*
X110766148Y-88981341D01*
X110778037Y-89018329D01*
X110789722Y-89054720D01*
X110801103Y-89090197D01*
X110812077Y-89124442D01*
X110822542Y-89157139D01*
X110832396Y-89187970D01*
X110841536Y-89216618D01*
X110849861Y-89242765D01*
X110857268Y-89266094D01*
X110863655Y-89286288D01*
X110868921Y-89303029D01*
X110872962Y-89315999D01*
X110875678Y-89324883D01*
X110876965Y-89329361D01*
X110877060Y-89329829D01*
X110879085Y-89331047D01*
X110880235Y-89331134D01*
X110881446Y-89328734D01*
X110884152Y-89321620D01*
X110888310Y-89309920D01*
X110893879Y-89293763D01*
X110900815Y-89273277D01*
X110909076Y-89248590D01*
X110918620Y-89219829D01*
X110929404Y-89187123D01*
X110941385Y-89150600D01*
X110954522Y-89110389D01*
X110968772Y-89066616D01*
X110984092Y-89019411D01*
X111000439Y-88968902D01*
X111003836Y-88958389D01*
X111017532Y-88916042D01*
X111030882Y-88874850D01*
X111043794Y-88835088D01*
X111056180Y-88797033D01*
X111067947Y-88760960D01*
X111079006Y-88727143D01*
X111089266Y-88695860D01*
X111098636Y-88667384D01*
X111107026Y-88641993D01*
X111114346Y-88619961D01*
X111120504Y-88601564D01*
X111125410Y-88587077D01*
X111128974Y-88576776D01*
X111131104Y-88570937D01*
X111131502Y-88569982D01*
X111141739Y-88553520D01*
X111155780Y-88539281D01*
X111172478Y-88528343D01*
X111178807Y-88525466D01*
X111182435Y-88524051D01*
X111185995Y-88522880D01*
X111189995Y-88521927D01*
X111194944Y-88521163D01*
X111201351Y-88520562D01*
X111209722Y-88520097D01*
X111220567Y-88519739D01*
X111234394Y-88519462D01*
X111251710Y-88519238D01*
X111273025Y-88519040D01*
X111298847Y-88518840D01*
X111302510Y-88518813D01*
X111331821Y-88518633D01*
X111356542Y-88518584D01*
X111377161Y-88518699D01*
G36*
X109843900Y-88921568D02*
G01*
X109938561Y-89016186D01*
X110000775Y-88953785D01*
X110017014Y-88937555D01*
X110033574Y-88921109D01*
X110049745Y-88905146D01*
X110064815Y-88890363D01*
X110078075Y-88877460D01*
X110088814Y-88867133D01*
X110092866Y-88863295D01*
X110122743Y-88835208D01*
X110122076Y-89224779D01*
X110121410Y-89614350D01*
X110115775Y-89626437D01*
X110108497Y-89638562D01*
X110098399Y-89650833D01*
X110086967Y-89661681D01*
X110075684Y-89669531D01*
X110074470Y-89670167D01*
X110068703Y-89672895D01*
X110062874Y-89675157D01*
X110056461Y-89676994D01*
X110048939Y-89678449D01*
X110039787Y-89679564D01*
X110028482Y-89680381D01*
X110014501Y-89680941D01*
X109997321Y-89681288D01*
X109976421Y-89681464D01*
X109951276Y-89681509D01*
X109933959Y-89681492D01*
X109906897Y-89681413D01*
X109884430Y-89681259D01*
X109866078Y-89681016D01*
X109851356Y-89680667D01*
X109839781Y-89680195D01*
X109830871Y-89679585D01*
X109824142Y-89678819D01*
X109819111Y-89677883D01*
X109817941Y-89677588D01*
X109797865Y-89669703D01*
X109780579Y-89657795D01*
X109766587Y-89642304D01*
X109756394Y-89623675D01*
X109756369Y-89623613D01*
X109750570Y-89609270D01*
X109749238Y-88826950D01*
X109843900Y-88921568D01*
X109843900Y-88921568D01*
G37*
X109843900Y-88921568D02*
X109938561Y-89016186D01*
X110000775Y-88953785D01*
X110017014Y-88937555D01*
X110033574Y-88921109D01*
X110049745Y-88905146D01*
X110064815Y-88890363D01*
X110078075Y-88877460D01*
X110088814Y-88867133D01*
X110092866Y-88863295D01*
X110122743Y-88835208D01*
X110122076Y-89224779D01*
X110121410Y-89614350D01*
X110115775Y-89626437D01*
X110108497Y-89638562D01*
X110098399Y-89650833D01*
X110086967Y-89661681D01*
X110075684Y-89669531D01*
X110074470Y-89670167D01*
X110068703Y-89672895D01*
X110062874Y-89675157D01*
X110056461Y-89676994D01*
X110048939Y-89678449D01*
X110039787Y-89679564D01*
X110028482Y-89680381D01*
X110014501Y-89680941D01*
X109997321Y-89681288D01*
X109976421Y-89681464D01*
X109951276Y-89681509D01*
X109933959Y-89681492D01*
X109906897Y-89681413D01*
X109884430Y-89681259D01*
X109866078Y-89681016D01*
X109851356Y-89680667D01*
X109839781Y-89680195D01*
X109830871Y-89679585D01*
X109824142Y-89678819D01*
X109819111Y-89677883D01*
X109817941Y-89677588D01*
X109797865Y-89669703D01*
X109780579Y-89657795D01*
X109766587Y-89642304D01*
X109756394Y-89623675D01*
X109756369Y-89623613D01*
X109750570Y-89609270D01*
X109749238Y-88826950D01*
X109843900Y-88921568D01*
G36*
X109478073Y-88526417D02*
G01*
X109495909Y-88537257D01*
X109511113Y-88551468D01*
X109522645Y-88568029D01*
X109524804Y-88572354D01*
X109528641Y-88581504D01*
X109530865Y-88589619D01*
X109531887Y-88598798D01*
X109532118Y-88609780D01*
X109531882Y-88621396D01*
X109530874Y-88630019D01*
X109528659Y-88637726D01*
X109524808Y-88646592D01*
X109524192Y-88647880D01*
X109521802Y-88652411D01*
X109517051Y-88661009D01*
X109510128Y-88673346D01*
X109501220Y-88689093D01*
X109490515Y-88707923D01*
X109478200Y-88729506D01*
X109464462Y-88753514D01*
X109449488Y-88779620D01*
X109433467Y-88807494D01*
X109416586Y-88836809D01*
X109399032Y-88867237D01*
X109391769Y-88879809D01*
X109267284Y-89095229D01*
X109407537Y-89324607D01*
X109429882Y-89361212D01*
X109450716Y-89395465D01*
X109469923Y-89427169D01*
X109487387Y-89456131D01*
X109502991Y-89482154D01*
X109516619Y-89505043D01*
X109528155Y-89524604D01*
X109537483Y-89540640D01*
X109544486Y-89552957D01*
X109549049Y-89561359D01*
X109551055Y-89565652D01*
X109551088Y-89565764D01*
X109552938Y-89576716D01*
X109553422Y-89590341D01*
X109553177Y-89596385D01*
X109549457Y-89617511D01*
X109541272Y-89636330D01*
X109528812Y-89652567D01*
X109512266Y-89665948D01*
X109500380Y-89672529D01*
X109483870Y-89680390D01*
X109419224Y-89681254D01*
X109395057Y-89681467D01*
X109375295Y-89681346D01*
X109359269Y-89680820D01*
X109346309Y-89679816D01*
X109335748Y-89678263D01*
X109326916Y-89676089D01*
X109319144Y-89673223D01*
X109312069Y-89669757D01*
X109308055Y-89667558D01*
X109304339Y-89665349D01*
X109300782Y-89662886D01*
X109297247Y-89659920D01*
X109293595Y-89656204D01*
X109289689Y-89651492D01*
X109285391Y-89645536D01*
X109280562Y-89638089D01*
X109275064Y-89628905D01*
X109268759Y-89617736D01*
X109261510Y-89604335D01*
X109253178Y-89588456D01*
X109243625Y-89569850D01*
X109232713Y-89548272D01*
X109220304Y-89523474D01*
X109206260Y-89495209D01*
X109190443Y-89463230D01*
X109172715Y-89427290D01*
X109152938Y-89387142D01*
X109144122Y-89369240D01*
X109100970Y-89281610D01*
X109011382Y-89462018D01*
X108994351Y-89496314D01*
X108979401Y-89526366D01*
X108966348Y-89552480D01*
X108955007Y-89574957D01*
X108945194Y-89594102D01*
X108936723Y-89610219D01*
X108929410Y-89623610D01*
X108923069Y-89634580D01*
X108917516Y-89643431D01*
X108912566Y-89650467D01*
X108908034Y-89655992D01*
X108903736Y-89660310D01*
X108899486Y-89663723D01*
X108895099Y-89666535D01*
X108890391Y-89669050D01*
X108885177Y-89671571D01*
X108883160Y-89672529D01*
X108866650Y-89680390D01*
X108804420Y-89680858D01*
X108786462Y-89680897D01*
X108769596Y-89680753D01*
X108754683Y-89680449D01*
X108742582Y-89680005D01*
X108734153Y-89679443D01*
X108731094Y-89679034D01*
X108712133Y-89672611D01*
X108694833Y-89661858D01*
X108680061Y-89647464D01*
X108668683Y-89630115D01*
X108668179Y-89629100D01*
X108662718Y-89613666D01*
X108659984Y-89596346D01*
X108660090Y-89579000D01*
X108663150Y-89563489D01*
X108664033Y-89561010D01*
X108665982Y-89557073D01*
X108670319Y-89549065D01*
X108676866Y-89537300D01*
X108685441Y-89522091D01*
X108695868Y-89503750D01*
X108707965Y-89482590D01*
X108721554Y-89458925D01*
X108736457Y-89433067D01*
X108752493Y-89405330D01*
X108769483Y-89376025D01*
X108787248Y-89345468D01*
X108799296Y-89324790D01*
X108817366Y-89293782D01*
X108834715Y-89263969D01*
X108851171Y-89235650D01*
X108866562Y-89209121D01*
X108880715Y-89184681D01*
X108893459Y-89162627D01*
X108904622Y-89143259D01*
X108914031Y-89126874D01*
X108921514Y-89113770D01*
X108926900Y-89104246D01*
X108930016Y-89098598D01*
X108930755Y-89097108D01*
X108929667Y-89094341D01*
X108926177Y-89087457D01*
X108920438Y-89076730D01*
X108912604Y-89062431D01*
X108902828Y-89044836D01*
X108891263Y-89024215D01*
X108878064Y-89000844D01*
X108863383Y-88974995D01*
X108847374Y-88946941D01*
X108830191Y-88916956D01*
X108811987Y-88885312D01*
X108803463Y-88870535D01*
X108785497Y-88839360D01*
X108768195Y-88809230D01*
X108751734Y-88780461D01*
X108736293Y-88753368D01*
X108722049Y-88728267D01*
X108709180Y-88705473D01*
X108697864Y-88685302D01*
X108688278Y-88668068D01*
X108680601Y-88654087D01*
X108675009Y-88643675D01*
X108671680Y-88637147D01*
X108670834Y-88635196D01*
X108668017Y-88620750D01*
X108667761Y-88604170D01*
X108669943Y-88587637D01*
X108674326Y-88573583D01*
X108682676Y-88559573D01*
X108694555Y-88546029D01*
X108708507Y-88534397D01*
X108721305Y-88526910D01*
X108737110Y-88519610D01*
X108804420Y-88519661D01*
X108825415Y-88519720D01*
X108841985Y-88519883D01*
X108854784Y-88520188D01*
X108864465Y-88520671D01*
X108871683Y-88521367D01*
X108877091Y-88522314D01*
X108881343Y-88523548D01*
X108882552Y-88524004D01*
X108896899Y-88531159D01*
X108910294Y-88540483D01*
X108920976Y-88550692D01*
X108923455Y-88553828D01*
X108925673Y-88557652D01*
X108929888Y-88565679D01*
X108935913Y-88577527D01*
X108943558Y-88592813D01*
X108952636Y-88611154D01*
X108962956Y-88632168D01*
X108974332Y-88655473D01*
X108986575Y-88680685D01*
X108999495Y-88707423D01*
X109012558Y-88734581D01*
X109025817Y-88762189D01*
X109038459Y-88788467D01*
X109050308Y-88813057D01*
X109061189Y-88835598D01*
X109070930Y-88855729D01*
X109079353Y-88873090D01*
X109086287Y-88887321D01*
X109091554Y-88898061D01*
X109094982Y-88904951D01*
X109096396Y-88907629D01*
X109096405Y-88907641D01*
X109097762Y-88905728D01*
X109101157Y-88899587D01*
X109106415Y-88889563D01*
X109113363Y-88876001D01*
X109121829Y-88859246D01*
X109131638Y-88839645D01*
X109142616Y-88817541D01*
X109154591Y-88793281D01*
X109167389Y-88767210D01*
X109180837Y-88739673D01*
X109183053Y-88735123D01*
X109198878Y-88702625D01*
X109212661Y-88674371D01*
X109224574Y-88650033D01*
X109234791Y-88629283D01*
X109243482Y-88611792D01*
X109250820Y-88597234D01*
X109256978Y-88585279D01*
X109262128Y-88575600D01*
X109266442Y-88567868D01*
X109270092Y-88561756D01*
X109273250Y-88556935D01*
X109276089Y-88553077D01*
X109278781Y-88549855D01*
X109281499Y-88546940D01*
X109282283Y-88546138D01*
X109296289Y-88534003D01*
X109310539Y-88526009D01*
X109311493Y-88525616D01*
X109316136Y-88523820D01*
X109320551Y-88522423D01*
X109325431Y-88521375D01*
X109331470Y-88520625D01*
X109339363Y-88520125D01*
X109349804Y-88519823D01*
X109363486Y-88519669D01*
X109381104Y-88519615D01*
X109394970Y-88519610D01*
X109463550Y-88519610D01*
X109478073Y-88526417D01*
X109478073Y-88526417D01*
G37*
X109478073Y-88526417D02*
X109495909Y-88537257D01*
X109511113Y-88551468D01*
X109522645Y-88568029D01*
X109524804Y-88572354D01*
X109528641Y-88581504D01*
X109530865Y-88589619D01*
X109531887Y-88598798D01*
X109532118Y-88609780D01*
X109531882Y-88621396D01*
X109530874Y-88630019D01*
X109528659Y-88637726D01*
X109524808Y-88646592D01*
X109524192Y-88647880D01*
X109521802Y-88652411D01*
X109517051Y-88661009D01*
X109510128Y-88673346D01*
X109501220Y-88689093D01*
X109490515Y-88707923D01*
X109478200Y-88729506D01*
X109464462Y-88753514D01*
X109449488Y-88779620D01*
X109433467Y-88807494D01*
X109416586Y-88836809D01*
X109399032Y-88867237D01*
X109391769Y-88879809D01*
X109267284Y-89095229D01*
X109407537Y-89324607D01*
X109429882Y-89361212D01*
X109450716Y-89395465D01*
X109469923Y-89427169D01*
X109487387Y-89456131D01*
X109502991Y-89482154D01*
X109516619Y-89505043D01*
X109528155Y-89524604D01*
X109537483Y-89540640D01*
X109544486Y-89552957D01*
X109549049Y-89561359D01*
X109551055Y-89565652D01*
X109551088Y-89565764D01*
X109552938Y-89576716D01*
X109553422Y-89590341D01*
X109553177Y-89596385D01*
X109549457Y-89617511D01*
X109541272Y-89636330D01*
X109528812Y-89652567D01*
X109512266Y-89665948D01*
X109500380Y-89672529D01*
X109483870Y-89680390D01*
X109419224Y-89681254D01*
X109395057Y-89681467D01*
X109375295Y-89681346D01*
X109359269Y-89680820D01*
X109346309Y-89679816D01*
X109335748Y-89678263D01*
X109326916Y-89676089D01*
X109319144Y-89673223D01*
X109312069Y-89669757D01*
X109308055Y-89667558D01*
X109304339Y-89665349D01*
X109300782Y-89662886D01*
X109297247Y-89659920D01*
X109293595Y-89656204D01*
X109289689Y-89651492D01*
X109285391Y-89645536D01*
X109280562Y-89638089D01*
X109275064Y-89628905D01*
X109268759Y-89617736D01*
X109261510Y-89604335D01*
X109253178Y-89588456D01*
X109243625Y-89569850D01*
X109232713Y-89548272D01*
X109220304Y-89523474D01*
X109206260Y-89495209D01*
X109190443Y-89463230D01*
X109172715Y-89427290D01*
X109152938Y-89387142D01*
X109144122Y-89369240D01*
X109100970Y-89281610D01*
X109011382Y-89462018D01*
X108994351Y-89496314D01*
X108979401Y-89526366D01*
X108966348Y-89552480D01*
X108955007Y-89574957D01*
X108945194Y-89594102D01*
X108936723Y-89610219D01*
X108929410Y-89623610D01*
X108923069Y-89634580D01*
X108917516Y-89643431D01*
X108912566Y-89650467D01*
X108908034Y-89655992D01*
X108903736Y-89660310D01*
X108899486Y-89663723D01*
X108895099Y-89666535D01*
X108890391Y-89669050D01*
X108885177Y-89671571D01*
X108883160Y-89672529D01*
X108866650Y-89680390D01*
X108804420Y-89680858D01*
X108786462Y-89680897D01*
X108769596Y-89680753D01*
X108754683Y-89680449D01*
X108742582Y-89680005D01*
X108734153Y-89679443D01*
X108731094Y-89679034D01*
X108712133Y-89672611D01*
X108694833Y-89661858D01*
X108680061Y-89647464D01*
X108668683Y-89630115D01*
X108668179Y-89629100D01*
X108662718Y-89613666D01*
X108659984Y-89596346D01*
X108660090Y-89579000D01*
X108663150Y-89563489D01*
X108664033Y-89561010D01*
X108665982Y-89557073D01*
X108670319Y-89549065D01*
X108676866Y-89537300D01*
X108685441Y-89522091D01*
X108695868Y-89503750D01*
X108707965Y-89482590D01*
X108721554Y-89458925D01*
X108736457Y-89433067D01*
X108752493Y-89405330D01*
X108769483Y-89376025D01*
X108787248Y-89345468D01*
X108799296Y-89324790D01*
X108817366Y-89293782D01*
X108834715Y-89263969D01*
X108851171Y-89235650D01*
X108866562Y-89209121D01*
X108880715Y-89184681D01*
X108893459Y-89162627D01*
X108904622Y-89143259D01*
X108914031Y-89126874D01*
X108921514Y-89113770D01*
X108926900Y-89104246D01*
X108930016Y-89098598D01*
X108930755Y-89097108D01*
X108929667Y-89094341D01*
X108926177Y-89087457D01*
X108920438Y-89076730D01*
X108912604Y-89062431D01*
X108902828Y-89044836D01*
X108891263Y-89024215D01*
X108878064Y-89000844D01*
X108863383Y-88974995D01*
X108847374Y-88946941D01*
X108830191Y-88916956D01*
X108811987Y-88885312D01*
X108803463Y-88870535D01*
X108785497Y-88839360D01*
X108768195Y-88809230D01*
X108751734Y-88780461D01*
X108736293Y-88753368D01*
X108722049Y-88728267D01*
X108709180Y-88705473D01*
X108697864Y-88685302D01*
X108688278Y-88668068D01*
X108680601Y-88654087D01*
X108675009Y-88643675D01*
X108671680Y-88637147D01*
X108670834Y-88635196D01*
X108668017Y-88620750D01*
X108667761Y-88604170D01*
X108669943Y-88587637D01*
X108674326Y-88573583D01*
X108682676Y-88559573D01*
X108694555Y-88546029D01*
X108708507Y-88534397D01*
X108721305Y-88526910D01*
X108737110Y-88519610D01*
X108804420Y-88519661D01*
X108825415Y-88519720D01*
X108841985Y-88519883D01*
X108854784Y-88520188D01*
X108864465Y-88520671D01*
X108871683Y-88521367D01*
X108877091Y-88522314D01*
X108881343Y-88523548D01*
X108882552Y-88524004D01*
X108896899Y-88531159D01*
X108910294Y-88540483D01*
X108920976Y-88550692D01*
X108923455Y-88553828D01*
X108925673Y-88557652D01*
X108929888Y-88565679D01*
X108935913Y-88577527D01*
X108943558Y-88592813D01*
X108952636Y-88611154D01*
X108962956Y-88632168D01*
X108974332Y-88655473D01*
X108986575Y-88680685D01*
X108999495Y-88707423D01*
X109012558Y-88734581D01*
X109025817Y-88762189D01*
X109038459Y-88788467D01*
X109050308Y-88813057D01*
X109061189Y-88835598D01*
X109070930Y-88855729D01*
X109079353Y-88873090D01*
X109086287Y-88887321D01*
X109091554Y-88898061D01*
X109094982Y-88904951D01*
X109096396Y-88907629D01*
X109096405Y-88907641D01*
X109097762Y-88905728D01*
X109101157Y-88899587D01*
X109106415Y-88889563D01*
X109113363Y-88876001D01*
X109121829Y-88859246D01*
X109131638Y-88839645D01*
X109142616Y-88817541D01*
X109154591Y-88793281D01*
X109167389Y-88767210D01*
X109180837Y-88739673D01*
X109183053Y-88735123D01*
X109198878Y-88702625D01*
X109212661Y-88674371D01*
X109224574Y-88650033D01*
X109234791Y-88629283D01*
X109243482Y-88611792D01*
X109250820Y-88597234D01*
X109256978Y-88585279D01*
X109262128Y-88575600D01*
X109266442Y-88567868D01*
X109270092Y-88561756D01*
X109273250Y-88556935D01*
X109276089Y-88553077D01*
X109278781Y-88549855D01*
X109281499Y-88546940D01*
X109282283Y-88546138D01*
X109296289Y-88534003D01*
X109310539Y-88526009D01*
X109311493Y-88525616D01*
X109316136Y-88523820D01*
X109320551Y-88522423D01*
X109325431Y-88521375D01*
X109331470Y-88520625D01*
X109339363Y-88520125D01*
X109349804Y-88519823D01*
X109363486Y-88519669D01*
X109381104Y-88519615D01*
X109394970Y-88519610D01*
X109463550Y-88519610D01*
X109478073Y-88526417D01*
G36*
X108070389Y-88519280D02*
G01*
X108121680Y-88523833D01*
X108170802Y-88532877D01*
X108217664Y-88546376D01*
X108262177Y-88564293D01*
X108304250Y-88586593D01*
X108343792Y-88613242D01*
X108380712Y-88644202D01*
X108410168Y-88674104D01*
X108440776Y-88711680D01*
X108467033Y-88751862D01*
X108488918Y-88794609D01*
X108506414Y-88839877D01*
X108519503Y-88887622D01*
X108528165Y-88937801D01*
X108529940Y-88953756D01*
X108530603Y-88963497D01*
X108531171Y-88977629D01*
X108531641Y-88995464D01*
X108532016Y-89016314D01*
X108532294Y-89039490D01*
X108532475Y-89064305D01*
X108532560Y-89090071D01*
X108532549Y-89116099D01*
X108532441Y-89141701D01*
X108532236Y-89166189D01*
X108531936Y-89188875D01*
X108531538Y-89209071D01*
X108531045Y-89226088D01*
X108530454Y-89239240D01*
X108529940Y-89246243D01*
X108522644Y-89297595D01*
X108511002Y-89346320D01*
X108495004Y-89392437D01*
X108474642Y-89435964D01*
X108449907Y-89476918D01*
X108420788Y-89515318D01*
X108387278Y-89551181D01*
X108368136Y-89568815D01*
X108332267Y-89596894D01*
X108293289Y-89621086D01*
X108251445Y-89641324D01*
X108206977Y-89657538D01*
X108160127Y-89669661D01*
X108111138Y-89677623D01*
X108060253Y-89681357D01*
X108007713Y-89680794D01*
X107978920Y-89678696D01*
X107929344Y-89671625D01*
X107881650Y-89659998D01*
X107836066Y-89643939D01*
X107792820Y-89623573D01*
X107752143Y-89599025D01*
X107714264Y-89570420D01*
X107679411Y-89537882D01*
X107647814Y-89501535D01*
X107643731Y-89496240D01*
X107616493Y-89456268D01*
X107593722Y-89413933D01*
X107575402Y-89369190D01*
X107561515Y-89321994D01*
X107552043Y-89272301D01*
X107550964Y-89264334D01*
X107549942Y-89253382D01*
X107549063Y-89238028D01*
X107548328Y-89218932D01*
X107547737Y-89196758D01*
X107547289Y-89172165D01*
X107546984Y-89145816D01*
X107546823Y-89118372D01*
X107546815Y-89106186D01*
X107814170Y-89106186D01*
X107814195Y-89140758D01*
X107814614Y-89171128D01*
X107815449Y-89197731D01*
X107816720Y-89220999D01*
X107818448Y-89241365D01*
X107820656Y-89259263D01*
X107823362Y-89275127D01*
X107825012Y-89282880D01*
X107835296Y-89319214D01*
X107848699Y-89352131D01*
X107865072Y-89381450D01*
X107884266Y-89406994D01*
X107906133Y-89428582D01*
X107930523Y-89446036D01*
X107957288Y-89459176D01*
X107976523Y-89465489D01*
X107987018Y-89468262D01*
X107995355Y-89470245D01*
X108002729Y-89471552D01*
X108010334Y-89472297D01*
X108019367Y-89472595D01*
X108031021Y-89472560D01*
X108046493Y-89472308D01*
X108047500Y-89472289D01*
X108062985Y-89471939D01*
X108074687Y-89471416D01*
X108083902Y-89470538D01*
X108091925Y-89469122D01*
X108100053Y-89466987D01*
X108109582Y-89463951D01*
X108111576Y-89463284D01*
X108139904Y-89451165D01*
X108165646Y-89434742D01*
X108188694Y-89414149D01*
X108208940Y-89389516D01*
X108226276Y-89360975D01*
X108240593Y-89328659D01*
X108251784Y-89292698D01*
X108251877Y-89292330D01*
X108254384Y-89281947D01*
X108256504Y-89271865D01*
X108258269Y-89261561D01*
X108259711Y-89250507D01*
X108260860Y-89238179D01*
X108261749Y-89224049D01*
X108262408Y-89207593D01*
X108262870Y-89188284D01*
X108263166Y-89165596D01*
X108263326Y-89139005D01*
X108263383Y-89107982D01*
X108263385Y-89100000D01*
X108263347Y-89067843D01*
X108263213Y-89040241D01*
X108262951Y-89016669D01*
X108262531Y-88996603D01*
X108261920Y-88979517D01*
X108261088Y-88964887D01*
X108260004Y-88952189D01*
X108258635Y-88940897D01*
X108256952Y-88930487D01*
X108254923Y-88920434D01*
X108252517Y-88910214D01*
X108251965Y-88908013D01*
X108240766Y-88871937D01*
X108226405Y-88839518D01*
X108208985Y-88810877D01*
X108188611Y-88786134D01*
X108165386Y-88765410D01*
X108139416Y-88748828D01*
X108110803Y-88736507D01*
X108101995Y-88733740D01*
X108093687Y-88731509D01*
X108085887Y-88729924D01*
X108077460Y-88728882D01*
X108067270Y-88728280D01*
X108054182Y-88728015D01*
X108038610Y-88727979D01*
X108018155Y-88728257D01*
X108001550Y-88729148D01*
X107987578Y-88730877D01*
X107975022Y-88733673D01*
X107962666Y-88737762D01*
X107949295Y-88743371D01*
X107944630Y-88745511D01*
X107919676Y-88759891D01*
X107896772Y-88778699D01*
X107876178Y-88801607D01*
X107858157Y-88828288D01*
X107842969Y-88858413D01*
X107832843Y-88885370D01*
X107828922Y-88898060D01*
X107825632Y-88910249D01*
X107822909Y-88922547D01*
X107820693Y-88935567D01*
X107818921Y-88949922D01*
X107817532Y-88966223D01*
X107816464Y-88985083D01*
X107815655Y-89007115D01*
X107815044Y-89032930D01*
X107814568Y-89063141D01*
X107814518Y-89066980D01*
X107814170Y-89106186D01*
X107546815Y-89106186D01*
X107546804Y-89090494D01*
X107546929Y-89062844D01*
X107547196Y-89036082D01*
X107547605Y-89010871D01*
X107548158Y-88987871D01*
X107548852Y-88967744D01*
X107549689Y-88951152D01*
X107550668Y-88938755D01*
X107551027Y-88935665D01*
X107559890Y-88885923D01*
X107573177Y-88838346D01*
X107590778Y-88793134D01*
X107612585Y-88750486D01*
X107638489Y-88710602D01*
X107668380Y-88673682D01*
X107702152Y-88639926D01*
X107720613Y-88624171D01*
X107757428Y-88597045D01*
X107795688Y-88574183D01*
X107835777Y-88555448D01*
X107878082Y-88540705D01*
X107922988Y-88529817D01*
X107970881Y-88522646D01*
X108017020Y-88519252D01*
X108070389Y-88519280D01*
X108070389Y-88519280D01*
G37*
X108070389Y-88519280D02*
X108121680Y-88523833D01*
X108170802Y-88532877D01*
X108217664Y-88546376D01*
X108262177Y-88564293D01*
X108304250Y-88586593D01*
X108343792Y-88613242D01*
X108380712Y-88644202D01*
X108410168Y-88674104D01*
X108440776Y-88711680D01*
X108467033Y-88751862D01*
X108488918Y-88794609D01*
X108506414Y-88839877D01*
X108519503Y-88887622D01*
X108528165Y-88937801D01*
X108529940Y-88953756D01*
X108530603Y-88963497D01*
X108531171Y-88977629D01*
X108531641Y-88995464D01*
X108532016Y-89016314D01*
X108532294Y-89039490D01*
X108532475Y-89064305D01*
X108532560Y-89090071D01*
X108532549Y-89116099D01*
X108532441Y-89141701D01*
X108532236Y-89166189D01*
X108531936Y-89188875D01*
X108531538Y-89209071D01*
X108531045Y-89226088D01*
X108530454Y-89239240D01*
X108529940Y-89246243D01*
X108522644Y-89297595D01*
X108511002Y-89346320D01*
X108495004Y-89392437D01*
X108474642Y-89435964D01*
X108449907Y-89476918D01*
X108420788Y-89515318D01*
X108387278Y-89551181D01*
X108368136Y-89568815D01*
X108332267Y-89596894D01*
X108293289Y-89621086D01*
X108251445Y-89641324D01*
X108206977Y-89657538D01*
X108160127Y-89669661D01*
X108111138Y-89677623D01*
X108060253Y-89681357D01*
X108007713Y-89680794D01*
X107978920Y-89678696D01*
X107929344Y-89671625D01*
X107881650Y-89659998D01*
X107836066Y-89643939D01*
X107792820Y-89623573D01*
X107752143Y-89599025D01*
X107714264Y-89570420D01*
X107679411Y-89537882D01*
X107647814Y-89501535D01*
X107643731Y-89496240D01*
X107616493Y-89456268D01*
X107593722Y-89413933D01*
X107575402Y-89369190D01*
X107561515Y-89321994D01*
X107552043Y-89272301D01*
X107550964Y-89264334D01*
X107549942Y-89253382D01*
X107549063Y-89238028D01*
X107548328Y-89218932D01*
X107547737Y-89196758D01*
X107547289Y-89172165D01*
X107546984Y-89145816D01*
X107546823Y-89118372D01*
X107546815Y-89106186D01*
X107814170Y-89106186D01*
X107814195Y-89140758D01*
X107814614Y-89171128D01*
X107815449Y-89197731D01*
X107816720Y-89220999D01*
X107818448Y-89241365D01*
X107820656Y-89259263D01*
X107823362Y-89275127D01*
X107825012Y-89282880D01*
X107835296Y-89319214D01*
X107848699Y-89352131D01*
X107865072Y-89381450D01*
X107884266Y-89406994D01*
X107906133Y-89428582D01*
X107930523Y-89446036D01*
X107957288Y-89459176D01*
X107976523Y-89465489D01*
X107987018Y-89468262D01*
X107995355Y-89470245D01*
X108002729Y-89471552D01*
X108010334Y-89472297D01*
X108019367Y-89472595D01*
X108031021Y-89472560D01*
X108046493Y-89472308D01*
X108047500Y-89472289D01*
X108062985Y-89471939D01*
X108074687Y-89471416D01*
X108083902Y-89470538D01*
X108091925Y-89469122D01*
X108100053Y-89466987D01*
X108109582Y-89463951D01*
X108111576Y-89463284D01*
X108139904Y-89451165D01*
X108165646Y-89434742D01*
X108188694Y-89414149D01*
X108208940Y-89389516D01*
X108226276Y-89360975D01*
X108240593Y-89328659D01*
X108251784Y-89292698D01*
X108251877Y-89292330D01*
X108254384Y-89281947D01*
X108256504Y-89271865D01*
X108258269Y-89261561D01*
X108259711Y-89250507D01*
X108260860Y-89238179D01*
X108261749Y-89224049D01*
X108262408Y-89207593D01*
X108262870Y-89188284D01*
X108263166Y-89165596D01*
X108263326Y-89139005D01*
X108263383Y-89107982D01*
X108263385Y-89100000D01*
X108263347Y-89067843D01*
X108263213Y-89040241D01*
X108262951Y-89016669D01*
X108262531Y-88996603D01*
X108261920Y-88979517D01*
X108261088Y-88964887D01*
X108260004Y-88952189D01*
X108258635Y-88940897D01*
X108256952Y-88930487D01*
X108254923Y-88920434D01*
X108252517Y-88910214D01*
X108251965Y-88908013D01*
X108240766Y-88871937D01*
X108226405Y-88839518D01*
X108208985Y-88810877D01*
X108188611Y-88786134D01*
X108165386Y-88765410D01*
X108139416Y-88748828D01*
X108110803Y-88736507D01*
X108101995Y-88733740D01*
X108093687Y-88731509D01*
X108085887Y-88729924D01*
X108077460Y-88728882D01*
X108067270Y-88728280D01*
X108054182Y-88728015D01*
X108038610Y-88727979D01*
X108018155Y-88728257D01*
X108001550Y-88729148D01*
X107987578Y-88730877D01*
X107975022Y-88733673D01*
X107962666Y-88737762D01*
X107949295Y-88743371D01*
X107944630Y-88745511D01*
X107919676Y-88759891D01*
X107896772Y-88778699D01*
X107876178Y-88801607D01*
X107858157Y-88828288D01*
X107842969Y-88858413D01*
X107832843Y-88885370D01*
X107828922Y-88898060D01*
X107825632Y-88910249D01*
X107822909Y-88922547D01*
X107820693Y-88935567D01*
X107818921Y-88949922D01*
X107817532Y-88966223D01*
X107816464Y-88985083D01*
X107815655Y-89007115D01*
X107815044Y-89032930D01*
X107814568Y-89063141D01*
X107814518Y-89066980D01*
X107814170Y-89106186D01*
X107546815Y-89106186D01*
X107546804Y-89090494D01*
X107546929Y-89062844D01*
X107547196Y-89036082D01*
X107547605Y-89010871D01*
X107548158Y-88987871D01*
X107548852Y-88967744D01*
X107549689Y-88951152D01*
X107550668Y-88938755D01*
X107551027Y-88935665D01*
X107559890Y-88885923D01*
X107573177Y-88838346D01*
X107590778Y-88793134D01*
X107612585Y-88750486D01*
X107638489Y-88710602D01*
X107668380Y-88673682D01*
X107702152Y-88639926D01*
X107720613Y-88624171D01*
X107757428Y-88597045D01*
X107795688Y-88574183D01*
X107835777Y-88555448D01*
X107878082Y-88540705D01*
X107922988Y-88529817D01*
X107970881Y-88522646D01*
X108017020Y-88519252D01*
X108070389Y-88519280D01*
G36*
X106728074Y-88518664D02*
G01*
X106762567Y-88518795D01*
X106801730Y-88518976D01*
X106811790Y-88519024D01*
X106852549Y-88519228D01*
X106888609Y-88519431D01*
X106920351Y-88519656D01*
X106948156Y-88519921D01*
X106972406Y-88520250D01*
X106993480Y-88520662D01*
X107011761Y-88521179D01*
X107027629Y-88521822D01*
X107041466Y-88522611D01*
X107053651Y-88523568D01*
X107064567Y-88524713D01*
X107074594Y-88526068D01*
X107084114Y-88527654D01*
X107093507Y-88529491D01*
X107103154Y-88531601D01*
X107113437Y-88534004D01*
X107122232Y-88536117D01*
X107166256Y-88549020D01*
X107207521Y-88565722D01*
X107245803Y-88586035D01*
X107280881Y-88609769D01*
X107312530Y-88636737D01*
X107340529Y-88666749D01*
X107364653Y-88699618D01*
X107384681Y-88735154D01*
X107399491Y-88770591D01*
X107405596Y-88788849D01*
X107410306Y-88805495D01*
X107413784Y-88821656D01*
X107416196Y-88838458D01*
X107417705Y-88857028D01*
X107418478Y-88878493D01*
X107418679Y-88901880D01*
X107418619Y-88921528D01*
X107418395Y-88937073D01*
X107417940Y-88949490D01*
X107417188Y-88959754D01*
X107416072Y-88968841D01*
X107414528Y-88977726D01*
X107413033Y-88984908D01*
X107402988Y-89022910D01*
X107390023Y-89057337D01*
X107373661Y-89089068D01*
X107353421Y-89118984D01*
X107328827Y-89147965D01*
X107318575Y-89158578D01*
X107288715Y-89185756D01*
X107256784Y-89209293D01*
X107222376Y-89229379D01*
X107185081Y-89246208D01*
X107144493Y-89259969D01*
X107100204Y-89270856D01*
X107066898Y-89276850D01*
X107059696Y-89277829D01*
X107051256Y-89278672D01*
X107041122Y-89279395D01*
X107028836Y-89280013D01*
X107013943Y-89280540D01*
X106995987Y-89280992D01*
X106974511Y-89281384D01*
X106949059Y-89281731D01*
X106919175Y-89282048D01*
X106905204Y-89282175D01*
X106770019Y-89283362D01*
X106769314Y-89450126D01*
X106768610Y-89616890D01*
X106761446Y-89630493D01*
X106749229Y-89648445D01*
X106733576Y-89662878D01*
X106715059Y-89673365D01*
X106695685Y-89679221D01*
X106687560Y-89680189D01*
X106675616Y-89680877D01*
X106660902Y-89681294D01*
X106644469Y-89681449D01*
X106627369Y-89681352D01*
X106610651Y-89681012D01*
X106595367Y-89680439D01*
X106582568Y-89679642D01*
X106573305Y-89678631D01*
X106570490Y-89678089D01*
X106550506Y-89670631D01*
X106533044Y-89658993D01*
X106518716Y-89643681D01*
X106509223Y-89627645D01*
X106501910Y-89611810D01*
X106501910Y-89074866D01*
X106769880Y-89074866D01*
X106893705Y-89073983D01*
X106922049Y-89073774D01*
X106945801Y-89073571D01*
X106965448Y-89073352D01*
X106981478Y-89073094D01*
X106994376Y-89072774D01*
X107004632Y-89072370D01*
X107012733Y-89071858D01*
X107019165Y-89071216D01*
X107024416Y-89070422D01*
X107028974Y-89069451D01*
X107033326Y-89068283D01*
X107036561Y-89067320D01*
X107063651Y-89056638D01*
X107087483Y-89042112D01*
X107107886Y-89023911D01*
X107124685Y-89002202D01*
X107137709Y-88977152D01*
X107142351Y-88964654D01*
X107145043Y-88956045D01*
X107146937Y-88948447D01*
X107148178Y-88940631D01*
X107148909Y-88931368D01*
X107149276Y-88919428D01*
X107149418Y-88904420D01*
X107149211Y-88884098D01*
X107148194Y-88867513D01*
X107146105Y-88853350D01*
X107142682Y-88840295D01*
X107137660Y-88827033D01*
X107131138Y-88812980D01*
X107123178Y-88799081D01*
X107113005Y-88785820D01*
X107102666Y-88774770D01*
X107085891Y-88759675D01*
X107068758Y-88748165D01*
X107049539Y-88739212D01*
X107034021Y-88733947D01*
X107029482Y-88732627D01*
X107025060Y-88731522D01*
X107020264Y-88730608D01*
X107014604Y-88729862D01*
X107007589Y-88729260D01*
X106998727Y-88728779D01*
X106987527Y-88728396D01*
X106973499Y-88728088D01*
X106956151Y-88727832D01*
X106934993Y-88727604D01*
X106909534Y-88727381D01*
X106892435Y-88727243D01*
X106769880Y-88726272D01*
X106769880Y-89074866D01*
X106501910Y-89074866D01*
X106501910Y-88588190D01*
X106509223Y-88572354D01*
X106518561Y-88556947D01*
X106531202Y-88542871D01*
X106545618Y-88531734D01*
X106550506Y-88528976D01*
X106554314Y-88527105D01*
X106558164Y-88525459D01*
X106562389Y-88524025D01*
X106567319Y-88522791D01*
X106573283Y-88521744D01*
X106580613Y-88520872D01*
X106589639Y-88520161D01*
X106600692Y-88519600D01*
X106614102Y-88519176D01*
X106630199Y-88518875D01*
X106649314Y-88518686D01*
X106671778Y-88518597D01*
X106697921Y-88518593D01*
X106728074Y-88518664D01*
X106728074Y-88518664D01*
G37*
X106728074Y-88518664D02*
X106762567Y-88518795D01*
X106801730Y-88518976D01*
X106811790Y-88519024D01*
X106852549Y-88519228D01*
X106888609Y-88519431D01*
X106920351Y-88519656D01*
X106948156Y-88519921D01*
X106972406Y-88520250D01*
X106993480Y-88520662D01*
X107011761Y-88521179D01*
X107027629Y-88521822D01*
X107041466Y-88522611D01*
X107053651Y-88523568D01*
X107064567Y-88524713D01*
X107074594Y-88526068D01*
X107084114Y-88527654D01*
X107093507Y-88529491D01*
X107103154Y-88531601D01*
X107113437Y-88534004D01*
X107122232Y-88536117D01*
X107166256Y-88549020D01*
X107207521Y-88565722D01*
X107245803Y-88586035D01*
X107280881Y-88609769D01*
X107312530Y-88636737D01*
X107340529Y-88666749D01*
X107364653Y-88699618D01*
X107384681Y-88735154D01*
X107399491Y-88770591D01*
X107405596Y-88788849D01*
X107410306Y-88805495D01*
X107413784Y-88821656D01*
X107416196Y-88838458D01*
X107417705Y-88857028D01*
X107418478Y-88878493D01*
X107418679Y-88901880D01*
X107418619Y-88921528D01*
X107418395Y-88937073D01*
X107417940Y-88949490D01*
X107417188Y-88959754D01*
X107416072Y-88968841D01*
X107414528Y-88977726D01*
X107413033Y-88984908D01*
X107402988Y-89022910D01*
X107390023Y-89057337D01*
X107373661Y-89089068D01*
X107353421Y-89118984D01*
X107328827Y-89147965D01*
X107318575Y-89158578D01*
X107288715Y-89185756D01*
X107256784Y-89209293D01*
X107222376Y-89229379D01*
X107185081Y-89246208D01*
X107144493Y-89259969D01*
X107100204Y-89270856D01*
X107066898Y-89276850D01*
X107059696Y-89277829D01*
X107051256Y-89278672D01*
X107041122Y-89279395D01*
X107028836Y-89280013D01*
X107013943Y-89280540D01*
X106995987Y-89280992D01*
X106974511Y-89281384D01*
X106949059Y-89281731D01*
X106919175Y-89282048D01*
X106905204Y-89282175D01*
X106770019Y-89283362D01*
X106769314Y-89450126D01*
X106768610Y-89616890D01*
X106761446Y-89630493D01*
X106749229Y-89648445D01*
X106733576Y-89662878D01*
X106715059Y-89673365D01*
X106695685Y-89679221D01*
X106687560Y-89680189D01*
X106675616Y-89680877D01*
X106660902Y-89681294D01*
X106644469Y-89681449D01*
X106627369Y-89681352D01*
X106610651Y-89681012D01*
X106595367Y-89680439D01*
X106582568Y-89679642D01*
X106573305Y-89678631D01*
X106570490Y-89678089D01*
X106550506Y-89670631D01*
X106533044Y-89658993D01*
X106518716Y-89643681D01*
X106509223Y-89627645D01*
X106501910Y-89611810D01*
X106501910Y-89074866D01*
X106769880Y-89074866D01*
X106893705Y-89073983D01*
X106922049Y-89073774D01*
X106945801Y-89073571D01*
X106965448Y-89073352D01*
X106981478Y-89073094D01*
X106994376Y-89072774D01*
X107004632Y-89072370D01*
X107012733Y-89071858D01*
X107019165Y-89071216D01*
X107024416Y-89070422D01*
X107028974Y-89069451D01*
X107033326Y-89068283D01*
X107036561Y-89067320D01*
X107063651Y-89056638D01*
X107087483Y-89042112D01*
X107107886Y-89023911D01*
X107124685Y-89002202D01*
X107137709Y-88977152D01*
X107142351Y-88964654D01*
X107145043Y-88956045D01*
X107146937Y-88948447D01*
X107148178Y-88940631D01*
X107148909Y-88931368D01*
X107149276Y-88919428D01*
X107149418Y-88904420D01*
X107149211Y-88884098D01*
X107148194Y-88867513D01*
X107146105Y-88853350D01*
X107142682Y-88840295D01*
X107137660Y-88827033D01*
X107131138Y-88812980D01*
X107123178Y-88799081D01*
X107113005Y-88785820D01*
X107102666Y-88774770D01*
X107085891Y-88759675D01*
X107068758Y-88748165D01*
X107049539Y-88739212D01*
X107034021Y-88733947D01*
X107029482Y-88732627D01*
X107025060Y-88731522D01*
X107020264Y-88730608D01*
X107014604Y-88729862D01*
X107007589Y-88729260D01*
X106998727Y-88728779D01*
X106987527Y-88728396D01*
X106973499Y-88728088D01*
X106956151Y-88727832D01*
X106934993Y-88727604D01*
X106909534Y-88727381D01*
X106892435Y-88727243D01*
X106769880Y-88726272D01*
X106769880Y-89074866D01*
X106501910Y-89074866D01*
X106501910Y-88588190D01*
X106509223Y-88572354D01*
X106518561Y-88556947D01*
X106531202Y-88542871D01*
X106545618Y-88531734D01*
X106550506Y-88528976D01*
X106554314Y-88527105D01*
X106558164Y-88525459D01*
X106562389Y-88524025D01*
X106567319Y-88522791D01*
X106573283Y-88521744D01*
X106580613Y-88520872D01*
X106589639Y-88520161D01*
X106600692Y-88519600D01*
X106614102Y-88519176D01*
X106630199Y-88518875D01*
X106649314Y-88518686D01*
X106671778Y-88518597D01*
X106697921Y-88518593D01*
X106728074Y-88518664D01*
D12*
X109040000Y-69325000D02*
X109040000Y-72360000D01*
X109040000Y-72360000D02*
X110960000Y-72360000D01*
X110960000Y-72360000D02*
X110960000Y-69325000D01*
D10*
X110200000Y-70700000D02*
X109800000Y-70700000D01*
X110000000Y-70700000D02*
X109800000Y-70300000D01*
X110000000Y-70700000D02*
X110200000Y-70300000D01*
X110200000Y-70300000D02*
X109800000Y-70300000D01*
G36*
X109800000Y-70300000D02*
G01*
X110000000Y-70700000D01*
X110200000Y-70300000D01*
X109800000Y-70300000D01*
G37*
X109800000Y-70300000D02*
X110000000Y-70700000D01*
X110200000Y-70300000D01*
X109800000Y-70300000D01*
D12*
X110510000Y-70662779D02*
X110510000Y-70337221D01*
X109490000Y-70662779D02*
X109490000Y-70337221D01*
X109290000Y-70758578D02*
X109290000Y-70241422D01*
X110710000Y-70758578D02*
X110710000Y-70241422D01*
X107040000Y-69325000D02*
X107040000Y-72360000D01*
X107040000Y-72360000D02*
X108960000Y-72360000D01*
X108960000Y-72360000D02*
X108960000Y-69325000D01*
D10*
X108200000Y-70700000D02*
X107800000Y-70700000D01*
X108000000Y-70700000D02*
X107800000Y-70300000D01*
X108000000Y-70700000D02*
X108200000Y-70300000D01*
X108200000Y-70300000D02*
X107800000Y-70300000D01*
G36*
X107800000Y-70300000D02*
G01*
X108000000Y-70700000D01*
X108200000Y-70300000D01*
X107800000Y-70300000D01*
G37*
X107800000Y-70300000D02*
X108000000Y-70700000D01*
X108200000Y-70300000D01*
X107800000Y-70300000D01*
D12*
X108510000Y-70662779D02*
X108510000Y-70337221D01*
X107490000Y-70662779D02*
X107490000Y-70337221D01*
X107290000Y-70758578D02*
X107290000Y-70241422D01*
X108710000Y-70758578D02*
X108710000Y-70241422D01*
M02*
