G04 #@! TF.GenerationSoftware,KiCad,Pcbnew,(5.1.0-0)*
G04 #@! TF.CreationDate,2020-06-22T10:40:38+02:00*
G04 #@! TF.ProjectId,POxiM-fingersensor,504f7869-4d2d-4666-996e-67657273656e,Test proto*
G04 #@! TF.SameCoordinates,Original*
G04 #@! TF.FileFunction,Soldermask,Top*
G04 #@! TF.FilePolarity,Negative*
%FSLAX46Y46*%
G04 Gerber Fmt 4.6, Leading zero omitted, Abs format (unit mm)*
G04 Created by KiCad (PCBNEW (5.1.0-0)) date 2020-06-22 10:40:38*
%MOMM*%
%LPD*%
G04 APERTURE LIST*
%ADD10C,0.550000*%
%ADD11C,0.010000*%
%ADD12C,0.100000*%
G04 APERTURE END LIST*
D10*
G36*
X112750000Y-76325000D02*
G01*
X109750000Y-76325000D01*
X109750000Y-73500000D01*
X112750000Y-73500000D01*
X112750000Y-76325000D01*
G37*
X112750000Y-76325000D02*
X109750000Y-76325000D01*
X109750000Y-73500000D01*
X112750000Y-73500000D01*
X112750000Y-76325000D01*
G36*
X108250000Y-74000000D02*
G01*
X108250000Y-76325000D01*
X105250000Y-76325000D01*
X105250000Y-73500000D01*
X107750000Y-73500000D01*
X108250000Y-74000000D01*
G37*
X108250000Y-74000000D02*
X108250000Y-76325000D01*
X105250000Y-76325000D01*
X105250000Y-73500000D01*
X107750000Y-73500000D01*
X108250000Y-74000000D01*
G36*
X112750000Y-83000000D02*
G01*
X109750000Y-83000000D01*
X109750000Y-80250000D01*
X112750000Y-80250000D01*
X112750000Y-83000000D01*
G37*
X112750000Y-83000000D02*
X109750000Y-83000000D01*
X109750000Y-80250000D01*
X112750000Y-80250000D01*
X112750000Y-83000000D01*
G36*
X108250000Y-83000000D02*
G01*
X105250000Y-83000000D01*
X105250000Y-80250000D01*
X108250000Y-80250000D01*
X108250000Y-83000000D01*
G37*
X108250000Y-83000000D02*
X105250000Y-83000000D01*
X105250000Y-80250000D01*
X108250000Y-80250000D01*
X108250000Y-83000000D01*
D11*
G36*
X110313198Y-90137888D02*
G01*
X110340705Y-90150493D01*
X110353761Y-90159338D01*
X110371213Y-90176021D01*
X110386853Y-90197190D01*
X110398750Y-90219944D01*
X110403537Y-90234113D01*
X110408812Y-90255070D01*
X110411664Y-90241734D01*
X110420642Y-90215904D01*
X110435649Y-90190745D01*
X110455187Y-90168110D01*
X110477756Y-90149853D01*
X110492714Y-90141498D01*
X110510535Y-90135990D01*
X110532847Y-90133023D01*
X110556959Y-90132596D01*
X110580176Y-90134710D01*
X110599806Y-90139364D01*
X110605126Y-90141498D01*
X110624458Y-90153228D01*
X110643993Y-90169840D01*
X110661393Y-90189031D01*
X110674320Y-90208497D01*
X110675500Y-90210825D01*
X110680967Y-90223319D01*
X110684156Y-90234863D01*
X110685644Y-90248410D01*
X110686006Y-90264596D01*
X110685346Y-90282131D01*
X110682840Y-90297728D01*
X110677853Y-90312865D01*
X110669748Y-90329019D01*
X110657890Y-90347670D01*
X110641643Y-90370293D01*
X110639044Y-90373778D01*
X110631825Y-90382640D01*
X110620545Y-90395488D01*
X110605874Y-90411633D01*
X110588479Y-90430384D01*
X110569031Y-90451051D01*
X110548197Y-90472943D01*
X110526646Y-90495372D01*
X110505047Y-90517646D01*
X110484068Y-90539076D01*
X110464379Y-90558971D01*
X110446648Y-90576642D01*
X110431544Y-90591398D01*
X110419736Y-90602549D01*
X110411891Y-90609405D01*
X110408842Y-90611341D01*
X110405386Y-90608732D01*
X110397222Y-90601319D01*
X110384995Y-90589725D01*
X110369347Y-90574571D01*
X110350923Y-90556481D01*
X110330366Y-90536075D01*
X110313211Y-90518898D01*
X110276578Y-90481686D01*
X110245238Y-90448948D01*
X110218739Y-90420151D01*
X110196631Y-90394760D01*
X110178461Y-90372243D01*
X110163778Y-90352066D01*
X110152132Y-90333695D01*
X110144444Y-90319431D01*
X110136854Y-90303158D01*
X110132432Y-90290616D01*
X110130419Y-90279004D01*
X110130050Y-90266172D01*
X110133842Y-90235604D01*
X110143880Y-90208108D01*
X110159261Y-90184117D01*
X110179082Y-90164060D01*
X110202440Y-90148370D01*
X110228434Y-90137476D01*
X110256160Y-90131811D01*
X110284716Y-90131804D01*
X110313198Y-90137888D01*
X110313198Y-90137888D01*
G37*
X110313198Y-90137888D02*
X110340705Y-90150493D01*
X110353761Y-90159338D01*
X110371213Y-90176021D01*
X110386853Y-90197190D01*
X110398750Y-90219944D01*
X110403537Y-90234113D01*
X110408812Y-90255070D01*
X110411664Y-90241734D01*
X110420642Y-90215904D01*
X110435649Y-90190745D01*
X110455187Y-90168110D01*
X110477756Y-90149853D01*
X110492714Y-90141498D01*
X110510535Y-90135990D01*
X110532847Y-90133023D01*
X110556959Y-90132596D01*
X110580176Y-90134710D01*
X110599806Y-90139364D01*
X110605126Y-90141498D01*
X110624458Y-90153228D01*
X110643993Y-90169840D01*
X110661393Y-90189031D01*
X110674320Y-90208497D01*
X110675500Y-90210825D01*
X110680967Y-90223319D01*
X110684156Y-90234863D01*
X110685644Y-90248410D01*
X110686006Y-90264596D01*
X110685346Y-90282131D01*
X110682840Y-90297728D01*
X110677853Y-90312865D01*
X110669748Y-90329019D01*
X110657890Y-90347670D01*
X110641643Y-90370293D01*
X110639044Y-90373778D01*
X110631825Y-90382640D01*
X110620545Y-90395488D01*
X110605874Y-90411633D01*
X110588479Y-90430384D01*
X110569031Y-90451051D01*
X110548197Y-90472943D01*
X110526646Y-90495372D01*
X110505047Y-90517646D01*
X110484068Y-90539076D01*
X110464379Y-90558971D01*
X110446648Y-90576642D01*
X110431544Y-90591398D01*
X110419736Y-90602549D01*
X110411891Y-90609405D01*
X110408842Y-90611341D01*
X110405386Y-90608732D01*
X110397222Y-90601319D01*
X110384995Y-90589725D01*
X110369347Y-90574571D01*
X110350923Y-90556481D01*
X110330366Y-90536075D01*
X110313211Y-90518898D01*
X110276578Y-90481686D01*
X110245238Y-90448948D01*
X110218739Y-90420151D01*
X110196631Y-90394760D01*
X110178461Y-90372243D01*
X110163778Y-90352066D01*
X110152132Y-90333695D01*
X110144444Y-90319431D01*
X110136854Y-90303158D01*
X110132432Y-90290616D01*
X110130419Y-90279004D01*
X110130050Y-90266172D01*
X110133842Y-90235604D01*
X110143880Y-90208108D01*
X110159261Y-90184117D01*
X110179082Y-90164060D01*
X110202440Y-90148370D01*
X110228434Y-90137476D01*
X110256160Y-90131811D01*
X110284716Y-90131804D01*
X110313198Y-90137888D01*
D12*
G36*
X111130997Y-87628051D02*
G01*
X111164652Y-87638261D01*
X111195665Y-87654838D01*
X111222851Y-87677149D01*
X111245162Y-87704335D01*
X111261739Y-87735348D01*
X111271949Y-87769003D01*
X111276000Y-87810138D01*
X111276000Y-89189862D01*
X111271949Y-89230997D01*
X111261739Y-89264652D01*
X111245162Y-89295665D01*
X111222851Y-89322851D01*
X111195665Y-89345162D01*
X111164652Y-89361739D01*
X111130997Y-89371949D01*
X111089862Y-89376000D01*
X109760138Y-89376000D01*
X109719003Y-89371949D01*
X109685348Y-89361739D01*
X109654335Y-89345162D01*
X109627149Y-89322851D01*
X109604838Y-89295665D01*
X109588261Y-89264652D01*
X109578051Y-89230997D01*
X109574000Y-89189862D01*
X109574000Y-87810138D01*
X109578051Y-87769003D01*
X109588261Y-87735348D01*
X109604838Y-87704335D01*
X109627149Y-87677149D01*
X109654335Y-87654838D01*
X109685348Y-87638261D01*
X109719003Y-87628051D01*
X109760138Y-87624000D01*
X111089862Y-87624000D01*
X111130997Y-87628051D01*
X111130997Y-87628051D01*
G37*
G36*
X108280997Y-87628051D02*
G01*
X108314652Y-87638261D01*
X108345665Y-87654838D01*
X108372851Y-87677149D01*
X108395162Y-87704335D01*
X108411739Y-87735348D01*
X108421949Y-87769003D01*
X108426000Y-87810138D01*
X108426000Y-89189862D01*
X108421949Y-89230997D01*
X108411739Y-89264652D01*
X108395162Y-89295665D01*
X108372851Y-89322851D01*
X108345665Y-89345162D01*
X108314652Y-89361739D01*
X108280997Y-89371949D01*
X108239862Y-89376000D01*
X106910138Y-89376000D01*
X106869003Y-89371949D01*
X106835348Y-89361739D01*
X106804335Y-89345162D01*
X106777149Y-89322851D01*
X106754838Y-89295665D01*
X106738261Y-89264652D01*
X106728051Y-89230997D01*
X106724000Y-89189862D01*
X106724000Y-87810138D01*
X106728051Y-87769003D01*
X106738261Y-87735348D01*
X106754838Y-87704335D01*
X106777149Y-87677149D01*
X106804335Y-87654838D01*
X106835348Y-87638261D01*
X106869003Y-87628051D01*
X106910138Y-87624000D01*
X108239862Y-87624000D01*
X108280997Y-87628051D01*
X108280997Y-87628051D01*
G37*
G36*
X110584468Y-69403565D02*
G01*
X110623138Y-69415296D01*
X110658777Y-69434346D01*
X110690017Y-69459983D01*
X110715654Y-69491223D01*
X110734704Y-69526862D01*
X110746435Y-69565532D01*
X110751000Y-69611888D01*
X110751000Y-70263112D01*
X110746435Y-70309468D01*
X110734704Y-70348138D01*
X110715654Y-70383777D01*
X110690017Y-70415017D01*
X110658777Y-70440654D01*
X110623138Y-70459704D01*
X110584468Y-70471435D01*
X110538112Y-70476000D01*
X109461888Y-70476000D01*
X109415532Y-70471435D01*
X109376862Y-70459704D01*
X109341223Y-70440654D01*
X109309983Y-70415017D01*
X109284346Y-70383777D01*
X109265296Y-70348138D01*
X109253565Y-70309468D01*
X109249000Y-70263112D01*
X109249000Y-69611888D01*
X109253565Y-69565532D01*
X109265296Y-69526862D01*
X109284346Y-69491223D01*
X109309983Y-69459983D01*
X109341223Y-69434346D01*
X109376862Y-69415296D01*
X109415532Y-69403565D01*
X109461888Y-69399000D01*
X110538112Y-69399000D01*
X110584468Y-69403565D01*
X110584468Y-69403565D01*
G37*
G36*
X108584468Y-69403565D02*
G01*
X108623138Y-69415296D01*
X108658777Y-69434346D01*
X108690017Y-69459983D01*
X108715654Y-69491223D01*
X108734704Y-69526862D01*
X108746435Y-69565532D01*
X108751000Y-69611888D01*
X108751000Y-70263112D01*
X108746435Y-70309468D01*
X108734704Y-70348138D01*
X108715654Y-70383777D01*
X108690017Y-70415017D01*
X108658777Y-70440654D01*
X108623138Y-70459704D01*
X108584468Y-70471435D01*
X108538112Y-70476000D01*
X107461888Y-70476000D01*
X107415532Y-70471435D01*
X107376862Y-70459704D01*
X107341223Y-70440654D01*
X107309983Y-70415017D01*
X107284346Y-70383777D01*
X107265296Y-70348138D01*
X107253565Y-70309468D01*
X107249000Y-70263112D01*
X107249000Y-69611888D01*
X107253565Y-69565532D01*
X107265296Y-69526862D01*
X107284346Y-69491223D01*
X107309983Y-69459983D01*
X107341223Y-69434346D01*
X107376862Y-69415296D01*
X107415532Y-69403565D01*
X107461888Y-69399000D01*
X108538112Y-69399000D01*
X108584468Y-69403565D01*
X108584468Y-69403565D01*
G37*
G36*
X110584468Y-67528565D02*
G01*
X110623138Y-67540296D01*
X110658777Y-67559346D01*
X110690017Y-67584983D01*
X110715654Y-67616223D01*
X110734704Y-67651862D01*
X110746435Y-67690532D01*
X110751000Y-67736888D01*
X110751000Y-68388112D01*
X110746435Y-68434468D01*
X110734704Y-68473138D01*
X110715654Y-68508777D01*
X110690017Y-68540017D01*
X110658777Y-68565654D01*
X110623138Y-68584704D01*
X110584468Y-68596435D01*
X110538112Y-68601000D01*
X109461888Y-68601000D01*
X109415532Y-68596435D01*
X109376862Y-68584704D01*
X109341223Y-68565654D01*
X109309983Y-68540017D01*
X109284346Y-68508777D01*
X109265296Y-68473138D01*
X109253565Y-68434468D01*
X109249000Y-68388112D01*
X109249000Y-67736888D01*
X109253565Y-67690532D01*
X109265296Y-67651862D01*
X109284346Y-67616223D01*
X109309983Y-67584983D01*
X109341223Y-67559346D01*
X109376862Y-67540296D01*
X109415532Y-67528565D01*
X109461888Y-67524000D01*
X110538112Y-67524000D01*
X110584468Y-67528565D01*
X110584468Y-67528565D01*
G37*
G36*
X108584468Y-67528565D02*
G01*
X108623138Y-67540296D01*
X108658777Y-67559346D01*
X108690017Y-67584983D01*
X108715654Y-67616223D01*
X108734704Y-67651862D01*
X108746435Y-67690532D01*
X108751000Y-67736888D01*
X108751000Y-68388112D01*
X108746435Y-68434468D01*
X108734704Y-68473138D01*
X108715654Y-68508777D01*
X108690017Y-68540017D01*
X108658777Y-68565654D01*
X108623138Y-68584704D01*
X108584468Y-68596435D01*
X108538112Y-68601000D01*
X107461888Y-68601000D01*
X107415532Y-68596435D01*
X107376862Y-68584704D01*
X107341223Y-68565654D01*
X107309983Y-68540017D01*
X107284346Y-68508777D01*
X107265296Y-68473138D01*
X107253565Y-68434468D01*
X107249000Y-68388112D01*
X107249000Y-67736888D01*
X107253565Y-67690532D01*
X107265296Y-67651862D01*
X107284346Y-67616223D01*
X107309983Y-67584983D01*
X107341223Y-67559346D01*
X107376862Y-67540296D01*
X107415532Y-67528565D01*
X107461888Y-67524000D01*
X108538112Y-67524000D01*
X108584468Y-67528565D01*
X108584468Y-67528565D01*
G37*
G36*
X108678210Y-64458489D02*
G01*
X108764950Y-64484802D01*
X108844889Y-64527530D01*
X108914962Y-64585038D01*
X108972470Y-64655111D01*
X109015198Y-64735050D01*
X109041511Y-64821790D01*
X109051000Y-64918140D01*
X109051000Y-66081860D01*
X109041511Y-66178210D01*
X109015198Y-66264950D01*
X108972470Y-66344889D01*
X108914962Y-66414962D01*
X108844889Y-66472470D01*
X108764950Y-66515198D01*
X108678210Y-66541511D01*
X108581860Y-66551000D01*
X104918140Y-66551000D01*
X104821790Y-66541511D01*
X104735050Y-66515198D01*
X104655111Y-66472470D01*
X104585038Y-66414962D01*
X104527530Y-66344889D01*
X104484802Y-66264950D01*
X104458489Y-66178210D01*
X104449000Y-66081860D01*
X104449000Y-64918140D01*
X104458489Y-64821790D01*
X104484802Y-64735050D01*
X104527530Y-64655111D01*
X104585038Y-64585038D01*
X104655111Y-64527530D01*
X104735050Y-64484802D01*
X104821790Y-64458489D01*
X104918140Y-64449000D01*
X108581860Y-64449000D01*
X108678210Y-64458489D01*
X108678210Y-64458489D01*
G37*
G36*
X108678210Y-61958489D02*
G01*
X108764950Y-61984802D01*
X108844889Y-62027530D01*
X108914962Y-62085038D01*
X108972470Y-62155111D01*
X109015198Y-62235050D01*
X109041511Y-62321790D01*
X109051000Y-62418140D01*
X109051000Y-63581860D01*
X109041511Y-63678210D01*
X109015198Y-63764950D01*
X108972470Y-63844889D01*
X108914962Y-63914962D01*
X108844889Y-63972470D01*
X108764950Y-64015198D01*
X108678210Y-64041511D01*
X108581860Y-64051000D01*
X104918140Y-64051000D01*
X104821790Y-64041511D01*
X104735050Y-64015198D01*
X104655111Y-63972470D01*
X104585038Y-63914962D01*
X104527530Y-63844889D01*
X104484802Y-63764950D01*
X104458489Y-63678210D01*
X104449000Y-63581860D01*
X104449000Y-62418140D01*
X104458489Y-62321790D01*
X104484802Y-62235050D01*
X104527530Y-62155111D01*
X104585038Y-62085038D01*
X104655111Y-62027530D01*
X104735050Y-61984802D01*
X104821790Y-61958489D01*
X104918140Y-61949000D01*
X108581860Y-61949000D01*
X108678210Y-61958489D01*
X108678210Y-61958489D01*
G37*
G36*
X108678210Y-59458489D02*
G01*
X108764950Y-59484802D01*
X108844889Y-59527530D01*
X108914962Y-59585038D01*
X108972470Y-59655111D01*
X109015198Y-59735050D01*
X109041511Y-59821790D01*
X109051000Y-59918140D01*
X109051000Y-61081860D01*
X109041511Y-61178210D01*
X109015198Y-61264950D01*
X108972470Y-61344889D01*
X108914962Y-61414962D01*
X108844889Y-61472470D01*
X108764950Y-61515198D01*
X108678210Y-61541511D01*
X108581860Y-61551000D01*
X104918140Y-61551000D01*
X104821790Y-61541511D01*
X104735050Y-61515198D01*
X104655111Y-61472470D01*
X104585038Y-61414962D01*
X104527530Y-61344889D01*
X104484802Y-61264950D01*
X104458489Y-61178210D01*
X104449000Y-61081860D01*
X104449000Y-59918140D01*
X104458489Y-59821790D01*
X104484802Y-59735050D01*
X104527530Y-59655111D01*
X104585038Y-59585038D01*
X104655111Y-59527530D01*
X104735050Y-59484802D01*
X104821790Y-59458489D01*
X104918140Y-59449000D01*
X108581860Y-59449000D01*
X108678210Y-59458489D01*
X108678210Y-59458489D01*
G37*
G36*
X108678210Y-56958489D02*
G01*
X108764950Y-56984802D01*
X108844889Y-57027530D01*
X108914962Y-57085038D01*
X108972470Y-57155111D01*
X109015198Y-57235050D01*
X109041511Y-57321790D01*
X109051000Y-57418140D01*
X109051000Y-58581860D01*
X109041511Y-58678210D01*
X109015198Y-58764950D01*
X108972470Y-58844889D01*
X108914962Y-58914962D01*
X108844889Y-58972470D01*
X108764950Y-59015198D01*
X108678210Y-59041511D01*
X108581860Y-59051000D01*
X104918140Y-59051000D01*
X104821790Y-59041511D01*
X104735050Y-59015198D01*
X104655111Y-58972470D01*
X104585038Y-58914962D01*
X104527530Y-58844889D01*
X104484802Y-58764950D01*
X104458489Y-58678210D01*
X104449000Y-58581860D01*
X104449000Y-57418140D01*
X104458489Y-57321790D01*
X104484802Y-57235050D01*
X104527530Y-57155111D01*
X104585038Y-57085038D01*
X104655111Y-57027530D01*
X104735050Y-56984802D01*
X104821790Y-56958489D01*
X104918140Y-56949000D01*
X108581860Y-56949000D01*
X108678210Y-56958489D01*
X108678210Y-56958489D01*
G37*
M02*
