G04 #@! TF.GenerationSoftware,KiCad,Pcbnew,(5.1.0-0)*
G04 #@! TF.CreationDate,2020-07-01T23:26:51+02:00*
G04 #@! TF.ProjectId,POxiM-fingersensor,504f7869-4d2d-4666-996e-67657273656e,Test proto*
G04 #@! TF.SameCoordinates,Original*
G04 #@! TF.FileFunction,Paste,Bot*
G04 #@! TF.FilePolarity,Positive*
%FSLAX46Y46*%
G04 Gerber Fmt 4.6, Leading zero omitted, Abs format (unit mm)*
G04 Created by KiCad (PCBNEW (5.1.0-0)) date 2020-07-01 23:26:51*
%MOMM*%
%LPD*%
G04 APERTURE LIST*
%ADD10C,0.100000*%
%ADD11C,2.000000*%
G04 APERTURE END LIST*
D10*
G36*
X108549009Y-70752408D02*
G01*
X108597545Y-70759607D01*
X108645142Y-70771530D01*
X108691342Y-70788060D01*
X108735698Y-70809039D01*
X108777785Y-70834265D01*
X108817197Y-70863495D01*
X108853553Y-70896447D01*
X108886505Y-70932803D01*
X108915735Y-70972215D01*
X108940961Y-71014302D01*
X108961940Y-71058658D01*
X108978470Y-71104858D01*
X108990393Y-71152455D01*
X108997592Y-71200991D01*
X109000000Y-71250000D01*
X109000000Y-72250000D01*
X108997592Y-72299009D01*
X108990393Y-72347545D01*
X108978470Y-72395142D01*
X108961940Y-72441342D01*
X108940961Y-72485698D01*
X108915735Y-72527785D01*
X108886505Y-72567197D01*
X108853553Y-72603553D01*
X108817197Y-72636505D01*
X108777785Y-72665735D01*
X108735698Y-72690961D01*
X108691342Y-72711940D01*
X108645142Y-72728470D01*
X108597545Y-72740393D01*
X108549009Y-72747592D01*
X108500000Y-72750000D01*
X105000000Y-72750000D01*
X104950991Y-72747592D01*
X104902455Y-72740393D01*
X104854858Y-72728470D01*
X104808658Y-72711940D01*
X104764302Y-72690961D01*
X104722215Y-72665735D01*
X104682803Y-72636505D01*
X104646447Y-72603553D01*
X104613495Y-72567197D01*
X104584265Y-72527785D01*
X104559039Y-72485698D01*
X104538060Y-72441342D01*
X104521530Y-72395142D01*
X104509607Y-72347545D01*
X104502408Y-72299009D01*
X104500000Y-72250000D01*
X104500000Y-71250000D01*
X104502408Y-71200991D01*
X104509607Y-71152455D01*
X104521530Y-71104858D01*
X104538060Y-71058658D01*
X104559039Y-71014302D01*
X104584265Y-70972215D01*
X104613495Y-70932803D01*
X104646447Y-70896447D01*
X104682803Y-70863495D01*
X104722215Y-70834265D01*
X104764302Y-70809039D01*
X104808658Y-70788060D01*
X104854858Y-70771530D01*
X104902455Y-70759607D01*
X104950991Y-70752408D01*
X105000000Y-70750000D01*
X108500000Y-70750000D01*
X108549009Y-70752408D01*
X108549009Y-70752408D01*
G37*
D11*
X106750000Y-71750000D03*
D10*
G36*
X108549009Y-68252408D02*
G01*
X108597545Y-68259607D01*
X108645142Y-68271530D01*
X108691342Y-68288060D01*
X108735698Y-68309039D01*
X108777785Y-68334265D01*
X108817197Y-68363495D01*
X108853553Y-68396447D01*
X108886505Y-68432803D01*
X108915735Y-68472215D01*
X108940961Y-68514302D01*
X108961940Y-68558658D01*
X108978470Y-68604858D01*
X108990393Y-68652455D01*
X108997592Y-68700991D01*
X109000000Y-68750000D01*
X109000000Y-69750000D01*
X108997592Y-69799009D01*
X108990393Y-69847545D01*
X108978470Y-69895142D01*
X108961940Y-69941342D01*
X108940961Y-69985698D01*
X108915735Y-70027785D01*
X108886505Y-70067197D01*
X108853553Y-70103553D01*
X108817197Y-70136505D01*
X108777785Y-70165735D01*
X108735698Y-70190961D01*
X108691342Y-70211940D01*
X108645142Y-70228470D01*
X108597545Y-70240393D01*
X108549009Y-70247592D01*
X108500000Y-70250000D01*
X105000000Y-70250000D01*
X104950991Y-70247592D01*
X104902455Y-70240393D01*
X104854858Y-70228470D01*
X104808658Y-70211940D01*
X104764302Y-70190961D01*
X104722215Y-70165735D01*
X104682803Y-70136505D01*
X104646447Y-70103553D01*
X104613495Y-70067197D01*
X104584265Y-70027785D01*
X104559039Y-69985698D01*
X104538060Y-69941342D01*
X104521530Y-69895142D01*
X104509607Y-69847545D01*
X104502408Y-69799009D01*
X104500000Y-69750000D01*
X104500000Y-68750000D01*
X104502408Y-68700991D01*
X104509607Y-68652455D01*
X104521530Y-68604858D01*
X104538060Y-68558658D01*
X104559039Y-68514302D01*
X104584265Y-68472215D01*
X104613495Y-68432803D01*
X104646447Y-68396447D01*
X104682803Y-68363495D01*
X104722215Y-68334265D01*
X104764302Y-68309039D01*
X104808658Y-68288060D01*
X104854858Y-68271530D01*
X104902455Y-68259607D01*
X104950991Y-68252408D01*
X105000000Y-68250000D01*
X108500000Y-68250000D01*
X108549009Y-68252408D01*
X108549009Y-68252408D01*
G37*
D11*
X106750000Y-69250000D03*
D10*
G36*
X108549009Y-65752408D02*
G01*
X108597545Y-65759607D01*
X108645142Y-65771530D01*
X108691342Y-65788060D01*
X108735698Y-65809039D01*
X108777785Y-65834265D01*
X108817197Y-65863495D01*
X108853553Y-65896447D01*
X108886505Y-65932803D01*
X108915735Y-65972215D01*
X108940961Y-66014302D01*
X108961940Y-66058658D01*
X108978470Y-66104858D01*
X108990393Y-66152455D01*
X108997592Y-66200991D01*
X109000000Y-66250000D01*
X109000000Y-67250000D01*
X108997592Y-67299009D01*
X108990393Y-67347545D01*
X108978470Y-67395142D01*
X108961940Y-67441342D01*
X108940961Y-67485698D01*
X108915735Y-67527785D01*
X108886505Y-67567197D01*
X108853553Y-67603553D01*
X108817197Y-67636505D01*
X108777785Y-67665735D01*
X108735698Y-67690961D01*
X108691342Y-67711940D01*
X108645142Y-67728470D01*
X108597545Y-67740393D01*
X108549009Y-67747592D01*
X108500000Y-67750000D01*
X105000000Y-67750000D01*
X104950991Y-67747592D01*
X104902455Y-67740393D01*
X104854858Y-67728470D01*
X104808658Y-67711940D01*
X104764302Y-67690961D01*
X104722215Y-67665735D01*
X104682803Y-67636505D01*
X104646447Y-67603553D01*
X104613495Y-67567197D01*
X104584265Y-67527785D01*
X104559039Y-67485698D01*
X104538060Y-67441342D01*
X104521530Y-67395142D01*
X104509607Y-67347545D01*
X104502408Y-67299009D01*
X104500000Y-67250000D01*
X104500000Y-66250000D01*
X104502408Y-66200991D01*
X104509607Y-66152455D01*
X104521530Y-66104858D01*
X104538060Y-66058658D01*
X104559039Y-66014302D01*
X104584265Y-65972215D01*
X104613495Y-65932803D01*
X104646447Y-65896447D01*
X104682803Y-65863495D01*
X104722215Y-65834265D01*
X104764302Y-65809039D01*
X104808658Y-65788060D01*
X104854858Y-65771530D01*
X104902455Y-65759607D01*
X104950991Y-65752408D01*
X105000000Y-65750000D01*
X108500000Y-65750000D01*
X108549009Y-65752408D01*
X108549009Y-65752408D01*
G37*
D11*
X106750000Y-66750000D03*
D10*
G36*
X108549009Y-63252408D02*
G01*
X108597545Y-63259607D01*
X108645142Y-63271530D01*
X108691342Y-63288060D01*
X108735698Y-63309039D01*
X108777785Y-63334265D01*
X108817197Y-63363495D01*
X108853553Y-63396447D01*
X108886505Y-63432803D01*
X108915735Y-63472215D01*
X108940961Y-63514302D01*
X108961940Y-63558658D01*
X108978470Y-63604858D01*
X108990393Y-63652455D01*
X108997592Y-63700991D01*
X109000000Y-63750000D01*
X109000000Y-64750000D01*
X108997592Y-64799009D01*
X108990393Y-64847545D01*
X108978470Y-64895142D01*
X108961940Y-64941342D01*
X108940961Y-64985698D01*
X108915735Y-65027785D01*
X108886505Y-65067197D01*
X108853553Y-65103553D01*
X108817197Y-65136505D01*
X108777785Y-65165735D01*
X108735698Y-65190961D01*
X108691342Y-65211940D01*
X108645142Y-65228470D01*
X108597545Y-65240393D01*
X108549009Y-65247592D01*
X108500000Y-65250000D01*
X105000000Y-65250000D01*
X104950991Y-65247592D01*
X104902455Y-65240393D01*
X104854858Y-65228470D01*
X104808658Y-65211940D01*
X104764302Y-65190961D01*
X104722215Y-65165735D01*
X104682803Y-65136505D01*
X104646447Y-65103553D01*
X104613495Y-65067197D01*
X104584265Y-65027785D01*
X104559039Y-64985698D01*
X104538060Y-64941342D01*
X104521530Y-64895142D01*
X104509607Y-64847545D01*
X104502408Y-64799009D01*
X104500000Y-64750000D01*
X104500000Y-63750000D01*
X104502408Y-63700991D01*
X104509607Y-63652455D01*
X104521530Y-63604858D01*
X104538060Y-63558658D01*
X104559039Y-63514302D01*
X104584265Y-63472215D01*
X104613495Y-63432803D01*
X104646447Y-63396447D01*
X104682803Y-63363495D01*
X104722215Y-63334265D01*
X104764302Y-63309039D01*
X104808658Y-63288060D01*
X104854858Y-63271530D01*
X104902455Y-63259607D01*
X104950991Y-63252408D01*
X105000000Y-63250000D01*
X108500000Y-63250000D01*
X108549009Y-63252408D01*
X108549009Y-63252408D01*
G37*
D11*
X106750000Y-64250000D03*
M02*
