G04 #@! TF.GenerationSoftware,KiCad,Pcbnew,(5.1.0-0)*
G04 #@! TF.CreationDate,2020-07-01T23:26:51+02:00*
G04 #@! TF.ProjectId,POxiM-fingersensor,504f7869-4d2d-4666-996e-67657273656e,Test proto*
G04 #@! TF.SameCoordinates,Original*
G04 #@! TF.FileFunction,Legend,Top*
G04 #@! TF.FilePolarity,Positive*
%FSLAX46Y46*%
G04 Gerber Fmt 4.6, Leading zero omitted, Abs format (unit mm)*
G04 Created by KiCad (PCBNEW (5.1.0-0)) date 2020-07-01 23:26:51*
%MOMM*%
%LPD*%
G04 APERTURE LIST*
%ADD10C,0.150000*%
%ADD11C,0.100000*%
%ADD12C,0.120000*%
%ADD13C,0.010000*%
G04 APERTURE END LIST*
D10*
X108750000Y-80250000D02*
X108750000Y-80600000D01*
X109250000Y-80250000D02*
X109250000Y-80600000D01*
X109250000Y-80250000D02*
G75*
G02X109750000Y-79750000I500000J0D01*
G01*
X108750000Y-80600000D02*
X109250000Y-80600000D01*
X109750000Y-79750000D02*
X112750000Y-79750000D01*
X112750000Y-79750000D02*
G75*
G02X113250000Y-80250000I0J-500000D01*
G01*
X104750000Y-80250000D02*
G75*
G02X105250000Y-79750000I500000J0D01*
G01*
X108250000Y-79750000D02*
G75*
G02X108750000Y-80250000I0J-500000D01*
G01*
X113250000Y-80600000D02*
X114000000Y-80600000D01*
X113250000Y-80250000D02*
X113250000Y-80600000D01*
X104750000Y-80250000D02*
X104750000Y-80600000D01*
X105250000Y-79750000D02*
X108250000Y-79750000D01*
D11*
G36*
X114000000Y-80600000D02*
G01*
X113250000Y-80600000D01*
X113250000Y-80000000D01*
X113000000Y-79750000D01*
X109500000Y-79750000D01*
X109250000Y-80000000D01*
X109250000Y-80600000D01*
X108750000Y-80600000D01*
X108750000Y-80000000D01*
X108500000Y-79750000D01*
X105000000Y-79750000D01*
X104750000Y-80000000D01*
X104750000Y-80600000D01*
X104000000Y-80600000D01*
X104000000Y-79000000D01*
X114000000Y-79000000D01*
X114000000Y-80600000D01*
G37*
X114000000Y-80600000D02*
X113250000Y-80600000D01*
X113250000Y-80000000D01*
X113000000Y-79750000D01*
X109500000Y-79750000D01*
X109250000Y-80000000D01*
X109250000Y-80600000D01*
X108750000Y-80600000D01*
X108750000Y-80000000D01*
X108500000Y-79750000D01*
X105000000Y-79750000D01*
X104750000Y-80000000D01*
X104750000Y-80600000D01*
X104000000Y-80600000D01*
X104000000Y-79000000D01*
X114000000Y-79000000D01*
X114000000Y-80600000D01*
D10*
X104000000Y-79000000D02*
X114000000Y-79000000D01*
X104000000Y-80600000D02*
X104750000Y-80600000D01*
X104000000Y-79000000D02*
X104000000Y-80600000D01*
X114000000Y-79000000D02*
X114000000Y-80600000D01*
X106611904Y-69457142D02*
X106230952Y-69723809D01*
X106611904Y-69914285D02*
X105811904Y-69914285D01*
X105811904Y-69609523D01*
X105850000Y-69533333D01*
X105888095Y-69495238D01*
X105964285Y-69457142D01*
X106078571Y-69457142D01*
X106154761Y-69495238D01*
X106192857Y-69533333D01*
X106230952Y-69609523D01*
X106230952Y-69914285D01*
X106573809Y-68809523D02*
X106611904Y-68885714D01*
X106611904Y-69038095D01*
X106573809Y-69114285D01*
X106497619Y-69152380D01*
X106192857Y-69152380D01*
X106116666Y-69114285D01*
X106078571Y-69038095D01*
X106078571Y-68885714D01*
X106116666Y-68809523D01*
X106192857Y-68771428D01*
X106269047Y-68771428D01*
X106345238Y-69152380D01*
X106611904Y-68085714D02*
X105811904Y-68085714D01*
X106573809Y-68085714D02*
X106611904Y-68161904D01*
X106611904Y-68314285D01*
X106573809Y-68390476D01*
X106535714Y-68428571D01*
X106459523Y-68466666D01*
X106230952Y-68466666D01*
X106154761Y-68428571D01*
X106116666Y-68390476D01*
X106078571Y-68314285D01*
X106078571Y-68161904D01*
X106116666Y-68085714D01*
X112111904Y-69400000D02*
X111311904Y-69400000D01*
X112111904Y-68561904D02*
X111730952Y-68828571D01*
X112111904Y-69019047D02*
X111311904Y-69019047D01*
X111311904Y-68714285D01*
X111350000Y-68638095D01*
X111388095Y-68600000D01*
X111464285Y-68561904D01*
X111578571Y-68561904D01*
X111654761Y-68600000D01*
X111692857Y-68638095D01*
X111730952Y-68714285D01*
X111730952Y-69019047D01*
X107359523Y-63842857D02*
X107092857Y-63842857D01*
X107092857Y-64261904D02*
X107092857Y-63461904D01*
X107473809Y-63461904D01*
X107778571Y-64261904D02*
X107778571Y-63728571D01*
X107778571Y-63461904D02*
X107740476Y-63500000D01*
X107778571Y-63538095D01*
X107816666Y-63500000D01*
X107778571Y-63461904D01*
X107778571Y-63538095D01*
X108159523Y-63728571D02*
X108159523Y-64261904D01*
X108159523Y-63804761D02*
X108197619Y-63766666D01*
X108273809Y-63728571D01*
X108388095Y-63728571D01*
X108464285Y-63766666D01*
X108502380Y-63842857D01*
X108502380Y-64261904D01*
X109226190Y-63728571D02*
X109226190Y-64376190D01*
X109188095Y-64452380D01*
X109150000Y-64490476D01*
X109073809Y-64528571D01*
X108959523Y-64528571D01*
X108883333Y-64490476D01*
X109226190Y-64223809D02*
X109150000Y-64261904D01*
X108997619Y-64261904D01*
X108921428Y-64223809D01*
X108883333Y-64185714D01*
X108845238Y-64109523D01*
X108845238Y-63880952D01*
X108883333Y-63804761D01*
X108921428Y-63766666D01*
X108997619Y-63728571D01*
X109150000Y-63728571D01*
X109226190Y-63766666D01*
X109911904Y-64223809D02*
X109835714Y-64261904D01*
X109683333Y-64261904D01*
X109607142Y-64223809D01*
X109569047Y-64147619D01*
X109569047Y-63842857D01*
X109607142Y-63766666D01*
X109683333Y-63728571D01*
X109835714Y-63728571D01*
X109911904Y-63766666D01*
X109950000Y-63842857D01*
X109950000Y-63919047D01*
X109569047Y-63995238D01*
X110292857Y-64261904D02*
X110292857Y-63728571D01*
X110292857Y-63880952D02*
X110330952Y-63804761D01*
X110369047Y-63766666D01*
X110445238Y-63728571D01*
X110521428Y-63728571D01*
X106940476Y-65573809D02*
X107016666Y-65611904D01*
X107169047Y-65611904D01*
X107245238Y-65573809D01*
X107283333Y-65497619D01*
X107283333Y-65459523D01*
X107245238Y-65383333D01*
X107169047Y-65345238D01*
X107054761Y-65345238D01*
X106978571Y-65307142D01*
X106940476Y-65230952D01*
X106940476Y-65192857D01*
X106978571Y-65116666D01*
X107054761Y-65078571D01*
X107169047Y-65078571D01*
X107245238Y-65116666D01*
X107930952Y-65573809D02*
X107854761Y-65611904D01*
X107702380Y-65611904D01*
X107626190Y-65573809D01*
X107588095Y-65497619D01*
X107588095Y-65192857D01*
X107626190Y-65116666D01*
X107702380Y-65078571D01*
X107854761Y-65078571D01*
X107930952Y-65116666D01*
X107969047Y-65192857D01*
X107969047Y-65269047D01*
X107588095Y-65345238D01*
X108311904Y-65078571D02*
X108311904Y-65611904D01*
X108311904Y-65154761D02*
X108350000Y-65116666D01*
X108426190Y-65078571D01*
X108540476Y-65078571D01*
X108616666Y-65116666D01*
X108654761Y-65192857D01*
X108654761Y-65611904D01*
X108997619Y-65573809D02*
X109073809Y-65611904D01*
X109226190Y-65611904D01*
X109302380Y-65573809D01*
X109340476Y-65497619D01*
X109340476Y-65459523D01*
X109302380Y-65383333D01*
X109226190Y-65345238D01*
X109111904Y-65345238D01*
X109035714Y-65307142D01*
X108997619Y-65230952D01*
X108997619Y-65192857D01*
X109035714Y-65116666D01*
X109111904Y-65078571D01*
X109226190Y-65078571D01*
X109302380Y-65116666D01*
X109797619Y-65611904D02*
X109721428Y-65573809D01*
X109683333Y-65535714D01*
X109645238Y-65459523D01*
X109645238Y-65230952D01*
X109683333Y-65154761D01*
X109721428Y-65116666D01*
X109797619Y-65078571D01*
X109911904Y-65078571D01*
X109988095Y-65116666D01*
X110026190Y-65154761D01*
X110064285Y-65230952D01*
X110064285Y-65459523D01*
X110026190Y-65535714D01*
X109988095Y-65573809D01*
X109911904Y-65611904D01*
X109797619Y-65611904D01*
X110407142Y-65611904D02*
X110407142Y-65078571D01*
X110407142Y-65230952D02*
X110445238Y-65154761D01*
X110483333Y-65116666D01*
X110559523Y-65078571D01*
X110635714Y-65078571D01*
X107645238Y-66961904D02*
X107378571Y-66580952D01*
X107188095Y-66961904D02*
X107188095Y-66161904D01*
X107492857Y-66161904D01*
X107569047Y-66200000D01*
X107607142Y-66238095D01*
X107645238Y-66314285D01*
X107645238Y-66428571D01*
X107607142Y-66504761D01*
X107569047Y-66542857D01*
X107492857Y-66580952D01*
X107188095Y-66580952D01*
X108292857Y-66923809D02*
X108216666Y-66961904D01*
X108064285Y-66961904D01*
X107988095Y-66923809D01*
X107950000Y-66847619D01*
X107950000Y-66542857D01*
X107988095Y-66466666D01*
X108064285Y-66428571D01*
X108216666Y-66428571D01*
X108292857Y-66466666D01*
X108330952Y-66542857D01*
X108330952Y-66619047D01*
X107950000Y-66695238D01*
X108597619Y-66428571D02*
X108788095Y-66961904D01*
X108978571Y-66428571D01*
X110311904Y-66200000D02*
X110235714Y-66161904D01*
X110121428Y-66161904D01*
X110007142Y-66200000D01*
X109930952Y-66276190D01*
X109892857Y-66352380D01*
X109854761Y-66504761D01*
X109854761Y-66619047D01*
X109892857Y-66771428D01*
X109930952Y-66847619D01*
X110007142Y-66923809D01*
X110121428Y-66961904D01*
X110197619Y-66961904D01*
X110311904Y-66923809D01*
X110350000Y-66885714D01*
X110350000Y-66619047D01*
X110197619Y-66619047D01*
D12*
X106515000Y-86585000D02*
X110600000Y-86585000D01*
X106515000Y-84415000D02*
X106515000Y-86585000D01*
X110600000Y-84415000D02*
X106515000Y-84415000D01*
D13*
G36*
X109377161Y-71168699D02*
G01*
X109394167Y-71169012D01*
X109408048Y-71169555D01*
X109419293Y-71170362D01*
X109428391Y-71171466D01*
X109435831Y-71172901D01*
X109442100Y-71174698D01*
X109447688Y-71176893D01*
X109452033Y-71178976D01*
X109466699Y-71188791D01*
X109480095Y-71202075D01*
X109490692Y-71217220D01*
X109493316Y-71222354D01*
X109500630Y-71238190D01*
X109500630Y-72261810D01*
X109493316Y-72277645D01*
X109482282Y-72295667D01*
X109467568Y-72310504D01*
X109449808Y-72321654D01*
X109429635Y-72328614D01*
X109428749Y-72328807D01*
X109421021Y-72329831D01*
X109409314Y-72330625D01*
X109394723Y-72331185D01*
X109378344Y-72331507D01*
X109361272Y-72331587D01*
X109344603Y-72331421D01*
X109329432Y-72331006D01*
X109316856Y-72330338D01*
X109307969Y-72329413D01*
X109306854Y-72329221D01*
X109286182Y-72322803D01*
X109267836Y-72312042D01*
X109252392Y-72297365D01*
X109241093Y-72280493D01*
X109233930Y-72266890D01*
X109233364Y-72138620D01*
X109233279Y-72116882D01*
X109233235Y-72097082D01*
X109233248Y-72078752D01*
X109233330Y-72061423D01*
X109233497Y-72044626D01*
X109233764Y-72027893D01*
X109234144Y-72010754D01*
X109234653Y-71992742D01*
X109235304Y-71973387D01*
X109236113Y-71952221D01*
X109237093Y-71928774D01*
X109238260Y-71902580D01*
X109239628Y-71873168D01*
X109241210Y-71840070D01*
X109243023Y-71802817D01*
X109244993Y-71762700D01*
X109246697Y-71727668D01*
X109248290Y-71694067D01*
X109249757Y-71662244D01*
X109251085Y-71632547D01*
X109252259Y-71605325D01*
X109253266Y-71580924D01*
X109254091Y-71559694D01*
X109254719Y-71541983D01*
X109255137Y-71528137D01*
X109255331Y-71518506D01*
X109255286Y-71513438D01*
X109255178Y-71512731D01*
X109253048Y-71513139D01*
X109250573Y-71517256D01*
X109250377Y-71517755D01*
X109249254Y-71520951D01*
X109246581Y-71528690D01*
X109242449Y-71540709D01*
X109236947Y-71556744D01*
X109230167Y-71576530D01*
X109222198Y-71599804D01*
X109213130Y-71626301D01*
X109203055Y-71655757D01*
X109192062Y-71687908D01*
X109180242Y-71722490D01*
X109167685Y-71759240D01*
X109154482Y-71797892D01*
X109140723Y-71838183D01*
X109126497Y-71879848D01*
X109119252Y-71901074D01*
X109101159Y-71954042D01*
X109084623Y-72002373D01*
X109069581Y-72046242D01*
X109055971Y-72085827D01*
X109043731Y-72121305D01*
X109032799Y-72152853D01*
X109023111Y-72180647D01*
X109014606Y-72204865D01*
X109007222Y-72225683D01*
X109000896Y-72243279D01*
X108995566Y-72257830D01*
X108991170Y-72269512D01*
X108987645Y-72278502D01*
X108984929Y-72284978D01*
X108982960Y-72289117D01*
X108982231Y-72290373D01*
X108969833Y-72305156D01*
X108954058Y-72317427D01*
X108936750Y-72325881D01*
X108930905Y-72327618D01*
X108924067Y-72328863D01*
X108915322Y-72329688D01*
X108903758Y-72330166D01*
X108888464Y-72330369D01*
X108879600Y-72330390D01*
X108863506Y-72330362D01*
X108851533Y-72330201D01*
X108842720Y-72329791D01*
X108836106Y-72329015D01*
X108830733Y-72327757D01*
X108825639Y-72325900D01*
X108819865Y-72323329D01*
X108819345Y-72323089D01*
X108807071Y-72315875D01*
X108794735Y-72306010D01*
X108783847Y-72294889D01*
X108775918Y-72283908D01*
X108774884Y-72281982D01*
X108773657Y-72278770D01*
X108770887Y-72271012D01*
X108766668Y-72258972D01*
X108761088Y-72242915D01*
X108754239Y-72223105D01*
X108746212Y-72199806D01*
X108737097Y-72173284D01*
X108726986Y-72143802D01*
X108715968Y-72111626D01*
X108704135Y-72077018D01*
X108691577Y-72040245D01*
X108678385Y-72001570D01*
X108664651Y-71961258D01*
X108650464Y-71919574D01*
X108643327Y-71898590D01*
X108628982Y-71856420D01*
X108615064Y-71815551D01*
X108601662Y-71776241D01*
X108588865Y-71738751D01*
X108576761Y-71703340D01*
X108565442Y-71670269D01*
X108554994Y-71639795D01*
X108545509Y-71612181D01*
X108537075Y-71587685D01*
X108529780Y-71566566D01*
X108523715Y-71549086D01*
X108518969Y-71535503D01*
X108515630Y-71526078D01*
X108513788Y-71521070D01*
X108513452Y-71520299D01*
X108510752Y-71518865D01*
X108510168Y-71519144D01*
X108510122Y-71521796D01*
X108510315Y-71529182D01*
X108510734Y-71540964D01*
X108511363Y-71556802D01*
X108512186Y-71576357D01*
X108513190Y-71599290D01*
X108514359Y-71625262D01*
X108515677Y-71653934D01*
X108517131Y-71684967D01*
X108518705Y-71718022D01*
X108520384Y-71752760D01*
X108521621Y-71778055D01*
X108523714Y-71820753D01*
X108525562Y-71858815D01*
X108527179Y-71892680D01*
X108528579Y-71922785D01*
X108529776Y-71949570D01*
X108530785Y-71973470D01*
X108531618Y-71994926D01*
X108532292Y-72014373D01*
X108532818Y-72032252D01*
X108533213Y-72048999D01*
X108533489Y-72065052D01*
X108533661Y-72080850D01*
X108533743Y-72096831D01*
X108533749Y-72113432D01*
X108533693Y-72131092D01*
X108533590Y-72150050D01*
X108533418Y-72177142D01*
X108533247Y-72199639D01*
X108533054Y-72218025D01*
X108532814Y-72232786D01*
X108532502Y-72244406D01*
X108532095Y-72253370D01*
X108531568Y-72260162D01*
X108530896Y-72265268D01*
X108530057Y-72269171D01*
X108529024Y-72272358D01*
X108527775Y-72275312D01*
X108527255Y-72276437D01*
X108519977Y-72288562D01*
X108509879Y-72300833D01*
X108498447Y-72311681D01*
X108487164Y-72319531D01*
X108485950Y-72320167D01*
X108476225Y-72324257D01*
X108465166Y-72327792D01*
X108461009Y-72328804D01*
X108453834Y-72329723D01*
X108442640Y-72330437D01*
X108428483Y-72330945D01*
X108412420Y-72331244D01*
X108395508Y-72331332D01*
X108378804Y-72331208D01*
X108363364Y-72330870D01*
X108350246Y-72330315D01*
X108340504Y-72329543D01*
X108336941Y-72329019D01*
X108318874Y-72323024D01*
X108301852Y-72312842D01*
X108287005Y-72299366D01*
X108275463Y-72283490D01*
X108272779Y-72278320D01*
X108266190Y-72264350D01*
X108266190Y-71235650D01*
X108272779Y-71221680D01*
X108283509Y-71204677D01*
X108298265Y-71190008D01*
X108316233Y-71178462D01*
X108318260Y-71177470D01*
X108334770Y-71169610D01*
X108452880Y-71169610D01*
X108480431Y-71169614D01*
X108503387Y-71169641D01*
X108522229Y-71169712D01*
X108537441Y-71169849D01*
X108549506Y-71170073D01*
X108558909Y-71170404D01*
X108566131Y-71170866D01*
X108571657Y-71171478D01*
X108575969Y-71172262D01*
X108579552Y-71173239D01*
X108582888Y-71174432D01*
X108585472Y-71175461D01*
X108600696Y-71183658D01*
X108614754Y-71194985D01*
X108626188Y-71208123D01*
X108631692Y-71217355D01*
X108632936Y-71220729D01*
X108635610Y-71228584D01*
X108639614Y-71240603D01*
X108644845Y-71256468D01*
X108651201Y-71275862D01*
X108658579Y-71298468D01*
X108666879Y-71323967D01*
X108675996Y-71352044D01*
X108685830Y-71382380D01*
X108696278Y-71414658D01*
X108707239Y-71448561D01*
X108718609Y-71483772D01*
X108730287Y-71519972D01*
X108742171Y-71556845D01*
X108754159Y-71594074D01*
X108766148Y-71631341D01*
X108778037Y-71668329D01*
X108789722Y-71704720D01*
X108801103Y-71740197D01*
X108812077Y-71774442D01*
X108822542Y-71807139D01*
X108832396Y-71837970D01*
X108841536Y-71866618D01*
X108849861Y-71892765D01*
X108857268Y-71916094D01*
X108863655Y-71936288D01*
X108868921Y-71953029D01*
X108872962Y-71965999D01*
X108875678Y-71974883D01*
X108876965Y-71979361D01*
X108877060Y-71979829D01*
X108879085Y-71981047D01*
X108880235Y-71981134D01*
X108881446Y-71978734D01*
X108884152Y-71971620D01*
X108888310Y-71959920D01*
X108893879Y-71943763D01*
X108900815Y-71923277D01*
X108909076Y-71898590D01*
X108918620Y-71869829D01*
X108929404Y-71837123D01*
X108941385Y-71800600D01*
X108954522Y-71760389D01*
X108968772Y-71716616D01*
X108984092Y-71669411D01*
X109000439Y-71618902D01*
X109003836Y-71608389D01*
X109017532Y-71566042D01*
X109030882Y-71524850D01*
X109043794Y-71485088D01*
X109056180Y-71447033D01*
X109067947Y-71410960D01*
X109079006Y-71377143D01*
X109089266Y-71345860D01*
X109098636Y-71317384D01*
X109107026Y-71291993D01*
X109114346Y-71269961D01*
X109120504Y-71251564D01*
X109125410Y-71237077D01*
X109128974Y-71226776D01*
X109131104Y-71220937D01*
X109131502Y-71219982D01*
X109141739Y-71203520D01*
X109155780Y-71189281D01*
X109172478Y-71178343D01*
X109178807Y-71175466D01*
X109182435Y-71174051D01*
X109185995Y-71172880D01*
X109189995Y-71171927D01*
X109194944Y-71171163D01*
X109201351Y-71170562D01*
X109209722Y-71170097D01*
X109220567Y-71169739D01*
X109234394Y-71169462D01*
X109251710Y-71169238D01*
X109273025Y-71169040D01*
X109298847Y-71168840D01*
X109302510Y-71168813D01*
X109331821Y-71168633D01*
X109356542Y-71168584D01*
X109377161Y-71168699D01*
X109377161Y-71168699D01*
G37*
X109377161Y-71168699D02*
X109394167Y-71169012D01*
X109408048Y-71169555D01*
X109419293Y-71170362D01*
X109428391Y-71171466D01*
X109435831Y-71172901D01*
X109442100Y-71174698D01*
X109447688Y-71176893D01*
X109452033Y-71178976D01*
X109466699Y-71188791D01*
X109480095Y-71202075D01*
X109490692Y-71217220D01*
X109493316Y-71222354D01*
X109500630Y-71238190D01*
X109500630Y-72261810D01*
X109493316Y-72277645D01*
X109482282Y-72295667D01*
X109467568Y-72310504D01*
X109449808Y-72321654D01*
X109429635Y-72328614D01*
X109428749Y-72328807D01*
X109421021Y-72329831D01*
X109409314Y-72330625D01*
X109394723Y-72331185D01*
X109378344Y-72331507D01*
X109361272Y-72331587D01*
X109344603Y-72331421D01*
X109329432Y-72331006D01*
X109316856Y-72330338D01*
X109307969Y-72329413D01*
X109306854Y-72329221D01*
X109286182Y-72322803D01*
X109267836Y-72312042D01*
X109252392Y-72297365D01*
X109241093Y-72280493D01*
X109233930Y-72266890D01*
X109233364Y-72138620D01*
X109233279Y-72116882D01*
X109233235Y-72097082D01*
X109233248Y-72078752D01*
X109233330Y-72061423D01*
X109233497Y-72044626D01*
X109233764Y-72027893D01*
X109234144Y-72010754D01*
X109234653Y-71992742D01*
X109235304Y-71973387D01*
X109236113Y-71952221D01*
X109237093Y-71928774D01*
X109238260Y-71902580D01*
X109239628Y-71873168D01*
X109241210Y-71840070D01*
X109243023Y-71802817D01*
X109244993Y-71762700D01*
X109246697Y-71727668D01*
X109248290Y-71694067D01*
X109249757Y-71662244D01*
X109251085Y-71632547D01*
X109252259Y-71605325D01*
X109253266Y-71580924D01*
X109254091Y-71559694D01*
X109254719Y-71541983D01*
X109255137Y-71528137D01*
X109255331Y-71518506D01*
X109255286Y-71513438D01*
X109255178Y-71512731D01*
X109253048Y-71513139D01*
X109250573Y-71517256D01*
X109250377Y-71517755D01*
X109249254Y-71520951D01*
X109246581Y-71528690D01*
X109242449Y-71540709D01*
X109236947Y-71556744D01*
X109230167Y-71576530D01*
X109222198Y-71599804D01*
X109213130Y-71626301D01*
X109203055Y-71655757D01*
X109192062Y-71687908D01*
X109180242Y-71722490D01*
X109167685Y-71759240D01*
X109154482Y-71797892D01*
X109140723Y-71838183D01*
X109126497Y-71879848D01*
X109119252Y-71901074D01*
X109101159Y-71954042D01*
X109084623Y-72002373D01*
X109069581Y-72046242D01*
X109055971Y-72085827D01*
X109043731Y-72121305D01*
X109032799Y-72152853D01*
X109023111Y-72180647D01*
X109014606Y-72204865D01*
X109007222Y-72225683D01*
X109000896Y-72243279D01*
X108995566Y-72257830D01*
X108991170Y-72269512D01*
X108987645Y-72278502D01*
X108984929Y-72284978D01*
X108982960Y-72289117D01*
X108982231Y-72290373D01*
X108969833Y-72305156D01*
X108954058Y-72317427D01*
X108936750Y-72325881D01*
X108930905Y-72327618D01*
X108924067Y-72328863D01*
X108915322Y-72329688D01*
X108903758Y-72330166D01*
X108888464Y-72330369D01*
X108879600Y-72330390D01*
X108863506Y-72330362D01*
X108851533Y-72330201D01*
X108842720Y-72329791D01*
X108836106Y-72329015D01*
X108830733Y-72327757D01*
X108825639Y-72325900D01*
X108819865Y-72323329D01*
X108819345Y-72323089D01*
X108807071Y-72315875D01*
X108794735Y-72306010D01*
X108783847Y-72294889D01*
X108775918Y-72283908D01*
X108774884Y-72281982D01*
X108773657Y-72278770D01*
X108770887Y-72271012D01*
X108766668Y-72258972D01*
X108761088Y-72242915D01*
X108754239Y-72223105D01*
X108746212Y-72199806D01*
X108737097Y-72173284D01*
X108726986Y-72143802D01*
X108715968Y-72111626D01*
X108704135Y-72077018D01*
X108691577Y-72040245D01*
X108678385Y-72001570D01*
X108664651Y-71961258D01*
X108650464Y-71919574D01*
X108643327Y-71898590D01*
X108628982Y-71856420D01*
X108615064Y-71815551D01*
X108601662Y-71776241D01*
X108588865Y-71738751D01*
X108576761Y-71703340D01*
X108565442Y-71670269D01*
X108554994Y-71639795D01*
X108545509Y-71612181D01*
X108537075Y-71587685D01*
X108529780Y-71566566D01*
X108523715Y-71549086D01*
X108518969Y-71535503D01*
X108515630Y-71526078D01*
X108513788Y-71521070D01*
X108513452Y-71520299D01*
X108510752Y-71518865D01*
X108510168Y-71519144D01*
X108510122Y-71521796D01*
X108510315Y-71529182D01*
X108510734Y-71540964D01*
X108511363Y-71556802D01*
X108512186Y-71576357D01*
X108513190Y-71599290D01*
X108514359Y-71625262D01*
X108515677Y-71653934D01*
X108517131Y-71684967D01*
X108518705Y-71718022D01*
X108520384Y-71752760D01*
X108521621Y-71778055D01*
X108523714Y-71820753D01*
X108525562Y-71858815D01*
X108527179Y-71892680D01*
X108528579Y-71922785D01*
X108529776Y-71949570D01*
X108530785Y-71973470D01*
X108531618Y-71994926D01*
X108532292Y-72014373D01*
X108532818Y-72032252D01*
X108533213Y-72048999D01*
X108533489Y-72065052D01*
X108533661Y-72080850D01*
X108533743Y-72096831D01*
X108533749Y-72113432D01*
X108533693Y-72131092D01*
X108533590Y-72150050D01*
X108533418Y-72177142D01*
X108533247Y-72199639D01*
X108533054Y-72218025D01*
X108532814Y-72232786D01*
X108532502Y-72244406D01*
X108532095Y-72253370D01*
X108531568Y-72260162D01*
X108530896Y-72265268D01*
X108530057Y-72269171D01*
X108529024Y-72272358D01*
X108527775Y-72275312D01*
X108527255Y-72276437D01*
X108519977Y-72288562D01*
X108509879Y-72300833D01*
X108498447Y-72311681D01*
X108487164Y-72319531D01*
X108485950Y-72320167D01*
X108476225Y-72324257D01*
X108465166Y-72327792D01*
X108461009Y-72328804D01*
X108453834Y-72329723D01*
X108442640Y-72330437D01*
X108428483Y-72330945D01*
X108412420Y-72331244D01*
X108395508Y-72331332D01*
X108378804Y-72331208D01*
X108363364Y-72330870D01*
X108350246Y-72330315D01*
X108340504Y-72329543D01*
X108336941Y-72329019D01*
X108318874Y-72323024D01*
X108301852Y-72312842D01*
X108287005Y-72299366D01*
X108275463Y-72283490D01*
X108272779Y-72278320D01*
X108266190Y-72264350D01*
X108266190Y-71235650D01*
X108272779Y-71221680D01*
X108283509Y-71204677D01*
X108298265Y-71190008D01*
X108316233Y-71178462D01*
X108318260Y-71177470D01*
X108334770Y-71169610D01*
X108452880Y-71169610D01*
X108480431Y-71169614D01*
X108503387Y-71169641D01*
X108522229Y-71169712D01*
X108537441Y-71169849D01*
X108549506Y-71170073D01*
X108558909Y-71170404D01*
X108566131Y-71170866D01*
X108571657Y-71171478D01*
X108575969Y-71172262D01*
X108579552Y-71173239D01*
X108582888Y-71174432D01*
X108585472Y-71175461D01*
X108600696Y-71183658D01*
X108614754Y-71194985D01*
X108626188Y-71208123D01*
X108631692Y-71217355D01*
X108632936Y-71220729D01*
X108635610Y-71228584D01*
X108639614Y-71240603D01*
X108644845Y-71256468D01*
X108651201Y-71275862D01*
X108658579Y-71298468D01*
X108666879Y-71323967D01*
X108675996Y-71352044D01*
X108685830Y-71382380D01*
X108696278Y-71414658D01*
X108707239Y-71448561D01*
X108718609Y-71483772D01*
X108730287Y-71519972D01*
X108742171Y-71556845D01*
X108754159Y-71594074D01*
X108766148Y-71631341D01*
X108778037Y-71668329D01*
X108789722Y-71704720D01*
X108801103Y-71740197D01*
X108812077Y-71774442D01*
X108822542Y-71807139D01*
X108832396Y-71837970D01*
X108841536Y-71866618D01*
X108849861Y-71892765D01*
X108857268Y-71916094D01*
X108863655Y-71936288D01*
X108868921Y-71953029D01*
X108872962Y-71965999D01*
X108875678Y-71974883D01*
X108876965Y-71979361D01*
X108877060Y-71979829D01*
X108879085Y-71981047D01*
X108880235Y-71981134D01*
X108881446Y-71978734D01*
X108884152Y-71971620D01*
X108888310Y-71959920D01*
X108893879Y-71943763D01*
X108900815Y-71923277D01*
X108909076Y-71898590D01*
X108918620Y-71869829D01*
X108929404Y-71837123D01*
X108941385Y-71800600D01*
X108954522Y-71760389D01*
X108968772Y-71716616D01*
X108984092Y-71669411D01*
X109000439Y-71618902D01*
X109003836Y-71608389D01*
X109017532Y-71566042D01*
X109030882Y-71524850D01*
X109043794Y-71485088D01*
X109056180Y-71447033D01*
X109067947Y-71410960D01*
X109079006Y-71377143D01*
X109089266Y-71345860D01*
X109098636Y-71317384D01*
X109107026Y-71291993D01*
X109114346Y-71269961D01*
X109120504Y-71251564D01*
X109125410Y-71237077D01*
X109128974Y-71226776D01*
X109131104Y-71220937D01*
X109131502Y-71219982D01*
X109141739Y-71203520D01*
X109155780Y-71189281D01*
X109172478Y-71178343D01*
X109178807Y-71175466D01*
X109182435Y-71174051D01*
X109185995Y-71172880D01*
X109189995Y-71171927D01*
X109194944Y-71171163D01*
X109201351Y-71170562D01*
X109209722Y-71170097D01*
X109220567Y-71169739D01*
X109234394Y-71169462D01*
X109251710Y-71169238D01*
X109273025Y-71169040D01*
X109298847Y-71168840D01*
X109302510Y-71168813D01*
X109331821Y-71168633D01*
X109356542Y-71168584D01*
X109377161Y-71168699D01*
G36*
X107843900Y-71571568D02*
G01*
X107938561Y-71666186D01*
X108000775Y-71603785D01*
X108017014Y-71587555D01*
X108033574Y-71571109D01*
X108049745Y-71555146D01*
X108064815Y-71540363D01*
X108078075Y-71527460D01*
X108088814Y-71517133D01*
X108092866Y-71513295D01*
X108122743Y-71485208D01*
X108122076Y-71874779D01*
X108121410Y-72264350D01*
X108115775Y-72276437D01*
X108108497Y-72288562D01*
X108098399Y-72300833D01*
X108086967Y-72311681D01*
X108075684Y-72319531D01*
X108074470Y-72320167D01*
X108068703Y-72322895D01*
X108062874Y-72325157D01*
X108056461Y-72326994D01*
X108048939Y-72328449D01*
X108039787Y-72329564D01*
X108028482Y-72330381D01*
X108014501Y-72330941D01*
X107997321Y-72331288D01*
X107976421Y-72331464D01*
X107951276Y-72331509D01*
X107933959Y-72331492D01*
X107906897Y-72331413D01*
X107884430Y-72331259D01*
X107866078Y-72331016D01*
X107851356Y-72330667D01*
X107839781Y-72330195D01*
X107830871Y-72329585D01*
X107824142Y-72328819D01*
X107819111Y-72327883D01*
X107817941Y-72327588D01*
X107797865Y-72319703D01*
X107780579Y-72307795D01*
X107766587Y-72292304D01*
X107756394Y-72273675D01*
X107756369Y-72273613D01*
X107750570Y-72259270D01*
X107749238Y-71476950D01*
X107843900Y-71571568D01*
X107843900Y-71571568D01*
G37*
X107843900Y-71571568D02*
X107938561Y-71666186D01*
X108000775Y-71603785D01*
X108017014Y-71587555D01*
X108033574Y-71571109D01*
X108049745Y-71555146D01*
X108064815Y-71540363D01*
X108078075Y-71527460D01*
X108088814Y-71517133D01*
X108092866Y-71513295D01*
X108122743Y-71485208D01*
X108122076Y-71874779D01*
X108121410Y-72264350D01*
X108115775Y-72276437D01*
X108108497Y-72288562D01*
X108098399Y-72300833D01*
X108086967Y-72311681D01*
X108075684Y-72319531D01*
X108074470Y-72320167D01*
X108068703Y-72322895D01*
X108062874Y-72325157D01*
X108056461Y-72326994D01*
X108048939Y-72328449D01*
X108039787Y-72329564D01*
X108028482Y-72330381D01*
X108014501Y-72330941D01*
X107997321Y-72331288D01*
X107976421Y-72331464D01*
X107951276Y-72331509D01*
X107933959Y-72331492D01*
X107906897Y-72331413D01*
X107884430Y-72331259D01*
X107866078Y-72331016D01*
X107851356Y-72330667D01*
X107839781Y-72330195D01*
X107830871Y-72329585D01*
X107824142Y-72328819D01*
X107819111Y-72327883D01*
X107817941Y-72327588D01*
X107797865Y-72319703D01*
X107780579Y-72307795D01*
X107766587Y-72292304D01*
X107756394Y-72273675D01*
X107756369Y-72273613D01*
X107750570Y-72259270D01*
X107749238Y-71476950D01*
X107843900Y-71571568D01*
G36*
X107478073Y-71176417D02*
G01*
X107495909Y-71187257D01*
X107511113Y-71201468D01*
X107522645Y-71218029D01*
X107524804Y-71222354D01*
X107528641Y-71231504D01*
X107530865Y-71239619D01*
X107531887Y-71248798D01*
X107532118Y-71259780D01*
X107531882Y-71271396D01*
X107530874Y-71280019D01*
X107528659Y-71287726D01*
X107524808Y-71296592D01*
X107524192Y-71297880D01*
X107521802Y-71302411D01*
X107517051Y-71311009D01*
X107510128Y-71323346D01*
X107501220Y-71339093D01*
X107490515Y-71357923D01*
X107478200Y-71379506D01*
X107464462Y-71403514D01*
X107449488Y-71429620D01*
X107433467Y-71457494D01*
X107416586Y-71486809D01*
X107399032Y-71517237D01*
X107391769Y-71529809D01*
X107267284Y-71745229D01*
X107407537Y-71974607D01*
X107429882Y-72011212D01*
X107450716Y-72045465D01*
X107469923Y-72077169D01*
X107487387Y-72106131D01*
X107502991Y-72132154D01*
X107516619Y-72155043D01*
X107528155Y-72174604D01*
X107537483Y-72190640D01*
X107544486Y-72202957D01*
X107549049Y-72211359D01*
X107551055Y-72215652D01*
X107551088Y-72215764D01*
X107552938Y-72226716D01*
X107553422Y-72240341D01*
X107553177Y-72246385D01*
X107549457Y-72267511D01*
X107541272Y-72286330D01*
X107528812Y-72302567D01*
X107512266Y-72315948D01*
X107500380Y-72322529D01*
X107483870Y-72330390D01*
X107419224Y-72331254D01*
X107395057Y-72331467D01*
X107375295Y-72331346D01*
X107359269Y-72330820D01*
X107346309Y-72329816D01*
X107335748Y-72328263D01*
X107326916Y-72326089D01*
X107319144Y-72323223D01*
X107312069Y-72319757D01*
X107308055Y-72317558D01*
X107304339Y-72315349D01*
X107300782Y-72312886D01*
X107297247Y-72309920D01*
X107293595Y-72306204D01*
X107289689Y-72301492D01*
X107285391Y-72295536D01*
X107280562Y-72288089D01*
X107275064Y-72278905D01*
X107268759Y-72267736D01*
X107261510Y-72254335D01*
X107253178Y-72238456D01*
X107243625Y-72219850D01*
X107232713Y-72198272D01*
X107220304Y-72173474D01*
X107206260Y-72145209D01*
X107190443Y-72113230D01*
X107172715Y-72077290D01*
X107152938Y-72037142D01*
X107144122Y-72019240D01*
X107100970Y-71931610D01*
X107011382Y-72112018D01*
X106994351Y-72146314D01*
X106979401Y-72176366D01*
X106966348Y-72202480D01*
X106955007Y-72224957D01*
X106945194Y-72244102D01*
X106936723Y-72260219D01*
X106929410Y-72273610D01*
X106923069Y-72284580D01*
X106917516Y-72293431D01*
X106912566Y-72300467D01*
X106908034Y-72305992D01*
X106903736Y-72310310D01*
X106899486Y-72313723D01*
X106895099Y-72316535D01*
X106890391Y-72319050D01*
X106885177Y-72321571D01*
X106883160Y-72322529D01*
X106866650Y-72330390D01*
X106804420Y-72330858D01*
X106786462Y-72330897D01*
X106769596Y-72330753D01*
X106754683Y-72330449D01*
X106742582Y-72330005D01*
X106734153Y-72329443D01*
X106731094Y-72329034D01*
X106712133Y-72322611D01*
X106694833Y-72311858D01*
X106680061Y-72297464D01*
X106668683Y-72280115D01*
X106668179Y-72279100D01*
X106662718Y-72263666D01*
X106659984Y-72246346D01*
X106660090Y-72229000D01*
X106663150Y-72213489D01*
X106664033Y-72211010D01*
X106665982Y-72207073D01*
X106670319Y-72199065D01*
X106676866Y-72187300D01*
X106685441Y-72172091D01*
X106695868Y-72153750D01*
X106707965Y-72132590D01*
X106721554Y-72108925D01*
X106736457Y-72083067D01*
X106752493Y-72055330D01*
X106769483Y-72026025D01*
X106787248Y-71995468D01*
X106799296Y-71974790D01*
X106817366Y-71943782D01*
X106834715Y-71913969D01*
X106851171Y-71885650D01*
X106866562Y-71859121D01*
X106880715Y-71834681D01*
X106893459Y-71812627D01*
X106904622Y-71793259D01*
X106914031Y-71776874D01*
X106921514Y-71763770D01*
X106926900Y-71754246D01*
X106930016Y-71748598D01*
X106930755Y-71747108D01*
X106929667Y-71744341D01*
X106926177Y-71737457D01*
X106920438Y-71726730D01*
X106912604Y-71712431D01*
X106902828Y-71694836D01*
X106891263Y-71674215D01*
X106878064Y-71650844D01*
X106863383Y-71624995D01*
X106847374Y-71596941D01*
X106830191Y-71566956D01*
X106811987Y-71535312D01*
X106803463Y-71520535D01*
X106785497Y-71489360D01*
X106768195Y-71459230D01*
X106751734Y-71430461D01*
X106736293Y-71403368D01*
X106722049Y-71378267D01*
X106709180Y-71355473D01*
X106697864Y-71335302D01*
X106688278Y-71318068D01*
X106680601Y-71304087D01*
X106675009Y-71293675D01*
X106671680Y-71287147D01*
X106670834Y-71285196D01*
X106668017Y-71270750D01*
X106667761Y-71254170D01*
X106669943Y-71237637D01*
X106674326Y-71223583D01*
X106682676Y-71209573D01*
X106694555Y-71196029D01*
X106708507Y-71184397D01*
X106721305Y-71176910D01*
X106737110Y-71169610D01*
X106804420Y-71169661D01*
X106825415Y-71169720D01*
X106841985Y-71169883D01*
X106854784Y-71170188D01*
X106864465Y-71170671D01*
X106871683Y-71171367D01*
X106877091Y-71172314D01*
X106881343Y-71173548D01*
X106882552Y-71174004D01*
X106896899Y-71181159D01*
X106910294Y-71190483D01*
X106920976Y-71200692D01*
X106923455Y-71203828D01*
X106925673Y-71207652D01*
X106929888Y-71215679D01*
X106935913Y-71227527D01*
X106943558Y-71242813D01*
X106952636Y-71261154D01*
X106962956Y-71282168D01*
X106974332Y-71305473D01*
X106986575Y-71330685D01*
X106999495Y-71357423D01*
X107012558Y-71384581D01*
X107025817Y-71412189D01*
X107038459Y-71438467D01*
X107050308Y-71463057D01*
X107061189Y-71485598D01*
X107070930Y-71505729D01*
X107079353Y-71523090D01*
X107086287Y-71537321D01*
X107091554Y-71548061D01*
X107094982Y-71554951D01*
X107096396Y-71557629D01*
X107096405Y-71557641D01*
X107097762Y-71555728D01*
X107101157Y-71549587D01*
X107106415Y-71539563D01*
X107113363Y-71526001D01*
X107121829Y-71509246D01*
X107131638Y-71489645D01*
X107142616Y-71467541D01*
X107154591Y-71443281D01*
X107167389Y-71417210D01*
X107180837Y-71389673D01*
X107183053Y-71385123D01*
X107198878Y-71352625D01*
X107212661Y-71324371D01*
X107224574Y-71300033D01*
X107234791Y-71279283D01*
X107243482Y-71261792D01*
X107250820Y-71247234D01*
X107256978Y-71235279D01*
X107262128Y-71225600D01*
X107266442Y-71217868D01*
X107270092Y-71211756D01*
X107273250Y-71206935D01*
X107276089Y-71203077D01*
X107278781Y-71199855D01*
X107281499Y-71196940D01*
X107282283Y-71196138D01*
X107296289Y-71184003D01*
X107310539Y-71176009D01*
X107311493Y-71175616D01*
X107316136Y-71173820D01*
X107320551Y-71172423D01*
X107325431Y-71171375D01*
X107331470Y-71170625D01*
X107339363Y-71170125D01*
X107349804Y-71169823D01*
X107363486Y-71169669D01*
X107381104Y-71169615D01*
X107394970Y-71169610D01*
X107463550Y-71169610D01*
X107478073Y-71176417D01*
X107478073Y-71176417D01*
G37*
X107478073Y-71176417D02*
X107495909Y-71187257D01*
X107511113Y-71201468D01*
X107522645Y-71218029D01*
X107524804Y-71222354D01*
X107528641Y-71231504D01*
X107530865Y-71239619D01*
X107531887Y-71248798D01*
X107532118Y-71259780D01*
X107531882Y-71271396D01*
X107530874Y-71280019D01*
X107528659Y-71287726D01*
X107524808Y-71296592D01*
X107524192Y-71297880D01*
X107521802Y-71302411D01*
X107517051Y-71311009D01*
X107510128Y-71323346D01*
X107501220Y-71339093D01*
X107490515Y-71357923D01*
X107478200Y-71379506D01*
X107464462Y-71403514D01*
X107449488Y-71429620D01*
X107433467Y-71457494D01*
X107416586Y-71486809D01*
X107399032Y-71517237D01*
X107391769Y-71529809D01*
X107267284Y-71745229D01*
X107407537Y-71974607D01*
X107429882Y-72011212D01*
X107450716Y-72045465D01*
X107469923Y-72077169D01*
X107487387Y-72106131D01*
X107502991Y-72132154D01*
X107516619Y-72155043D01*
X107528155Y-72174604D01*
X107537483Y-72190640D01*
X107544486Y-72202957D01*
X107549049Y-72211359D01*
X107551055Y-72215652D01*
X107551088Y-72215764D01*
X107552938Y-72226716D01*
X107553422Y-72240341D01*
X107553177Y-72246385D01*
X107549457Y-72267511D01*
X107541272Y-72286330D01*
X107528812Y-72302567D01*
X107512266Y-72315948D01*
X107500380Y-72322529D01*
X107483870Y-72330390D01*
X107419224Y-72331254D01*
X107395057Y-72331467D01*
X107375295Y-72331346D01*
X107359269Y-72330820D01*
X107346309Y-72329816D01*
X107335748Y-72328263D01*
X107326916Y-72326089D01*
X107319144Y-72323223D01*
X107312069Y-72319757D01*
X107308055Y-72317558D01*
X107304339Y-72315349D01*
X107300782Y-72312886D01*
X107297247Y-72309920D01*
X107293595Y-72306204D01*
X107289689Y-72301492D01*
X107285391Y-72295536D01*
X107280562Y-72288089D01*
X107275064Y-72278905D01*
X107268759Y-72267736D01*
X107261510Y-72254335D01*
X107253178Y-72238456D01*
X107243625Y-72219850D01*
X107232713Y-72198272D01*
X107220304Y-72173474D01*
X107206260Y-72145209D01*
X107190443Y-72113230D01*
X107172715Y-72077290D01*
X107152938Y-72037142D01*
X107144122Y-72019240D01*
X107100970Y-71931610D01*
X107011382Y-72112018D01*
X106994351Y-72146314D01*
X106979401Y-72176366D01*
X106966348Y-72202480D01*
X106955007Y-72224957D01*
X106945194Y-72244102D01*
X106936723Y-72260219D01*
X106929410Y-72273610D01*
X106923069Y-72284580D01*
X106917516Y-72293431D01*
X106912566Y-72300467D01*
X106908034Y-72305992D01*
X106903736Y-72310310D01*
X106899486Y-72313723D01*
X106895099Y-72316535D01*
X106890391Y-72319050D01*
X106885177Y-72321571D01*
X106883160Y-72322529D01*
X106866650Y-72330390D01*
X106804420Y-72330858D01*
X106786462Y-72330897D01*
X106769596Y-72330753D01*
X106754683Y-72330449D01*
X106742582Y-72330005D01*
X106734153Y-72329443D01*
X106731094Y-72329034D01*
X106712133Y-72322611D01*
X106694833Y-72311858D01*
X106680061Y-72297464D01*
X106668683Y-72280115D01*
X106668179Y-72279100D01*
X106662718Y-72263666D01*
X106659984Y-72246346D01*
X106660090Y-72229000D01*
X106663150Y-72213489D01*
X106664033Y-72211010D01*
X106665982Y-72207073D01*
X106670319Y-72199065D01*
X106676866Y-72187300D01*
X106685441Y-72172091D01*
X106695868Y-72153750D01*
X106707965Y-72132590D01*
X106721554Y-72108925D01*
X106736457Y-72083067D01*
X106752493Y-72055330D01*
X106769483Y-72026025D01*
X106787248Y-71995468D01*
X106799296Y-71974790D01*
X106817366Y-71943782D01*
X106834715Y-71913969D01*
X106851171Y-71885650D01*
X106866562Y-71859121D01*
X106880715Y-71834681D01*
X106893459Y-71812627D01*
X106904622Y-71793259D01*
X106914031Y-71776874D01*
X106921514Y-71763770D01*
X106926900Y-71754246D01*
X106930016Y-71748598D01*
X106930755Y-71747108D01*
X106929667Y-71744341D01*
X106926177Y-71737457D01*
X106920438Y-71726730D01*
X106912604Y-71712431D01*
X106902828Y-71694836D01*
X106891263Y-71674215D01*
X106878064Y-71650844D01*
X106863383Y-71624995D01*
X106847374Y-71596941D01*
X106830191Y-71566956D01*
X106811987Y-71535312D01*
X106803463Y-71520535D01*
X106785497Y-71489360D01*
X106768195Y-71459230D01*
X106751734Y-71430461D01*
X106736293Y-71403368D01*
X106722049Y-71378267D01*
X106709180Y-71355473D01*
X106697864Y-71335302D01*
X106688278Y-71318068D01*
X106680601Y-71304087D01*
X106675009Y-71293675D01*
X106671680Y-71287147D01*
X106670834Y-71285196D01*
X106668017Y-71270750D01*
X106667761Y-71254170D01*
X106669943Y-71237637D01*
X106674326Y-71223583D01*
X106682676Y-71209573D01*
X106694555Y-71196029D01*
X106708507Y-71184397D01*
X106721305Y-71176910D01*
X106737110Y-71169610D01*
X106804420Y-71169661D01*
X106825415Y-71169720D01*
X106841985Y-71169883D01*
X106854784Y-71170188D01*
X106864465Y-71170671D01*
X106871683Y-71171367D01*
X106877091Y-71172314D01*
X106881343Y-71173548D01*
X106882552Y-71174004D01*
X106896899Y-71181159D01*
X106910294Y-71190483D01*
X106920976Y-71200692D01*
X106923455Y-71203828D01*
X106925673Y-71207652D01*
X106929888Y-71215679D01*
X106935913Y-71227527D01*
X106943558Y-71242813D01*
X106952636Y-71261154D01*
X106962956Y-71282168D01*
X106974332Y-71305473D01*
X106986575Y-71330685D01*
X106999495Y-71357423D01*
X107012558Y-71384581D01*
X107025817Y-71412189D01*
X107038459Y-71438467D01*
X107050308Y-71463057D01*
X107061189Y-71485598D01*
X107070930Y-71505729D01*
X107079353Y-71523090D01*
X107086287Y-71537321D01*
X107091554Y-71548061D01*
X107094982Y-71554951D01*
X107096396Y-71557629D01*
X107096405Y-71557641D01*
X107097762Y-71555728D01*
X107101157Y-71549587D01*
X107106415Y-71539563D01*
X107113363Y-71526001D01*
X107121829Y-71509246D01*
X107131638Y-71489645D01*
X107142616Y-71467541D01*
X107154591Y-71443281D01*
X107167389Y-71417210D01*
X107180837Y-71389673D01*
X107183053Y-71385123D01*
X107198878Y-71352625D01*
X107212661Y-71324371D01*
X107224574Y-71300033D01*
X107234791Y-71279283D01*
X107243482Y-71261792D01*
X107250820Y-71247234D01*
X107256978Y-71235279D01*
X107262128Y-71225600D01*
X107266442Y-71217868D01*
X107270092Y-71211756D01*
X107273250Y-71206935D01*
X107276089Y-71203077D01*
X107278781Y-71199855D01*
X107281499Y-71196940D01*
X107282283Y-71196138D01*
X107296289Y-71184003D01*
X107310539Y-71176009D01*
X107311493Y-71175616D01*
X107316136Y-71173820D01*
X107320551Y-71172423D01*
X107325431Y-71171375D01*
X107331470Y-71170625D01*
X107339363Y-71170125D01*
X107349804Y-71169823D01*
X107363486Y-71169669D01*
X107381104Y-71169615D01*
X107394970Y-71169610D01*
X107463550Y-71169610D01*
X107478073Y-71176417D01*
G36*
X106070389Y-71169280D02*
G01*
X106121680Y-71173833D01*
X106170802Y-71182877D01*
X106217664Y-71196376D01*
X106262177Y-71214293D01*
X106304250Y-71236593D01*
X106343792Y-71263242D01*
X106380712Y-71294202D01*
X106410168Y-71324104D01*
X106440776Y-71361680D01*
X106467033Y-71401862D01*
X106488918Y-71444609D01*
X106506414Y-71489877D01*
X106519503Y-71537622D01*
X106528165Y-71587801D01*
X106529940Y-71603756D01*
X106530603Y-71613497D01*
X106531171Y-71627629D01*
X106531641Y-71645464D01*
X106532016Y-71666314D01*
X106532294Y-71689490D01*
X106532475Y-71714305D01*
X106532560Y-71740071D01*
X106532549Y-71766099D01*
X106532441Y-71791701D01*
X106532236Y-71816189D01*
X106531936Y-71838875D01*
X106531538Y-71859071D01*
X106531045Y-71876088D01*
X106530454Y-71889240D01*
X106529940Y-71896243D01*
X106522644Y-71947595D01*
X106511002Y-71996320D01*
X106495004Y-72042437D01*
X106474642Y-72085964D01*
X106449907Y-72126918D01*
X106420788Y-72165318D01*
X106387278Y-72201181D01*
X106368136Y-72218815D01*
X106332267Y-72246894D01*
X106293289Y-72271086D01*
X106251445Y-72291324D01*
X106206977Y-72307538D01*
X106160127Y-72319661D01*
X106111138Y-72327623D01*
X106060253Y-72331357D01*
X106007713Y-72330794D01*
X105978920Y-72328696D01*
X105929344Y-72321625D01*
X105881650Y-72309998D01*
X105836066Y-72293939D01*
X105792820Y-72273573D01*
X105752143Y-72249025D01*
X105714264Y-72220420D01*
X105679411Y-72187882D01*
X105647814Y-72151535D01*
X105643731Y-72146240D01*
X105616493Y-72106268D01*
X105593722Y-72063933D01*
X105575402Y-72019190D01*
X105561515Y-71971994D01*
X105552043Y-71922301D01*
X105550964Y-71914334D01*
X105549942Y-71903382D01*
X105549063Y-71888028D01*
X105548328Y-71868932D01*
X105547737Y-71846758D01*
X105547289Y-71822165D01*
X105546984Y-71795816D01*
X105546823Y-71768372D01*
X105546815Y-71756186D01*
X105814170Y-71756186D01*
X105814195Y-71790758D01*
X105814614Y-71821128D01*
X105815449Y-71847731D01*
X105816720Y-71870999D01*
X105818448Y-71891365D01*
X105820656Y-71909263D01*
X105823362Y-71925127D01*
X105825012Y-71932880D01*
X105835296Y-71969214D01*
X105848699Y-72002131D01*
X105865072Y-72031450D01*
X105884266Y-72056994D01*
X105906133Y-72078582D01*
X105930523Y-72096036D01*
X105957288Y-72109176D01*
X105976523Y-72115489D01*
X105987018Y-72118262D01*
X105995355Y-72120245D01*
X106002729Y-72121552D01*
X106010334Y-72122297D01*
X106019367Y-72122595D01*
X106031021Y-72122560D01*
X106046493Y-72122308D01*
X106047500Y-72122289D01*
X106062985Y-72121939D01*
X106074687Y-72121416D01*
X106083902Y-72120538D01*
X106091925Y-72119122D01*
X106100053Y-72116987D01*
X106109582Y-72113951D01*
X106111576Y-72113284D01*
X106139904Y-72101165D01*
X106165646Y-72084742D01*
X106188694Y-72064149D01*
X106208940Y-72039516D01*
X106226276Y-72010975D01*
X106240593Y-71978659D01*
X106251784Y-71942698D01*
X106251877Y-71942330D01*
X106254384Y-71931947D01*
X106256504Y-71921865D01*
X106258269Y-71911561D01*
X106259711Y-71900507D01*
X106260860Y-71888179D01*
X106261749Y-71874049D01*
X106262408Y-71857593D01*
X106262870Y-71838284D01*
X106263166Y-71815596D01*
X106263326Y-71789005D01*
X106263383Y-71757982D01*
X106263385Y-71750000D01*
X106263347Y-71717843D01*
X106263213Y-71690241D01*
X106262951Y-71666669D01*
X106262531Y-71646603D01*
X106261920Y-71629517D01*
X106261088Y-71614887D01*
X106260004Y-71602189D01*
X106258635Y-71590897D01*
X106256952Y-71580487D01*
X106254923Y-71570434D01*
X106252517Y-71560214D01*
X106251965Y-71558013D01*
X106240766Y-71521937D01*
X106226405Y-71489518D01*
X106208985Y-71460877D01*
X106188611Y-71436134D01*
X106165386Y-71415410D01*
X106139416Y-71398828D01*
X106110803Y-71386507D01*
X106101995Y-71383740D01*
X106093687Y-71381509D01*
X106085887Y-71379924D01*
X106077460Y-71378882D01*
X106067270Y-71378280D01*
X106054182Y-71378015D01*
X106038610Y-71377979D01*
X106018155Y-71378257D01*
X106001550Y-71379148D01*
X105987578Y-71380877D01*
X105975022Y-71383673D01*
X105962666Y-71387762D01*
X105949295Y-71393371D01*
X105944630Y-71395511D01*
X105919676Y-71409891D01*
X105896772Y-71428699D01*
X105876178Y-71451607D01*
X105858157Y-71478288D01*
X105842969Y-71508413D01*
X105832843Y-71535370D01*
X105828922Y-71548060D01*
X105825632Y-71560249D01*
X105822909Y-71572547D01*
X105820693Y-71585567D01*
X105818921Y-71599922D01*
X105817532Y-71616223D01*
X105816464Y-71635083D01*
X105815655Y-71657115D01*
X105815044Y-71682930D01*
X105814568Y-71713141D01*
X105814518Y-71716980D01*
X105814170Y-71756186D01*
X105546815Y-71756186D01*
X105546804Y-71740494D01*
X105546929Y-71712844D01*
X105547196Y-71686082D01*
X105547605Y-71660871D01*
X105548158Y-71637871D01*
X105548852Y-71617744D01*
X105549689Y-71601152D01*
X105550668Y-71588755D01*
X105551027Y-71585665D01*
X105559890Y-71535923D01*
X105573177Y-71488346D01*
X105590778Y-71443134D01*
X105612585Y-71400486D01*
X105638489Y-71360602D01*
X105668380Y-71323682D01*
X105702152Y-71289926D01*
X105720613Y-71274171D01*
X105757428Y-71247045D01*
X105795688Y-71224183D01*
X105835777Y-71205448D01*
X105878082Y-71190705D01*
X105922988Y-71179817D01*
X105970881Y-71172646D01*
X106017020Y-71169252D01*
X106070389Y-71169280D01*
X106070389Y-71169280D01*
G37*
X106070389Y-71169280D02*
X106121680Y-71173833D01*
X106170802Y-71182877D01*
X106217664Y-71196376D01*
X106262177Y-71214293D01*
X106304250Y-71236593D01*
X106343792Y-71263242D01*
X106380712Y-71294202D01*
X106410168Y-71324104D01*
X106440776Y-71361680D01*
X106467033Y-71401862D01*
X106488918Y-71444609D01*
X106506414Y-71489877D01*
X106519503Y-71537622D01*
X106528165Y-71587801D01*
X106529940Y-71603756D01*
X106530603Y-71613497D01*
X106531171Y-71627629D01*
X106531641Y-71645464D01*
X106532016Y-71666314D01*
X106532294Y-71689490D01*
X106532475Y-71714305D01*
X106532560Y-71740071D01*
X106532549Y-71766099D01*
X106532441Y-71791701D01*
X106532236Y-71816189D01*
X106531936Y-71838875D01*
X106531538Y-71859071D01*
X106531045Y-71876088D01*
X106530454Y-71889240D01*
X106529940Y-71896243D01*
X106522644Y-71947595D01*
X106511002Y-71996320D01*
X106495004Y-72042437D01*
X106474642Y-72085964D01*
X106449907Y-72126918D01*
X106420788Y-72165318D01*
X106387278Y-72201181D01*
X106368136Y-72218815D01*
X106332267Y-72246894D01*
X106293289Y-72271086D01*
X106251445Y-72291324D01*
X106206977Y-72307538D01*
X106160127Y-72319661D01*
X106111138Y-72327623D01*
X106060253Y-72331357D01*
X106007713Y-72330794D01*
X105978920Y-72328696D01*
X105929344Y-72321625D01*
X105881650Y-72309998D01*
X105836066Y-72293939D01*
X105792820Y-72273573D01*
X105752143Y-72249025D01*
X105714264Y-72220420D01*
X105679411Y-72187882D01*
X105647814Y-72151535D01*
X105643731Y-72146240D01*
X105616493Y-72106268D01*
X105593722Y-72063933D01*
X105575402Y-72019190D01*
X105561515Y-71971994D01*
X105552043Y-71922301D01*
X105550964Y-71914334D01*
X105549942Y-71903382D01*
X105549063Y-71888028D01*
X105548328Y-71868932D01*
X105547737Y-71846758D01*
X105547289Y-71822165D01*
X105546984Y-71795816D01*
X105546823Y-71768372D01*
X105546815Y-71756186D01*
X105814170Y-71756186D01*
X105814195Y-71790758D01*
X105814614Y-71821128D01*
X105815449Y-71847731D01*
X105816720Y-71870999D01*
X105818448Y-71891365D01*
X105820656Y-71909263D01*
X105823362Y-71925127D01*
X105825012Y-71932880D01*
X105835296Y-71969214D01*
X105848699Y-72002131D01*
X105865072Y-72031450D01*
X105884266Y-72056994D01*
X105906133Y-72078582D01*
X105930523Y-72096036D01*
X105957288Y-72109176D01*
X105976523Y-72115489D01*
X105987018Y-72118262D01*
X105995355Y-72120245D01*
X106002729Y-72121552D01*
X106010334Y-72122297D01*
X106019367Y-72122595D01*
X106031021Y-72122560D01*
X106046493Y-72122308D01*
X106047500Y-72122289D01*
X106062985Y-72121939D01*
X106074687Y-72121416D01*
X106083902Y-72120538D01*
X106091925Y-72119122D01*
X106100053Y-72116987D01*
X106109582Y-72113951D01*
X106111576Y-72113284D01*
X106139904Y-72101165D01*
X106165646Y-72084742D01*
X106188694Y-72064149D01*
X106208940Y-72039516D01*
X106226276Y-72010975D01*
X106240593Y-71978659D01*
X106251784Y-71942698D01*
X106251877Y-71942330D01*
X106254384Y-71931947D01*
X106256504Y-71921865D01*
X106258269Y-71911561D01*
X106259711Y-71900507D01*
X106260860Y-71888179D01*
X106261749Y-71874049D01*
X106262408Y-71857593D01*
X106262870Y-71838284D01*
X106263166Y-71815596D01*
X106263326Y-71789005D01*
X106263383Y-71757982D01*
X106263385Y-71750000D01*
X106263347Y-71717843D01*
X106263213Y-71690241D01*
X106262951Y-71666669D01*
X106262531Y-71646603D01*
X106261920Y-71629517D01*
X106261088Y-71614887D01*
X106260004Y-71602189D01*
X106258635Y-71590897D01*
X106256952Y-71580487D01*
X106254923Y-71570434D01*
X106252517Y-71560214D01*
X106251965Y-71558013D01*
X106240766Y-71521937D01*
X106226405Y-71489518D01*
X106208985Y-71460877D01*
X106188611Y-71436134D01*
X106165386Y-71415410D01*
X106139416Y-71398828D01*
X106110803Y-71386507D01*
X106101995Y-71383740D01*
X106093687Y-71381509D01*
X106085887Y-71379924D01*
X106077460Y-71378882D01*
X106067270Y-71378280D01*
X106054182Y-71378015D01*
X106038610Y-71377979D01*
X106018155Y-71378257D01*
X106001550Y-71379148D01*
X105987578Y-71380877D01*
X105975022Y-71383673D01*
X105962666Y-71387762D01*
X105949295Y-71393371D01*
X105944630Y-71395511D01*
X105919676Y-71409891D01*
X105896772Y-71428699D01*
X105876178Y-71451607D01*
X105858157Y-71478288D01*
X105842969Y-71508413D01*
X105832843Y-71535370D01*
X105828922Y-71548060D01*
X105825632Y-71560249D01*
X105822909Y-71572547D01*
X105820693Y-71585567D01*
X105818921Y-71599922D01*
X105817532Y-71616223D01*
X105816464Y-71635083D01*
X105815655Y-71657115D01*
X105815044Y-71682930D01*
X105814568Y-71713141D01*
X105814518Y-71716980D01*
X105814170Y-71756186D01*
X105546815Y-71756186D01*
X105546804Y-71740494D01*
X105546929Y-71712844D01*
X105547196Y-71686082D01*
X105547605Y-71660871D01*
X105548158Y-71637871D01*
X105548852Y-71617744D01*
X105549689Y-71601152D01*
X105550668Y-71588755D01*
X105551027Y-71585665D01*
X105559890Y-71535923D01*
X105573177Y-71488346D01*
X105590778Y-71443134D01*
X105612585Y-71400486D01*
X105638489Y-71360602D01*
X105668380Y-71323682D01*
X105702152Y-71289926D01*
X105720613Y-71274171D01*
X105757428Y-71247045D01*
X105795688Y-71224183D01*
X105835777Y-71205448D01*
X105878082Y-71190705D01*
X105922988Y-71179817D01*
X105970881Y-71172646D01*
X106017020Y-71169252D01*
X106070389Y-71169280D01*
G36*
X104728074Y-71168664D02*
G01*
X104762567Y-71168795D01*
X104801730Y-71168976D01*
X104811790Y-71169024D01*
X104852549Y-71169228D01*
X104888609Y-71169431D01*
X104920351Y-71169656D01*
X104948156Y-71169921D01*
X104972406Y-71170250D01*
X104993480Y-71170662D01*
X105011761Y-71171179D01*
X105027629Y-71171822D01*
X105041466Y-71172611D01*
X105053651Y-71173568D01*
X105064567Y-71174713D01*
X105074594Y-71176068D01*
X105084114Y-71177654D01*
X105093507Y-71179491D01*
X105103154Y-71181601D01*
X105113437Y-71184004D01*
X105122232Y-71186117D01*
X105166256Y-71199020D01*
X105207521Y-71215722D01*
X105245803Y-71236035D01*
X105280881Y-71259769D01*
X105312530Y-71286737D01*
X105340529Y-71316749D01*
X105364653Y-71349618D01*
X105384681Y-71385154D01*
X105399491Y-71420591D01*
X105405596Y-71438849D01*
X105410306Y-71455495D01*
X105413784Y-71471656D01*
X105416196Y-71488458D01*
X105417705Y-71507028D01*
X105418478Y-71528493D01*
X105418679Y-71551880D01*
X105418619Y-71571528D01*
X105418395Y-71587073D01*
X105417940Y-71599490D01*
X105417188Y-71609754D01*
X105416072Y-71618841D01*
X105414528Y-71627726D01*
X105413033Y-71634908D01*
X105402988Y-71672910D01*
X105390023Y-71707337D01*
X105373661Y-71739068D01*
X105353421Y-71768984D01*
X105328827Y-71797965D01*
X105318575Y-71808578D01*
X105288715Y-71835756D01*
X105256784Y-71859293D01*
X105222376Y-71879379D01*
X105185081Y-71896208D01*
X105144493Y-71909969D01*
X105100204Y-71920856D01*
X105066898Y-71926850D01*
X105059696Y-71927829D01*
X105051256Y-71928672D01*
X105041122Y-71929395D01*
X105028836Y-71930013D01*
X105013943Y-71930540D01*
X104995987Y-71930992D01*
X104974511Y-71931384D01*
X104949059Y-71931731D01*
X104919175Y-71932048D01*
X104905204Y-71932175D01*
X104770019Y-71933362D01*
X104769314Y-72100126D01*
X104768610Y-72266890D01*
X104761446Y-72280493D01*
X104749229Y-72298445D01*
X104733576Y-72312878D01*
X104715059Y-72323365D01*
X104695685Y-72329221D01*
X104687560Y-72330189D01*
X104675616Y-72330877D01*
X104660902Y-72331294D01*
X104644469Y-72331449D01*
X104627369Y-72331352D01*
X104610651Y-72331012D01*
X104595367Y-72330439D01*
X104582568Y-72329642D01*
X104573305Y-72328631D01*
X104570490Y-72328089D01*
X104550506Y-72320631D01*
X104533044Y-72308993D01*
X104518716Y-72293681D01*
X104509223Y-72277645D01*
X104501910Y-72261810D01*
X104501910Y-71724866D01*
X104769880Y-71724866D01*
X104893705Y-71723983D01*
X104922049Y-71723774D01*
X104945801Y-71723571D01*
X104965448Y-71723352D01*
X104981478Y-71723094D01*
X104994376Y-71722774D01*
X105004632Y-71722370D01*
X105012733Y-71721858D01*
X105019165Y-71721216D01*
X105024416Y-71720422D01*
X105028974Y-71719451D01*
X105033326Y-71718283D01*
X105036561Y-71717320D01*
X105063651Y-71706638D01*
X105087483Y-71692112D01*
X105107886Y-71673911D01*
X105124685Y-71652202D01*
X105137709Y-71627152D01*
X105142351Y-71614654D01*
X105145043Y-71606045D01*
X105146937Y-71598447D01*
X105148178Y-71590631D01*
X105148909Y-71581368D01*
X105149276Y-71569428D01*
X105149418Y-71554420D01*
X105149211Y-71534098D01*
X105148194Y-71517513D01*
X105146105Y-71503350D01*
X105142682Y-71490295D01*
X105137660Y-71477033D01*
X105131138Y-71462980D01*
X105123178Y-71449081D01*
X105113005Y-71435820D01*
X105102666Y-71424770D01*
X105085891Y-71409675D01*
X105068758Y-71398165D01*
X105049539Y-71389212D01*
X105034021Y-71383947D01*
X105029482Y-71382627D01*
X105025060Y-71381522D01*
X105020264Y-71380608D01*
X105014604Y-71379862D01*
X105007589Y-71379260D01*
X104998727Y-71378779D01*
X104987527Y-71378396D01*
X104973499Y-71378088D01*
X104956151Y-71377832D01*
X104934993Y-71377604D01*
X104909534Y-71377381D01*
X104892435Y-71377243D01*
X104769880Y-71376272D01*
X104769880Y-71724866D01*
X104501910Y-71724866D01*
X104501910Y-71238190D01*
X104509223Y-71222354D01*
X104518561Y-71206947D01*
X104531202Y-71192871D01*
X104545618Y-71181734D01*
X104550506Y-71178976D01*
X104554314Y-71177105D01*
X104558164Y-71175459D01*
X104562389Y-71174025D01*
X104567319Y-71172791D01*
X104573283Y-71171744D01*
X104580613Y-71170872D01*
X104589639Y-71170161D01*
X104600692Y-71169600D01*
X104614102Y-71169176D01*
X104630199Y-71168875D01*
X104649314Y-71168686D01*
X104671778Y-71168597D01*
X104697921Y-71168593D01*
X104728074Y-71168664D01*
X104728074Y-71168664D01*
G37*
X104728074Y-71168664D02*
X104762567Y-71168795D01*
X104801730Y-71168976D01*
X104811790Y-71169024D01*
X104852549Y-71169228D01*
X104888609Y-71169431D01*
X104920351Y-71169656D01*
X104948156Y-71169921D01*
X104972406Y-71170250D01*
X104993480Y-71170662D01*
X105011761Y-71171179D01*
X105027629Y-71171822D01*
X105041466Y-71172611D01*
X105053651Y-71173568D01*
X105064567Y-71174713D01*
X105074594Y-71176068D01*
X105084114Y-71177654D01*
X105093507Y-71179491D01*
X105103154Y-71181601D01*
X105113437Y-71184004D01*
X105122232Y-71186117D01*
X105166256Y-71199020D01*
X105207521Y-71215722D01*
X105245803Y-71236035D01*
X105280881Y-71259769D01*
X105312530Y-71286737D01*
X105340529Y-71316749D01*
X105364653Y-71349618D01*
X105384681Y-71385154D01*
X105399491Y-71420591D01*
X105405596Y-71438849D01*
X105410306Y-71455495D01*
X105413784Y-71471656D01*
X105416196Y-71488458D01*
X105417705Y-71507028D01*
X105418478Y-71528493D01*
X105418679Y-71551880D01*
X105418619Y-71571528D01*
X105418395Y-71587073D01*
X105417940Y-71599490D01*
X105417188Y-71609754D01*
X105416072Y-71618841D01*
X105414528Y-71627726D01*
X105413033Y-71634908D01*
X105402988Y-71672910D01*
X105390023Y-71707337D01*
X105373661Y-71739068D01*
X105353421Y-71768984D01*
X105328827Y-71797965D01*
X105318575Y-71808578D01*
X105288715Y-71835756D01*
X105256784Y-71859293D01*
X105222376Y-71879379D01*
X105185081Y-71896208D01*
X105144493Y-71909969D01*
X105100204Y-71920856D01*
X105066898Y-71926850D01*
X105059696Y-71927829D01*
X105051256Y-71928672D01*
X105041122Y-71929395D01*
X105028836Y-71930013D01*
X105013943Y-71930540D01*
X104995987Y-71930992D01*
X104974511Y-71931384D01*
X104949059Y-71931731D01*
X104919175Y-71932048D01*
X104905204Y-71932175D01*
X104770019Y-71933362D01*
X104769314Y-72100126D01*
X104768610Y-72266890D01*
X104761446Y-72280493D01*
X104749229Y-72298445D01*
X104733576Y-72312878D01*
X104715059Y-72323365D01*
X104695685Y-72329221D01*
X104687560Y-72330189D01*
X104675616Y-72330877D01*
X104660902Y-72331294D01*
X104644469Y-72331449D01*
X104627369Y-72331352D01*
X104610651Y-72331012D01*
X104595367Y-72330439D01*
X104582568Y-72329642D01*
X104573305Y-72328631D01*
X104570490Y-72328089D01*
X104550506Y-72320631D01*
X104533044Y-72308993D01*
X104518716Y-72293681D01*
X104509223Y-72277645D01*
X104501910Y-72261810D01*
X104501910Y-71724866D01*
X104769880Y-71724866D01*
X104893705Y-71723983D01*
X104922049Y-71723774D01*
X104945801Y-71723571D01*
X104965448Y-71723352D01*
X104981478Y-71723094D01*
X104994376Y-71722774D01*
X105004632Y-71722370D01*
X105012733Y-71721858D01*
X105019165Y-71721216D01*
X105024416Y-71720422D01*
X105028974Y-71719451D01*
X105033326Y-71718283D01*
X105036561Y-71717320D01*
X105063651Y-71706638D01*
X105087483Y-71692112D01*
X105107886Y-71673911D01*
X105124685Y-71652202D01*
X105137709Y-71627152D01*
X105142351Y-71614654D01*
X105145043Y-71606045D01*
X105146937Y-71598447D01*
X105148178Y-71590631D01*
X105148909Y-71581368D01*
X105149276Y-71569428D01*
X105149418Y-71554420D01*
X105149211Y-71534098D01*
X105148194Y-71517513D01*
X105146105Y-71503350D01*
X105142682Y-71490295D01*
X105137660Y-71477033D01*
X105131138Y-71462980D01*
X105123178Y-71449081D01*
X105113005Y-71435820D01*
X105102666Y-71424770D01*
X105085891Y-71409675D01*
X105068758Y-71398165D01*
X105049539Y-71389212D01*
X105034021Y-71383947D01*
X105029482Y-71382627D01*
X105025060Y-71381522D01*
X105020264Y-71380608D01*
X105014604Y-71379862D01*
X105007589Y-71379260D01*
X104998727Y-71378779D01*
X104987527Y-71378396D01*
X104973499Y-71378088D01*
X104956151Y-71377832D01*
X104934993Y-71377604D01*
X104909534Y-71377381D01*
X104892435Y-71377243D01*
X104769880Y-71376272D01*
X104769880Y-71724866D01*
X104501910Y-71724866D01*
X104501910Y-71238190D01*
X104509223Y-71222354D01*
X104518561Y-71206947D01*
X104531202Y-71192871D01*
X104545618Y-71181734D01*
X104550506Y-71178976D01*
X104554314Y-71177105D01*
X104558164Y-71175459D01*
X104562389Y-71174025D01*
X104567319Y-71172791D01*
X104573283Y-71171744D01*
X104580613Y-71170872D01*
X104589639Y-71170161D01*
X104600692Y-71169600D01*
X104614102Y-71169176D01*
X104630199Y-71168875D01*
X104649314Y-71168686D01*
X104671778Y-71168597D01*
X104697921Y-71168593D01*
X104728074Y-71168664D01*
D12*
X110710000Y-69258578D02*
X110710000Y-68741422D01*
X109290000Y-69258578D02*
X109290000Y-68741422D01*
X109490000Y-69162779D02*
X109490000Y-68837221D01*
X110510000Y-69162779D02*
X110510000Y-68837221D01*
D11*
G36*
X109800000Y-68800000D02*
G01*
X110000000Y-69200000D01*
X110200000Y-68800000D01*
X109800000Y-68800000D01*
G37*
X109800000Y-68800000D02*
X110000000Y-69200000D01*
X110200000Y-68800000D01*
X109800000Y-68800000D01*
X110200000Y-68800000D02*
X109800000Y-68800000D01*
X110000000Y-69200000D02*
X110200000Y-68800000D01*
X110000000Y-69200000D02*
X109800000Y-68800000D01*
X110200000Y-69200000D02*
X109800000Y-69200000D01*
D12*
X110960000Y-70685000D02*
X110960000Y-68000000D01*
X109040000Y-70685000D02*
X110960000Y-70685000D01*
X109040000Y-68000000D02*
X109040000Y-70685000D01*
X108710000Y-69258578D02*
X108710000Y-68741422D01*
X107290000Y-69258578D02*
X107290000Y-68741422D01*
X107490000Y-69162779D02*
X107490000Y-68837221D01*
X108510000Y-69162779D02*
X108510000Y-68837221D01*
D11*
G36*
X107800000Y-68800000D02*
G01*
X108000000Y-69200000D01*
X108200000Y-68800000D01*
X107800000Y-68800000D01*
G37*
X107800000Y-68800000D02*
X108000000Y-69200000D01*
X108200000Y-68800000D01*
X107800000Y-68800000D01*
X108200000Y-68800000D02*
X107800000Y-68800000D01*
X108000000Y-69200000D02*
X108200000Y-68800000D01*
X108000000Y-69200000D02*
X107800000Y-68800000D01*
X108200000Y-69200000D02*
X107800000Y-69200000D01*
D12*
X108960000Y-70685000D02*
X108960000Y-68000000D01*
X107040000Y-70685000D02*
X108960000Y-70685000D01*
X107040000Y-68000000D02*
X107040000Y-70685000D01*
D10*
X108261904Y-84172380D02*
X108261904Y-83172380D01*
X108500000Y-83172380D01*
X108642857Y-83220000D01*
X108738095Y-83315238D01*
X108785714Y-83410476D01*
X108833333Y-83600952D01*
X108833333Y-83743809D01*
X108785714Y-83934285D01*
X108738095Y-84029523D01*
X108642857Y-84124761D01*
X108500000Y-84172380D01*
X108261904Y-84172380D01*
X109785714Y-84172380D02*
X109214285Y-84172380D01*
X109500000Y-84172380D02*
X109500000Y-83172380D01*
X109404761Y-83315238D01*
X109309523Y-83410476D01*
X109214285Y-83458095D01*
M02*
