G04 #@! TF.GenerationSoftware,KiCad,Pcbnew,(5.1.0-0)*
G04 #@! TF.CreationDate,2020-06-18T01:01:27+02:00*
G04 #@! TF.ProjectId,POxiM-fingersensor,504f7869-4d2d-4666-996e-67657273656e,Test proto*
G04 #@! TF.SameCoordinates,Original*
G04 #@! TF.FileFunction,Legend,Top*
G04 #@! TF.FilePolarity,Positive*
%FSLAX46Y46*%
G04 Gerber Fmt 4.6, Leading zero omitted, Abs format (unit mm)*
G04 Created by KiCad (PCBNEW (5.1.0-0)) date 2020-06-18 01:01:27*
%MOMM*%
%LPD*%
G04 APERTURE LIST*
%ADD10C,0.150000*%
%ADD11C,0.120000*%
%ADD12C,0.010000*%
G04 APERTURE END LIST*
D10*
X109537976Y-68361904D02*
X109537976Y-67561904D01*
X109842738Y-67561904D01*
X109918928Y-67600000D01*
X109957023Y-67638095D01*
X109995119Y-67714285D01*
X109995119Y-67828571D01*
X109957023Y-67904761D01*
X109918928Y-67942857D01*
X109842738Y-67980952D01*
X109537976Y-67980952D01*
X110337976Y-68361904D02*
X110337976Y-67561904D01*
X110528452Y-67561904D01*
X110642738Y-67600000D01*
X110718928Y-67676190D01*
X110757023Y-67752380D01*
X110795119Y-67904761D01*
X110795119Y-68019047D01*
X110757023Y-68171428D01*
X110718928Y-68247619D01*
X110642738Y-68323809D01*
X110528452Y-68361904D01*
X110337976Y-68361904D01*
X109537976Y-60861904D02*
X109537976Y-60061904D01*
X110376071Y-60861904D02*
X110109404Y-60480952D01*
X109918928Y-60861904D02*
X109918928Y-60061904D01*
X110223690Y-60061904D01*
X110299880Y-60100000D01*
X110337976Y-60138095D01*
X110376071Y-60214285D01*
X110376071Y-60328571D01*
X110337976Y-60404761D01*
X110299880Y-60442857D01*
X110223690Y-60480952D01*
X109918928Y-60480952D01*
X109995119Y-63361904D02*
X109728452Y-62980952D01*
X109537976Y-63361904D02*
X109537976Y-62561904D01*
X109842738Y-62561904D01*
X109918928Y-62600000D01*
X109957023Y-62638095D01*
X109995119Y-62714285D01*
X109995119Y-62828571D01*
X109957023Y-62904761D01*
X109918928Y-62942857D01*
X109842738Y-62980952D01*
X109537976Y-62980952D01*
X110642738Y-63323809D02*
X110566547Y-63361904D01*
X110414166Y-63361904D01*
X110337976Y-63323809D01*
X110299880Y-63247619D01*
X110299880Y-62942857D01*
X110337976Y-62866666D01*
X110414166Y-62828571D01*
X110566547Y-62828571D01*
X110642738Y-62866666D01*
X110680833Y-62942857D01*
X110680833Y-63019047D01*
X110299880Y-63095238D01*
X111366547Y-63361904D02*
X111366547Y-62561904D01*
X111366547Y-63323809D02*
X111290357Y-63361904D01*
X111137976Y-63361904D01*
X111061785Y-63323809D01*
X111023690Y-63285714D01*
X110985595Y-63209523D01*
X110985595Y-62980952D01*
X111023690Y-62904761D01*
X111061785Y-62866666D01*
X111137976Y-62828571D01*
X111290357Y-62828571D01*
X111366547Y-62866666D01*
X109537976Y-65557142D02*
X110147500Y-65557142D01*
X109842738Y-65861904D02*
X109842738Y-65252380D01*
X110909404Y-65061904D02*
X110528452Y-65061904D01*
X110490357Y-65442857D01*
X110528452Y-65404761D01*
X110604642Y-65366666D01*
X110795119Y-65366666D01*
X110871309Y-65404761D01*
X110909404Y-65442857D01*
X110947500Y-65519047D01*
X110947500Y-65709523D01*
X110909404Y-65785714D01*
X110871309Y-65823809D01*
X110795119Y-65861904D01*
X110604642Y-65861904D01*
X110528452Y-65823809D01*
X110490357Y-65785714D01*
X111176071Y-65061904D02*
X111442738Y-65861904D01*
X111709404Y-65061904D01*
D11*
X112000000Y-66250000D02*
X114000000Y-66250000D01*
X112000000Y-62250000D02*
X114000000Y-62250000D01*
D10*
X105342857Y-80767857D02*
X105076190Y-80767857D01*
X105076190Y-81186904D02*
X105076190Y-80386904D01*
X105457142Y-80386904D01*
X105761904Y-81186904D02*
X105761904Y-80653571D01*
X105761904Y-80386904D02*
X105723809Y-80425000D01*
X105761904Y-80463095D01*
X105800000Y-80425000D01*
X105761904Y-80386904D01*
X105761904Y-80463095D01*
X106142857Y-80653571D02*
X106142857Y-81186904D01*
X106142857Y-80729761D02*
X106180952Y-80691666D01*
X106257142Y-80653571D01*
X106371428Y-80653571D01*
X106447619Y-80691666D01*
X106485714Y-80767857D01*
X106485714Y-81186904D01*
X107209523Y-80653571D02*
X107209523Y-81301190D01*
X107171428Y-81377380D01*
X107133333Y-81415476D01*
X107057142Y-81453571D01*
X106942857Y-81453571D01*
X106866666Y-81415476D01*
X107209523Y-81148809D02*
X107133333Y-81186904D01*
X106980952Y-81186904D01*
X106904761Y-81148809D01*
X106866666Y-81110714D01*
X106828571Y-81034523D01*
X106828571Y-80805952D01*
X106866666Y-80729761D01*
X106904761Y-80691666D01*
X106980952Y-80653571D01*
X107133333Y-80653571D01*
X107209523Y-80691666D01*
X107895238Y-81148809D02*
X107819047Y-81186904D01*
X107666666Y-81186904D01*
X107590476Y-81148809D01*
X107552380Y-81072619D01*
X107552380Y-80767857D01*
X107590476Y-80691666D01*
X107666666Y-80653571D01*
X107819047Y-80653571D01*
X107895238Y-80691666D01*
X107933333Y-80767857D01*
X107933333Y-80844047D01*
X107552380Y-80920238D01*
X108276190Y-81186904D02*
X108276190Y-80653571D01*
X108276190Y-80805952D02*
X108314285Y-80729761D01*
X108352380Y-80691666D01*
X108428571Y-80653571D01*
X108504761Y-80653571D01*
X109342857Y-81148809D02*
X109419047Y-81186904D01*
X109571428Y-81186904D01*
X109647619Y-81148809D01*
X109685714Y-81072619D01*
X109685714Y-81034523D01*
X109647619Y-80958333D01*
X109571428Y-80920238D01*
X109457142Y-80920238D01*
X109380952Y-80882142D01*
X109342857Y-80805952D01*
X109342857Y-80767857D01*
X109380952Y-80691666D01*
X109457142Y-80653571D01*
X109571428Y-80653571D01*
X109647619Y-80691666D01*
X110333333Y-81148809D02*
X110257142Y-81186904D01*
X110104761Y-81186904D01*
X110028571Y-81148809D01*
X109990476Y-81072619D01*
X109990476Y-80767857D01*
X110028571Y-80691666D01*
X110104761Y-80653571D01*
X110257142Y-80653571D01*
X110333333Y-80691666D01*
X110371428Y-80767857D01*
X110371428Y-80844047D01*
X109990476Y-80920238D01*
X110714285Y-80653571D02*
X110714285Y-81186904D01*
X110714285Y-80729761D02*
X110752380Y-80691666D01*
X110828571Y-80653571D01*
X110942857Y-80653571D01*
X111019047Y-80691666D01*
X111057142Y-80767857D01*
X111057142Y-81186904D01*
X111400000Y-81148809D02*
X111476190Y-81186904D01*
X111628571Y-81186904D01*
X111704761Y-81148809D01*
X111742857Y-81072619D01*
X111742857Y-81034523D01*
X111704761Y-80958333D01*
X111628571Y-80920238D01*
X111514285Y-80920238D01*
X111438095Y-80882142D01*
X111400000Y-80805952D01*
X111400000Y-80767857D01*
X111438095Y-80691666D01*
X111514285Y-80653571D01*
X111628571Y-80653571D01*
X111704761Y-80691666D01*
X112200000Y-81186904D02*
X112123809Y-81148809D01*
X112085714Y-81110714D01*
X112047619Y-81034523D01*
X112047619Y-80805952D01*
X112085714Y-80729761D01*
X112123809Y-80691666D01*
X112200000Y-80653571D01*
X112314285Y-80653571D01*
X112390476Y-80691666D01*
X112428571Y-80729761D01*
X112466666Y-80805952D01*
X112466666Y-81034523D01*
X112428571Y-81110714D01*
X112390476Y-81148809D01*
X112314285Y-81186904D01*
X112200000Y-81186904D01*
X112809523Y-81186904D02*
X112809523Y-80653571D01*
X112809523Y-80805952D02*
X112847619Y-80729761D01*
X112885714Y-80691666D01*
X112961904Y-80653571D01*
X113038095Y-80653571D01*
X107895238Y-82536904D02*
X107628571Y-82155952D01*
X107438095Y-82536904D02*
X107438095Y-81736904D01*
X107742857Y-81736904D01*
X107819047Y-81775000D01*
X107857142Y-81813095D01*
X107895238Y-81889285D01*
X107895238Y-82003571D01*
X107857142Y-82079761D01*
X107819047Y-82117857D01*
X107742857Y-82155952D01*
X107438095Y-82155952D01*
X108542857Y-82498809D02*
X108466666Y-82536904D01*
X108314285Y-82536904D01*
X108238095Y-82498809D01*
X108200000Y-82422619D01*
X108200000Y-82117857D01*
X108238095Y-82041666D01*
X108314285Y-82003571D01*
X108466666Y-82003571D01*
X108542857Y-82041666D01*
X108580952Y-82117857D01*
X108580952Y-82194047D01*
X108200000Y-82270238D01*
X108847619Y-82003571D02*
X109038095Y-82536904D01*
X109228571Y-82003571D01*
X110600000Y-82460714D02*
X110561904Y-82498809D01*
X110447619Y-82536904D01*
X110371428Y-82536904D01*
X110257142Y-82498809D01*
X110180952Y-82422619D01*
X110142857Y-82346428D01*
X110104761Y-82194047D01*
X110104761Y-82079761D01*
X110142857Y-81927380D01*
X110180952Y-81851190D01*
X110257142Y-81775000D01*
X110371428Y-81736904D01*
X110447619Y-81736904D01*
X110561904Y-81775000D01*
X110600000Y-81813095D01*
D11*
X104000000Y-84000000D02*
X114000000Y-84000000D01*
X104000000Y-76000000D02*
X114000000Y-76000000D01*
D10*
X112452380Y-72000000D02*
X111452380Y-72000000D01*
X112452380Y-70952380D02*
X111976190Y-71285714D01*
X112452380Y-71523809D02*
X111452380Y-71523809D01*
X111452380Y-71142857D01*
X111500000Y-71047619D01*
X111547619Y-71000000D01*
X111642857Y-70952380D01*
X111785714Y-70952380D01*
X111880952Y-71000000D01*
X111928571Y-71047619D01*
X111976190Y-71142857D01*
X111976190Y-71523809D01*
X106452380Y-72071428D02*
X105976190Y-72404761D01*
X106452380Y-72642857D02*
X105452380Y-72642857D01*
X105452380Y-72261904D01*
X105500000Y-72166666D01*
X105547619Y-72119047D01*
X105642857Y-72071428D01*
X105785714Y-72071428D01*
X105880952Y-72119047D01*
X105928571Y-72166666D01*
X105976190Y-72261904D01*
X105976190Y-72642857D01*
X106404761Y-71261904D02*
X106452380Y-71357142D01*
X106452380Y-71547619D01*
X106404761Y-71642857D01*
X106309523Y-71690476D01*
X105928571Y-71690476D01*
X105833333Y-71642857D01*
X105785714Y-71547619D01*
X105785714Y-71357142D01*
X105833333Y-71261904D01*
X105928571Y-71214285D01*
X106023809Y-71214285D01*
X106119047Y-71690476D01*
X106452380Y-70357142D02*
X105452380Y-70357142D01*
X106404761Y-70357142D02*
X106452380Y-70452380D01*
X106452380Y-70642857D01*
X106404761Y-70738095D01*
X106357142Y-70785714D01*
X106261904Y-70833333D01*
X105976190Y-70833333D01*
X105880952Y-70785714D01*
X105833333Y-70738095D01*
X105785714Y-70642857D01*
X105785714Y-70452380D01*
X105833333Y-70357142D01*
D12*
G36*
X112566099Y-77627962D02*
G01*
X112591610Y-77628431D01*
X112612434Y-77629246D01*
X112629304Y-77630456D01*
X112642952Y-77632113D01*
X112654112Y-77634265D01*
X112663517Y-77636962D01*
X112671900Y-77640254D01*
X112678418Y-77643378D01*
X112700420Y-77658103D01*
X112720516Y-77678030D01*
X112736413Y-77700750D01*
X112740348Y-77708453D01*
X112751321Y-77732208D01*
X112751321Y-79267792D01*
X112740348Y-79291547D01*
X112723796Y-79318582D01*
X112701724Y-79340840D01*
X112675081Y-79357567D01*
X112644819Y-79368009D01*
X112643490Y-79368297D01*
X112631897Y-79369835D01*
X112614334Y-79371026D01*
X112592445Y-79371866D01*
X112567873Y-79372348D01*
X112542263Y-79372468D01*
X112517257Y-79372219D01*
X112494499Y-79371597D01*
X112475632Y-79370595D01*
X112462301Y-79369207D01*
X112460629Y-79368919D01*
X112429617Y-79359291D01*
X112402095Y-79343149D01*
X112378926Y-79321130D01*
X112361978Y-79295820D01*
X112351231Y-79275412D01*
X112350382Y-79082988D01*
X112350255Y-79050378D01*
X112350189Y-79020676D01*
X112350208Y-78993178D01*
X112350331Y-78967182D01*
X112350582Y-78941984D01*
X112350982Y-78916881D01*
X112351552Y-78891171D01*
X112352315Y-78864149D01*
X112353293Y-78835114D01*
X112354506Y-78803362D01*
X112355977Y-78768189D01*
X112357727Y-78728893D01*
X112359779Y-78684771D01*
X112362153Y-78635119D01*
X112364872Y-78579234D01*
X112367828Y-78519052D01*
X112370384Y-78466499D01*
X112372773Y-78416092D01*
X112374975Y-78368353D01*
X112376967Y-78323804D01*
X112378728Y-78282966D01*
X112380238Y-78246362D01*
X112381475Y-78214513D01*
X112382418Y-78187943D01*
X112383045Y-78167173D01*
X112383335Y-78152725D01*
X112383268Y-78145121D01*
X112383107Y-78144061D01*
X112379911Y-78144674D01*
X112376199Y-78150849D01*
X112375904Y-78151598D01*
X112374219Y-78156392D01*
X112370210Y-78168002D01*
X112364011Y-78186033D01*
X112355757Y-78210087D01*
X112345586Y-78239769D01*
X112333631Y-78274683D01*
X112320029Y-78314433D01*
X112304914Y-78358621D01*
X112288423Y-78406853D01*
X112270692Y-78458732D01*
X112251855Y-78513861D01*
X112232048Y-78571845D01*
X112211406Y-78632288D01*
X112190066Y-78694792D01*
X112179197Y-78726634D01*
X112152055Y-78806095D01*
X112127248Y-78878598D01*
X112104683Y-78944408D01*
X112084267Y-79003792D01*
X112065905Y-79057014D01*
X112049504Y-79104340D01*
X112034971Y-79146035D01*
X112022213Y-79182366D01*
X112011135Y-79213596D01*
X112001645Y-79239993D01*
X111993650Y-79261821D01*
X111987055Y-79279346D01*
X111981767Y-79292833D01*
X111977693Y-79302548D01*
X111974739Y-79308756D01*
X111973645Y-79310641D01*
X111955046Y-79332818D01*
X111931381Y-79351227D01*
X111905416Y-79363909D01*
X111896649Y-79366514D01*
X111886390Y-79368381D01*
X111873271Y-79369620D01*
X111855924Y-79370337D01*
X111832981Y-79370641D01*
X111819682Y-79370672D01*
X111795540Y-79370630D01*
X111777579Y-79370389D01*
X111764357Y-79369773D01*
X111754436Y-79368609D01*
X111746375Y-79366722D01*
X111738734Y-79363937D01*
X111730072Y-79360081D01*
X111729291Y-79359720D01*
X111710879Y-79348898D01*
X111692373Y-79334099D01*
X111676040Y-79317415D01*
X111664144Y-79300943D01*
X111662594Y-79298054D01*
X111660752Y-79293235D01*
X111656598Y-79281597D01*
X111650268Y-79263535D01*
X111641897Y-79239447D01*
X111631623Y-79209729D01*
X111619581Y-79174777D01*
X111605908Y-79134990D01*
X111590739Y-79090763D01*
X111574210Y-79042493D01*
X111556459Y-78990577D01*
X111537621Y-78935412D01*
X111517831Y-78877394D01*
X111497227Y-78816920D01*
X111475944Y-78754387D01*
X111465239Y-78722907D01*
X111443719Y-78659647D01*
X111422840Y-78598337D01*
X111402734Y-78539367D01*
X111383536Y-78483126D01*
X111365380Y-78430004D01*
X111348398Y-78380391D01*
X111332726Y-78334677D01*
X111318497Y-78293251D01*
X111305844Y-78256503D01*
X111294901Y-78224823D01*
X111285802Y-78198600D01*
X111278682Y-78178223D01*
X111273673Y-78164084D01*
X111270910Y-78156571D01*
X111270406Y-78155414D01*
X111266355Y-78153264D01*
X111265480Y-78153682D01*
X111265410Y-78157660D01*
X111265701Y-78168741D01*
X111266329Y-78186415D01*
X111267272Y-78210174D01*
X111268507Y-78239510D01*
X111270013Y-78273913D01*
X111271766Y-78312875D01*
X111273745Y-78355888D01*
X111275925Y-78402442D01*
X111278286Y-78452029D01*
X111280805Y-78504140D01*
X111282661Y-78542087D01*
X111285801Y-78606140D01*
X111288573Y-78663239D01*
X111290999Y-78714042D01*
X111293099Y-78759205D01*
X111294895Y-78799385D01*
X111296408Y-78835239D01*
X111297659Y-78867426D01*
X111298668Y-78896600D01*
X111299459Y-78923421D01*
X111300050Y-78948544D01*
X111300465Y-78972626D01*
X111300723Y-78996326D01*
X111300845Y-79020299D01*
X111300854Y-79045203D01*
X111300770Y-79071695D01*
X111300616Y-79100135D01*
X111300358Y-79140777D01*
X111300102Y-79174526D01*
X111299812Y-79202108D01*
X111299451Y-79224252D01*
X111298984Y-79241684D01*
X111298373Y-79255130D01*
X111297582Y-79265320D01*
X111296576Y-79272979D01*
X111295316Y-79278835D01*
X111293767Y-79283615D01*
X111291892Y-79288047D01*
X111291113Y-79289735D01*
X111280195Y-79307924D01*
X111265047Y-79326333D01*
X111247896Y-79342606D01*
X111230970Y-79354382D01*
X111229149Y-79355337D01*
X111214560Y-79361472D01*
X111197970Y-79366775D01*
X111191735Y-79368293D01*
X111180971Y-79369672D01*
X111164177Y-79370744D01*
X111142940Y-79371505D01*
X111118843Y-79371953D01*
X111093473Y-79372086D01*
X111068414Y-79371899D01*
X111045252Y-79371392D01*
X111025572Y-79370560D01*
X111010959Y-79369402D01*
X111005614Y-79368616D01*
X110978510Y-79359622D01*
X110952975Y-79344348D01*
X110930702Y-79324132D01*
X110913387Y-79300315D01*
X110909361Y-79292559D01*
X110899475Y-79271602D01*
X110899475Y-77728398D01*
X110909361Y-77707441D01*
X110925457Y-77681935D01*
X110947594Y-77659928D01*
X110974548Y-77642608D01*
X110977588Y-77641119D01*
X111002356Y-77629328D01*
X111179538Y-77629328D01*
X111220870Y-77629334D01*
X111255307Y-77629375D01*
X111283573Y-77629482D01*
X111306393Y-77629687D01*
X111324493Y-77630022D01*
X111338598Y-77630520D01*
X111349432Y-77631212D01*
X111357722Y-77632130D01*
X111364191Y-77633307D01*
X111369566Y-77634773D01*
X111374570Y-77636562D01*
X111378447Y-77638106D01*
X111401285Y-77650402D01*
X111422374Y-77667395D01*
X111439528Y-77687104D01*
X111447784Y-77700953D01*
X111449650Y-77706015D01*
X111453662Y-77717799D01*
X111459669Y-77735829D01*
X111467516Y-77759629D01*
X111477050Y-77788723D01*
X111488119Y-77822634D01*
X111500569Y-77860888D01*
X111514247Y-77903007D01*
X111528999Y-77948515D01*
X111544673Y-77996937D01*
X111561115Y-78047797D01*
X111578173Y-78100618D01*
X111595692Y-78154924D01*
X111613520Y-78210240D01*
X111631503Y-78266088D01*
X111649488Y-78321994D01*
X111667323Y-78377481D01*
X111684853Y-78432073D01*
X111701926Y-78485294D01*
X111718389Y-78536668D01*
X111734088Y-78585718D01*
X111748870Y-78631969D01*
X111762581Y-78674945D01*
X111775070Y-78714170D01*
X111786182Y-78749167D01*
X111795764Y-78779460D01*
X111803663Y-78804574D01*
X111809726Y-78824032D01*
X111813800Y-78837358D01*
X111815731Y-78844077D01*
X111815872Y-78844778D01*
X111818910Y-78846605D01*
X111820635Y-78846736D01*
X111822452Y-78843136D01*
X111826511Y-78832464D01*
X111832750Y-78814913D01*
X111841103Y-78790675D01*
X111851509Y-78759942D01*
X111863902Y-78722907D01*
X111878219Y-78679762D01*
X111894396Y-78630698D01*
X111912371Y-78575909D01*
X111932078Y-78515585D01*
X111953454Y-78449920D01*
X111976436Y-78379106D01*
X112000960Y-78303334D01*
X112006056Y-78287563D01*
X112026602Y-78224036D01*
X112046628Y-78162242D01*
X112065999Y-78102593D01*
X112084579Y-78045505D01*
X112102232Y-77991389D01*
X112118822Y-77940660D01*
X112134214Y-77893729D01*
X112148271Y-77851012D01*
X112160857Y-77812921D01*
X112171837Y-77779870D01*
X112181075Y-77752271D01*
X112188435Y-77730539D01*
X112193781Y-77715086D01*
X112196977Y-77706326D01*
X112197574Y-77704895D01*
X112212931Y-77680199D01*
X112233994Y-77658838D01*
X112259043Y-77642429D01*
X112268539Y-77638113D01*
X112273981Y-77635990D01*
X112279321Y-77634234D01*
X112285323Y-77632804D01*
X112292747Y-77631659D01*
X112302357Y-77630757D01*
X112314916Y-77630059D01*
X112331185Y-77629522D01*
X112351927Y-77629106D01*
X112377905Y-77628770D01*
X112409880Y-77628473D01*
X112448616Y-77628174D01*
X112454111Y-77628133D01*
X112498082Y-77627863D01*
X112535167Y-77627789D01*
X112566099Y-77627962D01*
X112566099Y-77627962D01*
G37*
X112566099Y-77627962D02*
X112591610Y-77628431D01*
X112612434Y-77629246D01*
X112629304Y-77630456D01*
X112642952Y-77632113D01*
X112654112Y-77634265D01*
X112663517Y-77636962D01*
X112671900Y-77640254D01*
X112678418Y-77643378D01*
X112700420Y-77658103D01*
X112720516Y-77678030D01*
X112736413Y-77700750D01*
X112740348Y-77708453D01*
X112751321Y-77732208D01*
X112751321Y-79267792D01*
X112740348Y-79291547D01*
X112723796Y-79318582D01*
X112701724Y-79340840D01*
X112675081Y-79357567D01*
X112644819Y-79368009D01*
X112643490Y-79368297D01*
X112631897Y-79369835D01*
X112614334Y-79371026D01*
X112592445Y-79371866D01*
X112567873Y-79372348D01*
X112542263Y-79372468D01*
X112517257Y-79372219D01*
X112494499Y-79371597D01*
X112475632Y-79370595D01*
X112462301Y-79369207D01*
X112460629Y-79368919D01*
X112429617Y-79359291D01*
X112402095Y-79343149D01*
X112378926Y-79321130D01*
X112361978Y-79295820D01*
X112351231Y-79275412D01*
X112350382Y-79082988D01*
X112350255Y-79050378D01*
X112350189Y-79020676D01*
X112350208Y-78993178D01*
X112350331Y-78967182D01*
X112350582Y-78941984D01*
X112350982Y-78916881D01*
X112351552Y-78891171D01*
X112352315Y-78864149D01*
X112353293Y-78835114D01*
X112354506Y-78803362D01*
X112355977Y-78768189D01*
X112357727Y-78728893D01*
X112359779Y-78684771D01*
X112362153Y-78635119D01*
X112364872Y-78579234D01*
X112367828Y-78519052D01*
X112370384Y-78466499D01*
X112372773Y-78416092D01*
X112374975Y-78368353D01*
X112376967Y-78323804D01*
X112378728Y-78282966D01*
X112380238Y-78246362D01*
X112381475Y-78214513D01*
X112382418Y-78187943D01*
X112383045Y-78167173D01*
X112383335Y-78152725D01*
X112383268Y-78145121D01*
X112383107Y-78144061D01*
X112379911Y-78144674D01*
X112376199Y-78150849D01*
X112375904Y-78151598D01*
X112374219Y-78156392D01*
X112370210Y-78168002D01*
X112364011Y-78186033D01*
X112355757Y-78210087D01*
X112345586Y-78239769D01*
X112333631Y-78274683D01*
X112320029Y-78314433D01*
X112304914Y-78358621D01*
X112288423Y-78406853D01*
X112270692Y-78458732D01*
X112251855Y-78513861D01*
X112232048Y-78571845D01*
X112211406Y-78632288D01*
X112190066Y-78694792D01*
X112179197Y-78726634D01*
X112152055Y-78806095D01*
X112127248Y-78878598D01*
X112104683Y-78944408D01*
X112084267Y-79003792D01*
X112065905Y-79057014D01*
X112049504Y-79104340D01*
X112034971Y-79146035D01*
X112022213Y-79182366D01*
X112011135Y-79213596D01*
X112001645Y-79239993D01*
X111993650Y-79261821D01*
X111987055Y-79279346D01*
X111981767Y-79292833D01*
X111977693Y-79302548D01*
X111974739Y-79308756D01*
X111973645Y-79310641D01*
X111955046Y-79332818D01*
X111931381Y-79351227D01*
X111905416Y-79363909D01*
X111896649Y-79366514D01*
X111886390Y-79368381D01*
X111873271Y-79369620D01*
X111855924Y-79370337D01*
X111832981Y-79370641D01*
X111819682Y-79370672D01*
X111795540Y-79370630D01*
X111777579Y-79370389D01*
X111764357Y-79369773D01*
X111754436Y-79368609D01*
X111746375Y-79366722D01*
X111738734Y-79363937D01*
X111730072Y-79360081D01*
X111729291Y-79359720D01*
X111710879Y-79348898D01*
X111692373Y-79334099D01*
X111676040Y-79317415D01*
X111664144Y-79300943D01*
X111662594Y-79298054D01*
X111660752Y-79293235D01*
X111656598Y-79281597D01*
X111650268Y-79263535D01*
X111641897Y-79239447D01*
X111631623Y-79209729D01*
X111619581Y-79174777D01*
X111605908Y-79134990D01*
X111590739Y-79090763D01*
X111574210Y-79042493D01*
X111556459Y-78990577D01*
X111537621Y-78935412D01*
X111517831Y-78877394D01*
X111497227Y-78816920D01*
X111475944Y-78754387D01*
X111465239Y-78722907D01*
X111443719Y-78659647D01*
X111422840Y-78598337D01*
X111402734Y-78539367D01*
X111383536Y-78483126D01*
X111365380Y-78430004D01*
X111348398Y-78380391D01*
X111332726Y-78334677D01*
X111318497Y-78293251D01*
X111305844Y-78256503D01*
X111294901Y-78224823D01*
X111285802Y-78198600D01*
X111278682Y-78178223D01*
X111273673Y-78164084D01*
X111270910Y-78156571D01*
X111270406Y-78155414D01*
X111266355Y-78153264D01*
X111265480Y-78153682D01*
X111265410Y-78157660D01*
X111265701Y-78168741D01*
X111266329Y-78186415D01*
X111267272Y-78210174D01*
X111268507Y-78239510D01*
X111270013Y-78273913D01*
X111271766Y-78312875D01*
X111273745Y-78355888D01*
X111275925Y-78402442D01*
X111278286Y-78452029D01*
X111280805Y-78504140D01*
X111282661Y-78542087D01*
X111285801Y-78606140D01*
X111288573Y-78663239D01*
X111290999Y-78714042D01*
X111293099Y-78759205D01*
X111294895Y-78799385D01*
X111296408Y-78835239D01*
X111297659Y-78867426D01*
X111298668Y-78896600D01*
X111299459Y-78923421D01*
X111300050Y-78948544D01*
X111300465Y-78972626D01*
X111300723Y-78996326D01*
X111300845Y-79020299D01*
X111300854Y-79045203D01*
X111300770Y-79071695D01*
X111300616Y-79100135D01*
X111300358Y-79140777D01*
X111300102Y-79174526D01*
X111299812Y-79202108D01*
X111299451Y-79224252D01*
X111298984Y-79241684D01*
X111298373Y-79255130D01*
X111297582Y-79265320D01*
X111296576Y-79272979D01*
X111295316Y-79278835D01*
X111293767Y-79283615D01*
X111291892Y-79288047D01*
X111291113Y-79289735D01*
X111280195Y-79307924D01*
X111265047Y-79326333D01*
X111247896Y-79342606D01*
X111230970Y-79354382D01*
X111229149Y-79355337D01*
X111214560Y-79361472D01*
X111197970Y-79366775D01*
X111191735Y-79368293D01*
X111180971Y-79369672D01*
X111164177Y-79370744D01*
X111142940Y-79371505D01*
X111118843Y-79371953D01*
X111093473Y-79372086D01*
X111068414Y-79371899D01*
X111045252Y-79371392D01*
X111025572Y-79370560D01*
X111010959Y-79369402D01*
X111005614Y-79368616D01*
X110978510Y-79359622D01*
X110952975Y-79344348D01*
X110930702Y-79324132D01*
X110913387Y-79300315D01*
X110909361Y-79292559D01*
X110899475Y-79271602D01*
X110899475Y-77728398D01*
X110909361Y-77707441D01*
X110925457Y-77681935D01*
X110947594Y-77659928D01*
X110974548Y-77642608D01*
X110977588Y-77641119D01*
X111002356Y-77629328D01*
X111179538Y-77629328D01*
X111220870Y-77629334D01*
X111255307Y-77629375D01*
X111283573Y-77629482D01*
X111306393Y-77629687D01*
X111324493Y-77630022D01*
X111338598Y-77630520D01*
X111349432Y-77631212D01*
X111357722Y-77632130D01*
X111364191Y-77633307D01*
X111369566Y-77634773D01*
X111374570Y-77636562D01*
X111378447Y-77638106D01*
X111401285Y-77650402D01*
X111422374Y-77667395D01*
X111439528Y-77687104D01*
X111447784Y-77700953D01*
X111449650Y-77706015D01*
X111453662Y-77717799D01*
X111459669Y-77735829D01*
X111467516Y-77759629D01*
X111477050Y-77788723D01*
X111488119Y-77822634D01*
X111500569Y-77860888D01*
X111514247Y-77903007D01*
X111528999Y-77948515D01*
X111544673Y-77996937D01*
X111561115Y-78047797D01*
X111578173Y-78100618D01*
X111595692Y-78154924D01*
X111613520Y-78210240D01*
X111631503Y-78266088D01*
X111649488Y-78321994D01*
X111667323Y-78377481D01*
X111684853Y-78432073D01*
X111701926Y-78485294D01*
X111718389Y-78536668D01*
X111734088Y-78585718D01*
X111748870Y-78631969D01*
X111762581Y-78674945D01*
X111775070Y-78714170D01*
X111786182Y-78749167D01*
X111795764Y-78779460D01*
X111803663Y-78804574D01*
X111809726Y-78824032D01*
X111813800Y-78837358D01*
X111815731Y-78844077D01*
X111815872Y-78844778D01*
X111818910Y-78846605D01*
X111820635Y-78846736D01*
X111822452Y-78843136D01*
X111826511Y-78832464D01*
X111832750Y-78814913D01*
X111841103Y-78790675D01*
X111851509Y-78759942D01*
X111863902Y-78722907D01*
X111878219Y-78679762D01*
X111894396Y-78630698D01*
X111912371Y-78575909D01*
X111932078Y-78515585D01*
X111953454Y-78449920D01*
X111976436Y-78379106D01*
X112000960Y-78303334D01*
X112006056Y-78287563D01*
X112026602Y-78224036D01*
X112046628Y-78162242D01*
X112065999Y-78102593D01*
X112084579Y-78045505D01*
X112102232Y-77991389D01*
X112118822Y-77940660D01*
X112134214Y-77893729D01*
X112148271Y-77851012D01*
X112160857Y-77812921D01*
X112171837Y-77779870D01*
X112181075Y-77752271D01*
X112188435Y-77730539D01*
X112193781Y-77715086D01*
X112196977Y-77706326D01*
X112197574Y-77704895D01*
X112212931Y-77680199D01*
X112233994Y-77658838D01*
X112259043Y-77642429D01*
X112268539Y-77638113D01*
X112273981Y-77635990D01*
X112279321Y-77634234D01*
X112285323Y-77632804D01*
X112292747Y-77631659D01*
X112302357Y-77630757D01*
X112314916Y-77630059D01*
X112331185Y-77629522D01*
X112351927Y-77629106D01*
X112377905Y-77628770D01*
X112409880Y-77628473D01*
X112448616Y-77628174D01*
X112454111Y-77628133D01*
X112498082Y-77627863D01*
X112535167Y-77627789D01*
X112566099Y-77627962D01*
G36*
X110265978Y-78232326D02*
G01*
X110407984Y-78374268D01*
X110501315Y-78280655D01*
X110525675Y-78256309D01*
X110550517Y-78231638D01*
X110574776Y-78207690D01*
X110597384Y-78185514D01*
X110617276Y-78166157D01*
X110633386Y-78150665D01*
X110639465Y-78144908D01*
X110684284Y-78102772D01*
X110682284Y-79271602D01*
X110673831Y-79289735D01*
X110662913Y-79307924D01*
X110647765Y-79326333D01*
X110630614Y-79342606D01*
X110613688Y-79354382D01*
X110611867Y-79355337D01*
X110603217Y-79359429D01*
X110594472Y-79362822D01*
X110584850Y-79365578D01*
X110573567Y-79367761D01*
X110559837Y-79369433D01*
X110542878Y-79370658D01*
X110521904Y-79371500D01*
X110496133Y-79372020D01*
X110464779Y-79372283D01*
X110427058Y-79372352D01*
X110401081Y-79372326D01*
X110360482Y-79372207D01*
X110326780Y-79371977D01*
X110299248Y-79371612D01*
X110277162Y-79371088D01*
X110259799Y-79370380D01*
X110246432Y-79369464D01*
X110236337Y-79368316D01*
X110228791Y-79366911D01*
X110227036Y-79366469D01*
X110196919Y-79354641D01*
X110170987Y-79336776D01*
X110149996Y-79313538D01*
X110134706Y-79285592D01*
X110134668Y-79285499D01*
X110125968Y-79263981D01*
X110124969Y-78677182D01*
X110123971Y-78090384D01*
X110265978Y-78232326D01*
X110265978Y-78232326D01*
G37*
X110265978Y-78232326D02*
X110407984Y-78374268D01*
X110501315Y-78280655D01*
X110525675Y-78256309D01*
X110550517Y-78231638D01*
X110574776Y-78207690D01*
X110597384Y-78185514D01*
X110617276Y-78166157D01*
X110633386Y-78150665D01*
X110639465Y-78144908D01*
X110684284Y-78102772D01*
X110682284Y-79271602D01*
X110673831Y-79289735D01*
X110662913Y-79307924D01*
X110647765Y-79326333D01*
X110630614Y-79342606D01*
X110613688Y-79354382D01*
X110611867Y-79355337D01*
X110603217Y-79359429D01*
X110594472Y-79362822D01*
X110584850Y-79365578D01*
X110573567Y-79367761D01*
X110559837Y-79369433D01*
X110542878Y-79370658D01*
X110521904Y-79371500D01*
X110496133Y-79372020D01*
X110464779Y-79372283D01*
X110427058Y-79372352D01*
X110401081Y-79372326D01*
X110360482Y-79372207D01*
X110326780Y-79371977D01*
X110299248Y-79371612D01*
X110277162Y-79371088D01*
X110259799Y-79370380D01*
X110246432Y-79369464D01*
X110236337Y-79368316D01*
X110228791Y-79366911D01*
X110227036Y-79366469D01*
X110196919Y-79354641D01*
X110170987Y-79336776D01*
X110149996Y-79313538D01*
X110134706Y-79285592D01*
X110134668Y-79285499D01*
X110125968Y-79263981D01*
X110124969Y-78677182D01*
X110123971Y-78090384D01*
X110265978Y-78232326D01*
G36*
X109717183Y-77639540D02*
G01*
X109743940Y-77655802D01*
X109766747Y-77677120D01*
X109784047Y-77701965D01*
X109787286Y-77708453D01*
X109793042Y-77722179D01*
X109796379Y-77734352D01*
X109797912Y-77748122D01*
X109798258Y-77764596D01*
X109797905Y-77782022D01*
X109796391Y-77794959D01*
X109793069Y-77806520D01*
X109787292Y-77819820D01*
X109786368Y-77821752D01*
X109782782Y-77828550D01*
X109775655Y-77841448D01*
X109765270Y-77859956D01*
X109751907Y-77883579D01*
X109735847Y-77911826D01*
X109717372Y-77944203D01*
X109696763Y-77980220D01*
X109674301Y-78019382D01*
X109650267Y-78061198D01*
X109624943Y-78105175D01*
X109598609Y-78150821D01*
X109587714Y-78169681D01*
X109400967Y-78492843D01*
X109611368Y-78836945D01*
X109644889Y-78891858D01*
X109676143Y-78943242D01*
X109704956Y-78990803D01*
X109731154Y-79034250D01*
X109754562Y-79073288D01*
X109775007Y-79107626D01*
X109792313Y-79136970D01*
X109806306Y-79161027D01*
X109816812Y-79179504D01*
X109823657Y-79192109D01*
X109826666Y-79198548D01*
X109826716Y-79198716D01*
X109829491Y-79215146D01*
X109830218Y-79235585D01*
X109829849Y-79244652D01*
X109824269Y-79276345D01*
X109811990Y-79304576D01*
X109793298Y-79328934D01*
X109768478Y-79349008D01*
X109750646Y-79358880D01*
X109725878Y-79370672D01*
X109628899Y-79371969D01*
X109592646Y-79372289D01*
X109563000Y-79372107D01*
X109538958Y-79371317D01*
X109519517Y-79369811D01*
X109503673Y-79367481D01*
X109490424Y-79364220D01*
X109478766Y-79359920D01*
X109468152Y-79354722D01*
X109462130Y-79351422D01*
X109456555Y-79348109D01*
X109451219Y-79344414D01*
X109445916Y-79339964D01*
X109440438Y-79334390D01*
X109434579Y-79327321D01*
X109428130Y-79318386D01*
X109420886Y-79307215D01*
X109412638Y-79293437D01*
X109403181Y-79276682D01*
X109392306Y-79256579D01*
X109379806Y-79232757D01*
X109365475Y-79204846D01*
X109349106Y-79172476D01*
X109330491Y-79135275D01*
X109309423Y-79092873D01*
X109285695Y-79044900D01*
X109259100Y-78990984D01*
X109229431Y-78930756D01*
X109216206Y-78903900D01*
X109151472Y-78772442D01*
X109017076Y-79043082D01*
X108991526Y-79094531D01*
X108969099Y-79139614D01*
X108949518Y-79178788D01*
X108932505Y-79212507D01*
X108917784Y-79241228D01*
X108905076Y-79265405D01*
X108894105Y-79285494D01*
X108884593Y-79301950D01*
X108876263Y-79315228D01*
X108868837Y-79325784D01*
X108862039Y-79334072D01*
X108855591Y-79340549D01*
X108849215Y-79345669D01*
X108842634Y-79349888D01*
X108835572Y-79353660D01*
X108827750Y-79357442D01*
X108824723Y-79358880D01*
X108799955Y-79370672D01*
X108706601Y-79371374D01*
X108679662Y-79371433D01*
X108654361Y-79371217D01*
X108631989Y-79370761D01*
X108613835Y-79370095D01*
X108601190Y-79369252D01*
X108596602Y-79368638D01*
X108568157Y-79359003D01*
X108542204Y-79342872D01*
X108520044Y-79321278D01*
X108502976Y-79295252D01*
X108502220Y-79293730D01*
X108494028Y-79270577D01*
X108489927Y-79244593D01*
X108490086Y-79218572D01*
X108494676Y-79195303D01*
X108496000Y-79191584D01*
X108498924Y-79185678D01*
X108505431Y-79173666D01*
X108515251Y-79156017D01*
X108528116Y-79133200D01*
X108543757Y-79105686D01*
X108561905Y-79073943D01*
X108582291Y-79038442D01*
X108604647Y-78999651D01*
X108628703Y-78958041D01*
X108654191Y-78914080D01*
X108680841Y-78868239D01*
X108698916Y-78837218D01*
X108726023Y-78790703D01*
X108752049Y-78745979D01*
X108776735Y-78703495D01*
X108799823Y-78663698D01*
X108821056Y-78627034D01*
X108840174Y-78593951D01*
X108856919Y-78564896D01*
X108871034Y-78540316D01*
X108882260Y-78520658D01*
X108890340Y-78506370D01*
X108895014Y-78497898D01*
X108896123Y-78495662D01*
X108894491Y-78491511D01*
X108889256Y-78481185D01*
X108880646Y-78465091D01*
X108868894Y-78443642D01*
X108854228Y-78417245D01*
X108836879Y-78386312D01*
X108817078Y-78351252D01*
X108795055Y-78312474D01*
X108771040Y-78270390D01*
X108745263Y-78225407D01*
X108717954Y-78177937D01*
X108705167Y-78155769D01*
X108678214Y-78109001D01*
X108652258Y-78063801D01*
X108627565Y-78020644D01*
X108604401Y-77980001D01*
X108583033Y-77942346D01*
X108563728Y-77908151D01*
X108546752Y-77877891D01*
X108532372Y-77852038D01*
X108520854Y-77831065D01*
X108512465Y-77815445D01*
X108507472Y-77805651D01*
X108506203Y-77802724D01*
X108501977Y-77781053D01*
X108501593Y-77756182D01*
X108504866Y-77731380D01*
X108511441Y-77710295D01*
X108523968Y-77689279D01*
X108541788Y-77668961D01*
X108562719Y-77651512D01*
X108581916Y-77640279D01*
X108605626Y-77629328D01*
X108706601Y-77629406D01*
X108738098Y-77629493D01*
X108762956Y-77629738D01*
X108782155Y-77630196D01*
X108796678Y-77630920D01*
X108807506Y-77631965D01*
X108815619Y-77633385D01*
X108821998Y-77635236D01*
X108823812Y-77635919D01*
X108845334Y-77646654D01*
X108865428Y-77660641D01*
X108881453Y-77675956D01*
X108885173Y-77680660D01*
X108888499Y-77686397D01*
X108894823Y-77698440D01*
X108903861Y-77716213D01*
X108915330Y-77739144D01*
X108928947Y-77766659D01*
X108944430Y-77798183D01*
X108961496Y-77833143D01*
X108979862Y-77870966D01*
X108999244Y-77911077D01*
X109018840Y-77951817D01*
X109038731Y-77993233D01*
X109057695Y-78032655D01*
X109075470Y-78069543D01*
X109091795Y-78103357D01*
X109106406Y-78133557D01*
X109119043Y-78159601D01*
X109129444Y-78180950D01*
X109137346Y-78197062D01*
X109142489Y-78207397D01*
X109144609Y-78211416D01*
X109144623Y-78211432D01*
X109146659Y-78208563D01*
X109151751Y-78199351D01*
X109159640Y-78184313D01*
X109170063Y-78163968D01*
X109182763Y-78138834D01*
X109197477Y-78109428D01*
X109213947Y-78076270D01*
X109231911Y-78039876D01*
X109251110Y-78000765D01*
X109271284Y-77959456D01*
X109274607Y-77952630D01*
X109298347Y-77903878D01*
X109319024Y-77861493D01*
X109336897Y-77824982D01*
X109352223Y-77793854D01*
X109365261Y-77767616D01*
X109376269Y-77745776D01*
X109385507Y-77727842D01*
X109393233Y-77713321D01*
X109399704Y-77701723D01*
X109405179Y-77692553D01*
X109409917Y-77685321D01*
X109414176Y-77679534D01*
X109418215Y-77674700D01*
X109422291Y-77670327D01*
X109423468Y-77669125D01*
X109444479Y-77650920D01*
X109465856Y-77638928D01*
X109467287Y-77638338D01*
X109474253Y-77635645D01*
X109480875Y-77633549D01*
X109488196Y-77631976D01*
X109497257Y-77630852D01*
X109509097Y-77630100D01*
X109524760Y-77629647D01*
X109545285Y-77629418D01*
X109571715Y-77629336D01*
X109592515Y-77629328D01*
X109695395Y-77629328D01*
X109717183Y-77639540D01*
X109717183Y-77639540D01*
G37*
X109717183Y-77639540D02*
X109743940Y-77655802D01*
X109766747Y-77677120D01*
X109784047Y-77701965D01*
X109787286Y-77708453D01*
X109793042Y-77722179D01*
X109796379Y-77734352D01*
X109797912Y-77748122D01*
X109798258Y-77764596D01*
X109797905Y-77782022D01*
X109796391Y-77794959D01*
X109793069Y-77806520D01*
X109787292Y-77819820D01*
X109786368Y-77821752D01*
X109782782Y-77828550D01*
X109775655Y-77841448D01*
X109765270Y-77859956D01*
X109751907Y-77883579D01*
X109735847Y-77911826D01*
X109717372Y-77944203D01*
X109696763Y-77980220D01*
X109674301Y-78019382D01*
X109650267Y-78061198D01*
X109624943Y-78105175D01*
X109598609Y-78150821D01*
X109587714Y-78169681D01*
X109400967Y-78492843D01*
X109611368Y-78836945D01*
X109644889Y-78891858D01*
X109676143Y-78943242D01*
X109704956Y-78990803D01*
X109731154Y-79034250D01*
X109754562Y-79073288D01*
X109775007Y-79107626D01*
X109792313Y-79136970D01*
X109806306Y-79161027D01*
X109816812Y-79179504D01*
X109823657Y-79192109D01*
X109826666Y-79198548D01*
X109826716Y-79198716D01*
X109829491Y-79215146D01*
X109830218Y-79235585D01*
X109829849Y-79244652D01*
X109824269Y-79276345D01*
X109811990Y-79304576D01*
X109793298Y-79328934D01*
X109768478Y-79349008D01*
X109750646Y-79358880D01*
X109725878Y-79370672D01*
X109628899Y-79371969D01*
X109592646Y-79372289D01*
X109563000Y-79372107D01*
X109538958Y-79371317D01*
X109519517Y-79369811D01*
X109503673Y-79367481D01*
X109490424Y-79364220D01*
X109478766Y-79359920D01*
X109468152Y-79354722D01*
X109462130Y-79351422D01*
X109456555Y-79348109D01*
X109451219Y-79344414D01*
X109445916Y-79339964D01*
X109440438Y-79334390D01*
X109434579Y-79327321D01*
X109428130Y-79318386D01*
X109420886Y-79307215D01*
X109412638Y-79293437D01*
X109403181Y-79276682D01*
X109392306Y-79256579D01*
X109379806Y-79232757D01*
X109365475Y-79204846D01*
X109349106Y-79172476D01*
X109330491Y-79135275D01*
X109309423Y-79092873D01*
X109285695Y-79044900D01*
X109259100Y-78990984D01*
X109229431Y-78930756D01*
X109216206Y-78903900D01*
X109151472Y-78772442D01*
X109017076Y-79043082D01*
X108991526Y-79094531D01*
X108969099Y-79139614D01*
X108949518Y-79178788D01*
X108932505Y-79212507D01*
X108917784Y-79241228D01*
X108905076Y-79265405D01*
X108894105Y-79285494D01*
X108884593Y-79301950D01*
X108876263Y-79315228D01*
X108868837Y-79325784D01*
X108862039Y-79334072D01*
X108855591Y-79340549D01*
X108849215Y-79345669D01*
X108842634Y-79349888D01*
X108835572Y-79353660D01*
X108827750Y-79357442D01*
X108824723Y-79358880D01*
X108799955Y-79370672D01*
X108706601Y-79371374D01*
X108679662Y-79371433D01*
X108654361Y-79371217D01*
X108631989Y-79370761D01*
X108613835Y-79370095D01*
X108601190Y-79369252D01*
X108596602Y-79368638D01*
X108568157Y-79359003D01*
X108542204Y-79342872D01*
X108520044Y-79321278D01*
X108502976Y-79295252D01*
X108502220Y-79293730D01*
X108494028Y-79270577D01*
X108489927Y-79244593D01*
X108490086Y-79218572D01*
X108494676Y-79195303D01*
X108496000Y-79191584D01*
X108498924Y-79185678D01*
X108505431Y-79173666D01*
X108515251Y-79156017D01*
X108528116Y-79133200D01*
X108543757Y-79105686D01*
X108561905Y-79073943D01*
X108582291Y-79038442D01*
X108604647Y-78999651D01*
X108628703Y-78958041D01*
X108654191Y-78914080D01*
X108680841Y-78868239D01*
X108698916Y-78837218D01*
X108726023Y-78790703D01*
X108752049Y-78745979D01*
X108776735Y-78703495D01*
X108799823Y-78663698D01*
X108821056Y-78627034D01*
X108840174Y-78593951D01*
X108856919Y-78564896D01*
X108871034Y-78540316D01*
X108882260Y-78520658D01*
X108890340Y-78506370D01*
X108895014Y-78497898D01*
X108896123Y-78495662D01*
X108894491Y-78491511D01*
X108889256Y-78481185D01*
X108880646Y-78465091D01*
X108868894Y-78443642D01*
X108854228Y-78417245D01*
X108836879Y-78386312D01*
X108817078Y-78351252D01*
X108795055Y-78312474D01*
X108771040Y-78270390D01*
X108745263Y-78225407D01*
X108717954Y-78177937D01*
X108705167Y-78155769D01*
X108678214Y-78109001D01*
X108652258Y-78063801D01*
X108627565Y-78020644D01*
X108604401Y-77980001D01*
X108583033Y-77942346D01*
X108563728Y-77908151D01*
X108546752Y-77877891D01*
X108532372Y-77852038D01*
X108520854Y-77831065D01*
X108512465Y-77815445D01*
X108507472Y-77805651D01*
X108506203Y-77802724D01*
X108501977Y-77781053D01*
X108501593Y-77756182D01*
X108504866Y-77731380D01*
X108511441Y-77710295D01*
X108523968Y-77689279D01*
X108541788Y-77668961D01*
X108562719Y-77651512D01*
X108581916Y-77640279D01*
X108605626Y-77629328D01*
X108706601Y-77629406D01*
X108738098Y-77629493D01*
X108762956Y-77629738D01*
X108782155Y-77630196D01*
X108796678Y-77630920D01*
X108807506Y-77631965D01*
X108815619Y-77633385D01*
X108821998Y-77635236D01*
X108823812Y-77635919D01*
X108845334Y-77646654D01*
X108865428Y-77660641D01*
X108881453Y-77675956D01*
X108885173Y-77680660D01*
X108888499Y-77686397D01*
X108894823Y-77698440D01*
X108903861Y-77716213D01*
X108915330Y-77739144D01*
X108928947Y-77766659D01*
X108944430Y-77798183D01*
X108961496Y-77833143D01*
X108979862Y-77870966D01*
X108999244Y-77911077D01*
X109018840Y-77951817D01*
X109038731Y-77993233D01*
X109057695Y-78032655D01*
X109075470Y-78069543D01*
X109091795Y-78103357D01*
X109106406Y-78133557D01*
X109119043Y-78159601D01*
X109129444Y-78180950D01*
X109137346Y-78197062D01*
X109142489Y-78207397D01*
X109144609Y-78211416D01*
X109144623Y-78211432D01*
X109146659Y-78208563D01*
X109151751Y-78199351D01*
X109159640Y-78184313D01*
X109170063Y-78163968D01*
X109182763Y-78138834D01*
X109197477Y-78109428D01*
X109213947Y-78076270D01*
X109231911Y-78039876D01*
X109251110Y-78000765D01*
X109271284Y-77959456D01*
X109274607Y-77952630D01*
X109298347Y-77903878D01*
X109319024Y-77861493D01*
X109336897Y-77824982D01*
X109352223Y-77793854D01*
X109365261Y-77767616D01*
X109376269Y-77745776D01*
X109385507Y-77727842D01*
X109393233Y-77713321D01*
X109399704Y-77701723D01*
X109405179Y-77692553D01*
X109409917Y-77685321D01*
X109414176Y-77679534D01*
X109418215Y-77674700D01*
X109422291Y-77670327D01*
X109423468Y-77669125D01*
X109444479Y-77650920D01*
X109465856Y-77638928D01*
X109467287Y-77638338D01*
X109474253Y-77635645D01*
X109480875Y-77633549D01*
X109488196Y-77631976D01*
X109497257Y-77630852D01*
X109509097Y-77630100D01*
X109524760Y-77629647D01*
X109545285Y-77629418D01*
X109571715Y-77629336D01*
X109592515Y-77629328D01*
X109695395Y-77629328D01*
X109717183Y-77639540D01*
G36*
X107605445Y-77628833D02*
G01*
X107682389Y-77635664D01*
X107756079Y-77649231D01*
X107826380Y-77669481D01*
X107893156Y-77696359D01*
X107956271Y-77729814D01*
X108015590Y-77769790D01*
X108070977Y-77816235D01*
X108115164Y-77861093D01*
X108161082Y-77917462D01*
X108200470Y-77977742D01*
X108233302Y-78041868D01*
X108259548Y-78109777D01*
X108279183Y-78181401D01*
X108292177Y-78256678D01*
X108294840Y-78280612D01*
X108295836Y-78295225D01*
X108296687Y-78316426D01*
X108297393Y-78343181D01*
X108297955Y-78374459D01*
X108298371Y-78409227D01*
X108298644Y-78446453D01*
X108298771Y-78485105D01*
X108298754Y-78524151D01*
X108298592Y-78562558D01*
X108298286Y-78599293D01*
X108297834Y-78633326D01*
X108297238Y-78663623D01*
X108296498Y-78689152D01*
X108295612Y-78708881D01*
X108294840Y-78719387D01*
X108283895Y-78796423D01*
X108266431Y-78869518D01*
X108242432Y-78938700D01*
X108211886Y-79003996D01*
X108174779Y-79065434D01*
X108131097Y-79123039D01*
X108080827Y-79176840D01*
X108052111Y-79203293D01*
X107998301Y-79245416D01*
X107939828Y-79281708D01*
X107877056Y-79312068D01*
X107810347Y-79336392D01*
X107740066Y-79354577D01*
X107666575Y-79366522D01*
X107590240Y-79372123D01*
X107511422Y-79371279D01*
X107468227Y-79368131D01*
X107393857Y-79357524D01*
X107322308Y-79340082D01*
X107253925Y-79315991D01*
X107189050Y-79285439D01*
X107128029Y-79248613D01*
X107071204Y-79205701D01*
X107018920Y-79156889D01*
X106971520Y-79102364D01*
X106965395Y-79094419D01*
X106924533Y-79034456D01*
X106890374Y-78970947D01*
X106862891Y-78903826D01*
X106842058Y-78833025D01*
X106827848Y-78758478D01*
X106826230Y-78746527D01*
X106824696Y-78730096D01*
X106823378Y-78707062D01*
X106822276Y-78678417D01*
X106821389Y-78645152D01*
X106820717Y-78608259D01*
X106820260Y-78568732D01*
X106820018Y-78527562D01*
X106820006Y-78509280D01*
X107221078Y-78509280D01*
X107221115Y-78561143D01*
X107221744Y-78606703D01*
X107222997Y-78646611D01*
X107224903Y-78681517D01*
X107227497Y-78712069D01*
X107230808Y-78738919D01*
X107234868Y-78762717D01*
X107237343Y-78774347D01*
X107252771Y-78828854D01*
X107272877Y-78878234D01*
X107297439Y-78922218D01*
X107326233Y-78960538D01*
X107359036Y-78992923D01*
X107395625Y-79019106D01*
X107435777Y-79038818D01*
X107464633Y-79048289D01*
X107480377Y-79052449D01*
X107492883Y-79055424D01*
X107503945Y-79057384D01*
X107515354Y-79058501D01*
X107528905Y-79058948D01*
X107546388Y-79058897D01*
X107569597Y-79058518D01*
X107571108Y-79058490D01*
X107594338Y-79057965D01*
X107611893Y-79057180D01*
X107625716Y-79055863D01*
X107637752Y-79053739D01*
X107649945Y-79050536D01*
X107664241Y-79045981D01*
X107667232Y-79044981D01*
X107709728Y-79026800D01*
X107748345Y-79002164D01*
X107782921Y-78971271D01*
X107813293Y-78934317D01*
X107839299Y-78891502D01*
X107860777Y-78843023D01*
X107877565Y-78789077D01*
X107877705Y-78788525D01*
X107881465Y-78772948D01*
X107884646Y-78757824D01*
X107887294Y-78742366D01*
X107889457Y-78725784D01*
X107891181Y-78707289D01*
X107892514Y-78686093D01*
X107893503Y-78661406D01*
X107894196Y-78632440D01*
X107894639Y-78598405D01*
X107894880Y-78558513D01*
X107894966Y-78511975D01*
X107894968Y-78500000D01*
X107894912Y-78451760D01*
X107894710Y-78410353D01*
X107894318Y-78374992D01*
X107893687Y-78344889D01*
X107892770Y-78319258D01*
X107891522Y-78297311D01*
X107889895Y-78278262D01*
X107887843Y-78261322D01*
X107885318Y-78245706D01*
X107882274Y-78230625D01*
X107878664Y-78215293D01*
X107877836Y-78211992D01*
X107861037Y-78157872D01*
X107839493Y-78109239D01*
X107813360Y-78066272D01*
X107782796Y-78029154D01*
X107747956Y-77998066D01*
X107708995Y-77973190D01*
X107666072Y-77954706D01*
X107652859Y-77950555D01*
X107640396Y-77947208D01*
X107628695Y-77944831D01*
X107616053Y-77943268D01*
X107600766Y-77942365D01*
X107581132Y-77941967D01*
X107557771Y-77941914D01*
X107527087Y-77942331D01*
X107502177Y-77943666D01*
X107481216Y-77946261D01*
X107462380Y-77950455D01*
X107443845Y-77956589D01*
X107423786Y-77965003D01*
X107416787Y-77968214D01*
X107379353Y-77989786D01*
X107344993Y-78018001D01*
X107314099Y-78052366D01*
X107287065Y-78092391D01*
X107264282Y-78137584D01*
X107249090Y-78178023D01*
X107243209Y-78197061D01*
X107238273Y-78215345D01*
X107234189Y-78233794D01*
X107230864Y-78253327D01*
X107228206Y-78274861D01*
X107226122Y-78299315D01*
X107224520Y-78327608D01*
X107223306Y-78360659D01*
X107222389Y-78399385D01*
X107221675Y-78444706D01*
X107221601Y-78450465D01*
X107221078Y-78509280D01*
X106820006Y-78509280D01*
X106819990Y-78485740D01*
X106820176Y-78444260D01*
X106820577Y-78404114D01*
X106821191Y-78366293D01*
X106822020Y-78331790D01*
X106823062Y-78301597D01*
X106824317Y-78276706D01*
X106825786Y-78258110D01*
X106826324Y-78253473D01*
X106839620Y-78178853D01*
X106859553Y-78107481D01*
X106885957Y-78039656D01*
X106918670Y-77975677D01*
X106957530Y-77915846D01*
X107002372Y-77860460D01*
X107053034Y-77809820D01*
X107080728Y-77786186D01*
X107135957Y-77745492D01*
X107193353Y-77711196D01*
X107253493Y-77683092D01*
X107316956Y-77660975D01*
X107384322Y-77644640D01*
X107456168Y-77633883D01*
X107525383Y-77628791D01*
X107605445Y-77628833D01*
X107605445Y-77628833D01*
G37*
X107605445Y-77628833D02*
X107682389Y-77635664D01*
X107756079Y-77649231D01*
X107826380Y-77669481D01*
X107893156Y-77696359D01*
X107956271Y-77729814D01*
X108015590Y-77769790D01*
X108070977Y-77816235D01*
X108115164Y-77861093D01*
X108161082Y-77917462D01*
X108200470Y-77977742D01*
X108233302Y-78041868D01*
X108259548Y-78109777D01*
X108279183Y-78181401D01*
X108292177Y-78256678D01*
X108294840Y-78280612D01*
X108295836Y-78295225D01*
X108296687Y-78316426D01*
X108297393Y-78343181D01*
X108297955Y-78374459D01*
X108298371Y-78409227D01*
X108298644Y-78446453D01*
X108298771Y-78485105D01*
X108298754Y-78524151D01*
X108298592Y-78562558D01*
X108298286Y-78599293D01*
X108297834Y-78633326D01*
X108297238Y-78663623D01*
X108296498Y-78689152D01*
X108295612Y-78708881D01*
X108294840Y-78719387D01*
X108283895Y-78796423D01*
X108266431Y-78869518D01*
X108242432Y-78938700D01*
X108211886Y-79003996D01*
X108174779Y-79065434D01*
X108131097Y-79123039D01*
X108080827Y-79176840D01*
X108052111Y-79203293D01*
X107998301Y-79245416D01*
X107939828Y-79281708D01*
X107877056Y-79312068D01*
X107810347Y-79336392D01*
X107740066Y-79354577D01*
X107666575Y-79366522D01*
X107590240Y-79372123D01*
X107511422Y-79371279D01*
X107468227Y-79368131D01*
X107393857Y-79357524D01*
X107322308Y-79340082D01*
X107253925Y-79315991D01*
X107189050Y-79285439D01*
X107128029Y-79248613D01*
X107071204Y-79205701D01*
X107018920Y-79156889D01*
X106971520Y-79102364D01*
X106965395Y-79094419D01*
X106924533Y-79034456D01*
X106890374Y-78970947D01*
X106862891Y-78903826D01*
X106842058Y-78833025D01*
X106827848Y-78758478D01*
X106826230Y-78746527D01*
X106824696Y-78730096D01*
X106823378Y-78707062D01*
X106822276Y-78678417D01*
X106821389Y-78645152D01*
X106820717Y-78608259D01*
X106820260Y-78568732D01*
X106820018Y-78527562D01*
X106820006Y-78509280D01*
X107221078Y-78509280D01*
X107221115Y-78561143D01*
X107221744Y-78606703D01*
X107222997Y-78646611D01*
X107224903Y-78681517D01*
X107227497Y-78712069D01*
X107230808Y-78738919D01*
X107234868Y-78762717D01*
X107237343Y-78774347D01*
X107252771Y-78828854D01*
X107272877Y-78878234D01*
X107297439Y-78922218D01*
X107326233Y-78960538D01*
X107359036Y-78992923D01*
X107395625Y-79019106D01*
X107435777Y-79038818D01*
X107464633Y-79048289D01*
X107480377Y-79052449D01*
X107492883Y-79055424D01*
X107503945Y-79057384D01*
X107515354Y-79058501D01*
X107528905Y-79058948D01*
X107546388Y-79058897D01*
X107569597Y-79058518D01*
X107571108Y-79058490D01*
X107594338Y-79057965D01*
X107611893Y-79057180D01*
X107625716Y-79055863D01*
X107637752Y-79053739D01*
X107649945Y-79050536D01*
X107664241Y-79045981D01*
X107667232Y-79044981D01*
X107709728Y-79026800D01*
X107748345Y-79002164D01*
X107782921Y-78971271D01*
X107813293Y-78934317D01*
X107839299Y-78891502D01*
X107860777Y-78843023D01*
X107877565Y-78789077D01*
X107877705Y-78788525D01*
X107881465Y-78772948D01*
X107884646Y-78757824D01*
X107887294Y-78742366D01*
X107889457Y-78725784D01*
X107891181Y-78707289D01*
X107892514Y-78686093D01*
X107893503Y-78661406D01*
X107894196Y-78632440D01*
X107894639Y-78598405D01*
X107894880Y-78558513D01*
X107894966Y-78511975D01*
X107894968Y-78500000D01*
X107894912Y-78451760D01*
X107894710Y-78410353D01*
X107894318Y-78374992D01*
X107893687Y-78344889D01*
X107892770Y-78319258D01*
X107891522Y-78297311D01*
X107889895Y-78278262D01*
X107887843Y-78261322D01*
X107885318Y-78245706D01*
X107882274Y-78230625D01*
X107878664Y-78215293D01*
X107877836Y-78211992D01*
X107861037Y-78157872D01*
X107839493Y-78109239D01*
X107813360Y-78066272D01*
X107782796Y-78029154D01*
X107747956Y-77998066D01*
X107708995Y-77973190D01*
X107666072Y-77954706D01*
X107652859Y-77950555D01*
X107640396Y-77947208D01*
X107628695Y-77944831D01*
X107616053Y-77943268D01*
X107600766Y-77942365D01*
X107581132Y-77941967D01*
X107557771Y-77941914D01*
X107527087Y-77942331D01*
X107502177Y-77943666D01*
X107481216Y-77946261D01*
X107462380Y-77950455D01*
X107443845Y-77956589D01*
X107423786Y-77965003D01*
X107416787Y-77968214D01*
X107379353Y-77989786D01*
X107344993Y-78018001D01*
X107314099Y-78052366D01*
X107287065Y-78092391D01*
X107264282Y-78137584D01*
X107249090Y-78178023D01*
X107243209Y-78197061D01*
X107238273Y-78215345D01*
X107234189Y-78233794D01*
X107230864Y-78253327D01*
X107228206Y-78274861D01*
X107226122Y-78299315D01*
X107224520Y-78327608D01*
X107223306Y-78360659D01*
X107222389Y-78399385D01*
X107221675Y-78444706D01*
X107221601Y-78450465D01*
X107221078Y-78509280D01*
X106820006Y-78509280D01*
X106819990Y-78485740D01*
X106820176Y-78444260D01*
X106820577Y-78404114D01*
X106821191Y-78366293D01*
X106822020Y-78331790D01*
X106823062Y-78301597D01*
X106824317Y-78276706D01*
X106825786Y-78258110D01*
X106826324Y-78253473D01*
X106839620Y-78178853D01*
X106859553Y-78107481D01*
X106885957Y-78039656D01*
X106918670Y-77975677D01*
X106957530Y-77915846D01*
X107002372Y-77860460D01*
X107053034Y-77809820D01*
X107080728Y-77786186D01*
X107135957Y-77745492D01*
X107193353Y-77711196D01*
X107253493Y-77683092D01*
X107316956Y-77660975D01*
X107384322Y-77644640D01*
X107456168Y-77633883D01*
X107525383Y-77628791D01*
X107605445Y-77628833D01*
G36*
X105591771Y-77627909D02*
G01*
X105643516Y-77628106D01*
X105702267Y-77628377D01*
X105717357Y-77628450D01*
X105778502Y-77628755D01*
X105832598Y-77629060D01*
X105880216Y-77629397D01*
X105921928Y-77629796D01*
X105958306Y-77630289D01*
X105989921Y-77630907D01*
X106017345Y-77631683D01*
X106041149Y-77632647D01*
X106061906Y-77633831D01*
X106080186Y-77635266D01*
X106096562Y-77636984D01*
X106111604Y-77639017D01*
X106125885Y-77641396D01*
X106139975Y-77644152D01*
X106154448Y-77647316D01*
X106169873Y-77650921D01*
X106183068Y-77654091D01*
X106249110Y-77673448D01*
X106311013Y-77698504D01*
X106368443Y-77728976D01*
X106421064Y-77764581D01*
X106468543Y-77805036D01*
X106510545Y-77850060D01*
X106546736Y-77899368D01*
X106576781Y-77952677D01*
X106598998Y-78005838D01*
X106608157Y-78033227D01*
X106615221Y-78058199D01*
X106620439Y-78082443D01*
X106624057Y-78107648D01*
X106626322Y-78135507D01*
X106627481Y-78167707D01*
X106627782Y-78202790D01*
X106627692Y-78232266D01*
X106627356Y-78255586D01*
X106626673Y-78274213D01*
X106625545Y-78289610D01*
X106623872Y-78303242D01*
X106621555Y-78316571D01*
X106619313Y-78327345D01*
X106604243Y-78384354D01*
X106584795Y-78435999D01*
X106560248Y-78483601D01*
X106529886Y-78528480D01*
X106492991Y-78571955D01*
X106477612Y-78587876D01*
X106432817Y-78628648D01*
X106384916Y-78663956D01*
X106333298Y-78694089D01*
X106277351Y-78719334D01*
X106216463Y-78739978D01*
X106150022Y-78756310D01*
X106100058Y-78765302D01*
X106089254Y-78766770D01*
X106076593Y-78768035D01*
X106061390Y-78769120D01*
X106042959Y-78770046D01*
X106020618Y-78770838D01*
X105993681Y-78771516D01*
X105961464Y-78772104D01*
X105923282Y-78772624D01*
X105878451Y-78773099D01*
X105857494Y-78773290D01*
X105654696Y-78775071D01*
X105653638Y-79025241D01*
X105652581Y-79275412D01*
X105641834Y-79295820D01*
X105623508Y-79322751D01*
X105600025Y-79344401D01*
X105572247Y-79360134D01*
X105543183Y-79368919D01*
X105530995Y-79370372D01*
X105513076Y-79371404D01*
X105491003Y-79372029D01*
X105466351Y-79372261D01*
X105440698Y-79372115D01*
X105415619Y-79371605D01*
X105392692Y-79370746D01*
X105373491Y-79369550D01*
X105359594Y-79368033D01*
X105355371Y-79367221D01*
X105325393Y-79356033D01*
X105299197Y-79338574D01*
X105277703Y-79315604D01*
X105263463Y-79291547D01*
X105252491Y-79267792D01*
X105252491Y-78462296D01*
X105654486Y-78462296D01*
X105840242Y-78460971D01*
X105882763Y-78460658D01*
X105918395Y-78460354D01*
X105947868Y-78460025D01*
X105971915Y-78459638D01*
X105991265Y-78459158D01*
X106006650Y-78458551D01*
X106018802Y-78457783D01*
X106028452Y-78456820D01*
X106036329Y-78455628D01*
X106043167Y-78454173D01*
X106049696Y-78452420D01*
X106054549Y-78450975D01*
X106095187Y-78434951D01*
X106130939Y-78413160D01*
X106161546Y-78385856D01*
X106186748Y-78353288D01*
X106206285Y-78315710D01*
X106213249Y-78296962D01*
X106217287Y-78284046D01*
X106220129Y-78272648D01*
X106221990Y-78260924D01*
X106223087Y-78247028D01*
X106223637Y-78229116D01*
X106223850Y-78206600D01*
X106223540Y-78176115D01*
X106222015Y-78151235D01*
X106218881Y-78129989D01*
X106213745Y-78110404D01*
X106206212Y-78090509D01*
X106196428Y-78069427D01*
X106184487Y-78048577D01*
X106169226Y-78028683D01*
X106153715Y-78012106D01*
X106128550Y-77989462D01*
X106102848Y-77972195D01*
X106074017Y-77958764D01*
X106050738Y-77950866D01*
X106043928Y-77948886D01*
X106037295Y-77947228D01*
X106030101Y-77945857D01*
X106021610Y-77944737D01*
X106011085Y-77943834D01*
X105997791Y-77943113D01*
X105980990Y-77942539D01*
X105959945Y-77942077D01*
X105933922Y-77941692D01*
X105902181Y-77941350D01*
X105863989Y-77941015D01*
X105838337Y-77940809D01*
X105654486Y-77939352D01*
X105654486Y-78462296D01*
X105252491Y-78462296D01*
X105252491Y-77732208D01*
X105263463Y-77708453D01*
X105277471Y-77685340D01*
X105296434Y-77664224D01*
X105318060Y-77647516D01*
X105325393Y-77643378D01*
X105331105Y-77640572D01*
X105336881Y-77638103D01*
X105343219Y-77635952D01*
X105350614Y-77634101D01*
X105359562Y-77632530D01*
X105370558Y-77631221D01*
X105384098Y-77630155D01*
X105400679Y-77629313D01*
X105420796Y-77628677D01*
X105444944Y-77628226D01*
X105473620Y-77627943D01*
X105507319Y-77627808D01*
X105546538Y-77627803D01*
X105591771Y-77627909D01*
X105591771Y-77627909D01*
G37*
X105591771Y-77627909D02*
X105643516Y-77628106D01*
X105702267Y-77628377D01*
X105717357Y-77628450D01*
X105778502Y-77628755D01*
X105832598Y-77629060D01*
X105880216Y-77629397D01*
X105921928Y-77629796D01*
X105958306Y-77630289D01*
X105989921Y-77630907D01*
X106017345Y-77631683D01*
X106041149Y-77632647D01*
X106061906Y-77633831D01*
X106080186Y-77635266D01*
X106096562Y-77636984D01*
X106111604Y-77639017D01*
X106125885Y-77641396D01*
X106139975Y-77644152D01*
X106154448Y-77647316D01*
X106169873Y-77650921D01*
X106183068Y-77654091D01*
X106249110Y-77673448D01*
X106311013Y-77698504D01*
X106368443Y-77728976D01*
X106421064Y-77764581D01*
X106468543Y-77805036D01*
X106510545Y-77850060D01*
X106546736Y-77899368D01*
X106576781Y-77952677D01*
X106598998Y-78005838D01*
X106608157Y-78033227D01*
X106615221Y-78058199D01*
X106620439Y-78082443D01*
X106624057Y-78107648D01*
X106626322Y-78135507D01*
X106627481Y-78167707D01*
X106627782Y-78202790D01*
X106627692Y-78232266D01*
X106627356Y-78255586D01*
X106626673Y-78274213D01*
X106625545Y-78289610D01*
X106623872Y-78303242D01*
X106621555Y-78316571D01*
X106619313Y-78327345D01*
X106604243Y-78384354D01*
X106584795Y-78435999D01*
X106560248Y-78483601D01*
X106529886Y-78528480D01*
X106492991Y-78571955D01*
X106477612Y-78587876D01*
X106432817Y-78628648D01*
X106384916Y-78663956D01*
X106333298Y-78694089D01*
X106277351Y-78719334D01*
X106216463Y-78739978D01*
X106150022Y-78756310D01*
X106100058Y-78765302D01*
X106089254Y-78766770D01*
X106076593Y-78768035D01*
X106061390Y-78769120D01*
X106042959Y-78770046D01*
X106020618Y-78770838D01*
X105993681Y-78771516D01*
X105961464Y-78772104D01*
X105923282Y-78772624D01*
X105878451Y-78773099D01*
X105857494Y-78773290D01*
X105654696Y-78775071D01*
X105653638Y-79025241D01*
X105652581Y-79275412D01*
X105641834Y-79295820D01*
X105623508Y-79322751D01*
X105600025Y-79344401D01*
X105572247Y-79360134D01*
X105543183Y-79368919D01*
X105530995Y-79370372D01*
X105513076Y-79371404D01*
X105491003Y-79372029D01*
X105466351Y-79372261D01*
X105440698Y-79372115D01*
X105415619Y-79371605D01*
X105392692Y-79370746D01*
X105373491Y-79369550D01*
X105359594Y-79368033D01*
X105355371Y-79367221D01*
X105325393Y-79356033D01*
X105299197Y-79338574D01*
X105277703Y-79315604D01*
X105263463Y-79291547D01*
X105252491Y-79267792D01*
X105252491Y-78462296D01*
X105654486Y-78462296D01*
X105840242Y-78460971D01*
X105882763Y-78460658D01*
X105918395Y-78460354D01*
X105947868Y-78460025D01*
X105971915Y-78459638D01*
X105991265Y-78459158D01*
X106006650Y-78458551D01*
X106018802Y-78457783D01*
X106028452Y-78456820D01*
X106036329Y-78455628D01*
X106043167Y-78454173D01*
X106049696Y-78452420D01*
X106054549Y-78450975D01*
X106095187Y-78434951D01*
X106130939Y-78413160D01*
X106161546Y-78385856D01*
X106186748Y-78353288D01*
X106206285Y-78315710D01*
X106213249Y-78296962D01*
X106217287Y-78284046D01*
X106220129Y-78272648D01*
X106221990Y-78260924D01*
X106223087Y-78247028D01*
X106223637Y-78229116D01*
X106223850Y-78206600D01*
X106223540Y-78176115D01*
X106222015Y-78151235D01*
X106218881Y-78129989D01*
X106213745Y-78110404D01*
X106206212Y-78090509D01*
X106196428Y-78069427D01*
X106184487Y-78048577D01*
X106169226Y-78028683D01*
X106153715Y-78012106D01*
X106128550Y-77989462D01*
X106102848Y-77972195D01*
X106074017Y-77958764D01*
X106050738Y-77950866D01*
X106043928Y-77948886D01*
X106037295Y-77947228D01*
X106030101Y-77945857D01*
X106021610Y-77944737D01*
X106011085Y-77943834D01*
X105997791Y-77943113D01*
X105980990Y-77942539D01*
X105959945Y-77942077D01*
X105933922Y-77941692D01*
X105902181Y-77941350D01*
X105863989Y-77941015D01*
X105838337Y-77940809D01*
X105654486Y-77939352D01*
X105654486Y-78462296D01*
X105252491Y-78462296D01*
X105252491Y-77732208D01*
X105263463Y-77708453D01*
X105277471Y-77685340D01*
X105296434Y-77664224D01*
X105318060Y-77647516D01*
X105325393Y-77643378D01*
X105331105Y-77640572D01*
X105336881Y-77638103D01*
X105343219Y-77635952D01*
X105350614Y-77634101D01*
X105359562Y-77632530D01*
X105370558Y-77631221D01*
X105384098Y-77630155D01*
X105400679Y-77629313D01*
X105420796Y-77628677D01*
X105444944Y-77628226D01*
X105473620Y-77627943D01*
X105507319Y-77627808D01*
X105546538Y-77627803D01*
X105591771Y-77627909D01*
D11*
X109040000Y-70500000D02*
X109040000Y-73185000D01*
X109040000Y-73185000D02*
X110960000Y-73185000D01*
X110960000Y-73185000D02*
X110960000Y-70500000D01*
X107040000Y-70500000D02*
X107040000Y-73185000D01*
X107040000Y-73185000D02*
X108960000Y-73185000D01*
X108960000Y-73185000D02*
X108960000Y-70500000D01*
X111485000Y-87415000D02*
X107400000Y-87415000D01*
X111485000Y-89585000D02*
X111485000Y-87415000D01*
X107400000Y-89585000D02*
X111485000Y-89585000D01*
M02*
