G04 #@! TF.GenerationSoftware,KiCad,Pcbnew,(5.1.0-0)*
G04 #@! TF.CreationDate,2020-06-22T10:40:38+02:00*
G04 #@! TF.ProjectId,POxiM-fingersensor,504f7869-4d2d-4666-996e-67657273656e,Test proto*
G04 #@! TF.SameCoordinates,Original*
G04 #@! TF.FileFunction,Copper,L2,Bot*
G04 #@! TF.FilePolarity,Positive*
%FSLAX46Y46*%
G04 Gerber Fmt 4.6, Leading zero omitted, Abs format (unit mm)*
G04 Created by KiCad (PCBNEW (5.1.0-0)) date 2020-06-22 10:40:38*
%MOMM*%
%LPD*%
G04 APERTURE LIST*
%ADD10C,0.800000*%
%ADD11C,1.800000*%
%ADD12C,0.250000*%
G04 APERTURE END LIST*
D10*
X105250000Y-74750000D03*
X108250000Y-74750000D03*
X108250000Y-76000000D03*
X106750000Y-76000000D03*
X107500000Y-75375000D03*
X106000000Y-75375000D03*
X105250000Y-80250000D03*
X108250000Y-80250000D03*
X106750000Y-80250000D03*
X105250000Y-82000000D03*
X108250000Y-82000000D03*
D11*
X106750000Y-82250000D03*
D10*
X106000000Y-81125000D03*
X107500000Y-81125000D03*
X105250000Y-76000000D03*
D11*
X106750000Y-74250000D03*
D10*
X112000000Y-75375000D03*
X109750000Y-76000000D03*
X112750000Y-74750000D03*
X112750000Y-76000000D03*
X110500000Y-75375000D03*
X111250000Y-76000000D03*
X109750000Y-74750000D03*
X112000000Y-81125000D03*
X109750000Y-82000000D03*
X110500000Y-81125000D03*
X112750000Y-80250000D03*
X109750000Y-80250000D03*
X111250000Y-80250000D03*
X112750000Y-82000000D03*
D11*
X111250000Y-82250000D03*
X111250000Y-74250000D03*
D12*
G36*
X108625000Y-73801776D02*
G01*
X108625000Y-76475000D01*
X104875000Y-76475000D01*
X104875000Y-73125000D01*
X107948224Y-73125000D01*
X108625000Y-73801776D01*
X108625000Y-73801776D01*
G37*
X108625000Y-73801776D02*
X108625000Y-76475000D01*
X104875000Y-76475000D01*
X104875000Y-73125000D01*
X107948224Y-73125000D01*
X108625000Y-73801776D01*
G36*
X113175000Y-76475000D02*
G01*
X109275000Y-76475000D01*
X109275000Y-73125000D01*
X113175000Y-73125000D01*
X113175000Y-76475000D01*
X113175000Y-76475000D01*
G37*
X113175000Y-76475000D02*
X109275000Y-76475000D01*
X109275000Y-73125000D01*
X113175000Y-73125000D01*
X113175000Y-76475000D01*
G36*
X113175000Y-76075000D02*
G01*
X109275000Y-76075000D01*
X109275000Y-73750000D01*
X109264912Y-73647578D01*
X109235037Y-73549091D01*
X109186522Y-73458326D01*
X109121231Y-73378769D01*
X108371231Y-72628769D01*
X108291674Y-72563478D01*
X108200909Y-72514963D01*
X108102422Y-72485088D01*
X108000000Y-72475000D01*
X104825000Y-72475000D01*
X104825000Y-57325000D01*
X113175001Y-57325000D01*
X113175000Y-76075000D01*
X113175000Y-76075000D01*
G37*
X113175000Y-76075000D02*
X109275000Y-76075000D01*
X109275000Y-73750000D01*
X109264912Y-73647578D01*
X109235037Y-73549091D01*
X109186522Y-73458326D01*
X109121231Y-73378769D01*
X108371231Y-72628769D01*
X108291674Y-72563478D01*
X108200909Y-72514963D01*
X108102422Y-72485088D01*
X108000000Y-72475000D01*
X104825000Y-72475000D01*
X104825000Y-57325000D01*
X113175001Y-57325000D01*
X113175000Y-76075000D01*
G36*
X113175000Y-92175000D02*
G01*
X109375000Y-92175000D01*
X109375000Y-79825000D01*
X113175001Y-79825000D01*
X113175000Y-92175000D01*
X113175000Y-92175000D01*
G37*
X113175000Y-92175000D02*
X109375000Y-92175000D01*
X109375000Y-79825000D01*
X113175001Y-79825000D01*
X113175000Y-92175000D01*
G36*
X108625000Y-92175000D02*
G01*
X104825000Y-92175000D01*
X104825000Y-79825000D01*
X108625000Y-79825000D01*
X108625000Y-92175000D01*
X108625000Y-92175000D01*
G37*
X108625000Y-92175000D02*
X104825000Y-92175000D01*
X104825000Y-79825000D01*
X108625000Y-79825000D01*
X108625000Y-92175000D01*
M02*
