G04 #@! TF.GenerationSoftware,KiCad,Pcbnew,(5.1.0-0)*
G04 #@! TF.CreationDate,2020-06-22T10:40:38+02:00*
G04 #@! TF.ProjectId,POxiM-fingersensor,504f7869-4d2d-4666-996e-67657273656e,Test proto*
G04 #@! TF.SameCoordinates,Original*
G04 #@! TF.FileFunction,Other,Fab,Top*
%FSLAX46Y46*%
G04 Gerber Fmt 4.6, Leading zero omitted, Abs format (unit mm)*
G04 Created by KiCad (PCBNEW (5.1.0-0)) date 2020-06-22 10:40:38*
%MOMM*%
%LPD*%
G04 APERTURE LIST*
%ADD10C,0.100000*%
%ADD11C,0.150000*%
%ADD12C,0.080000*%
%ADD13C,0.120000*%
G04 APERTURE END LIST*
D10*
X109400000Y-68000000D02*
X109400000Y-69700000D01*
X109400000Y-69700000D02*
X109700000Y-70000000D01*
X109700000Y-70000000D02*
X110600000Y-70000000D01*
X110600000Y-70000000D02*
X110600000Y-68000000D01*
X110600000Y-68000000D02*
X109400000Y-68000000D01*
X107400000Y-68000000D02*
X107400000Y-69700000D01*
X107400000Y-69700000D02*
X107700000Y-70000000D01*
X107700000Y-70000000D02*
X108600000Y-70000000D01*
X108600000Y-70000000D02*
X108600000Y-68000000D01*
X108600000Y-68000000D02*
X107400000Y-68000000D01*
X107400000Y-87700000D02*
X107400000Y-89300000D01*
X110600000Y-87700000D02*
X107400000Y-87700000D01*
X110600000Y-88900000D02*
X110600000Y-87700000D01*
X110200000Y-89300000D02*
X110600000Y-88900000D01*
X107400000Y-89300000D02*
X110200000Y-89300000D01*
D11*
X100988095Y-55452380D02*
X101559523Y-55452380D01*
X101273809Y-56452380D02*
X101273809Y-55452380D01*
X102035714Y-56452380D02*
X101940476Y-56404761D01*
X101892857Y-56357142D01*
X101845238Y-56261904D01*
X101845238Y-55976190D01*
X101892857Y-55880952D01*
X101940476Y-55833333D01*
X102035714Y-55785714D01*
X102178571Y-55785714D01*
X102273809Y-55833333D01*
X102321428Y-55880952D01*
X102369047Y-55976190D01*
X102369047Y-56261904D01*
X102321428Y-56357142D01*
X102273809Y-56404761D01*
X102178571Y-56452380D01*
X102035714Y-56452380D01*
X103559523Y-56452380D02*
X103559523Y-55785714D01*
X103559523Y-55976190D02*
X103607142Y-55880952D01*
X103654761Y-55833333D01*
X103750000Y-55785714D01*
X103845238Y-55785714D01*
X104559523Y-56404761D02*
X104464285Y-56452380D01*
X104273809Y-56452380D01*
X104178571Y-56404761D01*
X104130952Y-56309523D01*
X104130952Y-55928571D01*
X104178571Y-55833333D01*
X104273809Y-55785714D01*
X104464285Y-55785714D01*
X104559523Y-55833333D01*
X104607142Y-55928571D01*
X104607142Y-56023809D01*
X104130952Y-56119047D01*
X105464285Y-56452380D02*
X105464285Y-55928571D01*
X105416666Y-55833333D01*
X105321428Y-55785714D01*
X105130952Y-55785714D01*
X105035714Y-55833333D01*
X105464285Y-56404761D02*
X105369047Y-56452380D01*
X105130952Y-56452380D01*
X105035714Y-56404761D01*
X104988095Y-56309523D01*
X104988095Y-56214285D01*
X105035714Y-56119047D01*
X105130952Y-56071428D01*
X105369047Y-56071428D01*
X105464285Y-56023809D01*
X106369047Y-56452380D02*
X106369047Y-55452380D01*
X106369047Y-56404761D02*
X106273809Y-56452380D01*
X106083333Y-56452380D01*
X105988095Y-56404761D01*
X105940476Y-56357142D01*
X105892857Y-56261904D01*
X105892857Y-55976190D01*
X105940476Y-55880952D01*
X105988095Y-55833333D01*
X106083333Y-55785714D01*
X106273809Y-55785714D01*
X106369047Y-55833333D01*
X106988095Y-56452380D02*
X106892857Y-56404761D01*
X106845238Y-56357142D01*
X106797619Y-56261904D01*
X106797619Y-55976190D01*
X106845238Y-55880952D01*
X106892857Y-55833333D01*
X106988095Y-55785714D01*
X107130952Y-55785714D01*
X107226190Y-55833333D01*
X107273809Y-55880952D01*
X107321428Y-55976190D01*
X107321428Y-56261904D01*
X107273809Y-56357142D01*
X107226190Y-56404761D01*
X107130952Y-56452380D01*
X106988095Y-56452380D01*
X108178571Y-55785714D02*
X108178571Y-56452380D01*
X107750000Y-55785714D02*
X107750000Y-56309523D01*
X107797619Y-56404761D01*
X107892857Y-56452380D01*
X108035714Y-56452380D01*
X108130952Y-56404761D01*
X108178571Y-56357142D01*
X108511904Y-55785714D02*
X108892857Y-55785714D01*
X108654761Y-55452380D02*
X108654761Y-56309523D01*
X108702380Y-56404761D01*
X108797619Y-56452380D01*
X108892857Y-56452380D01*
X110416666Y-55785714D02*
X110416666Y-56452380D01*
X109988095Y-55785714D02*
X109988095Y-56309523D01*
X110035714Y-56404761D01*
X110130952Y-56452380D01*
X110273809Y-56452380D01*
X110369047Y-56404761D01*
X110416666Y-56357142D01*
X110892857Y-55785714D02*
X110892857Y-56452380D01*
X110892857Y-55880952D02*
X110940476Y-55833333D01*
X111035714Y-55785714D01*
X111178571Y-55785714D01*
X111273809Y-55833333D01*
X111321428Y-55928571D01*
X111321428Y-56452380D01*
X111797619Y-56452380D02*
X111797619Y-55785714D01*
X111797619Y-55452380D02*
X111750000Y-55500000D01*
X111797619Y-55547619D01*
X111845238Y-55500000D01*
X111797619Y-55452380D01*
X111797619Y-55547619D01*
X112130952Y-55785714D02*
X112511904Y-55785714D01*
X112273809Y-55452380D02*
X112273809Y-56309523D01*
X112321428Y-56404761D01*
X112416666Y-56452380D01*
X112511904Y-56452380D01*
X110452380Y-79490357D02*
X109976190Y-79823690D01*
X110452380Y-80061785D02*
X109452380Y-80061785D01*
X109452380Y-79680833D01*
X109500000Y-79585595D01*
X109547619Y-79537976D01*
X109642857Y-79490357D01*
X109785714Y-79490357D01*
X109880952Y-79537976D01*
X109928571Y-79585595D01*
X109976190Y-79680833D01*
X109976190Y-80061785D01*
X110404761Y-78680833D02*
X110452380Y-78776071D01*
X110452380Y-78966547D01*
X110404761Y-79061785D01*
X110309523Y-79109404D01*
X109928571Y-79109404D01*
X109833333Y-79061785D01*
X109785714Y-78966547D01*
X109785714Y-78776071D01*
X109833333Y-78680833D01*
X109928571Y-78633214D01*
X110023809Y-78633214D01*
X110119047Y-79109404D01*
X110452380Y-77776071D02*
X109452380Y-77776071D01*
X110404761Y-77776071D02*
X110452380Y-77871309D01*
X110452380Y-78061785D01*
X110404761Y-78157023D01*
X110357142Y-78204642D01*
X110261904Y-78252261D01*
X109976190Y-78252261D01*
X109880952Y-78204642D01*
X109833333Y-78157023D01*
X109785714Y-78061785D01*
X109785714Y-77871309D01*
X109833333Y-77776071D01*
X110833333Y-76252261D02*
X110785714Y-76299880D01*
X110642857Y-76395119D01*
X110547619Y-76442738D01*
X110404761Y-76490357D01*
X110166666Y-76537976D01*
X109976190Y-76537976D01*
X109738095Y-76490357D01*
X109595238Y-76442738D01*
X109500000Y-76395119D01*
X109357142Y-76299880D01*
X109309523Y-76252261D01*
X109452380Y-75442738D02*
X109452380Y-75633214D01*
X109500000Y-75728452D01*
X109547619Y-75776071D01*
X109690476Y-75871309D01*
X109880952Y-75918928D01*
X110261904Y-75918928D01*
X110357142Y-75871309D01*
X110404761Y-75823690D01*
X110452380Y-75728452D01*
X110452380Y-75537976D01*
X110404761Y-75442738D01*
X110357142Y-75395119D01*
X110261904Y-75347500D01*
X110023809Y-75347500D01*
X109928571Y-75395119D01*
X109880952Y-75442738D01*
X109833333Y-75537976D01*
X109833333Y-75728452D01*
X109880952Y-75823690D01*
X109928571Y-75871309D01*
X110023809Y-75918928D01*
X109452380Y-74490357D02*
X109452380Y-74680833D01*
X109500000Y-74776071D01*
X109547619Y-74823690D01*
X109690476Y-74918928D01*
X109880952Y-74966547D01*
X110261904Y-74966547D01*
X110357142Y-74918928D01*
X110404761Y-74871309D01*
X110452380Y-74776071D01*
X110452380Y-74585595D01*
X110404761Y-74490357D01*
X110357142Y-74442738D01*
X110261904Y-74395119D01*
X110023809Y-74395119D01*
X109928571Y-74442738D01*
X109880952Y-74490357D01*
X109833333Y-74585595D01*
X109833333Y-74776071D01*
X109880952Y-74871309D01*
X109928571Y-74918928D01*
X110023809Y-74966547D01*
X109452380Y-73776071D02*
X109452380Y-73680833D01*
X109500000Y-73585595D01*
X109547619Y-73537976D01*
X109642857Y-73490357D01*
X109833333Y-73442738D01*
X110071428Y-73442738D01*
X110261904Y-73490357D01*
X110357142Y-73537976D01*
X110404761Y-73585595D01*
X110452380Y-73680833D01*
X110452380Y-73776071D01*
X110404761Y-73871309D01*
X110357142Y-73918928D01*
X110261904Y-73966547D01*
X110071428Y-74014166D01*
X109833333Y-74014166D01*
X109642857Y-73966547D01*
X109547619Y-73918928D01*
X109500000Y-73871309D01*
X109452380Y-73776071D01*
X109785714Y-73014166D02*
X110452380Y-73014166D01*
X109880952Y-73014166D02*
X109833333Y-72966547D01*
X109785714Y-72871309D01*
X109785714Y-72728452D01*
X109833333Y-72633214D01*
X109928571Y-72585595D01*
X110452380Y-72585595D01*
X110452380Y-72109404D02*
X109785714Y-72109404D01*
X109880952Y-72109404D02*
X109833333Y-72061785D01*
X109785714Y-71966547D01*
X109785714Y-71823690D01*
X109833333Y-71728452D01*
X109928571Y-71680833D01*
X110452380Y-71680833D01*
X109928571Y-71680833D02*
X109833333Y-71633214D01*
X109785714Y-71537976D01*
X109785714Y-71395119D01*
X109833333Y-71299880D01*
X109928571Y-71252261D01*
X110452380Y-71252261D01*
X110833333Y-70871309D02*
X110785714Y-70823690D01*
X110642857Y-70728452D01*
X110547619Y-70680833D01*
X110404761Y-70633214D01*
X110166666Y-70585595D01*
X109976190Y-70585595D01*
X109738095Y-70633214D01*
X109595238Y-70680833D01*
X109500000Y-70728452D01*
X109357142Y-70823690D01*
X109309523Y-70871309D01*
D12*
X110226190Y-69369047D02*
X109726190Y-69369047D01*
X109726190Y-69250000D01*
X109750000Y-69178571D01*
X109797619Y-69130952D01*
X109845238Y-69107142D01*
X109940476Y-69083333D01*
X110011904Y-69083333D01*
X110107142Y-69107142D01*
X110154761Y-69130952D01*
X110202380Y-69178571D01*
X110226190Y-69250000D01*
X110226190Y-69369047D01*
X109726190Y-68916666D02*
X109726190Y-68607142D01*
X109916666Y-68773809D01*
X109916666Y-68702380D01*
X109940476Y-68654761D01*
X109964285Y-68630952D01*
X110011904Y-68607142D01*
X110130952Y-68607142D01*
X110178571Y-68630952D01*
X110202380Y-68654761D01*
X110226190Y-68702380D01*
X110226190Y-68845238D01*
X110202380Y-68892857D01*
X110178571Y-68916666D01*
D11*
X108452380Y-78776071D02*
X107452380Y-78776071D01*
X108452380Y-77728452D02*
X107976190Y-78061785D01*
X108452380Y-78299880D02*
X107452380Y-78299880D01*
X107452380Y-77918928D01*
X107500000Y-77823690D01*
X107547619Y-77776071D01*
X107642857Y-77728452D01*
X107785714Y-77728452D01*
X107880952Y-77776071D01*
X107928571Y-77823690D01*
X107976190Y-77918928D01*
X107976190Y-78299880D01*
X108833333Y-76252261D02*
X108785714Y-76299880D01*
X108642857Y-76395119D01*
X108547619Y-76442738D01*
X108404761Y-76490357D01*
X108166666Y-76537976D01*
X107976190Y-76537976D01*
X107738095Y-76490357D01*
X107595238Y-76442738D01*
X107500000Y-76395119D01*
X107357142Y-76299880D01*
X107309523Y-76252261D01*
X108452380Y-75823690D02*
X108452380Y-75633214D01*
X108404761Y-75537976D01*
X108357142Y-75490357D01*
X108214285Y-75395119D01*
X108023809Y-75347500D01*
X107642857Y-75347500D01*
X107547619Y-75395119D01*
X107500000Y-75442738D01*
X107452380Y-75537976D01*
X107452380Y-75728452D01*
X107500000Y-75823690D01*
X107547619Y-75871309D01*
X107642857Y-75918928D01*
X107880952Y-75918928D01*
X107976190Y-75871309D01*
X108023809Y-75823690D01*
X108071428Y-75728452D01*
X108071428Y-75537976D01*
X108023809Y-75442738D01*
X107976190Y-75395119D01*
X107880952Y-75347500D01*
X107785714Y-74490357D02*
X108452380Y-74490357D01*
X107404761Y-74728452D02*
X108119047Y-74966547D01*
X108119047Y-74347500D01*
X107452380Y-73776071D02*
X107452380Y-73680833D01*
X107500000Y-73585595D01*
X107547619Y-73537976D01*
X107642857Y-73490357D01*
X107833333Y-73442738D01*
X108071428Y-73442738D01*
X108261904Y-73490357D01*
X108357142Y-73537976D01*
X108404761Y-73585595D01*
X108452380Y-73680833D01*
X108452380Y-73776071D01*
X108404761Y-73871309D01*
X108357142Y-73918928D01*
X108261904Y-73966547D01*
X108071428Y-74014166D01*
X107833333Y-74014166D01*
X107642857Y-73966547D01*
X107547619Y-73918928D01*
X107500000Y-73871309D01*
X107452380Y-73776071D01*
X107785714Y-73014166D02*
X108452380Y-73014166D01*
X107880952Y-73014166D02*
X107833333Y-72966547D01*
X107785714Y-72871309D01*
X107785714Y-72728452D01*
X107833333Y-72633214D01*
X107928571Y-72585595D01*
X108452380Y-72585595D01*
X108452380Y-72109404D02*
X107785714Y-72109404D01*
X107880952Y-72109404D02*
X107833333Y-72061785D01*
X107785714Y-71966547D01*
X107785714Y-71823690D01*
X107833333Y-71728452D01*
X107928571Y-71680833D01*
X108452380Y-71680833D01*
X107928571Y-71680833D02*
X107833333Y-71633214D01*
X107785714Y-71537976D01*
X107785714Y-71395119D01*
X107833333Y-71299880D01*
X107928571Y-71252261D01*
X108452380Y-71252261D01*
X108833333Y-70871309D02*
X108785714Y-70823690D01*
X108642857Y-70728452D01*
X108547619Y-70680833D01*
X108404761Y-70633214D01*
X108166666Y-70585595D01*
X107976190Y-70585595D01*
X107738095Y-70633214D01*
X107595238Y-70680833D01*
X107500000Y-70728452D01*
X107357142Y-70823690D01*
X107309523Y-70871309D01*
D12*
X108226190Y-69369047D02*
X107726190Y-69369047D01*
X107726190Y-69250000D01*
X107750000Y-69178571D01*
X107797619Y-69130952D01*
X107845238Y-69107142D01*
X107940476Y-69083333D01*
X108011904Y-69083333D01*
X108107142Y-69107142D01*
X108154761Y-69130952D01*
X108202380Y-69178571D01*
X108226190Y-69250000D01*
X108226190Y-69369047D01*
X107773809Y-68892857D02*
X107750000Y-68869047D01*
X107726190Y-68821428D01*
X107726190Y-68702380D01*
X107750000Y-68654761D01*
X107773809Y-68630952D01*
X107821428Y-68607142D01*
X107869047Y-68607142D01*
X107940476Y-68630952D01*
X108226190Y-68916666D01*
X108226190Y-68607142D01*
D11*
X105071428Y-87172380D02*
X105071428Y-86172380D01*
X105452380Y-86172380D01*
X105547619Y-86220000D01*
X105595238Y-86267619D01*
X105642857Y-86362857D01*
X105642857Y-86505714D01*
X105595238Y-86600952D01*
X105547619Y-86648571D01*
X105452380Y-86696190D01*
X105071428Y-86696190D01*
X106071428Y-87172380D02*
X106071428Y-86172380D01*
X106500000Y-87172380D02*
X106500000Y-86648571D01*
X106452380Y-86553333D01*
X106357142Y-86505714D01*
X106214285Y-86505714D01*
X106119047Y-86553333D01*
X106071428Y-86600952D01*
X107119047Y-87172380D02*
X107023809Y-87124761D01*
X106976190Y-87077142D01*
X106928571Y-86981904D01*
X106928571Y-86696190D01*
X106976190Y-86600952D01*
X107023809Y-86553333D01*
X107119047Y-86505714D01*
X107261904Y-86505714D01*
X107357142Y-86553333D01*
X107404761Y-86600952D01*
X107452380Y-86696190D01*
X107452380Y-86981904D01*
X107404761Y-87077142D01*
X107357142Y-87124761D01*
X107261904Y-87172380D01*
X107119047Y-87172380D01*
X107738095Y-86505714D02*
X108119047Y-86505714D01*
X107880952Y-86172380D02*
X107880952Y-87029523D01*
X107928571Y-87124761D01*
X108023809Y-87172380D01*
X108119047Y-87172380D01*
X108595238Y-87172380D02*
X108500000Y-87124761D01*
X108452380Y-87077142D01*
X108404761Y-86981904D01*
X108404761Y-86696190D01*
X108452380Y-86600952D01*
X108500000Y-86553333D01*
X108595238Y-86505714D01*
X108738095Y-86505714D01*
X108833333Y-86553333D01*
X108880952Y-86600952D01*
X108928571Y-86696190D01*
X108928571Y-86981904D01*
X108880952Y-87077142D01*
X108833333Y-87124761D01*
X108738095Y-87172380D01*
X108595238Y-87172380D01*
X109785714Y-87172380D02*
X109785714Y-86172380D01*
X109785714Y-87124761D02*
X109690476Y-87172380D01*
X109500000Y-87172380D01*
X109404761Y-87124761D01*
X109357142Y-87077142D01*
X109309523Y-86981904D01*
X109309523Y-86696190D01*
X109357142Y-86600952D01*
X109404761Y-86553333D01*
X109500000Y-86505714D01*
X109690476Y-86505714D01*
X109785714Y-86553333D01*
X110261904Y-87172380D02*
X110261904Y-86505714D01*
X110261904Y-86172380D02*
X110214285Y-86220000D01*
X110261904Y-86267619D01*
X110309523Y-86220000D01*
X110261904Y-86172380D01*
X110261904Y-86267619D01*
X110880952Y-87172380D02*
X110785714Y-87124761D01*
X110738095Y-87077142D01*
X110690476Y-86981904D01*
X110690476Y-86696190D01*
X110738095Y-86600952D01*
X110785714Y-86553333D01*
X110880952Y-86505714D01*
X111023809Y-86505714D01*
X111119047Y-86553333D01*
X111166666Y-86600952D01*
X111214285Y-86696190D01*
X111214285Y-86981904D01*
X111166666Y-87077142D01*
X111119047Y-87124761D01*
X111023809Y-87172380D01*
X110880952Y-87172380D01*
X112071428Y-87172380D02*
X112071428Y-86172380D01*
X112071428Y-87124761D02*
X111976190Y-87172380D01*
X111785714Y-87172380D01*
X111690476Y-87124761D01*
X111642857Y-87077142D01*
X111595238Y-86981904D01*
X111595238Y-86696190D01*
X111642857Y-86600952D01*
X111690476Y-86553333D01*
X111785714Y-86505714D01*
X111976190Y-86505714D01*
X112071428Y-86553333D01*
X112928571Y-87124761D02*
X112833333Y-87172380D01*
X112642857Y-87172380D01*
X112547619Y-87124761D01*
X112500000Y-87029523D01*
X112500000Y-86648571D01*
X112547619Y-86553333D01*
X112642857Y-86505714D01*
X112833333Y-86505714D01*
X112928571Y-86553333D01*
X112976190Y-86648571D01*
X112976190Y-86743809D01*
X112500000Y-86839047D01*
D13*
X108409523Y-88861904D02*
X108409523Y-88061904D01*
X108600000Y-88061904D01*
X108714285Y-88100000D01*
X108790476Y-88176190D01*
X108828571Y-88252380D01*
X108866666Y-88404761D01*
X108866666Y-88519047D01*
X108828571Y-88671428D01*
X108790476Y-88747619D01*
X108714285Y-88823809D01*
X108600000Y-88861904D01*
X108409523Y-88861904D01*
X109628571Y-88861904D02*
X109171428Y-88861904D01*
X109400000Y-88861904D02*
X109400000Y-88061904D01*
X109323809Y-88176190D01*
X109247619Y-88252380D01*
X109171428Y-88290476D01*
M02*
