G04 #@! TF.GenerationSoftware,KiCad,Pcbnew,(5.1.0-0)*
G04 #@! TF.CreationDate,2020-07-01T23:51:59+02:00*
G04 #@! TF.ProjectId,POxiM-fingersensor,504f7869-4d2d-4666-996e-67657273656e,Test proto*
G04 #@! TF.SameCoordinates,Original*
G04 #@! TF.FileFunction,Paste,Top*
G04 #@! TF.FilePolarity,Positive*
%FSLAX46Y46*%
G04 Gerber Fmt 4.6, Leading zero omitted, Abs format (unit mm)*
G04 Created by KiCad (PCBNEW (5.1.0-0)) date 2020-07-01 23:51:59*
%MOMM*%
%LPD*%
G04 APERTURE LIST*
%ADD10C,0.100000*%
%ADD11C,1.650000*%
%ADD12C,1.075000*%
G04 APERTURE END LIST*
D10*
G36*
X109592830Y-86301239D02*
G01*
X109617816Y-86304946D01*
X109642319Y-86311084D01*
X109666103Y-86319593D01*
X109688938Y-86330393D01*
X109710604Y-86343380D01*
X109730893Y-86358427D01*
X109749609Y-86375391D01*
X109766573Y-86394107D01*
X109781620Y-86414396D01*
X109794607Y-86436062D01*
X109805407Y-86458897D01*
X109813916Y-86482681D01*
X109820054Y-86507184D01*
X109823761Y-86532170D01*
X109825000Y-86557400D01*
X109825000Y-87967600D01*
X109823761Y-87992830D01*
X109820054Y-88017816D01*
X109813916Y-88042319D01*
X109805407Y-88066103D01*
X109794607Y-88088938D01*
X109781620Y-88110604D01*
X109766573Y-88130893D01*
X109749609Y-88149609D01*
X109730893Y-88166573D01*
X109710604Y-88181620D01*
X109688938Y-88194607D01*
X109666103Y-88205407D01*
X109642319Y-88213916D01*
X109617816Y-88220054D01*
X109592830Y-88223761D01*
X109567600Y-88225000D01*
X108432400Y-88225000D01*
X108407170Y-88223761D01*
X108382184Y-88220054D01*
X108357681Y-88213916D01*
X108333897Y-88205407D01*
X108311062Y-88194607D01*
X108289396Y-88181620D01*
X108269107Y-88166573D01*
X108250391Y-88149609D01*
X108233427Y-88130893D01*
X108218380Y-88110604D01*
X108205393Y-88088938D01*
X108194593Y-88066103D01*
X108186084Y-88042319D01*
X108179946Y-88017816D01*
X108176239Y-87992830D01*
X108175000Y-87967600D01*
X108175000Y-86557400D01*
X108176239Y-86532170D01*
X108179946Y-86507184D01*
X108186084Y-86482681D01*
X108194593Y-86458897D01*
X108205393Y-86436062D01*
X108218380Y-86414396D01*
X108233427Y-86394107D01*
X108250391Y-86375391D01*
X108269107Y-86358427D01*
X108289396Y-86343380D01*
X108311062Y-86330393D01*
X108333897Y-86319593D01*
X108357681Y-86311084D01*
X108382184Y-86304946D01*
X108407170Y-86301239D01*
X108432400Y-86300000D01*
X109567600Y-86300000D01*
X109592830Y-86301239D01*
X109592830Y-86301239D01*
G37*
D11*
X109000000Y-87262500D03*
D10*
G36*
X109592830Y-83776239D02*
G01*
X109617816Y-83779946D01*
X109642319Y-83786084D01*
X109666103Y-83794593D01*
X109688938Y-83805393D01*
X109710604Y-83818380D01*
X109730893Y-83833427D01*
X109749609Y-83850391D01*
X109766573Y-83869107D01*
X109781620Y-83889396D01*
X109794607Y-83911062D01*
X109805407Y-83933897D01*
X109813916Y-83957681D01*
X109820054Y-83982184D01*
X109823761Y-84007170D01*
X109825000Y-84032400D01*
X109825000Y-85442600D01*
X109823761Y-85467830D01*
X109820054Y-85492816D01*
X109813916Y-85517319D01*
X109805407Y-85541103D01*
X109794607Y-85563938D01*
X109781620Y-85585604D01*
X109766573Y-85605893D01*
X109749609Y-85624609D01*
X109730893Y-85641573D01*
X109710604Y-85656620D01*
X109688938Y-85669607D01*
X109666103Y-85680407D01*
X109642319Y-85688916D01*
X109617816Y-85695054D01*
X109592830Y-85698761D01*
X109567600Y-85700000D01*
X108432400Y-85700000D01*
X108407170Y-85698761D01*
X108382184Y-85695054D01*
X108357681Y-85688916D01*
X108333897Y-85680407D01*
X108311062Y-85669607D01*
X108289396Y-85656620D01*
X108269107Y-85641573D01*
X108250391Y-85624609D01*
X108233427Y-85605893D01*
X108218380Y-85585604D01*
X108205393Y-85563938D01*
X108194593Y-85541103D01*
X108186084Y-85517319D01*
X108179946Y-85492816D01*
X108176239Y-85467830D01*
X108175000Y-85442600D01*
X108175000Y-84032400D01*
X108176239Y-84007170D01*
X108179946Y-83982184D01*
X108186084Y-83957681D01*
X108194593Y-83933897D01*
X108205393Y-83911062D01*
X108218380Y-83889396D01*
X108233427Y-83869107D01*
X108250391Y-83850391D01*
X108269107Y-83833427D01*
X108289396Y-83818380D01*
X108311062Y-83805393D01*
X108333897Y-83794593D01*
X108357681Y-83786084D01*
X108382184Y-83779946D01*
X108407170Y-83776239D01*
X108432400Y-83775000D01*
X109567600Y-83775000D01*
X109592830Y-83776239D01*
X109592830Y-83776239D01*
G37*
D11*
X109000000Y-84737500D03*
D10*
G36*
X110457592Y-67576294D02*
G01*
X110483681Y-67580164D01*
X110509264Y-67586572D01*
X110534096Y-67595457D01*
X110557938Y-67606734D01*
X110580560Y-67620293D01*
X110601743Y-67636003D01*
X110621285Y-67653715D01*
X110638997Y-67673257D01*
X110654707Y-67694440D01*
X110668266Y-67717062D01*
X110679543Y-67740904D01*
X110688428Y-67765736D01*
X110694836Y-67791319D01*
X110698706Y-67817408D01*
X110700000Y-67843750D01*
X110700000Y-68381250D01*
X110698706Y-68407592D01*
X110694836Y-68433681D01*
X110688428Y-68459264D01*
X110679543Y-68484096D01*
X110668266Y-68507938D01*
X110654707Y-68530560D01*
X110638997Y-68551743D01*
X110621285Y-68571285D01*
X110601743Y-68588997D01*
X110580560Y-68604707D01*
X110557938Y-68618266D01*
X110534096Y-68629543D01*
X110509264Y-68638428D01*
X110483681Y-68644836D01*
X110457592Y-68648706D01*
X110431250Y-68650000D01*
X109568750Y-68650000D01*
X109542408Y-68648706D01*
X109516319Y-68644836D01*
X109490736Y-68638428D01*
X109465904Y-68629543D01*
X109442062Y-68618266D01*
X109419440Y-68604707D01*
X109398257Y-68588997D01*
X109378715Y-68571285D01*
X109361003Y-68551743D01*
X109345293Y-68530560D01*
X109331734Y-68507938D01*
X109320457Y-68484096D01*
X109311572Y-68459264D01*
X109305164Y-68433681D01*
X109301294Y-68407592D01*
X109300000Y-68381250D01*
X109300000Y-67843750D01*
X109301294Y-67817408D01*
X109305164Y-67791319D01*
X109311572Y-67765736D01*
X109320457Y-67740904D01*
X109331734Y-67717062D01*
X109345293Y-67694440D01*
X109361003Y-67673257D01*
X109378715Y-67653715D01*
X109398257Y-67636003D01*
X109419440Y-67620293D01*
X109442062Y-67606734D01*
X109465904Y-67595457D01*
X109490736Y-67586572D01*
X109516319Y-67580164D01*
X109542408Y-67576294D01*
X109568750Y-67575000D01*
X110431250Y-67575000D01*
X110457592Y-67576294D01*
X110457592Y-67576294D01*
G37*
D12*
X110000000Y-68112500D03*
D10*
G36*
X110457592Y-69351294D02*
G01*
X110483681Y-69355164D01*
X110509264Y-69361572D01*
X110534096Y-69370457D01*
X110557938Y-69381734D01*
X110580560Y-69395293D01*
X110601743Y-69411003D01*
X110621285Y-69428715D01*
X110638997Y-69448257D01*
X110654707Y-69469440D01*
X110668266Y-69492062D01*
X110679543Y-69515904D01*
X110688428Y-69540736D01*
X110694836Y-69566319D01*
X110698706Y-69592408D01*
X110700000Y-69618750D01*
X110700000Y-70156250D01*
X110698706Y-70182592D01*
X110694836Y-70208681D01*
X110688428Y-70234264D01*
X110679543Y-70259096D01*
X110668266Y-70282938D01*
X110654707Y-70305560D01*
X110638997Y-70326743D01*
X110621285Y-70346285D01*
X110601743Y-70363997D01*
X110580560Y-70379707D01*
X110557938Y-70393266D01*
X110534096Y-70404543D01*
X110509264Y-70413428D01*
X110483681Y-70419836D01*
X110457592Y-70423706D01*
X110431250Y-70425000D01*
X109568750Y-70425000D01*
X109542408Y-70423706D01*
X109516319Y-70419836D01*
X109490736Y-70413428D01*
X109465904Y-70404543D01*
X109442062Y-70393266D01*
X109419440Y-70379707D01*
X109398257Y-70363997D01*
X109378715Y-70346285D01*
X109361003Y-70326743D01*
X109345293Y-70305560D01*
X109331734Y-70282938D01*
X109320457Y-70259096D01*
X109311572Y-70234264D01*
X109305164Y-70208681D01*
X109301294Y-70182592D01*
X109300000Y-70156250D01*
X109300000Y-69618750D01*
X109301294Y-69592408D01*
X109305164Y-69566319D01*
X109311572Y-69540736D01*
X109320457Y-69515904D01*
X109331734Y-69492062D01*
X109345293Y-69469440D01*
X109361003Y-69448257D01*
X109378715Y-69428715D01*
X109398257Y-69411003D01*
X109419440Y-69395293D01*
X109442062Y-69381734D01*
X109465904Y-69370457D01*
X109490736Y-69361572D01*
X109516319Y-69355164D01*
X109542408Y-69351294D01*
X109568750Y-69350000D01*
X110431250Y-69350000D01*
X110457592Y-69351294D01*
X110457592Y-69351294D01*
G37*
D12*
X110000000Y-69887500D03*
D10*
G36*
X108457592Y-67576294D02*
G01*
X108483681Y-67580164D01*
X108509264Y-67586572D01*
X108534096Y-67595457D01*
X108557938Y-67606734D01*
X108580560Y-67620293D01*
X108601743Y-67636003D01*
X108621285Y-67653715D01*
X108638997Y-67673257D01*
X108654707Y-67694440D01*
X108668266Y-67717062D01*
X108679543Y-67740904D01*
X108688428Y-67765736D01*
X108694836Y-67791319D01*
X108698706Y-67817408D01*
X108700000Y-67843750D01*
X108700000Y-68381250D01*
X108698706Y-68407592D01*
X108694836Y-68433681D01*
X108688428Y-68459264D01*
X108679543Y-68484096D01*
X108668266Y-68507938D01*
X108654707Y-68530560D01*
X108638997Y-68551743D01*
X108621285Y-68571285D01*
X108601743Y-68588997D01*
X108580560Y-68604707D01*
X108557938Y-68618266D01*
X108534096Y-68629543D01*
X108509264Y-68638428D01*
X108483681Y-68644836D01*
X108457592Y-68648706D01*
X108431250Y-68650000D01*
X107568750Y-68650000D01*
X107542408Y-68648706D01*
X107516319Y-68644836D01*
X107490736Y-68638428D01*
X107465904Y-68629543D01*
X107442062Y-68618266D01*
X107419440Y-68604707D01*
X107398257Y-68588997D01*
X107378715Y-68571285D01*
X107361003Y-68551743D01*
X107345293Y-68530560D01*
X107331734Y-68507938D01*
X107320457Y-68484096D01*
X107311572Y-68459264D01*
X107305164Y-68433681D01*
X107301294Y-68407592D01*
X107300000Y-68381250D01*
X107300000Y-67843750D01*
X107301294Y-67817408D01*
X107305164Y-67791319D01*
X107311572Y-67765736D01*
X107320457Y-67740904D01*
X107331734Y-67717062D01*
X107345293Y-67694440D01*
X107361003Y-67673257D01*
X107378715Y-67653715D01*
X107398257Y-67636003D01*
X107419440Y-67620293D01*
X107442062Y-67606734D01*
X107465904Y-67595457D01*
X107490736Y-67586572D01*
X107516319Y-67580164D01*
X107542408Y-67576294D01*
X107568750Y-67575000D01*
X108431250Y-67575000D01*
X108457592Y-67576294D01*
X108457592Y-67576294D01*
G37*
D12*
X108000000Y-68112500D03*
D10*
G36*
X108457592Y-69351294D02*
G01*
X108483681Y-69355164D01*
X108509264Y-69361572D01*
X108534096Y-69370457D01*
X108557938Y-69381734D01*
X108580560Y-69395293D01*
X108601743Y-69411003D01*
X108621285Y-69428715D01*
X108638997Y-69448257D01*
X108654707Y-69469440D01*
X108668266Y-69492062D01*
X108679543Y-69515904D01*
X108688428Y-69540736D01*
X108694836Y-69566319D01*
X108698706Y-69592408D01*
X108700000Y-69618750D01*
X108700000Y-70156250D01*
X108698706Y-70182592D01*
X108694836Y-70208681D01*
X108688428Y-70234264D01*
X108679543Y-70259096D01*
X108668266Y-70282938D01*
X108654707Y-70305560D01*
X108638997Y-70326743D01*
X108621285Y-70346285D01*
X108601743Y-70363997D01*
X108580560Y-70379707D01*
X108557938Y-70393266D01*
X108534096Y-70404543D01*
X108509264Y-70413428D01*
X108483681Y-70419836D01*
X108457592Y-70423706D01*
X108431250Y-70425000D01*
X107568750Y-70425000D01*
X107542408Y-70423706D01*
X107516319Y-70419836D01*
X107490736Y-70413428D01*
X107465904Y-70404543D01*
X107442062Y-70393266D01*
X107419440Y-70379707D01*
X107398257Y-70363997D01*
X107378715Y-70346285D01*
X107361003Y-70326743D01*
X107345293Y-70305560D01*
X107331734Y-70282938D01*
X107320457Y-70259096D01*
X107311572Y-70234264D01*
X107305164Y-70208681D01*
X107301294Y-70182592D01*
X107300000Y-70156250D01*
X107300000Y-69618750D01*
X107301294Y-69592408D01*
X107305164Y-69566319D01*
X107311572Y-69540736D01*
X107320457Y-69515904D01*
X107331734Y-69492062D01*
X107345293Y-69469440D01*
X107361003Y-69448257D01*
X107378715Y-69428715D01*
X107398257Y-69411003D01*
X107419440Y-69395293D01*
X107442062Y-69381734D01*
X107465904Y-69370457D01*
X107490736Y-69361572D01*
X107516319Y-69355164D01*
X107542408Y-69351294D01*
X107568750Y-69350000D01*
X108431250Y-69350000D01*
X108457592Y-69351294D01*
X108457592Y-69351294D01*
G37*
D12*
X108000000Y-69887500D03*
M02*
