G04 #@! TF.GenerationSoftware,KiCad,Pcbnew,(5.1.0-0)*
G04 #@! TF.CreationDate,2020-07-01T23:26:51+02:00*
G04 #@! TF.ProjectId,POxiM-fingersensor,504f7869-4d2d-4666-996e-67657273656e,Test proto*
G04 #@! TF.SameCoordinates,Original*
G04 #@! TF.FileFunction,Soldermask,Bot*
G04 #@! TF.FilePolarity,Negative*
%FSLAX46Y46*%
G04 Gerber Fmt 4.6, Leading zero omitted, Abs format (unit mm)*
G04 Created by KiCad (PCBNEW (5.1.0-0)) date 2020-07-01 23:26:51*
%MOMM*%
%LPD*%
G04 APERTURE LIST*
%ADD10C,0.550000*%
%ADD11C,0.010000*%
%ADD12C,0.100000*%
G04 APERTURE END LIST*
D10*
G36*
X108250000Y-83000000D02*
G01*
X105250000Y-83000000D01*
X105250000Y-80250000D01*
X108250000Y-80250000D01*
X108250000Y-83000000D01*
G37*
X108250000Y-83000000D02*
X105250000Y-83000000D01*
X105250000Y-80250000D01*
X108250000Y-80250000D01*
X108250000Y-83000000D01*
G36*
X112750000Y-83000000D02*
G01*
X109750000Y-83000000D01*
X109750000Y-80250000D01*
X112750000Y-80250000D01*
X112750000Y-83000000D01*
G37*
X112750000Y-83000000D02*
X109750000Y-83000000D01*
X109750000Y-80250000D01*
X112750000Y-80250000D01*
X112750000Y-83000000D01*
G36*
X108250000Y-76325000D02*
G01*
X105250000Y-76325000D01*
X105250000Y-73500000D01*
X108250000Y-73500000D01*
X108250000Y-76325000D01*
G37*
X108250000Y-76325000D02*
X105250000Y-76325000D01*
X105250000Y-73500000D01*
X108250000Y-73500000D01*
X108250000Y-76325000D01*
G36*
X112750000Y-76325000D02*
G01*
X109750000Y-76325000D01*
X109750000Y-73500000D01*
X112750000Y-73500000D01*
X112750000Y-76325000D01*
G37*
X112750000Y-76325000D02*
X109750000Y-76325000D01*
X109750000Y-73500000D01*
X112750000Y-73500000D01*
X112750000Y-76325000D01*
D11*
G36*
X110313198Y-86112112D02*
G01*
X110340705Y-86099507D01*
X110353761Y-86090662D01*
X110371213Y-86073979D01*
X110386853Y-86052810D01*
X110398750Y-86030056D01*
X110403537Y-86015887D01*
X110408812Y-85994930D01*
X110411664Y-86008266D01*
X110420642Y-86034096D01*
X110435649Y-86059255D01*
X110455187Y-86081890D01*
X110477756Y-86100147D01*
X110492714Y-86108502D01*
X110510535Y-86114010D01*
X110532847Y-86116977D01*
X110556959Y-86117404D01*
X110580176Y-86115290D01*
X110599806Y-86110636D01*
X110605126Y-86108502D01*
X110624458Y-86096772D01*
X110643993Y-86080160D01*
X110661393Y-86060969D01*
X110674320Y-86041503D01*
X110675500Y-86039175D01*
X110680967Y-86026681D01*
X110684156Y-86015137D01*
X110685644Y-86001590D01*
X110686006Y-85985404D01*
X110685346Y-85967869D01*
X110682840Y-85952272D01*
X110677853Y-85937135D01*
X110669748Y-85920981D01*
X110657890Y-85902330D01*
X110641643Y-85879707D01*
X110639044Y-85876222D01*
X110631825Y-85867360D01*
X110620545Y-85854512D01*
X110605874Y-85838367D01*
X110588479Y-85819616D01*
X110569031Y-85798949D01*
X110548197Y-85777057D01*
X110526646Y-85754628D01*
X110505047Y-85732354D01*
X110484068Y-85710924D01*
X110464379Y-85691029D01*
X110446648Y-85673358D01*
X110431544Y-85658602D01*
X110419736Y-85647451D01*
X110411891Y-85640595D01*
X110408842Y-85638659D01*
X110405386Y-85641268D01*
X110397222Y-85648681D01*
X110384995Y-85660275D01*
X110369347Y-85675429D01*
X110350923Y-85693519D01*
X110330366Y-85713925D01*
X110313211Y-85731102D01*
X110276578Y-85768314D01*
X110245238Y-85801052D01*
X110218739Y-85829849D01*
X110196631Y-85855240D01*
X110178461Y-85877757D01*
X110163778Y-85897934D01*
X110152132Y-85916305D01*
X110144444Y-85930569D01*
X110136854Y-85946842D01*
X110132432Y-85959384D01*
X110130419Y-85970996D01*
X110130050Y-85983828D01*
X110133842Y-86014396D01*
X110143880Y-86041892D01*
X110159261Y-86065883D01*
X110179082Y-86085940D01*
X110202440Y-86101630D01*
X110228434Y-86112524D01*
X110256160Y-86118189D01*
X110284716Y-86118196D01*
X110313198Y-86112112D01*
X110313198Y-86112112D01*
G37*
X110313198Y-86112112D02*
X110340705Y-86099507D01*
X110353761Y-86090662D01*
X110371213Y-86073979D01*
X110386853Y-86052810D01*
X110398750Y-86030056D01*
X110403537Y-86015887D01*
X110408812Y-85994930D01*
X110411664Y-86008266D01*
X110420642Y-86034096D01*
X110435649Y-86059255D01*
X110455187Y-86081890D01*
X110477756Y-86100147D01*
X110492714Y-86108502D01*
X110510535Y-86114010D01*
X110532847Y-86116977D01*
X110556959Y-86117404D01*
X110580176Y-86115290D01*
X110599806Y-86110636D01*
X110605126Y-86108502D01*
X110624458Y-86096772D01*
X110643993Y-86080160D01*
X110661393Y-86060969D01*
X110674320Y-86041503D01*
X110675500Y-86039175D01*
X110680967Y-86026681D01*
X110684156Y-86015137D01*
X110685644Y-86001590D01*
X110686006Y-85985404D01*
X110685346Y-85967869D01*
X110682840Y-85952272D01*
X110677853Y-85937135D01*
X110669748Y-85920981D01*
X110657890Y-85902330D01*
X110641643Y-85879707D01*
X110639044Y-85876222D01*
X110631825Y-85867360D01*
X110620545Y-85854512D01*
X110605874Y-85838367D01*
X110588479Y-85819616D01*
X110569031Y-85798949D01*
X110548197Y-85777057D01*
X110526646Y-85754628D01*
X110505047Y-85732354D01*
X110484068Y-85710924D01*
X110464379Y-85691029D01*
X110446648Y-85673358D01*
X110431544Y-85658602D01*
X110419736Y-85647451D01*
X110411891Y-85640595D01*
X110408842Y-85638659D01*
X110405386Y-85641268D01*
X110397222Y-85648681D01*
X110384995Y-85660275D01*
X110369347Y-85675429D01*
X110350923Y-85693519D01*
X110330366Y-85713925D01*
X110313211Y-85731102D01*
X110276578Y-85768314D01*
X110245238Y-85801052D01*
X110218739Y-85829849D01*
X110196631Y-85855240D01*
X110178461Y-85877757D01*
X110163778Y-85897934D01*
X110152132Y-85916305D01*
X110144444Y-85930569D01*
X110136854Y-85946842D01*
X110132432Y-85959384D01*
X110130419Y-85970996D01*
X110130050Y-85983828D01*
X110133842Y-86014396D01*
X110143880Y-86041892D01*
X110159261Y-86065883D01*
X110179082Y-86085940D01*
X110202440Y-86101630D01*
X110228434Y-86112524D01*
X110256160Y-86118189D01*
X110284716Y-86118196D01*
X110313198Y-86112112D01*
D12*
G36*
X112224549Y-86871116D02*
G01*
X112335734Y-86893232D01*
X112545203Y-86979997D01*
X112733720Y-87105960D01*
X112894040Y-87266280D01*
X113020003Y-87454797D01*
X113106768Y-87664266D01*
X113151000Y-87886636D01*
X113151000Y-88113364D01*
X113106768Y-88335734D01*
X113020003Y-88545203D01*
X112894040Y-88733720D01*
X112733720Y-88894040D01*
X112545203Y-89020003D01*
X112335734Y-89106768D01*
X112224549Y-89128884D01*
X112113365Y-89151000D01*
X111886635Y-89151000D01*
X111775451Y-89128884D01*
X111664266Y-89106768D01*
X111454797Y-89020003D01*
X111266280Y-88894040D01*
X111105960Y-88733720D01*
X110979997Y-88545203D01*
X110893232Y-88335734D01*
X110849000Y-88113364D01*
X110849000Y-87886636D01*
X110893232Y-87664266D01*
X110979997Y-87454797D01*
X111105960Y-87266280D01*
X111266280Y-87105960D01*
X111454797Y-86979997D01*
X111664266Y-86893232D01*
X111775451Y-86871116D01*
X111886635Y-86849000D01*
X112113365Y-86849000D01*
X112224549Y-86871116D01*
X112224549Y-86871116D01*
G37*
G36*
X106224549Y-86871116D02*
G01*
X106335734Y-86893232D01*
X106545203Y-86979997D01*
X106733720Y-87105960D01*
X106894040Y-87266280D01*
X107020003Y-87454797D01*
X107106768Y-87664266D01*
X107151000Y-87886636D01*
X107151000Y-88113364D01*
X107106768Y-88335734D01*
X107020003Y-88545203D01*
X106894040Y-88733720D01*
X106733720Y-88894040D01*
X106545203Y-89020003D01*
X106335734Y-89106768D01*
X106224549Y-89128884D01*
X106113365Y-89151000D01*
X105886635Y-89151000D01*
X105775451Y-89128884D01*
X105664266Y-89106768D01*
X105454797Y-89020003D01*
X105266280Y-88894040D01*
X105105960Y-88733720D01*
X104979997Y-88545203D01*
X104893232Y-88335734D01*
X104849000Y-88113364D01*
X104849000Y-87886636D01*
X104893232Y-87664266D01*
X104979997Y-87454797D01*
X105105960Y-87266280D01*
X105266280Y-87105960D01*
X105454797Y-86979997D01*
X105664266Y-86893232D01*
X105775451Y-86871116D01*
X105886635Y-86849000D01*
X106113365Y-86849000D01*
X106224549Y-86871116D01*
X106224549Y-86871116D01*
G37*
G36*
X108678210Y-70708489D02*
G01*
X108764950Y-70734802D01*
X108844889Y-70777530D01*
X108914962Y-70835038D01*
X108972470Y-70905111D01*
X109015198Y-70985050D01*
X109041511Y-71071790D01*
X109051000Y-71168140D01*
X109051000Y-72331860D01*
X109041511Y-72428210D01*
X109015198Y-72514950D01*
X108972470Y-72594889D01*
X108914962Y-72664962D01*
X108844889Y-72722470D01*
X108764950Y-72765198D01*
X108678210Y-72791511D01*
X108581860Y-72801000D01*
X104918140Y-72801000D01*
X104821790Y-72791511D01*
X104735050Y-72765198D01*
X104655111Y-72722470D01*
X104585038Y-72664962D01*
X104527530Y-72594889D01*
X104484802Y-72514950D01*
X104458489Y-72428210D01*
X104449000Y-72331860D01*
X104449000Y-71168140D01*
X104458489Y-71071790D01*
X104484802Y-70985050D01*
X104527530Y-70905111D01*
X104585038Y-70835038D01*
X104655111Y-70777530D01*
X104735050Y-70734802D01*
X104821790Y-70708489D01*
X104918140Y-70699000D01*
X108581860Y-70699000D01*
X108678210Y-70708489D01*
X108678210Y-70708489D01*
G37*
G36*
X112474549Y-70371116D02*
G01*
X112585734Y-70393232D01*
X112795203Y-70479997D01*
X112983720Y-70605960D01*
X113144040Y-70766280D01*
X113270003Y-70954797D01*
X113356768Y-71164266D01*
X113401000Y-71386636D01*
X113401000Y-71613364D01*
X113356768Y-71835734D01*
X113270003Y-72045203D01*
X113144040Y-72233720D01*
X112983720Y-72394040D01*
X112795203Y-72520003D01*
X112585734Y-72606768D01*
X112474549Y-72628884D01*
X112363365Y-72651000D01*
X112136635Y-72651000D01*
X112025451Y-72628884D01*
X111914266Y-72606768D01*
X111704797Y-72520003D01*
X111516280Y-72394040D01*
X111355960Y-72233720D01*
X111229997Y-72045203D01*
X111143232Y-71835734D01*
X111099000Y-71613364D01*
X111099000Y-71386636D01*
X111143232Y-71164266D01*
X111229997Y-70954797D01*
X111355960Y-70766280D01*
X111516280Y-70605960D01*
X111704797Y-70479997D01*
X111914266Y-70393232D01*
X112025451Y-70371116D01*
X112136635Y-70349000D01*
X112363365Y-70349000D01*
X112474549Y-70371116D01*
X112474549Y-70371116D01*
G37*
G36*
X108678210Y-68208489D02*
G01*
X108764950Y-68234802D01*
X108844889Y-68277530D01*
X108914962Y-68335038D01*
X108972470Y-68405111D01*
X109015198Y-68485050D01*
X109041511Y-68571790D01*
X109051000Y-68668140D01*
X109051000Y-69831860D01*
X109041511Y-69928210D01*
X109015198Y-70014950D01*
X108972470Y-70094889D01*
X108914962Y-70164962D01*
X108844889Y-70222470D01*
X108764950Y-70265198D01*
X108678210Y-70291511D01*
X108581860Y-70301000D01*
X104918140Y-70301000D01*
X104821790Y-70291511D01*
X104735050Y-70265198D01*
X104655111Y-70222470D01*
X104585038Y-70164962D01*
X104527530Y-70094889D01*
X104484802Y-70014950D01*
X104458489Y-69928210D01*
X104449000Y-69831860D01*
X104449000Y-68668140D01*
X104458489Y-68571790D01*
X104484802Y-68485050D01*
X104527530Y-68405111D01*
X104585038Y-68335038D01*
X104655111Y-68277530D01*
X104735050Y-68234802D01*
X104821790Y-68208489D01*
X104918140Y-68199000D01*
X108581860Y-68199000D01*
X108678210Y-68208489D01*
X108678210Y-68208489D01*
G37*
G36*
X108678210Y-65708489D02*
G01*
X108764950Y-65734802D01*
X108844889Y-65777530D01*
X108914962Y-65835038D01*
X108972470Y-65905111D01*
X109015198Y-65985050D01*
X109041511Y-66071790D01*
X109051000Y-66168140D01*
X109051000Y-67331860D01*
X109041511Y-67428210D01*
X109015198Y-67514950D01*
X108972470Y-67594889D01*
X108914962Y-67664962D01*
X108844889Y-67722470D01*
X108764950Y-67765198D01*
X108678210Y-67791511D01*
X108581860Y-67801000D01*
X104918140Y-67801000D01*
X104821790Y-67791511D01*
X104735050Y-67765198D01*
X104655111Y-67722470D01*
X104585038Y-67664962D01*
X104527530Y-67594889D01*
X104484802Y-67514950D01*
X104458489Y-67428210D01*
X104449000Y-67331860D01*
X104449000Y-66168140D01*
X104458489Y-66071790D01*
X104484802Y-65985050D01*
X104527530Y-65905111D01*
X104585038Y-65835038D01*
X104655111Y-65777530D01*
X104735050Y-65734802D01*
X104821790Y-65708489D01*
X104918140Y-65699000D01*
X108581860Y-65699000D01*
X108678210Y-65708489D01*
X108678210Y-65708489D01*
G37*
G36*
X112474549Y-63621116D02*
G01*
X112585734Y-63643232D01*
X112795203Y-63729997D01*
X112983720Y-63855960D01*
X113144040Y-64016280D01*
X113270003Y-64204797D01*
X113356768Y-64414266D01*
X113401000Y-64636636D01*
X113401000Y-64863364D01*
X113356768Y-65085734D01*
X113304286Y-65212437D01*
X113282432Y-65265198D01*
X113270003Y-65295203D01*
X113144040Y-65483720D01*
X112983720Y-65644040D01*
X112795203Y-65770003D01*
X112795202Y-65770004D01*
X112795201Y-65770004D01*
X112733850Y-65795416D01*
X112585734Y-65856768D01*
X112474549Y-65878884D01*
X112363365Y-65901000D01*
X112136635Y-65901000D01*
X112025451Y-65878884D01*
X111914266Y-65856768D01*
X111766150Y-65795416D01*
X111704799Y-65770004D01*
X111704798Y-65770004D01*
X111704797Y-65770003D01*
X111516280Y-65644040D01*
X111355960Y-65483720D01*
X111229997Y-65295203D01*
X111217569Y-65265198D01*
X111195714Y-65212437D01*
X111143232Y-65085734D01*
X111099000Y-64863364D01*
X111099000Y-64636636D01*
X111143232Y-64414266D01*
X111229997Y-64204797D01*
X111355960Y-64016280D01*
X111516280Y-63855960D01*
X111704797Y-63729997D01*
X111914266Y-63643232D01*
X112025451Y-63621116D01*
X112136635Y-63599000D01*
X112363365Y-63599000D01*
X112474549Y-63621116D01*
X112474549Y-63621116D01*
G37*
G36*
X108678210Y-63208489D02*
G01*
X108764950Y-63234802D01*
X108844889Y-63277530D01*
X108914962Y-63335038D01*
X108972470Y-63405111D01*
X109015198Y-63485050D01*
X109041511Y-63571790D01*
X109051000Y-63668140D01*
X109051000Y-64831860D01*
X109041511Y-64928210D01*
X109015198Y-65014950D01*
X108972470Y-65094889D01*
X108914962Y-65164962D01*
X108844889Y-65222470D01*
X108764950Y-65265198D01*
X108678210Y-65291511D01*
X108581860Y-65301000D01*
X104918140Y-65301000D01*
X104821790Y-65291511D01*
X104735050Y-65265198D01*
X104655111Y-65222470D01*
X104585038Y-65164962D01*
X104527530Y-65094889D01*
X104484802Y-65014950D01*
X104458489Y-64928210D01*
X104449000Y-64831860D01*
X104449000Y-63668140D01*
X104458489Y-63571790D01*
X104484802Y-63485050D01*
X104527530Y-63405111D01*
X104585038Y-63335038D01*
X104655111Y-63277530D01*
X104735050Y-63234802D01*
X104821790Y-63208489D01*
X104918140Y-63199000D01*
X108581860Y-63199000D01*
X108678210Y-63208489D01*
X108678210Y-63208489D01*
G37*
M02*
