G04 #@! TF.GenerationSoftware,KiCad,Pcbnew,(5.1.0-0)*
G04 #@! TF.CreationDate,2020-07-06T15:42:16+02:00*
G04 #@! TF.ProjectId,POxiM-fingersensor,504f7869-4d2d-4666-996e-67657273656e,Test proto*
G04 #@! TF.SameCoordinates,Original*
G04 #@! TF.FileFunction,Soldermask,Bot*
G04 #@! TF.FilePolarity,Negative*
%FSLAX46Y46*%
G04 Gerber Fmt 4.6, Leading zero omitted, Abs format (unit mm)*
G04 Created by KiCad (PCBNEW (5.1.0-0)) date 2020-07-06 15:42:16*
%MOMM*%
%LPD*%
G04 APERTURE LIST*
%ADD10C,0.550000*%
%ADD11C,0.010000*%
%ADD12C,0.100000*%
G04 APERTURE END LIST*
D10*
G36*
X108250000Y-83000000D02*
G01*
X105250000Y-83000000D01*
X105250000Y-80250000D01*
X108250000Y-80250000D01*
X108250000Y-83000000D01*
G37*
X108250000Y-83000000D02*
X105250000Y-83000000D01*
X105250000Y-80250000D01*
X108250000Y-80250000D01*
X108250000Y-83000000D01*
G36*
X112750000Y-83000000D02*
G01*
X109750000Y-83000000D01*
X109750000Y-80250000D01*
X112750000Y-80250000D01*
X112750000Y-83000000D01*
G37*
X112750000Y-83000000D02*
X109750000Y-83000000D01*
X109750000Y-80250000D01*
X112750000Y-80250000D01*
X112750000Y-83000000D01*
G36*
X112750000Y-76325000D02*
G01*
X109750000Y-76325000D01*
X109750000Y-73500000D01*
X112750000Y-73500000D01*
X112750000Y-76325000D01*
G37*
X112750000Y-76325000D02*
X109750000Y-76325000D01*
X109750000Y-73500000D01*
X112750000Y-73500000D01*
X112750000Y-76325000D01*
G36*
X108250000Y-76325000D02*
G01*
X105250000Y-76325000D01*
X105250000Y-73500000D01*
X108250000Y-73500000D01*
X108250000Y-76325000D01*
G37*
X108250000Y-76325000D02*
X105250000Y-76325000D01*
X105250000Y-73500000D01*
X108250000Y-73500000D01*
X108250000Y-76325000D01*
D11*
G36*
X110313198Y-85862112D02*
G01*
X110340705Y-85849507D01*
X110353761Y-85840662D01*
X110371213Y-85823979D01*
X110386853Y-85802810D01*
X110398750Y-85780056D01*
X110403537Y-85765887D01*
X110408812Y-85744930D01*
X110411664Y-85758266D01*
X110420642Y-85784096D01*
X110435649Y-85809255D01*
X110455187Y-85831890D01*
X110477756Y-85850147D01*
X110492714Y-85858502D01*
X110510535Y-85864010D01*
X110532847Y-85866977D01*
X110556959Y-85867404D01*
X110580176Y-85865290D01*
X110599806Y-85860636D01*
X110605126Y-85858502D01*
X110624458Y-85846772D01*
X110643993Y-85830160D01*
X110661393Y-85810969D01*
X110674320Y-85791503D01*
X110675500Y-85789175D01*
X110680967Y-85776681D01*
X110684156Y-85765137D01*
X110685644Y-85751590D01*
X110686006Y-85735404D01*
X110685346Y-85717869D01*
X110682840Y-85702272D01*
X110677853Y-85687135D01*
X110669748Y-85670981D01*
X110657890Y-85652330D01*
X110641643Y-85629707D01*
X110639044Y-85626222D01*
X110631825Y-85617360D01*
X110620545Y-85604512D01*
X110605874Y-85588367D01*
X110588479Y-85569616D01*
X110569031Y-85548949D01*
X110548197Y-85527057D01*
X110526646Y-85504628D01*
X110505047Y-85482354D01*
X110484068Y-85460924D01*
X110464379Y-85441029D01*
X110446648Y-85423358D01*
X110431544Y-85408602D01*
X110419736Y-85397451D01*
X110411891Y-85390595D01*
X110408842Y-85388659D01*
X110405386Y-85391268D01*
X110397222Y-85398681D01*
X110384995Y-85410275D01*
X110369347Y-85425429D01*
X110350923Y-85443519D01*
X110330366Y-85463925D01*
X110313211Y-85481102D01*
X110276578Y-85518314D01*
X110245238Y-85551052D01*
X110218739Y-85579849D01*
X110196631Y-85605240D01*
X110178461Y-85627757D01*
X110163778Y-85647934D01*
X110152132Y-85666305D01*
X110144444Y-85680569D01*
X110136854Y-85696842D01*
X110132432Y-85709384D01*
X110130419Y-85720996D01*
X110130050Y-85733828D01*
X110133842Y-85764396D01*
X110143880Y-85791892D01*
X110159261Y-85815883D01*
X110179082Y-85835940D01*
X110202440Y-85851630D01*
X110228434Y-85862524D01*
X110256160Y-85868189D01*
X110284716Y-85868196D01*
X110313198Y-85862112D01*
X110313198Y-85862112D01*
G37*
X110313198Y-85862112D02*
X110340705Y-85849507D01*
X110353761Y-85840662D01*
X110371213Y-85823979D01*
X110386853Y-85802810D01*
X110398750Y-85780056D01*
X110403537Y-85765887D01*
X110408812Y-85744930D01*
X110411664Y-85758266D01*
X110420642Y-85784096D01*
X110435649Y-85809255D01*
X110455187Y-85831890D01*
X110477756Y-85850147D01*
X110492714Y-85858502D01*
X110510535Y-85864010D01*
X110532847Y-85866977D01*
X110556959Y-85867404D01*
X110580176Y-85865290D01*
X110599806Y-85860636D01*
X110605126Y-85858502D01*
X110624458Y-85846772D01*
X110643993Y-85830160D01*
X110661393Y-85810969D01*
X110674320Y-85791503D01*
X110675500Y-85789175D01*
X110680967Y-85776681D01*
X110684156Y-85765137D01*
X110685644Y-85751590D01*
X110686006Y-85735404D01*
X110685346Y-85717869D01*
X110682840Y-85702272D01*
X110677853Y-85687135D01*
X110669748Y-85670981D01*
X110657890Y-85652330D01*
X110641643Y-85629707D01*
X110639044Y-85626222D01*
X110631825Y-85617360D01*
X110620545Y-85604512D01*
X110605874Y-85588367D01*
X110588479Y-85569616D01*
X110569031Y-85548949D01*
X110548197Y-85527057D01*
X110526646Y-85504628D01*
X110505047Y-85482354D01*
X110484068Y-85460924D01*
X110464379Y-85441029D01*
X110446648Y-85423358D01*
X110431544Y-85408602D01*
X110419736Y-85397451D01*
X110411891Y-85390595D01*
X110408842Y-85388659D01*
X110405386Y-85391268D01*
X110397222Y-85398681D01*
X110384995Y-85410275D01*
X110369347Y-85425429D01*
X110350923Y-85443519D01*
X110330366Y-85463925D01*
X110313211Y-85481102D01*
X110276578Y-85518314D01*
X110245238Y-85551052D01*
X110218739Y-85579849D01*
X110196631Y-85605240D01*
X110178461Y-85627757D01*
X110163778Y-85647934D01*
X110152132Y-85666305D01*
X110144444Y-85680569D01*
X110136854Y-85696842D01*
X110132432Y-85709384D01*
X110130419Y-85720996D01*
X110130050Y-85733828D01*
X110133842Y-85764396D01*
X110143880Y-85791892D01*
X110159261Y-85815883D01*
X110179082Y-85835940D01*
X110202440Y-85851630D01*
X110228434Y-85862524D01*
X110256160Y-85868189D01*
X110284716Y-85868196D01*
X110313198Y-85862112D01*
D12*
G36*
X111806564Y-86489389D02*
G01*
X111997833Y-86568615D01*
X111997835Y-86568616D01*
X112169973Y-86683635D01*
X112316365Y-86830027D01*
X112431385Y-87002167D01*
X112510611Y-87193436D01*
X112551000Y-87396484D01*
X112551000Y-87603516D01*
X112510611Y-87806564D01*
X112431385Y-87997833D01*
X112431384Y-87997835D01*
X112316365Y-88169973D01*
X112169973Y-88316365D01*
X111997835Y-88431384D01*
X111997834Y-88431385D01*
X111997833Y-88431385D01*
X111806564Y-88510611D01*
X111603516Y-88551000D01*
X111396484Y-88551000D01*
X111193436Y-88510611D01*
X111002167Y-88431385D01*
X111002166Y-88431385D01*
X111002165Y-88431384D01*
X110830027Y-88316365D01*
X110683635Y-88169973D01*
X110568616Y-87997835D01*
X110568615Y-87997833D01*
X110489389Y-87806564D01*
X110449000Y-87603516D01*
X110449000Y-87396484D01*
X110489389Y-87193436D01*
X110568615Y-87002167D01*
X110683635Y-86830027D01*
X110830027Y-86683635D01*
X111002165Y-86568616D01*
X111002167Y-86568615D01*
X111193436Y-86489389D01*
X111396484Y-86449000D01*
X111603516Y-86449000D01*
X111806564Y-86489389D01*
X111806564Y-86489389D01*
G37*
G36*
X106806564Y-86489389D02*
G01*
X106997833Y-86568615D01*
X106997835Y-86568616D01*
X107169973Y-86683635D01*
X107316365Y-86830027D01*
X107431385Y-87002167D01*
X107510611Y-87193436D01*
X107551000Y-87396484D01*
X107551000Y-87603516D01*
X107510611Y-87806564D01*
X107431385Y-87997833D01*
X107431384Y-87997835D01*
X107316365Y-88169973D01*
X107169973Y-88316365D01*
X106997835Y-88431384D01*
X106997834Y-88431385D01*
X106997833Y-88431385D01*
X106806564Y-88510611D01*
X106603516Y-88551000D01*
X106396484Y-88551000D01*
X106193436Y-88510611D01*
X106002167Y-88431385D01*
X106002166Y-88431385D01*
X106002165Y-88431384D01*
X105830027Y-88316365D01*
X105683635Y-88169973D01*
X105568616Y-87997835D01*
X105568615Y-87997833D01*
X105489389Y-87806564D01*
X105449000Y-87603516D01*
X105449000Y-87396484D01*
X105489389Y-87193436D01*
X105568615Y-87002167D01*
X105683635Y-86830027D01*
X105830027Y-86683635D01*
X106002165Y-86568616D01*
X106002167Y-86568615D01*
X106193436Y-86489389D01*
X106396484Y-86449000D01*
X106603516Y-86449000D01*
X106806564Y-86489389D01*
X106806564Y-86489389D01*
G37*
G36*
X108678210Y-70708489D02*
G01*
X108764950Y-70734802D01*
X108844889Y-70777530D01*
X108914962Y-70835038D01*
X108972470Y-70905111D01*
X109015198Y-70985050D01*
X109041511Y-71071790D01*
X109051000Y-71168140D01*
X109051000Y-72331860D01*
X109041511Y-72428210D01*
X109015198Y-72514950D01*
X108972470Y-72594889D01*
X108914962Y-72664962D01*
X108844889Y-72722470D01*
X108764950Y-72765198D01*
X108678210Y-72791511D01*
X108581860Y-72801000D01*
X104918140Y-72801000D01*
X104821790Y-72791511D01*
X104735050Y-72765198D01*
X104655111Y-72722470D01*
X104585038Y-72664962D01*
X104527530Y-72594889D01*
X104484802Y-72514950D01*
X104458489Y-72428210D01*
X104449000Y-72331860D01*
X104449000Y-71168140D01*
X104458489Y-71071790D01*
X104484802Y-70985050D01*
X104527530Y-70905111D01*
X104585038Y-70835038D01*
X104655111Y-70777530D01*
X104735050Y-70734802D01*
X104821790Y-70708489D01*
X104918140Y-70699000D01*
X108581860Y-70699000D01*
X108678210Y-70708489D01*
X108678210Y-70708489D01*
G37*
G36*
X112556564Y-70489389D02*
G01*
X112747833Y-70568615D01*
X112747835Y-70568616D01*
X112919973Y-70683635D01*
X113066365Y-70830027D01*
X113116535Y-70905111D01*
X113181385Y-71002167D01*
X113260611Y-71193436D01*
X113301000Y-71396484D01*
X113301000Y-71603516D01*
X113260611Y-71806564D01*
X113181385Y-71997833D01*
X113181384Y-71997835D01*
X113066365Y-72169973D01*
X112919973Y-72316365D01*
X112747835Y-72431384D01*
X112747834Y-72431385D01*
X112747833Y-72431385D01*
X112556564Y-72510611D01*
X112353516Y-72551000D01*
X112146484Y-72551000D01*
X111943436Y-72510611D01*
X111752167Y-72431385D01*
X111752166Y-72431385D01*
X111752165Y-72431384D01*
X111580027Y-72316365D01*
X111433635Y-72169973D01*
X111318616Y-71997835D01*
X111318615Y-71997833D01*
X111239389Y-71806564D01*
X111199000Y-71603516D01*
X111199000Y-71396484D01*
X111239389Y-71193436D01*
X111318615Y-71002167D01*
X111383466Y-70905111D01*
X111433635Y-70830027D01*
X111580027Y-70683635D01*
X111752165Y-70568616D01*
X111752167Y-70568615D01*
X111943436Y-70489389D01*
X112146484Y-70449000D01*
X112353516Y-70449000D01*
X112556564Y-70489389D01*
X112556564Y-70489389D01*
G37*
G36*
X108678210Y-68208489D02*
G01*
X108764950Y-68234802D01*
X108844889Y-68277530D01*
X108914962Y-68335038D01*
X108972470Y-68405111D01*
X109015198Y-68485050D01*
X109041511Y-68571790D01*
X109051000Y-68668140D01*
X109051000Y-69831860D01*
X109041511Y-69928210D01*
X109015198Y-70014950D01*
X108972470Y-70094889D01*
X108914962Y-70164962D01*
X108844889Y-70222470D01*
X108764950Y-70265198D01*
X108678210Y-70291511D01*
X108581860Y-70301000D01*
X104918140Y-70301000D01*
X104821790Y-70291511D01*
X104735050Y-70265198D01*
X104655111Y-70222470D01*
X104585038Y-70164962D01*
X104527530Y-70094889D01*
X104484802Y-70014950D01*
X104458489Y-69928210D01*
X104449000Y-69831860D01*
X104449000Y-68668140D01*
X104458489Y-68571790D01*
X104484802Y-68485050D01*
X104527530Y-68405111D01*
X104585038Y-68335038D01*
X104655111Y-68277530D01*
X104735050Y-68234802D01*
X104821790Y-68208489D01*
X104918140Y-68199000D01*
X108581860Y-68199000D01*
X108678210Y-68208489D01*
X108678210Y-68208489D01*
G37*
G36*
X108678210Y-65708489D02*
G01*
X108764950Y-65734802D01*
X108844889Y-65777530D01*
X108914962Y-65835038D01*
X108972470Y-65905111D01*
X109015198Y-65985050D01*
X109041511Y-66071790D01*
X109051000Y-66168140D01*
X109051000Y-67331860D01*
X109041511Y-67428210D01*
X109015198Y-67514950D01*
X108972470Y-67594889D01*
X108914962Y-67664962D01*
X108844889Y-67722470D01*
X108764950Y-67765198D01*
X108678210Y-67791511D01*
X108581860Y-67801000D01*
X104918140Y-67801000D01*
X104821790Y-67791511D01*
X104735050Y-67765198D01*
X104655111Y-67722470D01*
X104585038Y-67664962D01*
X104527530Y-67594889D01*
X104484802Y-67514950D01*
X104458489Y-67428210D01*
X104449000Y-67331860D01*
X104449000Y-66168140D01*
X104458489Y-66071790D01*
X104484802Y-65985050D01*
X104527530Y-65905111D01*
X104585038Y-65835038D01*
X104655111Y-65777530D01*
X104735050Y-65734802D01*
X104821790Y-65708489D01*
X104918140Y-65699000D01*
X108581860Y-65699000D01*
X108678210Y-65708489D01*
X108678210Y-65708489D01*
G37*
G36*
X111806564Y-64239389D02*
G01*
X111997833Y-64318615D01*
X111997835Y-64318616D01*
X112169973Y-64433635D01*
X112316365Y-64580027D01*
X112431385Y-64752167D01*
X112510611Y-64943436D01*
X112551000Y-65146484D01*
X112551000Y-65353516D01*
X112510611Y-65556564D01*
X112435043Y-65739001D01*
X112431384Y-65747835D01*
X112316365Y-65919973D01*
X112169973Y-66066365D01*
X111997835Y-66181384D01*
X111997834Y-66181385D01*
X111997833Y-66181385D01*
X111806564Y-66260611D01*
X111603516Y-66301000D01*
X111396484Y-66301000D01*
X111193436Y-66260611D01*
X111002167Y-66181385D01*
X111002166Y-66181385D01*
X111002165Y-66181384D01*
X110830027Y-66066365D01*
X110683635Y-65919973D01*
X110568616Y-65747835D01*
X110564957Y-65739001D01*
X110489389Y-65556564D01*
X110449000Y-65353516D01*
X110449000Y-65146484D01*
X110489389Y-64943436D01*
X110568615Y-64752167D01*
X110683635Y-64580027D01*
X110830027Y-64433635D01*
X111002165Y-64318616D01*
X111002167Y-64318615D01*
X111193436Y-64239389D01*
X111396484Y-64199000D01*
X111603516Y-64199000D01*
X111806564Y-64239389D01*
X111806564Y-64239389D01*
G37*
G36*
X108678210Y-63208489D02*
G01*
X108764950Y-63234802D01*
X108844889Y-63277530D01*
X108914962Y-63335038D01*
X108972470Y-63405111D01*
X109015198Y-63485050D01*
X109041511Y-63571790D01*
X109051000Y-63668140D01*
X109051000Y-64831860D01*
X109041511Y-64928210D01*
X109015198Y-65014950D01*
X108972470Y-65094889D01*
X108914962Y-65164962D01*
X108844889Y-65222470D01*
X108764950Y-65265198D01*
X108678210Y-65291511D01*
X108581860Y-65301000D01*
X104918140Y-65301000D01*
X104821790Y-65291511D01*
X104735050Y-65265198D01*
X104655111Y-65222470D01*
X104585038Y-65164962D01*
X104527530Y-65094889D01*
X104484802Y-65014950D01*
X104458489Y-64928210D01*
X104449000Y-64831860D01*
X104449000Y-63668140D01*
X104458489Y-63571790D01*
X104484802Y-63485050D01*
X104527530Y-63405111D01*
X104585038Y-63335038D01*
X104655111Y-63277530D01*
X104735050Y-63234802D01*
X104821790Y-63208489D01*
X104918140Y-63199000D01*
X108581860Y-63199000D01*
X108678210Y-63208489D01*
X108678210Y-63208489D01*
G37*
M02*
