G04 #@! TF.GenerationSoftware,KiCad,Pcbnew,(5.1.0-0)*
G04 #@! TF.CreationDate,2020-07-01T23:51:59+02:00*
G04 #@! TF.ProjectId,POxiM-fingersensor,504f7869-4d2d-4666-996e-67657273656e,Test proto*
G04 #@! TF.SameCoordinates,Original*
G04 #@! TF.FileFunction,Copper,L1,Top*
G04 #@! TF.FilePolarity,Positive*
%FSLAX46Y46*%
G04 Gerber Fmt 4.6, Leading zero omitted, Abs format (unit mm)*
G04 Created by KiCad (PCBNEW (5.1.0-0)) date 2020-07-01 23:51:59*
%MOMM*%
%LPD*%
G04 APERTURE LIST*
%ADD10C,0.500000*%
%ADD11C,0.100000*%
%ADD12C,1.650000*%
%ADD13C,1.075000*%
%ADD14C,0.800000*%
%ADD15C,1.800000*%
%ADD16C,0.400000*%
%ADD17C,0.250000*%
G04 APERTURE END LIST*
D10*
X105000000Y-84250000D03*
X113000000Y-86250000D03*
D11*
G36*
X109592830Y-86301239D02*
G01*
X109617816Y-86304946D01*
X109642319Y-86311084D01*
X109666103Y-86319593D01*
X109688938Y-86330393D01*
X109710604Y-86343380D01*
X109730893Y-86358427D01*
X109749609Y-86375391D01*
X109766573Y-86394107D01*
X109781620Y-86414396D01*
X109794607Y-86436062D01*
X109805407Y-86458897D01*
X109813916Y-86482681D01*
X109820054Y-86507184D01*
X109823761Y-86532170D01*
X109825000Y-86557400D01*
X109825000Y-87967600D01*
X109823761Y-87992830D01*
X109820054Y-88017816D01*
X109813916Y-88042319D01*
X109805407Y-88066103D01*
X109794607Y-88088938D01*
X109781620Y-88110604D01*
X109766573Y-88130893D01*
X109749609Y-88149609D01*
X109730893Y-88166573D01*
X109710604Y-88181620D01*
X109688938Y-88194607D01*
X109666103Y-88205407D01*
X109642319Y-88213916D01*
X109617816Y-88220054D01*
X109592830Y-88223761D01*
X109567600Y-88225000D01*
X108432400Y-88225000D01*
X108407170Y-88223761D01*
X108382184Y-88220054D01*
X108357681Y-88213916D01*
X108333897Y-88205407D01*
X108311062Y-88194607D01*
X108289396Y-88181620D01*
X108269107Y-88166573D01*
X108250391Y-88149609D01*
X108233427Y-88130893D01*
X108218380Y-88110604D01*
X108205393Y-88088938D01*
X108194593Y-88066103D01*
X108186084Y-88042319D01*
X108179946Y-88017816D01*
X108176239Y-87992830D01*
X108175000Y-87967600D01*
X108175000Y-86557400D01*
X108176239Y-86532170D01*
X108179946Y-86507184D01*
X108186084Y-86482681D01*
X108194593Y-86458897D01*
X108205393Y-86436062D01*
X108218380Y-86414396D01*
X108233427Y-86394107D01*
X108250391Y-86375391D01*
X108269107Y-86358427D01*
X108289396Y-86343380D01*
X108311062Y-86330393D01*
X108333897Y-86319593D01*
X108357681Y-86311084D01*
X108382184Y-86304946D01*
X108407170Y-86301239D01*
X108432400Y-86300000D01*
X109567600Y-86300000D01*
X109592830Y-86301239D01*
X109592830Y-86301239D01*
G37*
D12*
X109000000Y-87262500D03*
D11*
G36*
X109592830Y-83776239D02*
G01*
X109617816Y-83779946D01*
X109642319Y-83786084D01*
X109666103Y-83794593D01*
X109688938Y-83805393D01*
X109710604Y-83818380D01*
X109730893Y-83833427D01*
X109749609Y-83850391D01*
X109766573Y-83869107D01*
X109781620Y-83889396D01*
X109794607Y-83911062D01*
X109805407Y-83933897D01*
X109813916Y-83957681D01*
X109820054Y-83982184D01*
X109823761Y-84007170D01*
X109825000Y-84032400D01*
X109825000Y-85442600D01*
X109823761Y-85467830D01*
X109820054Y-85492816D01*
X109813916Y-85517319D01*
X109805407Y-85541103D01*
X109794607Y-85563938D01*
X109781620Y-85585604D01*
X109766573Y-85605893D01*
X109749609Y-85624609D01*
X109730893Y-85641573D01*
X109710604Y-85656620D01*
X109688938Y-85669607D01*
X109666103Y-85680407D01*
X109642319Y-85688916D01*
X109617816Y-85695054D01*
X109592830Y-85698761D01*
X109567600Y-85700000D01*
X108432400Y-85700000D01*
X108407170Y-85698761D01*
X108382184Y-85695054D01*
X108357681Y-85688916D01*
X108333897Y-85680407D01*
X108311062Y-85669607D01*
X108289396Y-85656620D01*
X108269107Y-85641573D01*
X108250391Y-85624609D01*
X108233427Y-85605893D01*
X108218380Y-85585604D01*
X108205393Y-85563938D01*
X108194593Y-85541103D01*
X108186084Y-85517319D01*
X108179946Y-85492816D01*
X108176239Y-85467830D01*
X108175000Y-85442600D01*
X108175000Y-84032400D01*
X108176239Y-84007170D01*
X108179946Y-83982184D01*
X108186084Y-83957681D01*
X108194593Y-83933897D01*
X108205393Y-83911062D01*
X108218380Y-83889396D01*
X108233427Y-83869107D01*
X108250391Y-83850391D01*
X108269107Y-83833427D01*
X108289396Y-83818380D01*
X108311062Y-83805393D01*
X108333897Y-83794593D01*
X108357681Y-83786084D01*
X108382184Y-83779946D01*
X108407170Y-83776239D01*
X108432400Y-83775000D01*
X109567600Y-83775000D01*
X109592830Y-83776239D01*
X109592830Y-83776239D01*
G37*
D12*
X109000000Y-84737500D03*
D10*
X105875000Y-64250000D03*
X113000000Y-69750000D03*
D11*
G36*
X110457592Y-67576294D02*
G01*
X110483681Y-67580164D01*
X110509264Y-67586572D01*
X110534096Y-67595457D01*
X110557938Y-67606734D01*
X110580560Y-67620293D01*
X110601743Y-67636003D01*
X110621285Y-67653715D01*
X110638997Y-67673257D01*
X110654707Y-67694440D01*
X110668266Y-67717062D01*
X110679543Y-67740904D01*
X110688428Y-67765736D01*
X110694836Y-67791319D01*
X110698706Y-67817408D01*
X110700000Y-67843750D01*
X110700000Y-68381250D01*
X110698706Y-68407592D01*
X110694836Y-68433681D01*
X110688428Y-68459264D01*
X110679543Y-68484096D01*
X110668266Y-68507938D01*
X110654707Y-68530560D01*
X110638997Y-68551743D01*
X110621285Y-68571285D01*
X110601743Y-68588997D01*
X110580560Y-68604707D01*
X110557938Y-68618266D01*
X110534096Y-68629543D01*
X110509264Y-68638428D01*
X110483681Y-68644836D01*
X110457592Y-68648706D01*
X110431250Y-68650000D01*
X109568750Y-68650000D01*
X109542408Y-68648706D01*
X109516319Y-68644836D01*
X109490736Y-68638428D01*
X109465904Y-68629543D01*
X109442062Y-68618266D01*
X109419440Y-68604707D01*
X109398257Y-68588997D01*
X109378715Y-68571285D01*
X109361003Y-68551743D01*
X109345293Y-68530560D01*
X109331734Y-68507938D01*
X109320457Y-68484096D01*
X109311572Y-68459264D01*
X109305164Y-68433681D01*
X109301294Y-68407592D01*
X109300000Y-68381250D01*
X109300000Y-67843750D01*
X109301294Y-67817408D01*
X109305164Y-67791319D01*
X109311572Y-67765736D01*
X109320457Y-67740904D01*
X109331734Y-67717062D01*
X109345293Y-67694440D01*
X109361003Y-67673257D01*
X109378715Y-67653715D01*
X109398257Y-67636003D01*
X109419440Y-67620293D01*
X109442062Y-67606734D01*
X109465904Y-67595457D01*
X109490736Y-67586572D01*
X109516319Y-67580164D01*
X109542408Y-67576294D01*
X109568750Y-67575000D01*
X110431250Y-67575000D01*
X110457592Y-67576294D01*
X110457592Y-67576294D01*
G37*
D13*
X110000000Y-68112500D03*
D11*
G36*
X110457592Y-69351294D02*
G01*
X110483681Y-69355164D01*
X110509264Y-69361572D01*
X110534096Y-69370457D01*
X110557938Y-69381734D01*
X110580560Y-69395293D01*
X110601743Y-69411003D01*
X110621285Y-69428715D01*
X110638997Y-69448257D01*
X110654707Y-69469440D01*
X110668266Y-69492062D01*
X110679543Y-69515904D01*
X110688428Y-69540736D01*
X110694836Y-69566319D01*
X110698706Y-69592408D01*
X110700000Y-69618750D01*
X110700000Y-70156250D01*
X110698706Y-70182592D01*
X110694836Y-70208681D01*
X110688428Y-70234264D01*
X110679543Y-70259096D01*
X110668266Y-70282938D01*
X110654707Y-70305560D01*
X110638997Y-70326743D01*
X110621285Y-70346285D01*
X110601743Y-70363997D01*
X110580560Y-70379707D01*
X110557938Y-70393266D01*
X110534096Y-70404543D01*
X110509264Y-70413428D01*
X110483681Y-70419836D01*
X110457592Y-70423706D01*
X110431250Y-70425000D01*
X109568750Y-70425000D01*
X109542408Y-70423706D01*
X109516319Y-70419836D01*
X109490736Y-70413428D01*
X109465904Y-70404543D01*
X109442062Y-70393266D01*
X109419440Y-70379707D01*
X109398257Y-70363997D01*
X109378715Y-70346285D01*
X109361003Y-70326743D01*
X109345293Y-70305560D01*
X109331734Y-70282938D01*
X109320457Y-70259096D01*
X109311572Y-70234264D01*
X109305164Y-70208681D01*
X109301294Y-70182592D01*
X109300000Y-70156250D01*
X109300000Y-69618750D01*
X109301294Y-69592408D01*
X109305164Y-69566319D01*
X109311572Y-69540736D01*
X109320457Y-69515904D01*
X109331734Y-69492062D01*
X109345293Y-69469440D01*
X109361003Y-69448257D01*
X109378715Y-69428715D01*
X109398257Y-69411003D01*
X109419440Y-69395293D01*
X109442062Y-69381734D01*
X109465904Y-69370457D01*
X109490736Y-69361572D01*
X109516319Y-69355164D01*
X109542408Y-69351294D01*
X109568750Y-69350000D01*
X110431250Y-69350000D01*
X110457592Y-69351294D01*
X110457592Y-69351294D01*
G37*
D13*
X110000000Y-69887500D03*
D11*
G36*
X108457592Y-67576294D02*
G01*
X108483681Y-67580164D01*
X108509264Y-67586572D01*
X108534096Y-67595457D01*
X108557938Y-67606734D01*
X108580560Y-67620293D01*
X108601743Y-67636003D01*
X108621285Y-67653715D01*
X108638997Y-67673257D01*
X108654707Y-67694440D01*
X108668266Y-67717062D01*
X108679543Y-67740904D01*
X108688428Y-67765736D01*
X108694836Y-67791319D01*
X108698706Y-67817408D01*
X108700000Y-67843750D01*
X108700000Y-68381250D01*
X108698706Y-68407592D01*
X108694836Y-68433681D01*
X108688428Y-68459264D01*
X108679543Y-68484096D01*
X108668266Y-68507938D01*
X108654707Y-68530560D01*
X108638997Y-68551743D01*
X108621285Y-68571285D01*
X108601743Y-68588997D01*
X108580560Y-68604707D01*
X108557938Y-68618266D01*
X108534096Y-68629543D01*
X108509264Y-68638428D01*
X108483681Y-68644836D01*
X108457592Y-68648706D01*
X108431250Y-68650000D01*
X107568750Y-68650000D01*
X107542408Y-68648706D01*
X107516319Y-68644836D01*
X107490736Y-68638428D01*
X107465904Y-68629543D01*
X107442062Y-68618266D01*
X107419440Y-68604707D01*
X107398257Y-68588997D01*
X107378715Y-68571285D01*
X107361003Y-68551743D01*
X107345293Y-68530560D01*
X107331734Y-68507938D01*
X107320457Y-68484096D01*
X107311572Y-68459264D01*
X107305164Y-68433681D01*
X107301294Y-68407592D01*
X107300000Y-68381250D01*
X107300000Y-67843750D01*
X107301294Y-67817408D01*
X107305164Y-67791319D01*
X107311572Y-67765736D01*
X107320457Y-67740904D01*
X107331734Y-67717062D01*
X107345293Y-67694440D01*
X107361003Y-67673257D01*
X107378715Y-67653715D01*
X107398257Y-67636003D01*
X107419440Y-67620293D01*
X107442062Y-67606734D01*
X107465904Y-67595457D01*
X107490736Y-67586572D01*
X107516319Y-67580164D01*
X107542408Y-67576294D01*
X107568750Y-67575000D01*
X108431250Y-67575000D01*
X108457592Y-67576294D01*
X108457592Y-67576294D01*
G37*
D13*
X108000000Y-68112500D03*
D11*
G36*
X108457592Y-69351294D02*
G01*
X108483681Y-69355164D01*
X108509264Y-69361572D01*
X108534096Y-69370457D01*
X108557938Y-69381734D01*
X108580560Y-69395293D01*
X108601743Y-69411003D01*
X108621285Y-69428715D01*
X108638997Y-69448257D01*
X108654707Y-69469440D01*
X108668266Y-69492062D01*
X108679543Y-69515904D01*
X108688428Y-69540736D01*
X108694836Y-69566319D01*
X108698706Y-69592408D01*
X108700000Y-69618750D01*
X108700000Y-70156250D01*
X108698706Y-70182592D01*
X108694836Y-70208681D01*
X108688428Y-70234264D01*
X108679543Y-70259096D01*
X108668266Y-70282938D01*
X108654707Y-70305560D01*
X108638997Y-70326743D01*
X108621285Y-70346285D01*
X108601743Y-70363997D01*
X108580560Y-70379707D01*
X108557938Y-70393266D01*
X108534096Y-70404543D01*
X108509264Y-70413428D01*
X108483681Y-70419836D01*
X108457592Y-70423706D01*
X108431250Y-70425000D01*
X107568750Y-70425000D01*
X107542408Y-70423706D01*
X107516319Y-70419836D01*
X107490736Y-70413428D01*
X107465904Y-70404543D01*
X107442062Y-70393266D01*
X107419440Y-70379707D01*
X107398257Y-70363997D01*
X107378715Y-70346285D01*
X107361003Y-70326743D01*
X107345293Y-70305560D01*
X107331734Y-70282938D01*
X107320457Y-70259096D01*
X107311572Y-70234264D01*
X107305164Y-70208681D01*
X107301294Y-70182592D01*
X107300000Y-70156250D01*
X107300000Y-69618750D01*
X107301294Y-69592408D01*
X107305164Y-69566319D01*
X107311572Y-69540736D01*
X107320457Y-69515904D01*
X107331734Y-69492062D01*
X107345293Y-69469440D01*
X107361003Y-69448257D01*
X107378715Y-69428715D01*
X107398257Y-69411003D01*
X107419440Y-69395293D01*
X107442062Y-69381734D01*
X107465904Y-69370457D01*
X107490736Y-69361572D01*
X107516319Y-69355164D01*
X107542408Y-69351294D01*
X107568750Y-69350000D01*
X108431250Y-69350000D01*
X108457592Y-69351294D01*
X108457592Y-69351294D01*
G37*
D13*
X108000000Y-69887500D03*
D14*
X105250000Y-74750000D03*
X106000000Y-75375000D03*
X107500000Y-75375000D03*
X106750000Y-76000000D03*
X108250000Y-74750000D03*
X108500000Y-72250000D03*
D15*
X106750000Y-74250000D03*
D14*
X108250000Y-76000000D03*
X105000000Y-72250000D03*
X105250000Y-76000000D03*
X105000000Y-71250000D03*
X106750000Y-71250000D03*
X106750000Y-72250000D03*
X108500000Y-71250000D03*
X108250000Y-80250000D03*
X106750000Y-80250000D03*
X108250000Y-82000000D03*
X107500000Y-81125000D03*
X106000000Y-81125000D03*
X105250000Y-82000000D03*
D15*
X106750000Y-82250000D03*
D14*
X105250000Y-80250000D03*
X105000000Y-66250000D03*
X106750000Y-66250000D03*
X108500000Y-66250000D03*
X105000000Y-67250000D03*
X107750000Y-66750000D03*
X106500000Y-67250000D03*
X105000000Y-64750000D03*
X105000000Y-63750000D03*
X106750000Y-64750000D03*
X108500000Y-64750000D03*
X106750000Y-63750000D03*
X108500000Y-63750000D03*
X105000000Y-69750000D03*
X105000000Y-68750000D03*
X112000000Y-75375000D03*
X111500000Y-69750000D03*
X106500000Y-69750000D03*
X106500000Y-68750000D03*
X105750000Y-69250000D03*
X111250000Y-76000000D03*
X109750000Y-74750000D03*
X110500000Y-75375000D03*
X112750000Y-74750000D03*
D15*
X111250000Y-74250000D03*
D14*
X112750000Y-76000000D03*
X109750000Y-76000000D03*
X111250000Y-80250000D03*
X109750000Y-80250000D03*
D15*
X111250000Y-82250000D03*
D14*
X112000000Y-81125000D03*
X109750000Y-82000000D03*
X112750000Y-80250000D03*
X110500000Y-81125000D03*
X112750000Y-82000000D03*
X109000000Y-89000000D03*
D16*
X105000000Y-73750000D02*
X105000000Y-75000000D01*
X109000000Y-83500000D02*
X108500000Y-83000000D01*
X109000000Y-84737500D02*
X109000000Y-83500000D01*
X108000000Y-68187500D02*
X108000000Y-66612500D01*
X109500000Y-64250000D02*
X108750000Y-64250000D01*
X110000000Y-68112500D02*
X110000000Y-64750000D01*
X110000000Y-64750000D02*
X109500000Y-64250000D01*
X110000000Y-69887500D02*
X112000000Y-69887500D01*
X110000000Y-69887500D02*
X108000000Y-69887500D01*
X108000000Y-69887500D02*
X106637500Y-69887500D01*
X106637500Y-69887500D02*
X106500000Y-69750000D01*
X110000000Y-69925000D02*
X110000000Y-71500000D01*
X109000000Y-87262500D02*
X109000000Y-89000000D01*
D17*
G36*
X108875000Y-67204764D02*
G01*
X108864154Y-67195863D01*
X108729440Y-67123857D01*
X108583266Y-67079515D01*
X108431250Y-67064543D01*
X107568750Y-67064543D01*
X107416734Y-67079515D01*
X107270560Y-67123857D01*
X107135846Y-67195863D01*
X107017767Y-67292767D01*
X106920863Y-67410846D01*
X106848857Y-67545560D01*
X106824759Y-67625000D01*
X104425000Y-67625000D01*
X104425000Y-65875000D01*
X108875000Y-65875000D01*
X108875000Y-67204764D01*
X108875000Y-67204764D01*
G37*
X108875000Y-67204764D02*
X108864154Y-67195863D01*
X108729440Y-67123857D01*
X108583266Y-67079515D01*
X108431250Y-67064543D01*
X107568750Y-67064543D01*
X107416734Y-67079515D01*
X107270560Y-67123857D01*
X107135846Y-67195863D01*
X107017767Y-67292767D01*
X106920863Y-67410846D01*
X106848857Y-67545560D01*
X106824759Y-67625000D01*
X104425000Y-67625000D01*
X104425000Y-65875000D01*
X108875000Y-65875000D01*
X108875000Y-67204764D01*
G36*
X108875000Y-65125000D02*
G01*
X104425000Y-65125000D01*
X104425000Y-64173669D01*
X105100000Y-64173669D01*
X105100000Y-64326331D01*
X105129783Y-64476059D01*
X105188204Y-64617100D01*
X105273018Y-64744034D01*
X105380966Y-64851982D01*
X105507900Y-64936796D01*
X105648941Y-64995217D01*
X105798669Y-65025000D01*
X105951331Y-65025000D01*
X106101059Y-64995217D01*
X106242100Y-64936796D01*
X106369034Y-64851982D01*
X106476982Y-64744034D01*
X106561796Y-64617100D01*
X106620217Y-64476059D01*
X106650000Y-64326331D01*
X106650000Y-64173669D01*
X106620217Y-64023941D01*
X106561796Y-63882900D01*
X106476982Y-63755966D01*
X106369034Y-63648018D01*
X106242100Y-63563204D01*
X106101059Y-63504783D01*
X105951331Y-63475000D01*
X105798669Y-63475000D01*
X105648941Y-63504783D01*
X105507900Y-63563204D01*
X105380966Y-63648018D01*
X105273018Y-63755966D01*
X105188204Y-63882900D01*
X105129783Y-64023941D01*
X105100000Y-64173669D01*
X104425000Y-64173669D01*
X104425000Y-63175000D01*
X108875000Y-63175000D01*
X108875000Y-65125000D01*
X108875000Y-65125000D01*
G37*
X108875000Y-65125000D02*
X104425000Y-65125000D01*
X104425000Y-64173669D01*
X105100000Y-64173669D01*
X105100000Y-64326331D01*
X105129783Y-64476059D01*
X105188204Y-64617100D01*
X105273018Y-64744034D01*
X105380966Y-64851982D01*
X105507900Y-64936796D01*
X105648941Y-64995217D01*
X105798669Y-65025000D01*
X105951331Y-65025000D01*
X106101059Y-64995217D01*
X106242100Y-64936796D01*
X106369034Y-64851982D01*
X106476982Y-64744034D01*
X106561796Y-64617100D01*
X106620217Y-64476059D01*
X106650000Y-64326331D01*
X106650000Y-64173669D01*
X106620217Y-64023941D01*
X106561796Y-63882900D01*
X106476982Y-63755966D01*
X106369034Y-63648018D01*
X106242100Y-63563204D01*
X106101059Y-63504783D01*
X105951331Y-63475000D01*
X105798669Y-63475000D01*
X105648941Y-63504783D01*
X105507900Y-63563204D01*
X105380966Y-63648018D01*
X105273018Y-63755966D01*
X105188204Y-63882900D01*
X105129783Y-64023941D01*
X105100000Y-64173669D01*
X104425000Y-64173669D01*
X104425000Y-63175000D01*
X108875000Y-63175000D01*
X108875000Y-65125000D01*
G36*
X113575001Y-69228985D02*
G01*
X113494034Y-69148018D01*
X113367100Y-69063204D01*
X113226059Y-69004783D01*
X113076331Y-68975000D01*
X112923669Y-68975000D01*
X112773941Y-69004783D01*
X112632900Y-69063204D01*
X112505966Y-69148018D01*
X112398018Y-69255966D01*
X112313204Y-69382900D01*
X112254783Y-69523941D01*
X112225000Y-69673669D01*
X112225000Y-69826331D01*
X112254783Y-69976059D01*
X112313204Y-70117100D01*
X112398018Y-70244034D01*
X112505966Y-70351982D01*
X112632900Y-70436796D01*
X112773941Y-70495217D01*
X112923669Y-70525000D01*
X113076331Y-70525000D01*
X113226059Y-70495217D01*
X113367100Y-70436796D01*
X113494034Y-70351982D01*
X113575000Y-70271016D01*
X113575000Y-76475000D01*
X109375000Y-76475000D01*
X109375000Y-73051776D01*
X109588388Y-72838388D01*
X109603934Y-72819446D01*
X109615485Y-72797835D01*
X109622598Y-72774386D01*
X109625000Y-72750000D01*
X109625000Y-70935457D01*
X110191432Y-70935457D01*
X110129762Y-71084343D01*
X110075000Y-71359650D01*
X110075000Y-71640350D01*
X110129762Y-71915657D01*
X110237181Y-72174991D01*
X110393130Y-72408385D01*
X110591615Y-72606870D01*
X110825009Y-72762819D01*
X111084343Y-72870238D01*
X111359650Y-72925000D01*
X111640350Y-72925000D01*
X111915657Y-72870238D01*
X112174991Y-72762819D01*
X112408385Y-72606870D01*
X112606870Y-72408385D01*
X112762819Y-72174991D01*
X112870238Y-71915657D01*
X112925000Y-71640350D01*
X112925000Y-71359650D01*
X112870238Y-71084343D01*
X112762819Y-70825009D01*
X112606870Y-70591615D01*
X112408385Y-70393130D01*
X112174991Y-70237181D01*
X111915657Y-70129762D01*
X111640350Y-70075000D01*
X111359650Y-70075000D01*
X111210457Y-70104676D01*
X111210457Y-69618750D01*
X111195485Y-69466734D01*
X111151143Y-69320560D01*
X111079137Y-69185846D01*
X110982233Y-69067767D01*
X110913057Y-69010996D01*
X110994312Y-68944312D01*
X111093341Y-68823645D01*
X111166926Y-68685977D01*
X111212240Y-68536598D01*
X111227540Y-68381250D01*
X111227540Y-67843750D01*
X111212240Y-67688402D01*
X111166926Y-67539023D01*
X111093341Y-67401355D01*
X110994312Y-67280688D01*
X110873645Y-67181659D01*
X110735977Y-67108074D01*
X110586598Y-67062760D01*
X110525000Y-67056693D01*
X110525000Y-66290255D01*
X110591615Y-66356870D01*
X110825009Y-66512819D01*
X111084343Y-66620238D01*
X111359650Y-66675000D01*
X111640350Y-66675000D01*
X111915657Y-66620238D01*
X112174991Y-66512819D01*
X112408385Y-66356870D01*
X112606870Y-66158385D01*
X112762819Y-65924991D01*
X112870238Y-65665657D01*
X112925000Y-65390350D01*
X112925000Y-65109650D01*
X112870238Y-64834343D01*
X112762819Y-64575009D01*
X112606870Y-64341615D01*
X112408385Y-64143130D01*
X112174991Y-63987181D01*
X111915657Y-63879762D01*
X111640350Y-63825000D01*
X111359650Y-63825000D01*
X111084343Y-63879762D01*
X110825009Y-63987181D01*
X110591615Y-64143130D01*
X110393130Y-64341615D01*
X110370752Y-64375106D01*
X110353001Y-64360538D01*
X109889470Y-63897009D01*
X109873027Y-63876973D01*
X109793086Y-63811367D01*
X109701881Y-63762617D01*
X109625000Y-63739295D01*
X109625000Y-63175000D01*
X113575001Y-63175000D01*
X113575001Y-69228985D01*
X113575001Y-69228985D01*
G37*
X113575001Y-69228985D02*
X113494034Y-69148018D01*
X113367100Y-69063204D01*
X113226059Y-69004783D01*
X113076331Y-68975000D01*
X112923669Y-68975000D01*
X112773941Y-69004783D01*
X112632900Y-69063204D01*
X112505966Y-69148018D01*
X112398018Y-69255966D01*
X112313204Y-69382900D01*
X112254783Y-69523941D01*
X112225000Y-69673669D01*
X112225000Y-69826331D01*
X112254783Y-69976059D01*
X112313204Y-70117100D01*
X112398018Y-70244034D01*
X112505966Y-70351982D01*
X112632900Y-70436796D01*
X112773941Y-70495217D01*
X112923669Y-70525000D01*
X113076331Y-70525000D01*
X113226059Y-70495217D01*
X113367100Y-70436796D01*
X113494034Y-70351982D01*
X113575000Y-70271016D01*
X113575000Y-76475000D01*
X109375000Y-76475000D01*
X109375000Y-73051776D01*
X109588388Y-72838388D01*
X109603934Y-72819446D01*
X109615485Y-72797835D01*
X109622598Y-72774386D01*
X109625000Y-72750000D01*
X109625000Y-70935457D01*
X110191432Y-70935457D01*
X110129762Y-71084343D01*
X110075000Y-71359650D01*
X110075000Y-71640350D01*
X110129762Y-71915657D01*
X110237181Y-72174991D01*
X110393130Y-72408385D01*
X110591615Y-72606870D01*
X110825009Y-72762819D01*
X111084343Y-72870238D01*
X111359650Y-72925000D01*
X111640350Y-72925000D01*
X111915657Y-72870238D01*
X112174991Y-72762819D01*
X112408385Y-72606870D01*
X112606870Y-72408385D01*
X112762819Y-72174991D01*
X112870238Y-71915657D01*
X112925000Y-71640350D01*
X112925000Y-71359650D01*
X112870238Y-71084343D01*
X112762819Y-70825009D01*
X112606870Y-70591615D01*
X112408385Y-70393130D01*
X112174991Y-70237181D01*
X111915657Y-70129762D01*
X111640350Y-70075000D01*
X111359650Y-70075000D01*
X111210457Y-70104676D01*
X111210457Y-69618750D01*
X111195485Y-69466734D01*
X111151143Y-69320560D01*
X111079137Y-69185846D01*
X110982233Y-69067767D01*
X110913057Y-69010996D01*
X110994312Y-68944312D01*
X111093341Y-68823645D01*
X111166926Y-68685977D01*
X111212240Y-68536598D01*
X111227540Y-68381250D01*
X111227540Y-67843750D01*
X111212240Y-67688402D01*
X111166926Y-67539023D01*
X111093341Y-67401355D01*
X110994312Y-67280688D01*
X110873645Y-67181659D01*
X110735977Y-67108074D01*
X110586598Y-67062760D01*
X110525000Y-67056693D01*
X110525000Y-66290255D01*
X110591615Y-66356870D01*
X110825009Y-66512819D01*
X111084343Y-66620238D01*
X111359650Y-66675000D01*
X111640350Y-66675000D01*
X111915657Y-66620238D01*
X112174991Y-66512819D01*
X112408385Y-66356870D01*
X112606870Y-66158385D01*
X112762819Y-65924991D01*
X112870238Y-65665657D01*
X112925000Y-65390350D01*
X112925000Y-65109650D01*
X112870238Y-64834343D01*
X112762819Y-64575009D01*
X112606870Y-64341615D01*
X112408385Y-64143130D01*
X112174991Y-63987181D01*
X111915657Y-63879762D01*
X111640350Y-63825000D01*
X111359650Y-63825000D01*
X111084343Y-63879762D01*
X110825009Y-63987181D01*
X110591615Y-64143130D01*
X110393130Y-64341615D01*
X110370752Y-64375106D01*
X110353001Y-64360538D01*
X109889470Y-63897009D01*
X109873027Y-63876973D01*
X109793086Y-63811367D01*
X109701881Y-63762617D01*
X109625000Y-63739295D01*
X109625000Y-63175000D01*
X113575001Y-63175000D01*
X113575001Y-69228985D01*
G36*
X106772460Y-68381250D02*
G01*
X106787760Y-68536598D01*
X106833074Y-68685977D01*
X106906659Y-68823645D01*
X107005688Y-68944312D01*
X107086943Y-69010996D01*
X107017767Y-69067767D01*
X106920863Y-69185846D01*
X106848857Y-69320560D01*
X106804515Y-69466734D01*
X106789543Y-69618750D01*
X106789543Y-70125000D01*
X104425000Y-70125000D01*
X104425000Y-68375000D01*
X106772460Y-68375000D01*
X106772460Y-68381250D01*
X106772460Y-68381250D01*
G37*
X106772460Y-68381250D02*
X106787760Y-68536598D01*
X106833074Y-68685977D01*
X106906659Y-68823645D01*
X107005688Y-68944312D01*
X107086943Y-69010996D01*
X107017767Y-69067767D01*
X106920863Y-69185846D01*
X106848857Y-69320560D01*
X106804515Y-69466734D01*
X106789543Y-69618750D01*
X106789543Y-70125000D01*
X104425000Y-70125000D01*
X104425000Y-68375000D01*
X106772460Y-68375000D01*
X106772460Y-68381250D01*
G36*
X107264023Y-70891926D02*
G01*
X107413402Y-70937240D01*
X107568750Y-70952540D01*
X108431250Y-70952540D01*
X108586598Y-70937240D01*
X108735977Y-70891926D01*
X108767643Y-70875000D01*
X108875000Y-70875000D01*
X108875000Y-72448224D01*
X108661612Y-72661612D01*
X108646066Y-72680554D01*
X108634515Y-72702165D01*
X108627402Y-72725614D01*
X108625000Y-72750000D01*
X108625000Y-76475000D01*
X104425000Y-76475000D01*
X104425000Y-70875000D01*
X107232357Y-70875000D01*
X107264023Y-70891926D01*
X107264023Y-70891926D01*
G37*
X107264023Y-70891926D02*
X107413402Y-70937240D01*
X107568750Y-70952540D01*
X108431250Y-70952540D01*
X108586598Y-70937240D01*
X108735977Y-70891926D01*
X108767643Y-70875000D01*
X108875000Y-70875000D01*
X108875000Y-72448224D01*
X108661612Y-72661612D01*
X108646066Y-72680554D01*
X108634515Y-72702165D01*
X108627402Y-72725614D01*
X108625000Y-72750000D01*
X108625000Y-76475000D01*
X104425000Y-76475000D01*
X104425000Y-70875000D01*
X107232357Y-70875000D01*
X107264023Y-70891926D01*
G36*
X113575000Y-89575000D02*
G01*
X104425000Y-89575000D01*
X104425000Y-86625000D01*
X105370823Y-86625000D01*
X105237181Y-86825009D01*
X105129762Y-87084343D01*
X105075000Y-87359650D01*
X105075000Y-87640350D01*
X105129762Y-87915657D01*
X105237181Y-88174991D01*
X105393130Y-88408385D01*
X105591615Y-88606870D01*
X105825009Y-88762819D01*
X106084343Y-88870238D01*
X106359650Y-88925000D01*
X106640350Y-88925000D01*
X106915657Y-88870238D01*
X107174991Y-88762819D01*
X107408385Y-88606870D01*
X107606870Y-88408385D01*
X107717391Y-88242979D01*
X107722993Y-88261446D01*
X107793950Y-88394198D01*
X107889443Y-88510557D01*
X108005802Y-88606050D01*
X108138554Y-88677007D01*
X108282599Y-88720703D01*
X108432400Y-88735457D01*
X109567600Y-88735457D01*
X109717401Y-88720703D01*
X109861446Y-88677007D01*
X109994198Y-88606050D01*
X110110557Y-88510557D01*
X110206050Y-88394198D01*
X110277007Y-88261446D01*
X110282609Y-88242979D01*
X110393130Y-88408385D01*
X110591615Y-88606870D01*
X110825009Y-88762819D01*
X111084343Y-88870238D01*
X111359650Y-88925000D01*
X111640350Y-88925000D01*
X111915657Y-88870238D01*
X112174991Y-88762819D01*
X112408385Y-88606870D01*
X112606870Y-88408385D01*
X112762819Y-88174991D01*
X112870238Y-87915657D01*
X112925000Y-87640350D01*
X112925000Y-87359650D01*
X112870238Y-87084343D01*
X112764440Y-86828923D01*
X112817694Y-86850981D01*
X112938443Y-86875000D01*
X113061557Y-86875000D01*
X113182306Y-86850981D01*
X113296048Y-86803868D01*
X113398414Y-86735469D01*
X113485469Y-86648414D01*
X113553868Y-86546048D01*
X113575000Y-86495030D01*
X113575000Y-89575000D01*
X113575000Y-89575000D01*
G37*
X113575000Y-89575000D02*
X104425000Y-89575000D01*
X104425000Y-86625000D01*
X105370823Y-86625000D01*
X105237181Y-86825009D01*
X105129762Y-87084343D01*
X105075000Y-87359650D01*
X105075000Y-87640350D01*
X105129762Y-87915657D01*
X105237181Y-88174991D01*
X105393130Y-88408385D01*
X105591615Y-88606870D01*
X105825009Y-88762819D01*
X106084343Y-88870238D01*
X106359650Y-88925000D01*
X106640350Y-88925000D01*
X106915657Y-88870238D01*
X107174991Y-88762819D01*
X107408385Y-88606870D01*
X107606870Y-88408385D01*
X107717391Y-88242979D01*
X107722993Y-88261446D01*
X107793950Y-88394198D01*
X107889443Y-88510557D01*
X108005802Y-88606050D01*
X108138554Y-88677007D01*
X108282599Y-88720703D01*
X108432400Y-88735457D01*
X109567600Y-88735457D01*
X109717401Y-88720703D01*
X109861446Y-88677007D01*
X109994198Y-88606050D01*
X110110557Y-88510557D01*
X110206050Y-88394198D01*
X110277007Y-88261446D01*
X110282609Y-88242979D01*
X110393130Y-88408385D01*
X110591615Y-88606870D01*
X110825009Y-88762819D01*
X111084343Y-88870238D01*
X111359650Y-88925000D01*
X111640350Y-88925000D01*
X111915657Y-88870238D01*
X112174991Y-88762819D01*
X112408385Y-88606870D01*
X112606870Y-88408385D01*
X112762819Y-88174991D01*
X112870238Y-87915657D01*
X112925000Y-87640350D01*
X112925000Y-87359650D01*
X112870238Y-87084343D01*
X112764440Y-86828923D01*
X112817694Y-86850981D01*
X112938443Y-86875000D01*
X113061557Y-86875000D01*
X113182306Y-86850981D01*
X113296048Y-86803868D01*
X113398414Y-86735469D01*
X113485469Y-86648414D01*
X113553868Y-86546048D01*
X113575000Y-86495030D01*
X113575000Y-89575000D01*
G36*
X113575000Y-86004971D02*
G01*
X113553868Y-85953952D01*
X113485469Y-85851586D01*
X113398414Y-85764531D01*
X113296048Y-85696132D01*
X113182306Y-85649019D01*
X113061557Y-85625000D01*
X112938443Y-85625000D01*
X112817694Y-85649019D01*
X112703952Y-85696132D01*
X112601586Y-85764531D01*
X112514531Y-85851586D01*
X112446132Y-85953952D01*
X112399019Y-86067694D01*
X112375000Y-86188443D01*
X112375000Y-86311557D01*
X112388596Y-86379907D01*
X112174991Y-86237181D01*
X111915657Y-86129762D01*
X111640350Y-86075000D01*
X111359650Y-86075000D01*
X111084343Y-86129762D01*
X110825009Y-86237181D01*
X110591615Y-86393130D01*
X110393130Y-86591615D01*
X110335457Y-86677929D01*
X110335457Y-86557400D01*
X110320703Y-86407599D01*
X110277007Y-86263554D01*
X110206050Y-86130802D01*
X110110557Y-86014443D01*
X110106357Y-86010996D01*
X110122636Y-85997636D01*
X110220254Y-85878689D01*
X110292790Y-85742984D01*
X110337458Y-85595734D01*
X110352540Y-85442600D01*
X110352540Y-84032400D01*
X110337458Y-83879266D01*
X110292790Y-83732016D01*
X110220254Y-83596311D01*
X110122636Y-83477364D01*
X110003689Y-83379746D01*
X109867984Y-83307210D01*
X109720734Y-83262542D01*
X109567600Y-83247460D01*
X109460305Y-83247460D01*
X109438633Y-83206914D01*
X109413339Y-83176093D01*
X109389466Y-83147003D01*
X109389462Y-83146999D01*
X109375000Y-83129377D01*
X109375000Y-79425000D01*
X113575001Y-79425000D01*
X113575000Y-86004971D01*
X113575000Y-86004971D01*
G37*
X113575000Y-86004971D02*
X113553868Y-85953952D01*
X113485469Y-85851586D01*
X113398414Y-85764531D01*
X113296048Y-85696132D01*
X113182306Y-85649019D01*
X113061557Y-85625000D01*
X112938443Y-85625000D01*
X112817694Y-85649019D01*
X112703952Y-85696132D01*
X112601586Y-85764531D01*
X112514531Y-85851586D01*
X112446132Y-85953952D01*
X112399019Y-86067694D01*
X112375000Y-86188443D01*
X112375000Y-86311557D01*
X112388596Y-86379907D01*
X112174991Y-86237181D01*
X111915657Y-86129762D01*
X111640350Y-86075000D01*
X111359650Y-86075000D01*
X111084343Y-86129762D01*
X110825009Y-86237181D01*
X110591615Y-86393130D01*
X110393130Y-86591615D01*
X110335457Y-86677929D01*
X110335457Y-86557400D01*
X110320703Y-86407599D01*
X110277007Y-86263554D01*
X110206050Y-86130802D01*
X110110557Y-86014443D01*
X110106357Y-86010996D01*
X110122636Y-85997636D01*
X110220254Y-85878689D01*
X110292790Y-85742984D01*
X110337458Y-85595734D01*
X110352540Y-85442600D01*
X110352540Y-84032400D01*
X110337458Y-83879266D01*
X110292790Y-83732016D01*
X110220254Y-83596311D01*
X110122636Y-83477364D01*
X110003689Y-83379746D01*
X109867984Y-83307210D01*
X109720734Y-83262542D01*
X109567600Y-83247460D01*
X109460305Y-83247460D01*
X109438633Y-83206914D01*
X109413339Y-83176093D01*
X109389466Y-83147003D01*
X109389462Y-83146999D01*
X109375000Y-83129377D01*
X109375000Y-79425000D01*
X113575001Y-79425000D01*
X113575000Y-86004971D01*
G36*
X108625000Y-83264543D02*
G01*
X108432400Y-83264543D01*
X108282599Y-83279297D01*
X108138554Y-83322993D01*
X108005802Y-83393950D01*
X107889443Y-83489443D01*
X107793950Y-83605802D01*
X107722993Y-83738554D01*
X107679297Y-83882599D01*
X107664543Y-84032400D01*
X107664543Y-85442600D01*
X107679297Y-85592401D01*
X107722993Y-85736446D01*
X107793950Y-85869198D01*
X107798712Y-85875000D01*
X104425000Y-85875000D01*
X104425000Y-84771016D01*
X104505966Y-84851982D01*
X104632900Y-84936796D01*
X104773941Y-84995217D01*
X104923669Y-85025000D01*
X105076331Y-85025000D01*
X105226059Y-84995217D01*
X105367100Y-84936796D01*
X105494034Y-84851982D01*
X105601982Y-84744034D01*
X105686796Y-84617100D01*
X105745217Y-84476059D01*
X105775000Y-84326331D01*
X105775000Y-84173669D01*
X105745217Y-84023941D01*
X105686796Y-83882900D01*
X105601982Y-83755966D01*
X105494034Y-83648018D01*
X105367100Y-83563204D01*
X105226059Y-83504783D01*
X105076331Y-83475000D01*
X104923669Y-83475000D01*
X104773941Y-83504783D01*
X104632900Y-83563204D01*
X104505966Y-83648018D01*
X104425000Y-83728984D01*
X104425000Y-79425000D01*
X108625000Y-79425000D01*
X108625000Y-83264543D01*
X108625000Y-83264543D01*
G37*
X108625000Y-83264543D02*
X108432400Y-83264543D01*
X108282599Y-83279297D01*
X108138554Y-83322993D01*
X108005802Y-83393950D01*
X107889443Y-83489443D01*
X107793950Y-83605802D01*
X107722993Y-83738554D01*
X107679297Y-83882599D01*
X107664543Y-84032400D01*
X107664543Y-85442600D01*
X107679297Y-85592401D01*
X107722993Y-85736446D01*
X107793950Y-85869198D01*
X107798712Y-85875000D01*
X104425000Y-85875000D01*
X104425000Y-84771016D01*
X104505966Y-84851982D01*
X104632900Y-84936796D01*
X104773941Y-84995217D01*
X104923669Y-85025000D01*
X105076331Y-85025000D01*
X105226059Y-84995217D01*
X105367100Y-84936796D01*
X105494034Y-84851982D01*
X105601982Y-84744034D01*
X105686796Y-84617100D01*
X105745217Y-84476059D01*
X105775000Y-84326331D01*
X105775000Y-84173669D01*
X105745217Y-84023941D01*
X105686796Y-83882900D01*
X105601982Y-83755966D01*
X105494034Y-83648018D01*
X105367100Y-83563204D01*
X105226059Y-83504783D01*
X105076331Y-83475000D01*
X104923669Y-83475000D01*
X104773941Y-83504783D01*
X104632900Y-83563204D01*
X104505966Y-83648018D01*
X104425000Y-83728984D01*
X104425000Y-79425000D01*
X108625000Y-79425000D01*
X108625000Y-83264543D01*
M02*
