G04 #@! TF.GenerationSoftware,KiCad,Pcbnew,(5.1.0-0)*
G04 #@! TF.CreationDate,2020-07-01T23:51:59+02:00*
G04 #@! TF.ProjectId,POxiM-fingersensor,504f7869-4d2d-4666-996e-67657273656e,Test proto*
G04 #@! TF.SameCoordinates,Original*
G04 #@! TF.FileFunction,Soldermask,Bot*
G04 #@! TF.FilePolarity,Negative*
%FSLAX46Y46*%
G04 Gerber Fmt 4.6, Leading zero omitted, Abs format (unit mm)*
G04 Created by KiCad (PCBNEW (5.1.0-0)) date 2020-07-01 23:51:59*
%MOMM*%
%LPD*%
G04 APERTURE LIST*
%ADD10C,0.550000*%
%ADD11C,0.010000*%
%ADD12C,0.100000*%
G04 APERTURE END LIST*
D10*
G36*
X112750000Y-83000000D02*
G01*
X109750000Y-83000000D01*
X109750000Y-80250000D01*
X112750000Y-80250000D01*
X112750000Y-83000000D01*
G37*
X112750000Y-83000000D02*
X109750000Y-83000000D01*
X109750000Y-80250000D01*
X112750000Y-80250000D01*
X112750000Y-83000000D01*
G36*
X108250000Y-83000000D02*
G01*
X105250000Y-83000000D01*
X105250000Y-80250000D01*
X108250000Y-80250000D01*
X108250000Y-83000000D01*
G37*
X108250000Y-83000000D02*
X105250000Y-83000000D01*
X105250000Y-80250000D01*
X108250000Y-80250000D01*
X108250000Y-83000000D01*
G36*
X108250000Y-76325000D02*
G01*
X105250000Y-76325000D01*
X105250000Y-73500000D01*
X108250000Y-73500000D01*
X108250000Y-76325000D01*
G37*
X108250000Y-76325000D02*
X105250000Y-76325000D01*
X105250000Y-73500000D01*
X108250000Y-73500000D01*
X108250000Y-76325000D01*
G36*
X112750000Y-76325000D02*
G01*
X109750000Y-76325000D01*
X109750000Y-73500000D01*
X112750000Y-73500000D01*
X112750000Y-76325000D01*
G37*
X112750000Y-76325000D02*
X109750000Y-76325000D01*
X109750000Y-73500000D01*
X112750000Y-73500000D01*
X112750000Y-76325000D01*
D11*
G36*
X110313198Y-85862112D02*
G01*
X110340705Y-85849507D01*
X110353761Y-85840662D01*
X110371213Y-85823979D01*
X110386853Y-85802810D01*
X110398750Y-85780056D01*
X110403537Y-85765887D01*
X110408812Y-85744930D01*
X110411664Y-85758266D01*
X110420642Y-85784096D01*
X110435649Y-85809255D01*
X110455187Y-85831890D01*
X110477756Y-85850147D01*
X110492714Y-85858502D01*
X110510535Y-85864010D01*
X110532847Y-85866977D01*
X110556959Y-85867404D01*
X110580176Y-85865290D01*
X110599806Y-85860636D01*
X110605126Y-85858502D01*
X110624458Y-85846772D01*
X110643993Y-85830160D01*
X110661393Y-85810969D01*
X110674320Y-85791503D01*
X110675500Y-85789175D01*
X110680967Y-85776681D01*
X110684156Y-85765137D01*
X110685644Y-85751590D01*
X110686006Y-85735404D01*
X110685346Y-85717869D01*
X110682840Y-85702272D01*
X110677853Y-85687135D01*
X110669748Y-85670981D01*
X110657890Y-85652330D01*
X110641643Y-85629707D01*
X110639044Y-85626222D01*
X110631825Y-85617360D01*
X110620545Y-85604512D01*
X110605874Y-85588367D01*
X110588479Y-85569616D01*
X110569031Y-85548949D01*
X110548197Y-85527057D01*
X110526646Y-85504628D01*
X110505047Y-85482354D01*
X110484068Y-85460924D01*
X110464379Y-85441029D01*
X110446648Y-85423358D01*
X110431544Y-85408602D01*
X110419736Y-85397451D01*
X110411891Y-85390595D01*
X110408842Y-85388659D01*
X110405386Y-85391268D01*
X110397222Y-85398681D01*
X110384995Y-85410275D01*
X110369347Y-85425429D01*
X110350923Y-85443519D01*
X110330366Y-85463925D01*
X110313211Y-85481102D01*
X110276578Y-85518314D01*
X110245238Y-85551052D01*
X110218739Y-85579849D01*
X110196631Y-85605240D01*
X110178461Y-85627757D01*
X110163778Y-85647934D01*
X110152132Y-85666305D01*
X110144444Y-85680569D01*
X110136854Y-85696842D01*
X110132432Y-85709384D01*
X110130419Y-85720996D01*
X110130050Y-85733828D01*
X110133842Y-85764396D01*
X110143880Y-85791892D01*
X110159261Y-85815883D01*
X110179082Y-85835940D01*
X110202440Y-85851630D01*
X110228434Y-85862524D01*
X110256160Y-85868189D01*
X110284716Y-85868196D01*
X110313198Y-85862112D01*
X110313198Y-85862112D01*
G37*
X110313198Y-85862112D02*
X110340705Y-85849507D01*
X110353761Y-85840662D01*
X110371213Y-85823979D01*
X110386853Y-85802810D01*
X110398750Y-85780056D01*
X110403537Y-85765887D01*
X110408812Y-85744930D01*
X110411664Y-85758266D01*
X110420642Y-85784096D01*
X110435649Y-85809255D01*
X110455187Y-85831890D01*
X110477756Y-85850147D01*
X110492714Y-85858502D01*
X110510535Y-85864010D01*
X110532847Y-85866977D01*
X110556959Y-85867404D01*
X110580176Y-85865290D01*
X110599806Y-85860636D01*
X110605126Y-85858502D01*
X110624458Y-85846772D01*
X110643993Y-85830160D01*
X110661393Y-85810969D01*
X110674320Y-85791503D01*
X110675500Y-85789175D01*
X110680967Y-85776681D01*
X110684156Y-85765137D01*
X110685644Y-85751590D01*
X110686006Y-85735404D01*
X110685346Y-85717869D01*
X110682840Y-85702272D01*
X110677853Y-85687135D01*
X110669748Y-85670981D01*
X110657890Y-85652330D01*
X110641643Y-85629707D01*
X110639044Y-85626222D01*
X110631825Y-85617360D01*
X110620545Y-85604512D01*
X110605874Y-85588367D01*
X110588479Y-85569616D01*
X110569031Y-85548949D01*
X110548197Y-85527057D01*
X110526646Y-85504628D01*
X110505047Y-85482354D01*
X110484068Y-85460924D01*
X110464379Y-85441029D01*
X110446648Y-85423358D01*
X110431544Y-85408602D01*
X110419736Y-85397451D01*
X110411891Y-85390595D01*
X110408842Y-85388659D01*
X110405386Y-85391268D01*
X110397222Y-85398681D01*
X110384995Y-85410275D01*
X110369347Y-85425429D01*
X110350923Y-85443519D01*
X110330366Y-85463925D01*
X110313211Y-85481102D01*
X110276578Y-85518314D01*
X110245238Y-85551052D01*
X110218739Y-85579849D01*
X110196631Y-85605240D01*
X110178461Y-85627757D01*
X110163778Y-85647934D01*
X110152132Y-85666305D01*
X110144444Y-85680569D01*
X110136854Y-85696842D01*
X110132432Y-85709384D01*
X110130419Y-85720996D01*
X110130050Y-85733828D01*
X110133842Y-85764396D01*
X110143880Y-85791892D01*
X110159261Y-85815883D01*
X110179082Y-85835940D01*
X110202440Y-85851630D01*
X110228434Y-85862524D01*
X110256160Y-85868189D01*
X110284716Y-85868196D01*
X110313198Y-85862112D01*
D12*
G36*
X111724549Y-86371116D02*
G01*
X111835734Y-86393232D01*
X112045203Y-86479997D01*
X112233720Y-86605960D01*
X112394040Y-86766280D01*
X112520003Y-86954797D01*
X112606768Y-87164266D01*
X112651000Y-87386636D01*
X112651000Y-87613364D01*
X112606768Y-87835734D01*
X112520003Y-88045203D01*
X112394040Y-88233720D01*
X112233720Y-88394040D01*
X112045203Y-88520003D01*
X111835734Y-88606768D01*
X111724549Y-88628884D01*
X111613365Y-88651000D01*
X111386635Y-88651000D01*
X111275451Y-88628884D01*
X111164266Y-88606768D01*
X110954797Y-88520003D01*
X110766280Y-88394040D01*
X110605960Y-88233720D01*
X110479997Y-88045203D01*
X110393232Y-87835734D01*
X110349000Y-87613364D01*
X110349000Y-87386636D01*
X110393232Y-87164266D01*
X110479997Y-86954797D01*
X110605960Y-86766280D01*
X110766280Y-86605960D01*
X110954797Y-86479997D01*
X111164266Y-86393232D01*
X111275451Y-86371116D01*
X111386635Y-86349000D01*
X111613365Y-86349000D01*
X111724549Y-86371116D01*
X111724549Y-86371116D01*
G37*
G36*
X106724549Y-86371116D02*
G01*
X106835734Y-86393232D01*
X107045203Y-86479997D01*
X107233720Y-86605960D01*
X107394040Y-86766280D01*
X107520003Y-86954797D01*
X107606768Y-87164266D01*
X107651000Y-87386636D01*
X107651000Y-87613364D01*
X107606768Y-87835734D01*
X107520003Y-88045203D01*
X107394040Y-88233720D01*
X107233720Y-88394040D01*
X107045203Y-88520003D01*
X106835734Y-88606768D01*
X106724549Y-88628884D01*
X106613365Y-88651000D01*
X106386635Y-88651000D01*
X106275451Y-88628884D01*
X106164266Y-88606768D01*
X105954797Y-88520003D01*
X105766280Y-88394040D01*
X105605960Y-88233720D01*
X105479997Y-88045203D01*
X105393232Y-87835734D01*
X105349000Y-87613364D01*
X105349000Y-87386636D01*
X105393232Y-87164266D01*
X105479997Y-86954797D01*
X105605960Y-86766280D01*
X105766280Y-86605960D01*
X105954797Y-86479997D01*
X106164266Y-86393232D01*
X106275451Y-86371116D01*
X106386635Y-86349000D01*
X106613365Y-86349000D01*
X106724549Y-86371116D01*
X106724549Y-86371116D01*
G37*
G36*
X108678210Y-70708489D02*
G01*
X108764950Y-70734802D01*
X108844889Y-70777530D01*
X108914962Y-70835038D01*
X108972470Y-70905111D01*
X109015198Y-70985050D01*
X109041511Y-71071790D01*
X109051000Y-71168140D01*
X109051000Y-72331860D01*
X109041511Y-72428210D01*
X109015198Y-72514950D01*
X108972470Y-72594889D01*
X108914962Y-72664962D01*
X108844889Y-72722470D01*
X108764950Y-72765198D01*
X108678210Y-72791511D01*
X108581860Y-72801000D01*
X104918140Y-72801000D01*
X104821790Y-72791511D01*
X104735050Y-72765198D01*
X104655111Y-72722470D01*
X104585038Y-72664962D01*
X104527530Y-72594889D01*
X104484802Y-72514950D01*
X104458489Y-72428210D01*
X104449000Y-72331860D01*
X104449000Y-71168140D01*
X104458489Y-71071790D01*
X104484802Y-70985050D01*
X104527530Y-70905111D01*
X104585038Y-70835038D01*
X104655111Y-70777530D01*
X104735050Y-70734802D01*
X104821790Y-70708489D01*
X104918140Y-70699000D01*
X108581860Y-70699000D01*
X108678210Y-70708489D01*
X108678210Y-70708489D01*
G37*
G36*
X111724549Y-70371116D02*
G01*
X111835734Y-70393232D01*
X112045203Y-70479997D01*
X112233720Y-70605960D01*
X112394040Y-70766280D01*
X112520003Y-70954797D01*
X112606768Y-71164266D01*
X112651000Y-71386636D01*
X112651000Y-71613364D01*
X112606768Y-71835734D01*
X112520003Y-72045203D01*
X112394040Y-72233720D01*
X112233720Y-72394040D01*
X112045203Y-72520003D01*
X111835734Y-72606768D01*
X111724549Y-72628884D01*
X111613365Y-72651000D01*
X111386635Y-72651000D01*
X111275451Y-72628884D01*
X111164266Y-72606768D01*
X110954797Y-72520003D01*
X110766280Y-72394040D01*
X110605960Y-72233720D01*
X110479997Y-72045203D01*
X110393232Y-71835734D01*
X110349000Y-71613364D01*
X110349000Y-71386636D01*
X110393232Y-71164266D01*
X110479997Y-70954797D01*
X110605960Y-70766280D01*
X110766280Y-70605960D01*
X110954797Y-70479997D01*
X111164266Y-70393232D01*
X111275451Y-70371116D01*
X111386635Y-70349000D01*
X111613365Y-70349000D01*
X111724549Y-70371116D01*
X111724549Y-70371116D01*
G37*
G36*
X108678210Y-68208489D02*
G01*
X108764950Y-68234802D01*
X108844889Y-68277530D01*
X108914962Y-68335038D01*
X108972470Y-68405111D01*
X109015198Y-68485050D01*
X109041511Y-68571790D01*
X109051000Y-68668140D01*
X109051000Y-69831860D01*
X109041511Y-69928210D01*
X109015198Y-70014950D01*
X108972470Y-70094889D01*
X108914962Y-70164962D01*
X108844889Y-70222470D01*
X108764950Y-70265198D01*
X108678210Y-70291511D01*
X108581860Y-70301000D01*
X104918140Y-70301000D01*
X104821790Y-70291511D01*
X104735050Y-70265198D01*
X104655111Y-70222470D01*
X104585038Y-70164962D01*
X104527530Y-70094889D01*
X104484802Y-70014950D01*
X104458489Y-69928210D01*
X104449000Y-69831860D01*
X104449000Y-68668140D01*
X104458489Y-68571790D01*
X104484802Y-68485050D01*
X104527530Y-68405111D01*
X104585038Y-68335038D01*
X104655111Y-68277530D01*
X104735050Y-68234802D01*
X104821790Y-68208489D01*
X104918140Y-68199000D01*
X108581860Y-68199000D01*
X108678210Y-68208489D01*
X108678210Y-68208489D01*
G37*
G36*
X108678210Y-65708489D02*
G01*
X108764950Y-65734802D01*
X108844889Y-65777530D01*
X108914962Y-65835038D01*
X108972470Y-65905111D01*
X109015198Y-65985050D01*
X109041511Y-66071790D01*
X109051000Y-66168140D01*
X109051000Y-67331860D01*
X109041511Y-67428210D01*
X109015198Y-67514950D01*
X108972470Y-67594889D01*
X108914962Y-67664962D01*
X108844889Y-67722470D01*
X108764950Y-67765198D01*
X108678210Y-67791511D01*
X108581860Y-67801000D01*
X104918140Y-67801000D01*
X104821790Y-67791511D01*
X104735050Y-67765198D01*
X104655111Y-67722470D01*
X104585038Y-67664962D01*
X104527530Y-67594889D01*
X104484802Y-67514950D01*
X104458489Y-67428210D01*
X104449000Y-67331860D01*
X104449000Y-66168140D01*
X104458489Y-66071790D01*
X104484802Y-65985050D01*
X104527530Y-65905111D01*
X104585038Y-65835038D01*
X104655111Y-65777530D01*
X104735050Y-65734802D01*
X104821790Y-65708489D01*
X104918140Y-65699000D01*
X108581860Y-65699000D01*
X108678210Y-65708489D01*
X108678210Y-65708489D01*
G37*
G36*
X111724549Y-64121116D02*
G01*
X111835734Y-64143232D01*
X112045203Y-64229997D01*
X112233720Y-64355960D01*
X112394040Y-64516280D01*
X112520003Y-64704797D01*
X112606768Y-64914266D01*
X112619167Y-64976600D01*
X112651000Y-65136635D01*
X112651000Y-65363365D01*
X112606768Y-65585733D01*
X112527324Y-65777530D01*
X112520003Y-65795203D01*
X112394040Y-65983720D01*
X112233720Y-66144040D01*
X112045203Y-66270003D01*
X111835734Y-66356768D01*
X111724549Y-66378884D01*
X111613365Y-66401000D01*
X111386635Y-66401000D01*
X111275451Y-66378884D01*
X111164266Y-66356768D01*
X110954797Y-66270003D01*
X110766280Y-66144040D01*
X110605960Y-65983720D01*
X110479997Y-65795203D01*
X110472677Y-65777530D01*
X110393232Y-65585733D01*
X110349000Y-65363365D01*
X110349000Y-65136635D01*
X110380833Y-64976600D01*
X110393232Y-64914266D01*
X110479997Y-64704797D01*
X110605960Y-64516280D01*
X110766280Y-64355960D01*
X110954797Y-64229997D01*
X111164266Y-64143232D01*
X111275451Y-64121116D01*
X111386635Y-64099000D01*
X111613365Y-64099000D01*
X111724549Y-64121116D01*
X111724549Y-64121116D01*
G37*
G36*
X108678210Y-63208489D02*
G01*
X108764950Y-63234802D01*
X108844889Y-63277530D01*
X108914962Y-63335038D01*
X108972470Y-63405111D01*
X109015198Y-63485050D01*
X109041511Y-63571790D01*
X109051000Y-63668140D01*
X109051000Y-64831860D01*
X109041511Y-64928210D01*
X109015198Y-65014950D01*
X108972470Y-65094889D01*
X108914962Y-65164962D01*
X108844889Y-65222470D01*
X108764950Y-65265198D01*
X108678210Y-65291511D01*
X108581860Y-65301000D01*
X104918140Y-65301000D01*
X104821790Y-65291511D01*
X104735050Y-65265198D01*
X104655111Y-65222470D01*
X104585038Y-65164962D01*
X104527530Y-65094889D01*
X104484802Y-65014950D01*
X104458489Y-64928210D01*
X104449000Y-64831860D01*
X104449000Y-63668140D01*
X104458489Y-63571790D01*
X104484802Y-63485050D01*
X104527530Y-63405111D01*
X104585038Y-63335038D01*
X104655111Y-63277530D01*
X104735050Y-63234802D01*
X104821790Y-63208489D01*
X104918140Y-63199000D01*
X108581860Y-63199000D01*
X108678210Y-63208489D01*
X108678210Y-63208489D01*
G37*
M02*
