G04 #@! TF.GenerationSoftware,KiCad,Pcbnew,(5.1.0-0)*
G04 #@! TF.CreationDate,2020-06-22T10:40:38+02:00*
G04 #@! TF.ProjectId,POxiM-fingersensor,504f7869-4d2d-4666-996e-67657273656e,Test proto*
G04 #@! TF.SameCoordinates,Original*
G04 #@! TF.FileFunction,Paste,Top*
G04 #@! TF.FilePolarity,Positive*
%FSLAX46Y46*%
G04 Gerber Fmt 4.6, Leading zero omitted, Abs format (unit mm)*
G04 Created by KiCad (PCBNEW (5.1.0-0)) date 2020-06-22 10:40:38*
%MOMM*%
%LPD*%
G04 APERTURE LIST*
%ADD10C,0.100000*%
%ADD11C,2.000000*%
%ADD12C,0.975000*%
%ADD13C,1.600000*%
G04 APERTURE END LIST*
D10*
G36*
X108549009Y-64502408D02*
G01*
X108597545Y-64509607D01*
X108645142Y-64521530D01*
X108691342Y-64538060D01*
X108735698Y-64559039D01*
X108777785Y-64584265D01*
X108817197Y-64613495D01*
X108853553Y-64646447D01*
X108886505Y-64682803D01*
X108915735Y-64722215D01*
X108940961Y-64764302D01*
X108961940Y-64808658D01*
X108978470Y-64854858D01*
X108990393Y-64902455D01*
X108997592Y-64950991D01*
X109000000Y-65000000D01*
X109000000Y-66000000D01*
X108997592Y-66049009D01*
X108990393Y-66097545D01*
X108978470Y-66145142D01*
X108961940Y-66191342D01*
X108940961Y-66235698D01*
X108915735Y-66277785D01*
X108886505Y-66317197D01*
X108853553Y-66353553D01*
X108817197Y-66386505D01*
X108777785Y-66415735D01*
X108735698Y-66440961D01*
X108691342Y-66461940D01*
X108645142Y-66478470D01*
X108597545Y-66490393D01*
X108549009Y-66497592D01*
X108500000Y-66500000D01*
X105000000Y-66500000D01*
X104950991Y-66497592D01*
X104902455Y-66490393D01*
X104854858Y-66478470D01*
X104808658Y-66461940D01*
X104764302Y-66440961D01*
X104722215Y-66415735D01*
X104682803Y-66386505D01*
X104646447Y-66353553D01*
X104613495Y-66317197D01*
X104584265Y-66277785D01*
X104559039Y-66235698D01*
X104538060Y-66191342D01*
X104521530Y-66145142D01*
X104509607Y-66097545D01*
X104502408Y-66049009D01*
X104500000Y-66000000D01*
X104500000Y-65000000D01*
X104502408Y-64950991D01*
X104509607Y-64902455D01*
X104521530Y-64854858D01*
X104538060Y-64808658D01*
X104559039Y-64764302D01*
X104584265Y-64722215D01*
X104613495Y-64682803D01*
X104646447Y-64646447D01*
X104682803Y-64613495D01*
X104722215Y-64584265D01*
X104764302Y-64559039D01*
X104808658Y-64538060D01*
X104854858Y-64521530D01*
X104902455Y-64509607D01*
X104950991Y-64502408D01*
X105000000Y-64500000D01*
X108500000Y-64500000D01*
X108549009Y-64502408D01*
X108549009Y-64502408D01*
G37*
D11*
X106750000Y-65500000D03*
D10*
G36*
X108549009Y-62002408D02*
G01*
X108597545Y-62009607D01*
X108645142Y-62021530D01*
X108691342Y-62038060D01*
X108735698Y-62059039D01*
X108777785Y-62084265D01*
X108817197Y-62113495D01*
X108853553Y-62146447D01*
X108886505Y-62182803D01*
X108915735Y-62222215D01*
X108940961Y-62264302D01*
X108961940Y-62308658D01*
X108978470Y-62354858D01*
X108990393Y-62402455D01*
X108997592Y-62450991D01*
X109000000Y-62500000D01*
X109000000Y-63500000D01*
X108997592Y-63549009D01*
X108990393Y-63597545D01*
X108978470Y-63645142D01*
X108961940Y-63691342D01*
X108940961Y-63735698D01*
X108915735Y-63777785D01*
X108886505Y-63817197D01*
X108853553Y-63853553D01*
X108817197Y-63886505D01*
X108777785Y-63915735D01*
X108735698Y-63940961D01*
X108691342Y-63961940D01*
X108645142Y-63978470D01*
X108597545Y-63990393D01*
X108549009Y-63997592D01*
X108500000Y-64000000D01*
X105000000Y-64000000D01*
X104950991Y-63997592D01*
X104902455Y-63990393D01*
X104854858Y-63978470D01*
X104808658Y-63961940D01*
X104764302Y-63940961D01*
X104722215Y-63915735D01*
X104682803Y-63886505D01*
X104646447Y-63853553D01*
X104613495Y-63817197D01*
X104584265Y-63777785D01*
X104559039Y-63735698D01*
X104538060Y-63691342D01*
X104521530Y-63645142D01*
X104509607Y-63597545D01*
X104502408Y-63549009D01*
X104500000Y-63500000D01*
X104500000Y-62500000D01*
X104502408Y-62450991D01*
X104509607Y-62402455D01*
X104521530Y-62354858D01*
X104538060Y-62308658D01*
X104559039Y-62264302D01*
X104584265Y-62222215D01*
X104613495Y-62182803D01*
X104646447Y-62146447D01*
X104682803Y-62113495D01*
X104722215Y-62084265D01*
X104764302Y-62059039D01*
X104808658Y-62038060D01*
X104854858Y-62021530D01*
X104902455Y-62009607D01*
X104950991Y-62002408D01*
X105000000Y-62000000D01*
X108500000Y-62000000D01*
X108549009Y-62002408D01*
X108549009Y-62002408D01*
G37*
D11*
X106750000Y-63000000D03*
D10*
G36*
X108549009Y-59502408D02*
G01*
X108597545Y-59509607D01*
X108645142Y-59521530D01*
X108691342Y-59538060D01*
X108735698Y-59559039D01*
X108777785Y-59584265D01*
X108817197Y-59613495D01*
X108853553Y-59646447D01*
X108886505Y-59682803D01*
X108915735Y-59722215D01*
X108940961Y-59764302D01*
X108961940Y-59808658D01*
X108978470Y-59854858D01*
X108990393Y-59902455D01*
X108997592Y-59950991D01*
X109000000Y-60000000D01*
X109000000Y-61000000D01*
X108997592Y-61049009D01*
X108990393Y-61097545D01*
X108978470Y-61145142D01*
X108961940Y-61191342D01*
X108940961Y-61235698D01*
X108915735Y-61277785D01*
X108886505Y-61317197D01*
X108853553Y-61353553D01*
X108817197Y-61386505D01*
X108777785Y-61415735D01*
X108735698Y-61440961D01*
X108691342Y-61461940D01*
X108645142Y-61478470D01*
X108597545Y-61490393D01*
X108549009Y-61497592D01*
X108500000Y-61500000D01*
X105000000Y-61500000D01*
X104950991Y-61497592D01*
X104902455Y-61490393D01*
X104854858Y-61478470D01*
X104808658Y-61461940D01*
X104764302Y-61440961D01*
X104722215Y-61415735D01*
X104682803Y-61386505D01*
X104646447Y-61353553D01*
X104613495Y-61317197D01*
X104584265Y-61277785D01*
X104559039Y-61235698D01*
X104538060Y-61191342D01*
X104521530Y-61145142D01*
X104509607Y-61097545D01*
X104502408Y-61049009D01*
X104500000Y-61000000D01*
X104500000Y-60000000D01*
X104502408Y-59950991D01*
X104509607Y-59902455D01*
X104521530Y-59854858D01*
X104538060Y-59808658D01*
X104559039Y-59764302D01*
X104584265Y-59722215D01*
X104613495Y-59682803D01*
X104646447Y-59646447D01*
X104682803Y-59613495D01*
X104722215Y-59584265D01*
X104764302Y-59559039D01*
X104808658Y-59538060D01*
X104854858Y-59521530D01*
X104902455Y-59509607D01*
X104950991Y-59502408D01*
X105000000Y-59500000D01*
X108500000Y-59500000D01*
X108549009Y-59502408D01*
X108549009Y-59502408D01*
G37*
D11*
X106750000Y-60500000D03*
D10*
G36*
X108549009Y-57002408D02*
G01*
X108597545Y-57009607D01*
X108645142Y-57021530D01*
X108691342Y-57038060D01*
X108735698Y-57059039D01*
X108777785Y-57084265D01*
X108817197Y-57113495D01*
X108853553Y-57146447D01*
X108886505Y-57182803D01*
X108915735Y-57222215D01*
X108940961Y-57264302D01*
X108961940Y-57308658D01*
X108978470Y-57354858D01*
X108990393Y-57402455D01*
X108997592Y-57450991D01*
X109000000Y-57500000D01*
X109000000Y-58500000D01*
X108997592Y-58549009D01*
X108990393Y-58597545D01*
X108978470Y-58645142D01*
X108961940Y-58691342D01*
X108940961Y-58735698D01*
X108915735Y-58777785D01*
X108886505Y-58817197D01*
X108853553Y-58853553D01*
X108817197Y-58886505D01*
X108777785Y-58915735D01*
X108735698Y-58940961D01*
X108691342Y-58961940D01*
X108645142Y-58978470D01*
X108597545Y-58990393D01*
X108549009Y-58997592D01*
X108500000Y-59000000D01*
X105000000Y-59000000D01*
X104950991Y-58997592D01*
X104902455Y-58990393D01*
X104854858Y-58978470D01*
X104808658Y-58961940D01*
X104764302Y-58940961D01*
X104722215Y-58915735D01*
X104682803Y-58886505D01*
X104646447Y-58853553D01*
X104613495Y-58817197D01*
X104584265Y-58777785D01*
X104559039Y-58735698D01*
X104538060Y-58691342D01*
X104521530Y-58645142D01*
X104509607Y-58597545D01*
X104502408Y-58549009D01*
X104500000Y-58500000D01*
X104500000Y-57500000D01*
X104502408Y-57450991D01*
X104509607Y-57402455D01*
X104521530Y-57354858D01*
X104538060Y-57308658D01*
X104559039Y-57264302D01*
X104584265Y-57222215D01*
X104613495Y-57182803D01*
X104646447Y-57146447D01*
X104682803Y-57113495D01*
X104722215Y-57084265D01*
X104764302Y-57059039D01*
X104808658Y-57038060D01*
X104854858Y-57021530D01*
X104902455Y-57009607D01*
X104950991Y-57002408D01*
X105000000Y-57000000D01*
X108500000Y-57000000D01*
X108549009Y-57002408D01*
X108549009Y-57002408D01*
G37*
D11*
X106750000Y-58000000D03*
D10*
G36*
X110480142Y-69451174D02*
G01*
X110503803Y-69454684D01*
X110527007Y-69460496D01*
X110549529Y-69468554D01*
X110571153Y-69478782D01*
X110591670Y-69491079D01*
X110610883Y-69505329D01*
X110628607Y-69521393D01*
X110644671Y-69539117D01*
X110658921Y-69558330D01*
X110671218Y-69578847D01*
X110681446Y-69600471D01*
X110689504Y-69622993D01*
X110695316Y-69646197D01*
X110698826Y-69669858D01*
X110700000Y-69693750D01*
X110700000Y-70181250D01*
X110698826Y-70205142D01*
X110695316Y-70228803D01*
X110689504Y-70252007D01*
X110681446Y-70274529D01*
X110671218Y-70296153D01*
X110658921Y-70316670D01*
X110644671Y-70335883D01*
X110628607Y-70353607D01*
X110610883Y-70369671D01*
X110591670Y-70383921D01*
X110571153Y-70396218D01*
X110549529Y-70406446D01*
X110527007Y-70414504D01*
X110503803Y-70420316D01*
X110480142Y-70423826D01*
X110456250Y-70425000D01*
X109543750Y-70425000D01*
X109519858Y-70423826D01*
X109496197Y-70420316D01*
X109472993Y-70414504D01*
X109450471Y-70406446D01*
X109428847Y-70396218D01*
X109408330Y-70383921D01*
X109389117Y-70369671D01*
X109371393Y-70353607D01*
X109355329Y-70335883D01*
X109341079Y-70316670D01*
X109328782Y-70296153D01*
X109318554Y-70274529D01*
X109310496Y-70252007D01*
X109304684Y-70228803D01*
X109301174Y-70205142D01*
X109300000Y-70181250D01*
X109300000Y-69693750D01*
X109301174Y-69669858D01*
X109304684Y-69646197D01*
X109310496Y-69622993D01*
X109318554Y-69600471D01*
X109328782Y-69578847D01*
X109341079Y-69558330D01*
X109355329Y-69539117D01*
X109371393Y-69521393D01*
X109389117Y-69505329D01*
X109408330Y-69491079D01*
X109428847Y-69478782D01*
X109450471Y-69468554D01*
X109472993Y-69460496D01*
X109496197Y-69454684D01*
X109519858Y-69451174D01*
X109543750Y-69450000D01*
X110456250Y-69450000D01*
X110480142Y-69451174D01*
X110480142Y-69451174D01*
G37*
D12*
X110000000Y-69937500D03*
D10*
G36*
X110480142Y-67576174D02*
G01*
X110503803Y-67579684D01*
X110527007Y-67585496D01*
X110549529Y-67593554D01*
X110571153Y-67603782D01*
X110591670Y-67616079D01*
X110610883Y-67630329D01*
X110628607Y-67646393D01*
X110644671Y-67664117D01*
X110658921Y-67683330D01*
X110671218Y-67703847D01*
X110681446Y-67725471D01*
X110689504Y-67747993D01*
X110695316Y-67771197D01*
X110698826Y-67794858D01*
X110700000Y-67818750D01*
X110700000Y-68306250D01*
X110698826Y-68330142D01*
X110695316Y-68353803D01*
X110689504Y-68377007D01*
X110681446Y-68399529D01*
X110671218Y-68421153D01*
X110658921Y-68441670D01*
X110644671Y-68460883D01*
X110628607Y-68478607D01*
X110610883Y-68494671D01*
X110591670Y-68508921D01*
X110571153Y-68521218D01*
X110549529Y-68531446D01*
X110527007Y-68539504D01*
X110503803Y-68545316D01*
X110480142Y-68548826D01*
X110456250Y-68550000D01*
X109543750Y-68550000D01*
X109519858Y-68548826D01*
X109496197Y-68545316D01*
X109472993Y-68539504D01*
X109450471Y-68531446D01*
X109428847Y-68521218D01*
X109408330Y-68508921D01*
X109389117Y-68494671D01*
X109371393Y-68478607D01*
X109355329Y-68460883D01*
X109341079Y-68441670D01*
X109328782Y-68421153D01*
X109318554Y-68399529D01*
X109310496Y-68377007D01*
X109304684Y-68353803D01*
X109301174Y-68330142D01*
X109300000Y-68306250D01*
X109300000Y-67818750D01*
X109301174Y-67794858D01*
X109304684Y-67771197D01*
X109310496Y-67747993D01*
X109318554Y-67725471D01*
X109328782Y-67703847D01*
X109341079Y-67683330D01*
X109355329Y-67664117D01*
X109371393Y-67646393D01*
X109389117Y-67630329D01*
X109408330Y-67616079D01*
X109428847Y-67603782D01*
X109450471Y-67593554D01*
X109472993Y-67585496D01*
X109496197Y-67579684D01*
X109519858Y-67576174D01*
X109543750Y-67575000D01*
X110456250Y-67575000D01*
X110480142Y-67576174D01*
X110480142Y-67576174D01*
G37*
D12*
X110000000Y-68062500D03*
D10*
G36*
X108480142Y-69451174D02*
G01*
X108503803Y-69454684D01*
X108527007Y-69460496D01*
X108549529Y-69468554D01*
X108571153Y-69478782D01*
X108591670Y-69491079D01*
X108610883Y-69505329D01*
X108628607Y-69521393D01*
X108644671Y-69539117D01*
X108658921Y-69558330D01*
X108671218Y-69578847D01*
X108681446Y-69600471D01*
X108689504Y-69622993D01*
X108695316Y-69646197D01*
X108698826Y-69669858D01*
X108700000Y-69693750D01*
X108700000Y-70181250D01*
X108698826Y-70205142D01*
X108695316Y-70228803D01*
X108689504Y-70252007D01*
X108681446Y-70274529D01*
X108671218Y-70296153D01*
X108658921Y-70316670D01*
X108644671Y-70335883D01*
X108628607Y-70353607D01*
X108610883Y-70369671D01*
X108591670Y-70383921D01*
X108571153Y-70396218D01*
X108549529Y-70406446D01*
X108527007Y-70414504D01*
X108503803Y-70420316D01*
X108480142Y-70423826D01*
X108456250Y-70425000D01*
X107543750Y-70425000D01*
X107519858Y-70423826D01*
X107496197Y-70420316D01*
X107472993Y-70414504D01*
X107450471Y-70406446D01*
X107428847Y-70396218D01*
X107408330Y-70383921D01*
X107389117Y-70369671D01*
X107371393Y-70353607D01*
X107355329Y-70335883D01*
X107341079Y-70316670D01*
X107328782Y-70296153D01*
X107318554Y-70274529D01*
X107310496Y-70252007D01*
X107304684Y-70228803D01*
X107301174Y-70205142D01*
X107300000Y-70181250D01*
X107300000Y-69693750D01*
X107301174Y-69669858D01*
X107304684Y-69646197D01*
X107310496Y-69622993D01*
X107318554Y-69600471D01*
X107328782Y-69578847D01*
X107341079Y-69558330D01*
X107355329Y-69539117D01*
X107371393Y-69521393D01*
X107389117Y-69505329D01*
X107408330Y-69491079D01*
X107428847Y-69478782D01*
X107450471Y-69468554D01*
X107472993Y-69460496D01*
X107496197Y-69454684D01*
X107519858Y-69451174D01*
X107543750Y-69450000D01*
X108456250Y-69450000D01*
X108480142Y-69451174D01*
X108480142Y-69451174D01*
G37*
D12*
X108000000Y-69937500D03*
D10*
G36*
X108480142Y-67576174D02*
G01*
X108503803Y-67579684D01*
X108527007Y-67585496D01*
X108549529Y-67593554D01*
X108571153Y-67603782D01*
X108591670Y-67616079D01*
X108610883Y-67630329D01*
X108628607Y-67646393D01*
X108644671Y-67664117D01*
X108658921Y-67683330D01*
X108671218Y-67703847D01*
X108681446Y-67725471D01*
X108689504Y-67747993D01*
X108695316Y-67771197D01*
X108698826Y-67794858D01*
X108700000Y-67818750D01*
X108700000Y-68306250D01*
X108698826Y-68330142D01*
X108695316Y-68353803D01*
X108689504Y-68377007D01*
X108681446Y-68399529D01*
X108671218Y-68421153D01*
X108658921Y-68441670D01*
X108644671Y-68460883D01*
X108628607Y-68478607D01*
X108610883Y-68494671D01*
X108591670Y-68508921D01*
X108571153Y-68521218D01*
X108549529Y-68531446D01*
X108527007Y-68539504D01*
X108503803Y-68545316D01*
X108480142Y-68548826D01*
X108456250Y-68550000D01*
X107543750Y-68550000D01*
X107519858Y-68548826D01*
X107496197Y-68545316D01*
X107472993Y-68539504D01*
X107450471Y-68531446D01*
X107428847Y-68521218D01*
X107408330Y-68508921D01*
X107389117Y-68494671D01*
X107371393Y-68478607D01*
X107355329Y-68460883D01*
X107341079Y-68441670D01*
X107328782Y-68421153D01*
X107318554Y-68399529D01*
X107310496Y-68377007D01*
X107304684Y-68353803D01*
X107301174Y-68330142D01*
X107300000Y-68306250D01*
X107300000Y-67818750D01*
X107301174Y-67794858D01*
X107304684Y-67771197D01*
X107310496Y-67747993D01*
X107318554Y-67725471D01*
X107328782Y-67703847D01*
X107341079Y-67683330D01*
X107355329Y-67664117D01*
X107371393Y-67646393D01*
X107389117Y-67630329D01*
X107408330Y-67616079D01*
X107428847Y-67603782D01*
X107450471Y-67593554D01*
X107472993Y-67585496D01*
X107496197Y-67579684D01*
X107519858Y-67576174D01*
X107543750Y-67575000D01*
X108456250Y-67575000D01*
X108480142Y-67576174D01*
X108480142Y-67576174D01*
G37*
D12*
X108000000Y-68062500D03*
D10*
G36*
X108149504Y-87676204D02*
G01*
X108173773Y-87679804D01*
X108197571Y-87685765D01*
X108220671Y-87694030D01*
X108242849Y-87704520D01*
X108263893Y-87717133D01*
X108283598Y-87731747D01*
X108301777Y-87748223D01*
X108318253Y-87766402D01*
X108332867Y-87786107D01*
X108345480Y-87807151D01*
X108355970Y-87829329D01*
X108364235Y-87852429D01*
X108370196Y-87876227D01*
X108373796Y-87900496D01*
X108375000Y-87925000D01*
X108375000Y-89075000D01*
X108373796Y-89099504D01*
X108370196Y-89123773D01*
X108364235Y-89147571D01*
X108355970Y-89170671D01*
X108345480Y-89192849D01*
X108332867Y-89213893D01*
X108318253Y-89233598D01*
X108301777Y-89251777D01*
X108283598Y-89268253D01*
X108263893Y-89282867D01*
X108242849Y-89295480D01*
X108220671Y-89305970D01*
X108197571Y-89314235D01*
X108173773Y-89320196D01*
X108149504Y-89323796D01*
X108125000Y-89325000D01*
X107025000Y-89325000D01*
X107000496Y-89323796D01*
X106976227Y-89320196D01*
X106952429Y-89314235D01*
X106929329Y-89305970D01*
X106907151Y-89295480D01*
X106886107Y-89282867D01*
X106866402Y-89268253D01*
X106848223Y-89251777D01*
X106831747Y-89233598D01*
X106817133Y-89213893D01*
X106804520Y-89192849D01*
X106794030Y-89170671D01*
X106785765Y-89147571D01*
X106779804Y-89123773D01*
X106776204Y-89099504D01*
X106775000Y-89075000D01*
X106775000Y-87925000D01*
X106776204Y-87900496D01*
X106779804Y-87876227D01*
X106785765Y-87852429D01*
X106794030Y-87829329D01*
X106804520Y-87807151D01*
X106817133Y-87786107D01*
X106831747Y-87766402D01*
X106848223Y-87748223D01*
X106866402Y-87731747D01*
X106886107Y-87717133D01*
X106907151Y-87704520D01*
X106929329Y-87694030D01*
X106952429Y-87685765D01*
X106976227Y-87679804D01*
X107000496Y-87676204D01*
X107025000Y-87675000D01*
X108125000Y-87675000D01*
X108149504Y-87676204D01*
X108149504Y-87676204D01*
G37*
D13*
X107575000Y-88500000D03*
D10*
G36*
X110999504Y-87676204D02*
G01*
X111023773Y-87679804D01*
X111047571Y-87685765D01*
X111070671Y-87694030D01*
X111092849Y-87704520D01*
X111113893Y-87717133D01*
X111133598Y-87731747D01*
X111151777Y-87748223D01*
X111168253Y-87766402D01*
X111182867Y-87786107D01*
X111195480Y-87807151D01*
X111205970Y-87829329D01*
X111214235Y-87852429D01*
X111220196Y-87876227D01*
X111223796Y-87900496D01*
X111225000Y-87925000D01*
X111225000Y-89075000D01*
X111223796Y-89099504D01*
X111220196Y-89123773D01*
X111214235Y-89147571D01*
X111205970Y-89170671D01*
X111195480Y-89192849D01*
X111182867Y-89213893D01*
X111168253Y-89233598D01*
X111151777Y-89251777D01*
X111133598Y-89268253D01*
X111113893Y-89282867D01*
X111092849Y-89295480D01*
X111070671Y-89305970D01*
X111047571Y-89314235D01*
X111023773Y-89320196D01*
X110999504Y-89323796D01*
X110975000Y-89325000D01*
X109875000Y-89325000D01*
X109850496Y-89323796D01*
X109826227Y-89320196D01*
X109802429Y-89314235D01*
X109779329Y-89305970D01*
X109757151Y-89295480D01*
X109736107Y-89282867D01*
X109716402Y-89268253D01*
X109698223Y-89251777D01*
X109681747Y-89233598D01*
X109667133Y-89213893D01*
X109654520Y-89192849D01*
X109644030Y-89170671D01*
X109635765Y-89147571D01*
X109629804Y-89123773D01*
X109626204Y-89099504D01*
X109625000Y-89075000D01*
X109625000Y-87925000D01*
X109626204Y-87900496D01*
X109629804Y-87876227D01*
X109635765Y-87852429D01*
X109644030Y-87829329D01*
X109654520Y-87807151D01*
X109667133Y-87786107D01*
X109681747Y-87766402D01*
X109698223Y-87748223D01*
X109716402Y-87731747D01*
X109736107Y-87717133D01*
X109757151Y-87704520D01*
X109779329Y-87694030D01*
X109802429Y-87685765D01*
X109826227Y-87679804D01*
X109850496Y-87676204D01*
X109875000Y-87675000D01*
X110975000Y-87675000D01*
X110999504Y-87676204D01*
X110999504Y-87676204D01*
G37*
D13*
X110425000Y-88500000D03*
M02*
