G04 #@! TF.GenerationSoftware,KiCad,Pcbnew,(5.1.0-0)*
G04 #@! TF.CreationDate,2020-07-06T15:42:16+02:00*
G04 #@! TF.ProjectId,POxiM-fingersensor,504f7869-4d2d-4666-996e-67657273656e,Test proto*
G04 #@! TF.SameCoordinates,Original*
G04 #@! TF.FileFunction,Other,Fab,Top*
%FSLAX46Y46*%
G04 Gerber Fmt 4.6, Leading zero omitted, Abs format (unit mm)*
G04 Created by KiCad (PCBNEW (5.1.0-0)) date 2020-07-06 15:42:16*
%MOMM*%
%LPD*%
G04 APERTURE LIST*
%ADD10C,0.100000*%
%ADD11C,0.060000*%
%ADD12C,0.150000*%
%ADD13C,0.120000*%
G04 APERTURE END LIST*
D10*
X113500000Y-85500000D02*
G75*
G03X113500000Y-85500000I-1000000J0D01*
G01*
X110600000Y-86200000D02*
X110600000Y-84600000D01*
X107400000Y-86200000D02*
X110600000Y-86200000D01*
X107400000Y-85000000D02*
X107400000Y-86200000D01*
X107800000Y-84600000D02*
X107400000Y-85000000D01*
X110600000Y-84600000D02*
X107800000Y-84600000D01*
X106500000Y-85500000D02*
G75*
G03X106500000Y-85500000I-1000000J0D01*
G01*
X109900000Y-71300000D02*
X110400000Y-71300000D01*
X110400000Y-71300000D02*
X110400000Y-69700000D01*
X109600000Y-71000000D02*
X109900000Y-71300000D01*
X109600000Y-69700000D02*
X109600000Y-71000000D01*
X110400000Y-69700000D02*
X109600000Y-69700000D01*
X107300000Y-64250000D02*
G75*
G03X107300000Y-64250000I-1000000J0D01*
G01*
X113500000Y-69250000D02*
G75*
G03X113500000Y-69250000I-1000000J0D01*
G01*
X107900000Y-71300000D02*
X108400000Y-71300000D01*
X108400000Y-71300000D02*
X108400000Y-69700000D01*
X107600000Y-71000000D02*
X107900000Y-71300000D01*
X107600000Y-69700000D02*
X107600000Y-71000000D01*
X108400000Y-69700000D02*
X107600000Y-69700000D01*
D11*
X112071428Y-85471428D02*
X111938095Y-85471428D01*
X111938095Y-85680952D02*
X111938095Y-85280952D01*
X112128571Y-85280952D01*
X112280952Y-85680952D02*
X112280952Y-85280952D01*
X112471428Y-85680952D02*
X112471428Y-85280952D01*
X112566666Y-85280952D01*
X112623809Y-85300000D01*
X112661904Y-85338095D01*
X112680952Y-85376190D01*
X112700000Y-85452380D01*
X112700000Y-85509523D01*
X112680952Y-85585714D01*
X112661904Y-85623809D01*
X112623809Y-85661904D01*
X112566666Y-85680952D01*
X112471428Y-85680952D01*
X112852380Y-85319047D02*
X112871428Y-85300000D01*
X112909523Y-85280952D01*
X113004761Y-85280952D01*
X113042857Y-85300000D01*
X113061904Y-85319047D01*
X113080952Y-85357142D01*
X113080952Y-85395238D01*
X113061904Y-85452380D01*
X112833333Y-85680952D01*
X113080952Y-85680952D01*
D12*
X111038095Y-87952380D02*
X111038095Y-86952380D01*
X111038095Y-87428571D02*
X111609523Y-87428571D01*
X111609523Y-87952380D02*
X111609523Y-86952380D01*
X112038095Y-87047619D02*
X112085714Y-87000000D01*
X112180952Y-86952380D01*
X112419047Y-86952380D01*
X112514285Y-87000000D01*
X112561904Y-87047619D01*
X112609523Y-87142857D01*
X112609523Y-87238095D01*
X112561904Y-87380952D01*
X111990476Y-87952380D01*
X112609523Y-87952380D01*
X106038095Y-87952380D02*
X106038095Y-86952380D01*
X106038095Y-87428571D02*
X106609523Y-87428571D01*
X106609523Y-87952380D02*
X106609523Y-86952380D01*
X107609523Y-87952380D02*
X107038095Y-87952380D01*
X107323809Y-87952380D02*
X107323809Y-86952380D01*
X107228571Y-87095238D01*
X107133333Y-87190476D01*
X107038095Y-87238095D01*
D13*
X108409523Y-85761904D02*
X108409523Y-84961904D01*
X108600000Y-84961904D01*
X108714285Y-85000000D01*
X108790476Y-85076190D01*
X108828571Y-85152380D01*
X108866666Y-85304761D01*
X108866666Y-85419047D01*
X108828571Y-85571428D01*
X108790476Y-85647619D01*
X108714285Y-85723809D01*
X108600000Y-85761904D01*
X108409523Y-85761904D01*
X109628571Y-85761904D02*
X109171428Y-85761904D01*
X109400000Y-85761904D02*
X109400000Y-84961904D01*
X109323809Y-85076190D01*
X109247619Y-85152380D01*
X109171428Y-85190476D01*
D11*
X105071428Y-85471428D02*
X104938095Y-85471428D01*
X104938095Y-85680952D02*
X104938095Y-85280952D01*
X105128571Y-85280952D01*
X105280952Y-85680952D02*
X105280952Y-85280952D01*
X105471428Y-85680952D02*
X105471428Y-85280952D01*
X105566666Y-85280952D01*
X105623809Y-85300000D01*
X105661904Y-85338095D01*
X105680952Y-85376190D01*
X105700000Y-85452380D01*
X105700000Y-85509523D01*
X105680952Y-85585714D01*
X105661904Y-85623809D01*
X105623809Y-85661904D01*
X105566666Y-85680952D01*
X105471428Y-85680952D01*
X106080952Y-85680952D02*
X105852380Y-85680952D01*
X105966666Y-85680952D02*
X105966666Y-85280952D01*
X105928571Y-85338095D01*
X105890476Y-85376190D01*
X105852380Y-85395238D01*
D12*
X111788095Y-71952380D02*
X111788095Y-70952380D01*
X111788095Y-71428571D02*
X112359523Y-71428571D01*
X112359523Y-71952380D02*
X112359523Y-70952380D01*
X113264285Y-71285714D02*
X113264285Y-71952380D01*
X113026190Y-70904761D02*
X112788095Y-71619047D01*
X113407142Y-71619047D01*
D11*
X110180952Y-70795238D02*
X109780952Y-70795238D01*
X109780952Y-70700000D01*
X109800000Y-70642857D01*
X109838095Y-70604761D01*
X109876190Y-70585714D01*
X109952380Y-70566666D01*
X110009523Y-70566666D01*
X110085714Y-70585714D01*
X110123809Y-70604761D01*
X110161904Y-70642857D01*
X110180952Y-70700000D01*
X110180952Y-70795238D01*
X109780952Y-70433333D02*
X109780952Y-70185714D01*
X109933333Y-70319047D01*
X109933333Y-70261904D01*
X109952380Y-70223809D01*
X109971428Y-70204761D01*
X110009523Y-70185714D01*
X110104761Y-70185714D01*
X110142857Y-70204761D01*
X110161904Y-70223809D01*
X110180952Y-70261904D01*
X110180952Y-70376190D01*
X110161904Y-70414285D01*
X110142857Y-70433333D01*
X105871428Y-64221428D02*
X105738095Y-64221428D01*
X105738095Y-64430952D02*
X105738095Y-64030952D01*
X105928571Y-64030952D01*
X106080952Y-64430952D02*
X106080952Y-64030952D01*
X106271428Y-64430952D02*
X106271428Y-64030952D01*
X106366666Y-64030952D01*
X106423809Y-64050000D01*
X106461904Y-64088095D01*
X106480952Y-64126190D01*
X106500000Y-64202380D01*
X106500000Y-64259523D01*
X106480952Y-64335714D01*
X106461904Y-64373809D01*
X106423809Y-64411904D01*
X106366666Y-64430952D01*
X106271428Y-64430952D01*
X106633333Y-64030952D02*
X106880952Y-64030952D01*
X106747619Y-64183333D01*
X106804761Y-64183333D01*
X106842857Y-64202380D01*
X106861904Y-64221428D01*
X106880952Y-64259523D01*
X106880952Y-64354761D01*
X106861904Y-64392857D01*
X106842857Y-64411904D01*
X106804761Y-64430952D01*
X106690476Y-64430952D01*
X106652380Y-64411904D01*
X106633333Y-64392857D01*
D12*
X111038095Y-65702380D02*
X111038095Y-64702380D01*
X111038095Y-65178571D02*
X111609523Y-65178571D01*
X111609523Y-65702380D02*
X111609523Y-64702380D01*
X111990476Y-64702380D02*
X112609523Y-64702380D01*
X112276190Y-65083333D01*
X112419047Y-65083333D01*
X112514285Y-65130952D01*
X112561904Y-65178571D01*
X112609523Y-65273809D01*
X112609523Y-65511904D01*
X112561904Y-65607142D01*
X112514285Y-65654761D01*
X112419047Y-65702380D01*
X112133333Y-65702380D01*
X112038095Y-65654761D01*
X111990476Y-65607142D01*
D11*
X112071428Y-69221428D02*
X111938095Y-69221428D01*
X111938095Y-69430952D02*
X111938095Y-69030952D01*
X112128571Y-69030952D01*
X112280952Y-69430952D02*
X112280952Y-69030952D01*
X112471428Y-69430952D02*
X112471428Y-69030952D01*
X112566666Y-69030952D01*
X112623809Y-69050000D01*
X112661904Y-69088095D01*
X112680952Y-69126190D01*
X112700000Y-69202380D01*
X112700000Y-69259523D01*
X112680952Y-69335714D01*
X112661904Y-69373809D01*
X112623809Y-69411904D01*
X112566666Y-69430952D01*
X112471428Y-69430952D01*
X113042857Y-69164285D02*
X113042857Y-69430952D01*
X112947619Y-69011904D02*
X112852380Y-69297619D01*
X113100000Y-69297619D01*
X108180952Y-70795238D02*
X107780952Y-70795238D01*
X107780952Y-70700000D01*
X107800000Y-70642857D01*
X107838095Y-70604761D01*
X107876190Y-70585714D01*
X107952380Y-70566666D01*
X108009523Y-70566666D01*
X108085714Y-70585714D01*
X108123809Y-70604761D01*
X108161904Y-70642857D01*
X108180952Y-70700000D01*
X108180952Y-70795238D01*
X107819047Y-70414285D02*
X107800000Y-70395238D01*
X107780952Y-70357142D01*
X107780952Y-70261904D01*
X107800000Y-70223809D01*
X107819047Y-70204761D01*
X107857142Y-70185714D01*
X107895238Y-70185714D01*
X107952380Y-70204761D01*
X108180952Y-70433333D01*
X108180952Y-70185714D01*
M02*
