M48
METRIC
T1C0.400
T2C1.200
T3C2.200
%
G90
G05
T1
X105.0Y-63.75
X105.0Y-64.75
X105.0Y-66.25
X105.0Y-67.25
X105.0Y-68.75
X105.0Y-69.75
X105.0Y-71.25
X105.0Y-72.25
X105.25Y-74.75
X105.25Y-76.0
X105.25Y-80.25
X105.25Y-82.0
X105.75Y-69.25
X106.0Y-75.375
X106.0Y-81.125
X106.5Y-67.25
X106.5Y-68.75
X106.5Y-69.75
X106.75Y-63.75
X106.75Y-64.75
X106.75Y-66.25
X106.75Y-71.25
X106.75Y-72.25
X106.75Y-76.0
X106.75Y-80.25
X107.5Y-75.375
X107.5Y-81.125
X107.75Y-66.75
X108.25Y-74.75
X108.25Y-76.0
X108.25Y-80.25
X108.25Y-82.0
X108.5Y-63.75
X108.5Y-64.75
X108.5Y-66.25
X108.5Y-71.25
X108.5Y-72.25
X109.0Y-89.0
X109.75Y-74.75
X109.75Y-76.0
X109.75Y-80.25
X109.75Y-82.0
X110.5Y-75.375
X110.5Y-81.125
X111.25Y-76.0
X111.25Y-80.25
X111.5Y-69.75
X112.0Y-75.375
X112.0Y-81.125
X112.75Y-74.75
X112.75Y-76.0
X112.75Y-80.25
X112.75Y-82.0
T2
X106.75Y-74.25
X106.75Y-82.25
X111.25Y-74.25
X111.25Y-82.25
T3
X111.5Y-87.5
X106.5Y-87.5
X111.5Y-65.25
X111.5Y-71.5
T0
M30
