G04 #@! TF.GenerationSoftware,KiCad,Pcbnew,(5.1.0-0)*
G04 #@! TF.CreationDate,2020-07-01T23:51:59+02:00*
G04 #@! TF.ProjectId,POxiM-fingersensor,504f7869-4d2d-4666-996e-67657273656e,Test proto*
G04 #@! TF.SameCoordinates,Original*
G04 #@! TF.FileFunction,Soldermask,Top*
G04 #@! TF.FilePolarity,Negative*
%FSLAX46Y46*%
G04 Gerber Fmt 4.6, Leading zero omitted, Abs format (unit mm)*
G04 Created by KiCad (PCBNEW (5.1.0-0)) date 2020-07-01 23:51:59*
%MOMM*%
%LPD*%
G04 APERTURE LIST*
%ADD10C,0.550000*%
%ADD11C,0.010000*%
%ADD12C,0.100000*%
G04 APERTURE END LIST*
D10*
G36*
X112750000Y-83000000D02*
G01*
X109750000Y-83000000D01*
X109750000Y-80250000D01*
X112750000Y-80250000D01*
X112750000Y-83000000D01*
G37*
X112750000Y-83000000D02*
X109750000Y-83000000D01*
X109750000Y-80250000D01*
X112750000Y-80250000D01*
X112750000Y-83000000D01*
G36*
X108250000Y-83000000D02*
G01*
X105250000Y-83000000D01*
X105250000Y-80250000D01*
X108250000Y-80250000D01*
X108250000Y-83000000D01*
G37*
X108250000Y-83000000D02*
X105250000Y-83000000D01*
X105250000Y-80250000D01*
X108250000Y-80250000D01*
X108250000Y-83000000D01*
G36*
X112750000Y-76325000D02*
G01*
X109750000Y-76325000D01*
X109750000Y-73500000D01*
X112750000Y-73500000D01*
X112750000Y-76325000D01*
G37*
X112750000Y-76325000D02*
X109750000Y-76325000D01*
X109750000Y-73500000D01*
X112750000Y-73500000D01*
X112750000Y-76325000D01*
G36*
X108250000Y-76325000D02*
G01*
X105250000Y-76325000D01*
X105250000Y-73500000D01*
X108250000Y-73500000D01*
X108250000Y-76325000D01*
G37*
X108250000Y-76325000D02*
X105250000Y-76325000D01*
X105250000Y-73500000D01*
X108250000Y-73500000D01*
X108250000Y-76325000D01*
D11*
G36*
X107875377Y-71175316D02*
G01*
X107893713Y-71183718D01*
X107902417Y-71189614D01*
X107914050Y-71200735D01*
X107924475Y-71214847D01*
X107932406Y-71230015D01*
X107935597Y-71239460D01*
X107939113Y-71253430D01*
X107941014Y-71244540D01*
X107946999Y-71227321D01*
X107957003Y-71210550D01*
X107970027Y-71195462D01*
X107985071Y-71183291D01*
X107995043Y-71177723D01*
X108006922Y-71174051D01*
X108021795Y-71172073D01*
X108037868Y-71171788D01*
X108053344Y-71173197D01*
X108066430Y-71176300D01*
X108069976Y-71177723D01*
X108082863Y-71185542D01*
X108095885Y-71196615D01*
X108107484Y-71209408D01*
X108116101Y-71222384D01*
X108116887Y-71223936D01*
X108120532Y-71232264D01*
X108122658Y-71239959D01*
X108123650Y-71248990D01*
X108123891Y-71259780D01*
X108123451Y-71271468D01*
X108121781Y-71281865D01*
X108118456Y-71291955D01*
X108113053Y-71302724D01*
X108105148Y-71315156D01*
X108094318Y-71330237D01*
X108092586Y-71332560D01*
X108087774Y-71338467D01*
X108080255Y-71347032D01*
X108070475Y-71357794D01*
X108058880Y-71370294D01*
X108045915Y-71384070D01*
X108032027Y-71398664D01*
X108017661Y-71413614D01*
X108003263Y-71428462D01*
X107989279Y-71442747D01*
X107976154Y-71456010D01*
X107964335Y-71467789D01*
X107954267Y-71477625D01*
X107946395Y-71485059D01*
X107941166Y-71489629D01*
X107939133Y-71490920D01*
X107936829Y-71489180D01*
X107931388Y-71484239D01*
X107923237Y-71476510D01*
X107912806Y-71466409D01*
X107900525Y-71454350D01*
X107886821Y-71440747D01*
X107875385Y-71429297D01*
X107850966Y-71404492D01*
X107830075Y-71382669D01*
X107812411Y-71363472D01*
X107797673Y-71346547D01*
X107785561Y-71331537D01*
X107775774Y-71318087D01*
X107768010Y-71305841D01*
X107762885Y-71296332D01*
X107757826Y-71285485D01*
X107754878Y-71277125D01*
X107753536Y-71269384D01*
X107753291Y-71260830D01*
X107755819Y-71240453D01*
X107762510Y-71222125D01*
X107772762Y-71206132D01*
X107785975Y-71192762D01*
X107801546Y-71182303D01*
X107818873Y-71175041D01*
X107837355Y-71171265D01*
X107856391Y-71171260D01*
X107875377Y-71175316D01*
X107875377Y-71175316D01*
G37*
X107875377Y-71175316D02*
X107893713Y-71183718D01*
X107902417Y-71189614D01*
X107914050Y-71200735D01*
X107924475Y-71214847D01*
X107932406Y-71230015D01*
X107935597Y-71239460D01*
X107939113Y-71253430D01*
X107941014Y-71244540D01*
X107946999Y-71227321D01*
X107957003Y-71210550D01*
X107970027Y-71195462D01*
X107985071Y-71183291D01*
X107995043Y-71177723D01*
X108006922Y-71174051D01*
X108021795Y-71172073D01*
X108037868Y-71171788D01*
X108053344Y-71173197D01*
X108066430Y-71176300D01*
X108069976Y-71177723D01*
X108082863Y-71185542D01*
X108095885Y-71196615D01*
X108107484Y-71209408D01*
X108116101Y-71222384D01*
X108116887Y-71223936D01*
X108120532Y-71232264D01*
X108122658Y-71239959D01*
X108123650Y-71248990D01*
X108123891Y-71259780D01*
X108123451Y-71271468D01*
X108121781Y-71281865D01*
X108118456Y-71291955D01*
X108113053Y-71302724D01*
X108105148Y-71315156D01*
X108094318Y-71330237D01*
X108092586Y-71332560D01*
X108087774Y-71338467D01*
X108080255Y-71347032D01*
X108070475Y-71357794D01*
X108058880Y-71370294D01*
X108045915Y-71384070D01*
X108032027Y-71398664D01*
X108017661Y-71413614D01*
X108003263Y-71428462D01*
X107989279Y-71442747D01*
X107976154Y-71456010D01*
X107964335Y-71467789D01*
X107954267Y-71477625D01*
X107946395Y-71485059D01*
X107941166Y-71489629D01*
X107939133Y-71490920D01*
X107936829Y-71489180D01*
X107931388Y-71484239D01*
X107923237Y-71476510D01*
X107912806Y-71466409D01*
X107900525Y-71454350D01*
X107886821Y-71440747D01*
X107875385Y-71429297D01*
X107850966Y-71404492D01*
X107830075Y-71382669D01*
X107812411Y-71363472D01*
X107797673Y-71346547D01*
X107785561Y-71331537D01*
X107775774Y-71318087D01*
X107768010Y-71305841D01*
X107762885Y-71296332D01*
X107757826Y-71285485D01*
X107754878Y-71277125D01*
X107753536Y-71269384D01*
X107753291Y-71260830D01*
X107755819Y-71240453D01*
X107762510Y-71222125D01*
X107772762Y-71206132D01*
X107785975Y-71192762D01*
X107801546Y-71182303D01*
X107818873Y-71175041D01*
X107837355Y-71171265D01*
X107856391Y-71171260D01*
X107875377Y-71175316D01*
D12*
G36*
X111693098Y-86364860D02*
G01*
X111835734Y-86393232D01*
X112045203Y-86479997D01*
X112233720Y-86605960D01*
X112394040Y-86766280D01*
X112520003Y-86954797D01*
X112606768Y-87164266D01*
X112651000Y-87386636D01*
X112651000Y-87613364D01*
X112606768Y-87835734D01*
X112520003Y-88045203D01*
X112394040Y-88233720D01*
X112233720Y-88394040D01*
X112045203Y-88520003D01*
X111835734Y-88606768D01*
X111724549Y-88628884D01*
X111613365Y-88651000D01*
X111386635Y-88651000D01*
X111275451Y-88628884D01*
X111164266Y-88606768D01*
X110954797Y-88520003D01*
X110766280Y-88394040D01*
X110605960Y-88233720D01*
X110479997Y-88045203D01*
X110393232Y-87835734D01*
X110349000Y-87613364D01*
X110349000Y-87386636D01*
X110393232Y-87164266D01*
X110479997Y-86954797D01*
X110605960Y-86766280D01*
X110766280Y-86605960D01*
X110954797Y-86479997D01*
X111164266Y-86393232D01*
X111306902Y-86364860D01*
X111386635Y-86349000D01*
X111613365Y-86349000D01*
X111693098Y-86364860D01*
X111693098Y-86364860D01*
G37*
G36*
X106693098Y-86364860D02*
G01*
X106835734Y-86393232D01*
X107045203Y-86479997D01*
X107233720Y-86605960D01*
X107394040Y-86766280D01*
X107520003Y-86954797D01*
X107606768Y-87164266D01*
X107651000Y-87386636D01*
X107651000Y-87613364D01*
X107606768Y-87835734D01*
X107520003Y-88045203D01*
X107394040Y-88233720D01*
X107233720Y-88394040D01*
X107045203Y-88520003D01*
X106835734Y-88606768D01*
X106724549Y-88628884D01*
X106613365Y-88651000D01*
X106386635Y-88651000D01*
X106275451Y-88628884D01*
X106164266Y-88606768D01*
X105954797Y-88520003D01*
X105766280Y-88394040D01*
X105605960Y-88233720D01*
X105479997Y-88045203D01*
X105393232Y-87835734D01*
X105349000Y-87613364D01*
X105349000Y-87386636D01*
X105393232Y-87164266D01*
X105479997Y-86954797D01*
X105605960Y-86766280D01*
X105766280Y-86605960D01*
X105954797Y-86479997D01*
X106164266Y-86393232D01*
X106306902Y-86364860D01*
X106386635Y-86349000D01*
X106613365Y-86349000D01*
X106693098Y-86364860D01*
X106693098Y-86364860D01*
G37*
G36*
X109725111Y-86253192D02*
G01*
X109760140Y-86263818D01*
X109792416Y-86281070D01*
X109820710Y-86304290D01*
X109843930Y-86332584D01*
X109861182Y-86364860D01*
X109871808Y-86399889D01*
X109876000Y-86442452D01*
X109876000Y-88082548D01*
X109871808Y-88125111D01*
X109861182Y-88160140D01*
X109843930Y-88192416D01*
X109820710Y-88220710D01*
X109792416Y-88243930D01*
X109760140Y-88261182D01*
X109725111Y-88271808D01*
X109682548Y-88276000D01*
X108317452Y-88276000D01*
X108274889Y-88271808D01*
X108239860Y-88261182D01*
X108207584Y-88243930D01*
X108179290Y-88220710D01*
X108156070Y-88192416D01*
X108138818Y-88160140D01*
X108128192Y-88125111D01*
X108124000Y-88082548D01*
X108124000Y-86442452D01*
X108128192Y-86399889D01*
X108138818Y-86364860D01*
X108156070Y-86332584D01*
X108179290Y-86304290D01*
X108207584Y-86281070D01*
X108239860Y-86263818D01*
X108274889Y-86253192D01*
X108317452Y-86249000D01*
X109682548Y-86249000D01*
X109725111Y-86253192D01*
X109725111Y-86253192D01*
G37*
G36*
X113145843Y-85769214D02*
G01*
X113145846Y-85769215D01*
X113145845Y-85769215D01*
X113236839Y-85806906D01*
X113278063Y-85834451D01*
X113318730Y-85861624D01*
X113388376Y-85931270D01*
X113443095Y-86013163D01*
X113480786Y-86104157D01*
X113500000Y-86200753D01*
X113500000Y-86299247D01*
X113480786Y-86395843D01*
X113445928Y-86479997D01*
X113443094Y-86486839D01*
X113388375Y-86568731D01*
X113318731Y-86638375D01*
X113236839Y-86693094D01*
X113236838Y-86693095D01*
X113236837Y-86693095D01*
X113145843Y-86730786D01*
X113049247Y-86750000D01*
X112950753Y-86750000D01*
X112854157Y-86730786D01*
X112763163Y-86693095D01*
X112763162Y-86693095D01*
X112763161Y-86693094D01*
X112681269Y-86638375D01*
X112611625Y-86568731D01*
X112556906Y-86486839D01*
X112554072Y-86479997D01*
X112519214Y-86395843D01*
X112500000Y-86299247D01*
X112500000Y-86200753D01*
X112519214Y-86104157D01*
X112556905Y-86013163D01*
X112611624Y-85931270D01*
X112681270Y-85861624D01*
X112721937Y-85834451D01*
X112763161Y-85806906D01*
X112854155Y-85769215D01*
X112854154Y-85769215D01*
X112854157Y-85769214D01*
X112950753Y-85750000D01*
X113049247Y-85750000D01*
X113145843Y-85769214D01*
X113145843Y-85769214D01*
G37*
G36*
X109725111Y-83728192D02*
G01*
X109760140Y-83738818D01*
X109792416Y-83756070D01*
X109820710Y-83779290D01*
X109843930Y-83807584D01*
X109861182Y-83839860D01*
X109871808Y-83874889D01*
X109876000Y-83917452D01*
X109876000Y-85557548D01*
X109871808Y-85600111D01*
X109861182Y-85635140D01*
X109843930Y-85667416D01*
X109820710Y-85695710D01*
X109792416Y-85718930D01*
X109760140Y-85736182D01*
X109725111Y-85746808D01*
X109682548Y-85751000D01*
X108317452Y-85751000D01*
X108274889Y-85746808D01*
X108239860Y-85736182D01*
X108207584Y-85718930D01*
X108179290Y-85695710D01*
X108156070Y-85667416D01*
X108138818Y-85635140D01*
X108128192Y-85600111D01*
X108124000Y-85557548D01*
X108124000Y-83917452D01*
X108128192Y-83874889D01*
X108138818Y-83839860D01*
X108156070Y-83807584D01*
X108179290Y-83779290D01*
X108207584Y-83756070D01*
X108239860Y-83738818D01*
X108274889Y-83728192D01*
X108317452Y-83724000D01*
X109682548Y-83724000D01*
X109725111Y-83728192D01*
X109725111Y-83728192D01*
G37*
G36*
X105145843Y-83769214D02*
G01*
X105236837Y-83806905D01*
X105236839Y-83806906D01*
X105278063Y-83834451D01*
X105318730Y-83861624D01*
X105388376Y-83931270D01*
X105443095Y-84013163D01*
X105480786Y-84104157D01*
X105500000Y-84200753D01*
X105500000Y-84299247D01*
X105480786Y-84395843D01*
X105480785Y-84395845D01*
X105443094Y-84486839D01*
X105388375Y-84568731D01*
X105318731Y-84638375D01*
X105236839Y-84693094D01*
X105236838Y-84693095D01*
X105236837Y-84693095D01*
X105145843Y-84730786D01*
X105049247Y-84750000D01*
X104950753Y-84750000D01*
X104854157Y-84730786D01*
X104763163Y-84693095D01*
X104763162Y-84693095D01*
X104763161Y-84693094D01*
X104681269Y-84638375D01*
X104611625Y-84568731D01*
X104556906Y-84486839D01*
X104519215Y-84395845D01*
X104519214Y-84395843D01*
X104500000Y-84299247D01*
X104500000Y-84200753D01*
X104519214Y-84104157D01*
X104556905Y-84013163D01*
X104611624Y-83931270D01*
X104681270Y-83861624D01*
X104721937Y-83834451D01*
X104763161Y-83806906D01*
X104763163Y-83806905D01*
X104854157Y-83769214D01*
X104950753Y-83750000D01*
X105049247Y-83750000D01*
X105145843Y-83769214D01*
X105145843Y-83769214D01*
G37*
G36*
X110564342Y-69304046D02*
G01*
X110607709Y-69317201D01*
X110647666Y-69338559D01*
X110682695Y-69367305D01*
X110711441Y-69402334D01*
X110732799Y-69442291D01*
X110745954Y-69485658D01*
X110751000Y-69536890D01*
X110751000Y-70238110D01*
X110745954Y-70289342D01*
X110732799Y-70332707D01*
X110722235Y-70352472D01*
X110712858Y-70375111D01*
X110708078Y-70399144D01*
X110708078Y-70423648D01*
X110712859Y-70447681D01*
X110722236Y-70470320D01*
X110735850Y-70490694D01*
X110753177Y-70508021D01*
X110773552Y-70521635D01*
X110796191Y-70531012D01*
X110820224Y-70535792D01*
X110844728Y-70535792D01*
X110868761Y-70531011D01*
X110901919Y-70515329D01*
X110954797Y-70479997D01*
X110964447Y-70476000D01*
X111032815Y-70447681D01*
X111164266Y-70393232D01*
X111275451Y-70371116D01*
X111386635Y-70349000D01*
X111613365Y-70349000D01*
X111724549Y-70371116D01*
X111835734Y-70393232D01*
X111967185Y-70447681D01*
X112035554Y-70476000D01*
X112045203Y-70479997D01*
X112233720Y-70605960D01*
X112394040Y-70766280D01*
X112520003Y-70954797D01*
X112606768Y-71164266D01*
X112651000Y-71386636D01*
X112651000Y-71613364D01*
X112606768Y-71835734D01*
X112520003Y-72045203D01*
X112394040Y-72233720D01*
X112233720Y-72394040D01*
X112045203Y-72520003D01*
X111835734Y-72606768D01*
X111724549Y-72628884D01*
X111613365Y-72651000D01*
X111386635Y-72651000D01*
X111275451Y-72628884D01*
X111164266Y-72606768D01*
X110954797Y-72520003D01*
X110766280Y-72394040D01*
X110605960Y-72233720D01*
X110479997Y-72045203D01*
X110393232Y-71835734D01*
X110349000Y-71613364D01*
X110349000Y-71386636D01*
X110393232Y-71164266D01*
X110479997Y-70954797D01*
X110605960Y-70766280D01*
X110695145Y-70677095D01*
X110710685Y-70658159D01*
X110722236Y-70636548D01*
X110729349Y-70613099D01*
X110731751Y-70588713D01*
X110729349Y-70564327D01*
X110722236Y-70540878D01*
X110710685Y-70519267D01*
X110695140Y-70500325D01*
X110676198Y-70484780D01*
X110654587Y-70473229D01*
X110631138Y-70466116D01*
X110606752Y-70463714D01*
X110570467Y-70469096D01*
X110564342Y-70470954D01*
X110513110Y-70476000D01*
X109486890Y-70476000D01*
X109435658Y-70470954D01*
X109392291Y-70457799D01*
X109352334Y-70436441D01*
X109317305Y-70407695D01*
X109288559Y-70372666D01*
X109267201Y-70332709D01*
X109254046Y-70289342D01*
X109249000Y-70238110D01*
X109249000Y-69536890D01*
X109254046Y-69485658D01*
X109267201Y-69442291D01*
X109288559Y-69402334D01*
X109317305Y-69367305D01*
X109352334Y-69338559D01*
X109392291Y-69317201D01*
X109435658Y-69304046D01*
X109486890Y-69299000D01*
X110513110Y-69299000D01*
X110564342Y-69304046D01*
X110564342Y-69304046D01*
G37*
G36*
X108564342Y-69304046D02*
G01*
X108607709Y-69317201D01*
X108647666Y-69338559D01*
X108682695Y-69367305D01*
X108711441Y-69402334D01*
X108732799Y-69442291D01*
X108745954Y-69485658D01*
X108751000Y-69536890D01*
X108751000Y-70238110D01*
X108745954Y-70289342D01*
X108732799Y-70332709D01*
X108711441Y-70372666D01*
X108682695Y-70407695D01*
X108647666Y-70436441D01*
X108607709Y-70457799D01*
X108564342Y-70470954D01*
X108513110Y-70476000D01*
X107486890Y-70476000D01*
X107435658Y-70470954D01*
X107392291Y-70457799D01*
X107352334Y-70436441D01*
X107317305Y-70407695D01*
X107288559Y-70372666D01*
X107267201Y-70332709D01*
X107254046Y-70289342D01*
X107249000Y-70238110D01*
X107249000Y-69536890D01*
X107254046Y-69485658D01*
X107267201Y-69442291D01*
X107288559Y-69402334D01*
X107317305Y-69367305D01*
X107352334Y-69338559D01*
X107392291Y-69317201D01*
X107435658Y-69304046D01*
X107486890Y-69299000D01*
X108513110Y-69299000D01*
X108564342Y-69304046D01*
X108564342Y-69304046D01*
G37*
G36*
X113145843Y-69269214D02*
G01*
X113236837Y-69306905D01*
X113236839Y-69306906D01*
X113278063Y-69334451D01*
X113318730Y-69361624D01*
X113388376Y-69431270D01*
X113443095Y-69513163D01*
X113480786Y-69604157D01*
X113500000Y-69700753D01*
X113500000Y-69799247D01*
X113480786Y-69895843D01*
X113480785Y-69895845D01*
X113443094Y-69986839D01*
X113388375Y-70068731D01*
X113318731Y-70138375D01*
X113236839Y-70193094D01*
X113236838Y-70193095D01*
X113236837Y-70193095D01*
X113145843Y-70230786D01*
X113049247Y-70250000D01*
X112950753Y-70250000D01*
X112854157Y-70230786D01*
X112763163Y-70193095D01*
X112763162Y-70193095D01*
X112763161Y-70193094D01*
X112681269Y-70138375D01*
X112611625Y-70068731D01*
X112556906Y-69986839D01*
X112519215Y-69895845D01*
X112519214Y-69895843D01*
X112500000Y-69799247D01*
X112500000Y-69700753D01*
X112519214Y-69604157D01*
X112556905Y-69513163D01*
X112611624Y-69431270D01*
X112681270Y-69361624D01*
X112721937Y-69334451D01*
X112763161Y-69306906D01*
X112763163Y-69306905D01*
X112854157Y-69269214D01*
X112950753Y-69250000D01*
X113049247Y-69250000D01*
X113145843Y-69269214D01*
X113145843Y-69269214D01*
G37*
G36*
X110564342Y-67529046D02*
G01*
X110607709Y-67542201D01*
X110647666Y-67563559D01*
X110682695Y-67592305D01*
X110711441Y-67627334D01*
X110732799Y-67667291D01*
X110745954Y-67710658D01*
X110751000Y-67761890D01*
X110751000Y-68463110D01*
X110745954Y-68514342D01*
X110732799Y-68557709D01*
X110711441Y-68597666D01*
X110682695Y-68632695D01*
X110647666Y-68661441D01*
X110607709Y-68682799D01*
X110564342Y-68695954D01*
X110513110Y-68701000D01*
X109486890Y-68701000D01*
X109435658Y-68695954D01*
X109392291Y-68682799D01*
X109352334Y-68661441D01*
X109317305Y-68632695D01*
X109288559Y-68597666D01*
X109267201Y-68557709D01*
X109254046Y-68514342D01*
X109249000Y-68463110D01*
X109249000Y-67761890D01*
X109254046Y-67710658D01*
X109267201Y-67667291D01*
X109288559Y-67627334D01*
X109317305Y-67592305D01*
X109352334Y-67563559D01*
X109392291Y-67542201D01*
X109435658Y-67529046D01*
X109486890Y-67524000D01*
X110513110Y-67524000D01*
X110564342Y-67529046D01*
X110564342Y-67529046D01*
G37*
G36*
X108564342Y-67529046D02*
G01*
X108607709Y-67542201D01*
X108647666Y-67563559D01*
X108682695Y-67592305D01*
X108711441Y-67627334D01*
X108732799Y-67667291D01*
X108745954Y-67710658D01*
X108751000Y-67761890D01*
X108751000Y-68463110D01*
X108745954Y-68514342D01*
X108732799Y-68557709D01*
X108711441Y-68597666D01*
X108682695Y-68632695D01*
X108647666Y-68661441D01*
X108607709Y-68682799D01*
X108564342Y-68695954D01*
X108513110Y-68701000D01*
X107486890Y-68701000D01*
X107435658Y-68695954D01*
X107392291Y-68682799D01*
X107352334Y-68661441D01*
X107317305Y-68632695D01*
X107288559Y-68597666D01*
X107267201Y-68557709D01*
X107254046Y-68514342D01*
X107249000Y-68463110D01*
X107249000Y-67761890D01*
X107254046Y-67710658D01*
X107267201Y-67667291D01*
X107288559Y-67627334D01*
X107317305Y-67592305D01*
X107352334Y-67563559D01*
X107392291Y-67542201D01*
X107435658Y-67529046D01*
X107486890Y-67524000D01*
X108513110Y-67524000D01*
X108564342Y-67529046D01*
X108564342Y-67529046D01*
G37*
G36*
X111724549Y-64121116D02*
G01*
X111835734Y-64143232D01*
X112045203Y-64229997D01*
X112233720Y-64355960D01*
X112394040Y-64516280D01*
X112520003Y-64704797D01*
X112606768Y-64914266D01*
X112651000Y-65136636D01*
X112651000Y-65363364D01*
X112606768Y-65585734D01*
X112520003Y-65795203D01*
X112394040Y-65983720D01*
X112233720Y-66144040D01*
X112045203Y-66270003D01*
X111835734Y-66356768D01*
X111724549Y-66378884D01*
X111613365Y-66401000D01*
X111386635Y-66401000D01*
X111275451Y-66378884D01*
X111164266Y-66356768D01*
X110954797Y-66270003D01*
X110766280Y-66144040D01*
X110605960Y-65983720D01*
X110479997Y-65795203D01*
X110393232Y-65585734D01*
X110349000Y-65363364D01*
X110349000Y-65136636D01*
X110393232Y-64914266D01*
X110479997Y-64704797D01*
X110605960Y-64516280D01*
X110766280Y-64355960D01*
X110954797Y-64229997D01*
X111164266Y-64143232D01*
X111275451Y-64121116D01*
X111386635Y-64099000D01*
X111613365Y-64099000D01*
X111724549Y-64121116D01*
X111724549Y-64121116D01*
G37*
G36*
X106020843Y-63769214D02*
G01*
X106020846Y-63769215D01*
X106020845Y-63769215D01*
X106111839Y-63806906D01*
X106153063Y-63834451D01*
X106193730Y-63861624D01*
X106263376Y-63931270D01*
X106318095Y-64013163D01*
X106355786Y-64104157D01*
X106375000Y-64200753D01*
X106375000Y-64299247D01*
X106355786Y-64395843D01*
X106355785Y-64395845D01*
X106318094Y-64486839D01*
X106263375Y-64568731D01*
X106193731Y-64638375D01*
X106111839Y-64693094D01*
X106111838Y-64693095D01*
X106111837Y-64693095D01*
X106020843Y-64730786D01*
X105924247Y-64750000D01*
X105825753Y-64750000D01*
X105729157Y-64730786D01*
X105638163Y-64693095D01*
X105638162Y-64693095D01*
X105638161Y-64693094D01*
X105556269Y-64638375D01*
X105486625Y-64568731D01*
X105431906Y-64486839D01*
X105394215Y-64395845D01*
X105394214Y-64395843D01*
X105375000Y-64299247D01*
X105375000Y-64200753D01*
X105394214Y-64104157D01*
X105431905Y-64013163D01*
X105486624Y-63931270D01*
X105556270Y-63861624D01*
X105596937Y-63834451D01*
X105638161Y-63806906D01*
X105729155Y-63769215D01*
X105729154Y-63769215D01*
X105729157Y-63769214D01*
X105825753Y-63750000D01*
X105924247Y-63750000D01*
X106020843Y-63769214D01*
X106020843Y-63769214D01*
G37*
M02*
