G04 #@! TF.GenerationSoftware,KiCad,Pcbnew,(5.1.0-0)*
G04 #@! TF.CreationDate,2020-06-22T10:40:38+02:00*
G04 #@! TF.ProjectId,POxiM-fingersensor,504f7869-4d2d-4666-996e-67657273656e,Test proto*
G04 #@! TF.SameCoordinates,Original*
G04 #@! TF.FileFunction,Legend,Top*
G04 #@! TF.FilePolarity,Positive*
%FSLAX46Y46*%
G04 Gerber Fmt 4.6, Leading zero omitted, Abs format (unit mm)*
G04 Created by KiCad (PCBNEW (5.1.0-0)) date 2020-06-22 10:40:38*
%MOMM*%
%LPD*%
G04 APERTURE LIST*
%ADD10C,0.150000*%
%ADD11C,0.120000*%
%ADD12C,0.100000*%
%ADD13C,0.010000*%
G04 APERTURE END LIST*
D10*
X109537976Y-63057142D02*
X110147500Y-63057142D01*
X109842738Y-63361904D02*
X109842738Y-62752380D01*
X110909404Y-62561904D02*
X110528452Y-62561904D01*
X110490357Y-62942857D01*
X110528452Y-62904761D01*
X110604642Y-62866666D01*
X110795119Y-62866666D01*
X110871309Y-62904761D01*
X110909404Y-62942857D01*
X110947500Y-63019047D01*
X110947500Y-63209523D01*
X110909404Y-63285714D01*
X110871309Y-63323809D01*
X110795119Y-63361904D01*
X110604642Y-63361904D01*
X110528452Y-63323809D01*
X110490357Y-63285714D01*
X111176071Y-62561904D02*
X111442738Y-63361904D01*
X111709404Y-62561904D01*
X109995119Y-60861904D02*
X109728452Y-60480952D01*
X109537976Y-60861904D02*
X109537976Y-60061904D01*
X109842738Y-60061904D01*
X109918928Y-60100000D01*
X109957023Y-60138095D01*
X109995119Y-60214285D01*
X109995119Y-60328571D01*
X109957023Y-60404761D01*
X109918928Y-60442857D01*
X109842738Y-60480952D01*
X109537976Y-60480952D01*
X110642738Y-60823809D02*
X110566547Y-60861904D01*
X110414166Y-60861904D01*
X110337976Y-60823809D01*
X110299880Y-60747619D01*
X110299880Y-60442857D01*
X110337976Y-60366666D01*
X110414166Y-60328571D01*
X110566547Y-60328571D01*
X110642738Y-60366666D01*
X110680833Y-60442857D01*
X110680833Y-60519047D01*
X110299880Y-60595238D01*
X111366547Y-60861904D02*
X111366547Y-60061904D01*
X111366547Y-60823809D02*
X111290357Y-60861904D01*
X111137976Y-60861904D01*
X111061785Y-60823809D01*
X111023690Y-60785714D01*
X110985595Y-60709523D01*
X110985595Y-60480952D01*
X111023690Y-60404761D01*
X111061785Y-60366666D01*
X111137976Y-60328571D01*
X111290357Y-60328571D01*
X111366547Y-60366666D01*
X109537976Y-65861904D02*
X109537976Y-65061904D01*
X109842738Y-65061904D01*
X109918928Y-65100000D01*
X109957023Y-65138095D01*
X109995119Y-65214285D01*
X109995119Y-65328571D01*
X109957023Y-65404761D01*
X109918928Y-65442857D01*
X109842738Y-65480952D01*
X109537976Y-65480952D01*
X110337976Y-65861904D02*
X110337976Y-65061904D01*
X110528452Y-65061904D01*
X110642738Y-65100000D01*
X110718928Y-65176190D01*
X110757023Y-65252380D01*
X110795119Y-65404761D01*
X110795119Y-65519047D01*
X110757023Y-65671428D01*
X110718928Y-65747619D01*
X110642738Y-65823809D01*
X110528452Y-65861904D01*
X110337976Y-65861904D01*
X109537976Y-58361904D02*
X109537976Y-57561904D01*
X110376071Y-58361904D02*
X110109404Y-57980952D01*
X109918928Y-58361904D02*
X109918928Y-57561904D01*
X110223690Y-57561904D01*
X110299880Y-57600000D01*
X110337976Y-57638095D01*
X110376071Y-57714285D01*
X110376071Y-57828571D01*
X110337976Y-57904761D01*
X110299880Y-57942857D01*
X110223690Y-57980952D01*
X109918928Y-57980952D01*
X112452380Y-69500000D02*
X111452380Y-69500000D01*
X112452380Y-68452380D02*
X111976190Y-68785714D01*
X112452380Y-69023809D02*
X111452380Y-69023809D01*
X111452380Y-68642857D01*
X111500000Y-68547619D01*
X111547619Y-68500000D01*
X111642857Y-68452380D01*
X111785714Y-68452380D01*
X111880952Y-68500000D01*
X111928571Y-68547619D01*
X111976190Y-68642857D01*
X111976190Y-69023809D01*
X106452380Y-69571428D02*
X105976190Y-69904761D01*
X106452380Y-70142857D02*
X105452380Y-70142857D01*
X105452380Y-69761904D01*
X105500000Y-69666666D01*
X105547619Y-69619047D01*
X105642857Y-69571428D01*
X105785714Y-69571428D01*
X105880952Y-69619047D01*
X105928571Y-69666666D01*
X105976190Y-69761904D01*
X105976190Y-70142857D01*
X106404761Y-68761904D02*
X106452380Y-68857142D01*
X106452380Y-69047619D01*
X106404761Y-69142857D01*
X106309523Y-69190476D01*
X105928571Y-69190476D01*
X105833333Y-69142857D01*
X105785714Y-69047619D01*
X105785714Y-68857142D01*
X105833333Y-68761904D01*
X105928571Y-68714285D01*
X106023809Y-68714285D01*
X106119047Y-69190476D01*
X106452380Y-67857142D02*
X105452380Y-67857142D01*
X106404761Y-67857142D02*
X106452380Y-67952380D01*
X106452380Y-68142857D01*
X106404761Y-68238095D01*
X106357142Y-68285714D01*
X106261904Y-68333333D01*
X105976190Y-68333333D01*
X105880952Y-68285714D01*
X105833333Y-68238095D01*
X105785714Y-68142857D01*
X105785714Y-67952380D01*
X105833333Y-67857142D01*
D11*
X112000000Y-63750000D02*
X114000000Y-63750000D01*
X112000000Y-59750000D02*
X114000000Y-59750000D01*
D10*
X105342857Y-84267857D02*
X105076190Y-84267857D01*
X105076190Y-84686904D02*
X105076190Y-83886904D01*
X105457142Y-83886904D01*
X105761904Y-84686904D02*
X105761904Y-84153571D01*
X105761904Y-83886904D02*
X105723809Y-83925000D01*
X105761904Y-83963095D01*
X105800000Y-83925000D01*
X105761904Y-83886904D01*
X105761904Y-83963095D01*
X106142857Y-84153571D02*
X106142857Y-84686904D01*
X106142857Y-84229761D02*
X106180952Y-84191666D01*
X106257142Y-84153571D01*
X106371428Y-84153571D01*
X106447619Y-84191666D01*
X106485714Y-84267857D01*
X106485714Y-84686904D01*
X107209523Y-84153571D02*
X107209523Y-84801190D01*
X107171428Y-84877380D01*
X107133333Y-84915476D01*
X107057142Y-84953571D01*
X106942857Y-84953571D01*
X106866666Y-84915476D01*
X107209523Y-84648809D02*
X107133333Y-84686904D01*
X106980952Y-84686904D01*
X106904761Y-84648809D01*
X106866666Y-84610714D01*
X106828571Y-84534523D01*
X106828571Y-84305952D01*
X106866666Y-84229761D01*
X106904761Y-84191666D01*
X106980952Y-84153571D01*
X107133333Y-84153571D01*
X107209523Y-84191666D01*
X107895238Y-84648809D02*
X107819047Y-84686904D01*
X107666666Y-84686904D01*
X107590476Y-84648809D01*
X107552380Y-84572619D01*
X107552380Y-84267857D01*
X107590476Y-84191666D01*
X107666666Y-84153571D01*
X107819047Y-84153571D01*
X107895238Y-84191666D01*
X107933333Y-84267857D01*
X107933333Y-84344047D01*
X107552380Y-84420238D01*
X108276190Y-84686904D02*
X108276190Y-84153571D01*
X108276190Y-84305952D02*
X108314285Y-84229761D01*
X108352380Y-84191666D01*
X108428571Y-84153571D01*
X108504761Y-84153571D01*
X109342857Y-84648809D02*
X109419047Y-84686904D01*
X109571428Y-84686904D01*
X109647619Y-84648809D01*
X109685714Y-84572619D01*
X109685714Y-84534523D01*
X109647619Y-84458333D01*
X109571428Y-84420238D01*
X109457142Y-84420238D01*
X109380952Y-84382142D01*
X109342857Y-84305952D01*
X109342857Y-84267857D01*
X109380952Y-84191666D01*
X109457142Y-84153571D01*
X109571428Y-84153571D01*
X109647619Y-84191666D01*
X110333333Y-84648809D02*
X110257142Y-84686904D01*
X110104761Y-84686904D01*
X110028571Y-84648809D01*
X109990476Y-84572619D01*
X109990476Y-84267857D01*
X110028571Y-84191666D01*
X110104761Y-84153571D01*
X110257142Y-84153571D01*
X110333333Y-84191666D01*
X110371428Y-84267857D01*
X110371428Y-84344047D01*
X109990476Y-84420238D01*
X110714285Y-84153571D02*
X110714285Y-84686904D01*
X110714285Y-84229761D02*
X110752380Y-84191666D01*
X110828571Y-84153571D01*
X110942857Y-84153571D01*
X111019047Y-84191666D01*
X111057142Y-84267857D01*
X111057142Y-84686904D01*
X111400000Y-84648809D02*
X111476190Y-84686904D01*
X111628571Y-84686904D01*
X111704761Y-84648809D01*
X111742857Y-84572619D01*
X111742857Y-84534523D01*
X111704761Y-84458333D01*
X111628571Y-84420238D01*
X111514285Y-84420238D01*
X111438095Y-84382142D01*
X111400000Y-84305952D01*
X111400000Y-84267857D01*
X111438095Y-84191666D01*
X111514285Y-84153571D01*
X111628571Y-84153571D01*
X111704761Y-84191666D01*
X112200000Y-84686904D02*
X112123809Y-84648809D01*
X112085714Y-84610714D01*
X112047619Y-84534523D01*
X112047619Y-84305952D01*
X112085714Y-84229761D01*
X112123809Y-84191666D01*
X112200000Y-84153571D01*
X112314285Y-84153571D01*
X112390476Y-84191666D01*
X112428571Y-84229761D01*
X112466666Y-84305952D01*
X112466666Y-84534523D01*
X112428571Y-84610714D01*
X112390476Y-84648809D01*
X112314285Y-84686904D01*
X112200000Y-84686904D01*
X112809523Y-84686904D02*
X112809523Y-84153571D01*
X112809523Y-84305952D02*
X112847619Y-84229761D01*
X112885714Y-84191666D01*
X112961904Y-84153571D01*
X113038095Y-84153571D01*
X107952380Y-86036904D02*
X107685714Y-85655952D01*
X107495238Y-86036904D02*
X107495238Y-85236904D01*
X107800000Y-85236904D01*
X107876190Y-85275000D01*
X107914285Y-85313095D01*
X107952380Y-85389285D01*
X107952380Y-85503571D01*
X107914285Y-85579761D01*
X107876190Y-85617857D01*
X107800000Y-85655952D01*
X107495238Y-85655952D01*
X108600000Y-85998809D02*
X108523809Y-86036904D01*
X108371428Y-86036904D01*
X108295238Y-85998809D01*
X108257142Y-85922619D01*
X108257142Y-85617857D01*
X108295238Y-85541666D01*
X108371428Y-85503571D01*
X108523809Y-85503571D01*
X108600000Y-85541666D01*
X108638095Y-85617857D01*
X108638095Y-85694047D01*
X108257142Y-85770238D01*
X108904761Y-85503571D02*
X109095238Y-86036904D01*
X109285714Y-85503571D01*
X110466666Y-85617857D02*
X110200000Y-85617857D01*
X110200000Y-86036904D02*
X110200000Y-85236904D01*
X110580952Y-85236904D01*
D12*
G36*
X114000000Y-80600000D02*
G01*
X113250000Y-80600000D01*
X113250000Y-80000000D01*
X113000000Y-79750000D01*
X109500000Y-79750000D01*
X109250000Y-80000000D01*
X109250000Y-80600000D01*
X108750000Y-80600000D01*
X108750000Y-80000000D01*
X108500000Y-79750000D01*
X105000000Y-79750000D01*
X104750000Y-80000000D01*
X104750000Y-80600000D01*
X104000000Y-80600000D01*
X104000000Y-79000000D01*
X114000000Y-79000000D01*
X114000000Y-80600000D01*
G37*
X114000000Y-80600000D02*
X113250000Y-80600000D01*
X113250000Y-80000000D01*
X113000000Y-79750000D01*
X109500000Y-79750000D01*
X109250000Y-80000000D01*
X109250000Y-80600000D01*
X108750000Y-80600000D01*
X108750000Y-80000000D01*
X108500000Y-79750000D01*
X105000000Y-79750000D01*
X104750000Y-80000000D01*
X104750000Y-80600000D01*
X104000000Y-80600000D01*
X104000000Y-79000000D01*
X114000000Y-79000000D01*
X114000000Y-80600000D01*
D10*
X104000000Y-79000000D02*
X114000000Y-79000000D01*
X104000000Y-80600000D02*
X104750000Y-80600000D01*
X104000000Y-79000000D02*
X104000000Y-80600000D01*
X114000000Y-79000000D02*
X114000000Y-80600000D01*
X113250000Y-80600000D02*
X114000000Y-80600000D01*
X113250000Y-80250000D02*
X113250000Y-80600000D01*
X104750000Y-80250000D02*
X104750000Y-80600000D01*
X105250000Y-79750000D02*
X108250000Y-79750000D01*
X109750000Y-79750000D02*
X112750000Y-79750000D01*
X112750000Y-79750000D02*
G75*
G02X113250000Y-80250000I0J-500000D01*
G01*
X104750000Y-80250000D02*
G75*
G02X105250000Y-79750000I500000J0D01*
G01*
X108250000Y-79750000D02*
G75*
G02X108750000Y-80250000I0J-500000D01*
G01*
X108750000Y-80250000D02*
X108750000Y-80600000D01*
X109250000Y-80250000D02*
X109250000Y-80600000D01*
X109250000Y-80250000D02*
G75*
G02X109750000Y-79750000I500000J0D01*
G01*
X108750000Y-80600000D02*
X109250000Y-80600000D01*
D11*
X109040000Y-68000000D02*
X109040000Y-70685000D01*
X109040000Y-70685000D02*
X110960000Y-70685000D01*
X110960000Y-70685000D02*
X110960000Y-68000000D01*
X107040000Y-68000000D02*
X107040000Y-70685000D01*
X107040000Y-70685000D02*
X108960000Y-70685000D01*
X108960000Y-70685000D02*
X108960000Y-68000000D01*
D13*
G36*
X112566099Y-90127962D02*
G01*
X112591610Y-90128431D01*
X112612434Y-90129246D01*
X112629304Y-90130456D01*
X112642952Y-90132113D01*
X112654112Y-90134265D01*
X112663517Y-90136962D01*
X112671900Y-90140254D01*
X112678418Y-90143378D01*
X112700420Y-90158103D01*
X112720516Y-90178030D01*
X112736413Y-90200750D01*
X112740348Y-90208453D01*
X112751321Y-90232208D01*
X112751321Y-91767792D01*
X112740348Y-91791547D01*
X112723796Y-91818582D01*
X112701724Y-91840840D01*
X112675081Y-91857567D01*
X112644819Y-91868009D01*
X112643490Y-91868297D01*
X112631897Y-91869835D01*
X112614334Y-91871026D01*
X112592445Y-91871866D01*
X112567873Y-91872348D01*
X112542263Y-91872468D01*
X112517257Y-91872219D01*
X112494499Y-91871597D01*
X112475632Y-91870595D01*
X112462301Y-91869207D01*
X112460629Y-91868919D01*
X112429617Y-91859291D01*
X112402095Y-91843149D01*
X112378926Y-91821130D01*
X112361978Y-91795820D01*
X112351231Y-91775412D01*
X112350382Y-91582988D01*
X112350255Y-91550378D01*
X112350189Y-91520676D01*
X112350208Y-91493178D01*
X112350331Y-91467182D01*
X112350582Y-91441984D01*
X112350982Y-91416881D01*
X112351552Y-91391171D01*
X112352315Y-91364149D01*
X112353293Y-91335114D01*
X112354506Y-91303362D01*
X112355977Y-91268189D01*
X112357727Y-91228893D01*
X112359779Y-91184771D01*
X112362153Y-91135119D01*
X112364872Y-91079234D01*
X112367828Y-91019052D01*
X112370384Y-90966499D01*
X112372773Y-90916092D01*
X112374975Y-90868353D01*
X112376967Y-90823804D01*
X112378728Y-90782966D01*
X112380238Y-90746362D01*
X112381475Y-90714513D01*
X112382418Y-90687943D01*
X112383045Y-90667173D01*
X112383335Y-90652725D01*
X112383268Y-90645121D01*
X112383107Y-90644061D01*
X112379911Y-90644674D01*
X112376199Y-90650849D01*
X112375904Y-90651598D01*
X112374219Y-90656392D01*
X112370210Y-90668002D01*
X112364011Y-90686033D01*
X112355757Y-90710087D01*
X112345586Y-90739769D01*
X112333631Y-90774683D01*
X112320029Y-90814433D01*
X112304914Y-90858621D01*
X112288423Y-90906853D01*
X112270692Y-90958732D01*
X112251855Y-91013861D01*
X112232048Y-91071845D01*
X112211406Y-91132288D01*
X112190066Y-91194792D01*
X112179197Y-91226634D01*
X112152055Y-91306095D01*
X112127248Y-91378598D01*
X112104683Y-91444408D01*
X112084267Y-91503792D01*
X112065905Y-91557014D01*
X112049504Y-91604340D01*
X112034971Y-91646035D01*
X112022213Y-91682366D01*
X112011135Y-91713596D01*
X112001645Y-91739993D01*
X111993650Y-91761821D01*
X111987055Y-91779346D01*
X111981767Y-91792833D01*
X111977693Y-91802548D01*
X111974739Y-91808756D01*
X111973645Y-91810641D01*
X111955046Y-91832818D01*
X111931381Y-91851227D01*
X111905416Y-91863909D01*
X111896649Y-91866514D01*
X111886390Y-91868381D01*
X111873271Y-91869620D01*
X111855924Y-91870337D01*
X111832981Y-91870641D01*
X111819682Y-91870672D01*
X111795540Y-91870630D01*
X111777579Y-91870389D01*
X111764357Y-91869773D01*
X111754436Y-91868609D01*
X111746375Y-91866722D01*
X111738734Y-91863937D01*
X111730072Y-91860081D01*
X111729291Y-91859720D01*
X111710879Y-91848898D01*
X111692373Y-91834099D01*
X111676040Y-91817415D01*
X111664144Y-91800943D01*
X111662594Y-91798054D01*
X111660752Y-91793235D01*
X111656598Y-91781597D01*
X111650268Y-91763535D01*
X111641897Y-91739447D01*
X111631623Y-91709729D01*
X111619581Y-91674777D01*
X111605908Y-91634990D01*
X111590739Y-91590763D01*
X111574210Y-91542493D01*
X111556459Y-91490577D01*
X111537621Y-91435412D01*
X111517831Y-91377394D01*
X111497227Y-91316920D01*
X111475944Y-91254387D01*
X111465239Y-91222907D01*
X111443719Y-91159647D01*
X111422840Y-91098337D01*
X111402734Y-91039367D01*
X111383536Y-90983126D01*
X111365380Y-90930004D01*
X111348398Y-90880391D01*
X111332726Y-90834677D01*
X111318497Y-90793251D01*
X111305844Y-90756503D01*
X111294901Y-90724823D01*
X111285802Y-90698600D01*
X111278682Y-90678223D01*
X111273673Y-90664084D01*
X111270910Y-90656571D01*
X111270406Y-90655414D01*
X111266355Y-90653264D01*
X111265480Y-90653682D01*
X111265410Y-90657660D01*
X111265701Y-90668741D01*
X111266329Y-90686415D01*
X111267272Y-90710174D01*
X111268507Y-90739510D01*
X111270013Y-90773913D01*
X111271766Y-90812875D01*
X111273745Y-90855888D01*
X111275925Y-90902442D01*
X111278286Y-90952029D01*
X111280805Y-91004140D01*
X111282661Y-91042087D01*
X111285801Y-91106140D01*
X111288573Y-91163239D01*
X111290999Y-91214042D01*
X111293099Y-91259205D01*
X111294895Y-91299385D01*
X111296408Y-91335239D01*
X111297659Y-91367426D01*
X111298668Y-91396600D01*
X111299459Y-91423421D01*
X111300050Y-91448544D01*
X111300465Y-91472626D01*
X111300723Y-91496326D01*
X111300845Y-91520299D01*
X111300854Y-91545203D01*
X111300770Y-91571695D01*
X111300616Y-91600135D01*
X111300358Y-91640777D01*
X111300102Y-91674526D01*
X111299812Y-91702108D01*
X111299451Y-91724252D01*
X111298984Y-91741684D01*
X111298373Y-91755130D01*
X111297582Y-91765320D01*
X111296576Y-91772979D01*
X111295316Y-91778835D01*
X111293767Y-91783615D01*
X111291892Y-91788047D01*
X111291113Y-91789735D01*
X111280195Y-91807924D01*
X111265047Y-91826333D01*
X111247896Y-91842606D01*
X111230970Y-91854382D01*
X111229149Y-91855337D01*
X111214560Y-91861472D01*
X111197970Y-91866775D01*
X111191735Y-91868293D01*
X111180971Y-91869672D01*
X111164177Y-91870744D01*
X111142940Y-91871505D01*
X111118843Y-91871953D01*
X111093473Y-91872086D01*
X111068414Y-91871899D01*
X111045252Y-91871392D01*
X111025572Y-91870560D01*
X111010959Y-91869402D01*
X111005614Y-91868616D01*
X110978510Y-91859622D01*
X110952975Y-91844348D01*
X110930702Y-91824132D01*
X110913387Y-91800315D01*
X110909361Y-91792559D01*
X110899475Y-91771602D01*
X110899475Y-90228398D01*
X110909361Y-90207441D01*
X110925457Y-90181935D01*
X110947594Y-90159928D01*
X110974548Y-90142608D01*
X110977588Y-90141119D01*
X111002356Y-90129328D01*
X111179538Y-90129328D01*
X111220870Y-90129334D01*
X111255307Y-90129375D01*
X111283573Y-90129482D01*
X111306393Y-90129687D01*
X111324493Y-90130022D01*
X111338598Y-90130520D01*
X111349432Y-90131212D01*
X111357722Y-90132130D01*
X111364191Y-90133307D01*
X111369566Y-90134773D01*
X111374570Y-90136562D01*
X111378447Y-90138106D01*
X111401285Y-90150402D01*
X111422374Y-90167395D01*
X111439528Y-90187104D01*
X111447784Y-90200953D01*
X111449650Y-90206015D01*
X111453662Y-90217799D01*
X111459669Y-90235829D01*
X111467516Y-90259629D01*
X111477050Y-90288723D01*
X111488119Y-90322634D01*
X111500569Y-90360888D01*
X111514247Y-90403007D01*
X111528999Y-90448515D01*
X111544673Y-90496937D01*
X111561115Y-90547797D01*
X111578173Y-90600618D01*
X111595692Y-90654924D01*
X111613520Y-90710240D01*
X111631503Y-90766088D01*
X111649488Y-90821994D01*
X111667323Y-90877481D01*
X111684853Y-90932073D01*
X111701926Y-90985294D01*
X111718389Y-91036668D01*
X111734088Y-91085718D01*
X111748870Y-91131969D01*
X111762581Y-91174945D01*
X111775070Y-91214170D01*
X111786182Y-91249167D01*
X111795764Y-91279460D01*
X111803663Y-91304574D01*
X111809726Y-91324032D01*
X111813800Y-91337358D01*
X111815731Y-91344077D01*
X111815872Y-91344778D01*
X111818910Y-91346605D01*
X111820635Y-91346736D01*
X111822452Y-91343136D01*
X111826511Y-91332464D01*
X111832750Y-91314913D01*
X111841103Y-91290675D01*
X111851509Y-91259942D01*
X111863902Y-91222907D01*
X111878219Y-91179762D01*
X111894396Y-91130698D01*
X111912371Y-91075909D01*
X111932078Y-91015585D01*
X111953454Y-90949920D01*
X111976436Y-90879106D01*
X112000960Y-90803334D01*
X112006056Y-90787563D01*
X112026602Y-90724036D01*
X112046628Y-90662242D01*
X112065999Y-90602593D01*
X112084579Y-90545505D01*
X112102232Y-90491389D01*
X112118822Y-90440660D01*
X112134214Y-90393729D01*
X112148271Y-90351012D01*
X112160857Y-90312921D01*
X112171837Y-90279870D01*
X112181075Y-90252271D01*
X112188435Y-90230539D01*
X112193781Y-90215086D01*
X112196977Y-90206326D01*
X112197574Y-90204895D01*
X112212931Y-90180199D01*
X112233994Y-90158838D01*
X112259043Y-90142429D01*
X112268539Y-90138113D01*
X112273981Y-90135990D01*
X112279321Y-90134234D01*
X112285323Y-90132804D01*
X112292747Y-90131659D01*
X112302357Y-90130757D01*
X112314916Y-90130059D01*
X112331185Y-90129522D01*
X112351927Y-90129106D01*
X112377905Y-90128770D01*
X112409880Y-90128473D01*
X112448616Y-90128174D01*
X112454111Y-90128133D01*
X112498082Y-90127863D01*
X112535167Y-90127789D01*
X112566099Y-90127962D01*
X112566099Y-90127962D01*
G37*
X112566099Y-90127962D02*
X112591610Y-90128431D01*
X112612434Y-90129246D01*
X112629304Y-90130456D01*
X112642952Y-90132113D01*
X112654112Y-90134265D01*
X112663517Y-90136962D01*
X112671900Y-90140254D01*
X112678418Y-90143378D01*
X112700420Y-90158103D01*
X112720516Y-90178030D01*
X112736413Y-90200750D01*
X112740348Y-90208453D01*
X112751321Y-90232208D01*
X112751321Y-91767792D01*
X112740348Y-91791547D01*
X112723796Y-91818582D01*
X112701724Y-91840840D01*
X112675081Y-91857567D01*
X112644819Y-91868009D01*
X112643490Y-91868297D01*
X112631897Y-91869835D01*
X112614334Y-91871026D01*
X112592445Y-91871866D01*
X112567873Y-91872348D01*
X112542263Y-91872468D01*
X112517257Y-91872219D01*
X112494499Y-91871597D01*
X112475632Y-91870595D01*
X112462301Y-91869207D01*
X112460629Y-91868919D01*
X112429617Y-91859291D01*
X112402095Y-91843149D01*
X112378926Y-91821130D01*
X112361978Y-91795820D01*
X112351231Y-91775412D01*
X112350382Y-91582988D01*
X112350255Y-91550378D01*
X112350189Y-91520676D01*
X112350208Y-91493178D01*
X112350331Y-91467182D01*
X112350582Y-91441984D01*
X112350982Y-91416881D01*
X112351552Y-91391171D01*
X112352315Y-91364149D01*
X112353293Y-91335114D01*
X112354506Y-91303362D01*
X112355977Y-91268189D01*
X112357727Y-91228893D01*
X112359779Y-91184771D01*
X112362153Y-91135119D01*
X112364872Y-91079234D01*
X112367828Y-91019052D01*
X112370384Y-90966499D01*
X112372773Y-90916092D01*
X112374975Y-90868353D01*
X112376967Y-90823804D01*
X112378728Y-90782966D01*
X112380238Y-90746362D01*
X112381475Y-90714513D01*
X112382418Y-90687943D01*
X112383045Y-90667173D01*
X112383335Y-90652725D01*
X112383268Y-90645121D01*
X112383107Y-90644061D01*
X112379911Y-90644674D01*
X112376199Y-90650849D01*
X112375904Y-90651598D01*
X112374219Y-90656392D01*
X112370210Y-90668002D01*
X112364011Y-90686033D01*
X112355757Y-90710087D01*
X112345586Y-90739769D01*
X112333631Y-90774683D01*
X112320029Y-90814433D01*
X112304914Y-90858621D01*
X112288423Y-90906853D01*
X112270692Y-90958732D01*
X112251855Y-91013861D01*
X112232048Y-91071845D01*
X112211406Y-91132288D01*
X112190066Y-91194792D01*
X112179197Y-91226634D01*
X112152055Y-91306095D01*
X112127248Y-91378598D01*
X112104683Y-91444408D01*
X112084267Y-91503792D01*
X112065905Y-91557014D01*
X112049504Y-91604340D01*
X112034971Y-91646035D01*
X112022213Y-91682366D01*
X112011135Y-91713596D01*
X112001645Y-91739993D01*
X111993650Y-91761821D01*
X111987055Y-91779346D01*
X111981767Y-91792833D01*
X111977693Y-91802548D01*
X111974739Y-91808756D01*
X111973645Y-91810641D01*
X111955046Y-91832818D01*
X111931381Y-91851227D01*
X111905416Y-91863909D01*
X111896649Y-91866514D01*
X111886390Y-91868381D01*
X111873271Y-91869620D01*
X111855924Y-91870337D01*
X111832981Y-91870641D01*
X111819682Y-91870672D01*
X111795540Y-91870630D01*
X111777579Y-91870389D01*
X111764357Y-91869773D01*
X111754436Y-91868609D01*
X111746375Y-91866722D01*
X111738734Y-91863937D01*
X111730072Y-91860081D01*
X111729291Y-91859720D01*
X111710879Y-91848898D01*
X111692373Y-91834099D01*
X111676040Y-91817415D01*
X111664144Y-91800943D01*
X111662594Y-91798054D01*
X111660752Y-91793235D01*
X111656598Y-91781597D01*
X111650268Y-91763535D01*
X111641897Y-91739447D01*
X111631623Y-91709729D01*
X111619581Y-91674777D01*
X111605908Y-91634990D01*
X111590739Y-91590763D01*
X111574210Y-91542493D01*
X111556459Y-91490577D01*
X111537621Y-91435412D01*
X111517831Y-91377394D01*
X111497227Y-91316920D01*
X111475944Y-91254387D01*
X111465239Y-91222907D01*
X111443719Y-91159647D01*
X111422840Y-91098337D01*
X111402734Y-91039367D01*
X111383536Y-90983126D01*
X111365380Y-90930004D01*
X111348398Y-90880391D01*
X111332726Y-90834677D01*
X111318497Y-90793251D01*
X111305844Y-90756503D01*
X111294901Y-90724823D01*
X111285802Y-90698600D01*
X111278682Y-90678223D01*
X111273673Y-90664084D01*
X111270910Y-90656571D01*
X111270406Y-90655414D01*
X111266355Y-90653264D01*
X111265480Y-90653682D01*
X111265410Y-90657660D01*
X111265701Y-90668741D01*
X111266329Y-90686415D01*
X111267272Y-90710174D01*
X111268507Y-90739510D01*
X111270013Y-90773913D01*
X111271766Y-90812875D01*
X111273745Y-90855888D01*
X111275925Y-90902442D01*
X111278286Y-90952029D01*
X111280805Y-91004140D01*
X111282661Y-91042087D01*
X111285801Y-91106140D01*
X111288573Y-91163239D01*
X111290999Y-91214042D01*
X111293099Y-91259205D01*
X111294895Y-91299385D01*
X111296408Y-91335239D01*
X111297659Y-91367426D01*
X111298668Y-91396600D01*
X111299459Y-91423421D01*
X111300050Y-91448544D01*
X111300465Y-91472626D01*
X111300723Y-91496326D01*
X111300845Y-91520299D01*
X111300854Y-91545203D01*
X111300770Y-91571695D01*
X111300616Y-91600135D01*
X111300358Y-91640777D01*
X111300102Y-91674526D01*
X111299812Y-91702108D01*
X111299451Y-91724252D01*
X111298984Y-91741684D01*
X111298373Y-91755130D01*
X111297582Y-91765320D01*
X111296576Y-91772979D01*
X111295316Y-91778835D01*
X111293767Y-91783615D01*
X111291892Y-91788047D01*
X111291113Y-91789735D01*
X111280195Y-91807924D01*
X111265047Y-91826333D01*
X111247896Y-91842606D01*
X111230970Y-91854382D01*
X111229149Y-91855337D01*
X111214560Y-91861472D01*
X111197970Y-91866775D01*
X111191735Y-91868293D01*
X111180971Y-91869672D01*
X111164177Y-91870744D01*
X111142940Y-91871505D01*
X111118843Y-91871953D01*
X111093473Y-91872086D01*
X111068414Y-91871899D01*
X111045252Y-91871392D01*
X111025572Y-91870560D01*
X111010959Y-91869402D01*
X111005614Y-91868616D01*
X110978510Y-91859622D01*
X110952975Y-91844348D01*
X110930702Y-91824132D01*
X110913387Y-91800315D01*
X110909361Y-91792559D01*
X110899475Y-91771602D01*
X110899475Y-90228398D01*
X110909361Y-90207441D01*
X110925457Y-90181935D01*
X110947594Y-90159928D01*
X110974548Y-90142608D01*
X110977588Y-90141119D01*
X111002356Y-90129328D01*
X111179538Y-90129328D01*
X111220870Y-90129334D01*
X111255307Y-90129375D01*
X111283573Y-90129482D01*
X111306393Y-90129687D01*
X111324493Y-90130022D01*
X111338598Y-90130520D01*
X111349432Y-90131212D01*
X111357722Y-90132130D01*
X111364191Y-90133307D01*
X111369566Y-90134773D01*
X111374570Y-90136562D01*
X111378447Y-90138106D01*
X111401285Y-90150402D01*
X111422374Y-90167395D01*
X111439528Y-90187104D01*
X111447784Y-90200953D01*
X111449650Y-90206015D01*
X111453662Y-90217799D01*
X111459669Y-90235829D01*
X111467516Y-90259629D01*
X111477050Y-90288723D01*
X111488119Y-90322634D01*
X111500569Y-90360888D01*
X111514247Y-90403007D01*
X111528999Y-90448515D01*
X111544673Y-90496937D01*
X111561115Y-90547797D01*
X111578173Y-90600618D01*
X111595692Y-90654924D01*
X111613520Y-90710240D01*
X111631503Y-90766088D01*
X111649488Y-90821994D01*
X111667323Y-90877481D01*
X111684853Y-90932073D01*
X111701926Y-90985294D01*
X111718389Y-91036668D01*
X111734088Y-91085718D01*
X111748870Y-91131969D01*
X111762581Y-91174945D01*
X111775070Y-91214170D01*
X111786182Y-91249167D01*
X111795764Y-91279460D01*
X111803663Y-91304574D01*
X111809726Y-91324032D01*
X111813800Y-91337358D01*
X111815731Y-91344077D01*
X111815872Y-91344778D01*
X111818910Y-91346605D01*
X111820635Y-91346736D01*
X111822452Y-91343136D01*
X111826511Y-91332464D01*
X111832750Y-91314913D01*
X111841103Y-91290675D01*
X111851509Y-91259942D01*
X111863902Y-91222907D01*
X111878219Y-91179762D01*
X111894396Y-91130698D01*
X111912371Y-91075909D01*
X111932078Y-91015585D01*
X111953454Y-90949920D01*
X111976436Y-90879106D01*
X112000960Y-90803334D01*
X112006056Y-90787563D01*
X112026602Y-90724036D01*
X112046628Y-90662242D01*
X112065999Y-90602593D01*
X112084579Y-90545505D01*
X112102232Y-90491389D01*
X112118822Y-90440660D01*
X112134214Y-90393729D01*
X112148271Y-90351012D01*
X112160857Y-90312921D01*
X112171837Y-90279870D01*
X112181075Y-90252271D01*
X112188435Y-90230539D01*
X112193781Y-90215086D01*
X112196977Y-90206326D01*
X112197574Y-90204895D01*
X112212931Y-90180199D01*
X112233994Y-90158838D01*
X112259043Y-90142429D01*
X112268539Y-90138113D01*
X112273981Y-90135990D01*
X112279321Y-90134234D01*
X112285323Y-90132804D01*
X112292747Y-90131659D01*
X112302357Y-90130757D01*
X112314916Y-90130059D01*
X112331185Y-90129522D01*
X112351927Y-90129106D01*
X112377905Y-90128770D01*
X112409880Y-90128473D01*
X112448616Y-90128174D01*
X112454111Y-90128133D01*
X112498082Y-90127863D01*
X112535167Y-90127789D01*
X112566099Y-90127962D01*
G36*
X110265978Y-90732326D02*
G01*
X110407984Y-90874268D01*
X110501315Y-90780655D01*
X110525675Y-90756309D01*
X110550517Y-90731638D01*
X110574776Y-90707690D01*
X110597384Y-90685514D01*
X110617276Y-90666157D01*
X110633386Y-90650665D01*
X110639465Y-90644908D01*
X110684284Y-90602772D01*
X110682284Y-91771602D01*
X110673831Y-91789735D01*
X110662913Y-91807924D01*
X110647765Y-91826333D01*
X110630614Y-91842606D01*
X110613688Y-91854382D01*
X110611867Y-91855337D01*
X110603217Y-91859429D01*
X110594472Y-91862822D01*
X110584850Y-91865578D01*
X110573567Y-91867761D01*
X110559837Y-91869433D01*
X110542878Y-91870658D01*
X110521904Y-91871500D01*
X110496133Y-91872020D01*
X110464779Y-91872283D01*
X110427058Y-91872352D01*
X110401081Y-91872326D01*
X110360482Y-91872207D01*
X110326780Y-91871977D01*
X110299248Y-91871612D01*
X110277162Y-91871088D01*
X110259799Y-91870380D01*
X110246432Y-91869464D01*
X110236337Y-91868316D01*
X110228791Y-91866911D01*
X110227036Y-91866469D01*
X110196919Y-91854641D01*
X110170987Y-91836776D01*
X110149996Y-91813538D01*
X110134706Y-91785592D01*
X110134668Y-91785499D01*
X110125968Y-91763981D01*
X110124969Y-91177182D01*
X110123971Y-90590384D01*
X110265978Y-90732326D01*
X110265978Y-90732326D01*
G37*
X110265978Y-90732326D02*
X110407984Y-90874268D01*
X110501315Y-90780655D01*
X110525675Y-90756309D01*
X110550517Y-90731638D01*
X110574776Y-90707690D01*
X110597384Y-90685514D01*
X110617276Y-90666157D01*
X110633386Y-90650665D01*
X110639465Y-90644908D01*
X110684284Y-90602772D01*
X110682284Y-91771602D01*
X110673831Y-91789735D01*
X110662913Y-91807924D01*
X110647765Y-91826333D01*
X110630614Y-91842606D01*
X110613688Y-91854382D01*
X110611867Y-91855337D01*
X110603217Y-91859429D01*
X110594472Y-91862822D01*
X110584850Y-91865578D01*
X110573567Y-91867761D01*
X110559837Y-91869433D01*
X110542878Y-91870658D01*
X110521904Y-91871500D01*
X110496133Y-91872020D01*
X110464779Y-91872283D01*
X110427058Y-91872352D01*
X110401081Y-91872326D01*
X110360482Y-91872207D01*
X110326780Y-91871977D01*
X110299248Y-91871612D01*
X110277162Y-91871088D01*
X110259799Y-91870380D01*
X110246432Y-91869464D01*
X110236337Y-91868316D01*
X110228791Y-91866911D01*
X110227036Y-91866469D01*
X110196919Y-91854641D01*
X110170987Y-91836776D01*
X110149996Y-91813538D01*
X110134706Y-91785592D01*
X110134668Y-91785499D01*
X110125968Y-91763981D01*
X110124969Y-91177182D01*
X110123971Y-90590384D01*
X110265978Y-90732326D01*
G36*
X109717183Y-90139540D02*
G01*
X109743940Y-90155802D01*
X109766747Y-90177120D01*
X109784047Y-90201965D01*
X109787286Y-90208453D01*
X109793042Y-90222179D01*
X109796379Y-90234352D01*
X109797912Y-90248122D01*
X109798258Y-90264596D01*
X109797905Y-90282022D01*
X109796391Y-90294959D01*
X109793069Y-90306520D01*
X109787292Y-90319820D01*
X109786368Y-90321752D01*
X109782782Y-90328550D01*
X109775655Y-90341448D01*
X109765270Y-90359956D01*
X109751907Y-90383579D01*
X109735847Y-90411826D01*
X109717372Y-90444203D01*
X109696763Y-90480220D01*
X109674301Y-90519382D01*
X109650267Y-90561198D01*
X109624943Y-90605175D01*
X109598609Y-90650821D01*
X109587714Y-90669681D01*
X109400967Y-90992843D01*
X109611368Y-91336945D01*
X109644889Y-91391858D01*
X109676143Y-91443242D01*
X109704956Y-91490803D01*
X109731154Y-91534250D01*
X109754562Y-91573288D01*
X109775007Y-91607626D01*
X109792313Y-91636970D01*
X109806306Y-91661027D01*
X109816812Y-91679504D01*
X109823657Y-91692109D01*
X109826666Y-91698548D01*
X109826716Y-91698716D01*
X109829491Y-91715146D01*
X109830218Y-91735585D01*
X109829849Y-91744652D01*
X109824269Y-91776345D01*
X109811990Y-91804576D01*
X109793298Y-91828934D01*
X109768478Y-91849008D01*
X109750646Y-91858880D01*
X109725878Y-91870672D01*
X109628899Y-91871969D01*
X109592646Y-91872289D01*
X109563000Y-91872107D01*
X109538958Y-91871317D01*
X109519517Y-91869811D01*
X109503673Y-91867481D01*
X109490424Y-91864220D01*
X109478766Y-91859920D01*
X109468152Y-91854722D01*
X109462130Y-91851422D01*
X109456555Y-91848109D01*
X109451219Y-91844414D01*
X109445916Y-91839964D01*
X109440438Y-91834390D01*
X109434579Y-91827321D01*
X109428130Y-91818386D01*
X109420886Y-91807215D01*
X109412638Y-91793437D01*
X109403181Y-91776682D01*
X109392306Y-91756579D01*
X109379806Y-91732757D01*
X109365475Y-91704846D01*
X109349106Y-91672476D01*
X109330491Y-91635275D01*
X109309423Y-91592873D01*
X109285695Y-91544900D01*
X109259100Y-91490984D01*
X109229431Y-91430756D01*
X109216206Y-91403900D01*
X109151472Y-91272442D01*
X109017076Y-91543082D01*
X108991526Y-91594531D01*
X108969099Y-91639614D01*
X108949518Y-91678788D01*
X108932505Y-91712507D01*
X108917784Y-91741228D01*
X108905076Y-91765405D01*
X108894105Y-91785494D01*
X108884593Y-91801950D01*
X108876263Y-91815228D01*
X108868837Y-91825784D01*
X108862039Y-91834072D01*
X108855591Y-91840549D01*
X108849215Y-91845669D01*
X108842634Y-91849888D01*
X108835572Y-91853660D01*
X108827750Y-91857442D01*
X108824723Y-91858880D01*
X108799955Y-91870672D01*
X108706601Y-91871374D01*
X108679662Y-91871433D01*
X108654361Y-91871217D01*
X108631989Y-91870761D01*
X108613835Y-91870095D01*
X108601190Y-91869252D01*
X108596602Y-91868638D01*
X108568157Y-91859003D01*
X108542204Y-91842872D01*
X108520044Y-91821278D01*
X108502976Y-91795252D01*
X108502220Y-91793730D01*
X108494028Y-91770577D01*
X108489927Y-91744593D01*
X108490086Y-91718572D01*
X108494676Y-91695303D01*
X108496000Y-91691584D01*
X108498924Y-91685678D01*
X108505431Y-91673666D01*
X108515251Y-91656017D01*
X108528116Y-91633200D01*
X108543757Y-91605686D01*
X108561905Y-91573943D01*
X108582291Y-91538442D01*
X108604647Y-91499651D01*
X108628703Y-91458041D01*
X108654191Y-91414080D01*
X108680841Y-91368239D01*
X108698916Y-91337218D01*
X108726023Y-91290703D01*
X108752049Y-91245979D01*
X108776735Y-91203495D01*
X108799823Y-91163698D01*
X108821056Y-91127034D01*
X108840174Y-91093951D01*
X108856919Y-91064896D01*
X108871034Y-91040316D01*
X108882260Y-91020658D01*
X108890340Y-91006370D01*
X108895014Y-90997898D01*
X108896123Y-90995662D01*
X108894491Y-90991511D01*
X108889256Y-90981185D01*
X108880646Y-90965091D01*
X108868894Y-90943642D01*
X108854228Y-90917245D01*
X108836879Y-90886312D01*
X108817078Y-90851252D01*
X108795055Y-90812474D01*
X108771040Y-90770390D01*
X108745263Y-90725407D01*
X108717954Y-90677937D01*
X108705167Y-90655769D01*
X108678214Y-90609001D01*
X108652258Y-90563801D01*
X108627565Y-90520644D01*
X108604401Y-90480001D01*
X108583033Y-90442346D01*
X108563728Y-90408151D01*
X108546752Y-90377891D01*
X108532372Y-90352038D01*
X108520854Y-90331065D01*
X108512465Y-90315445D01*
X108507472Y-90305651D01*
X108506203Y-90302724D01*
X108501977Y-90281053D01*
X108501593Y-90256182D01*
X108504866Y-90231380D01*
X108511441Y-90210295D01*
X108523968Y-90189279D01*
X108541788Y-90168961D01*
X108562719Y-90151512D01*
X108581916Y-90140279D01*
X108605626Y-90129328D01*
X108706601Y-90129406D01*
X108738098Y-90129493D01*
X108762956Y-90129738D01*
X108782155Y-90130196D01*
X108796678Y-90130920D01*
X108807506Y-90131965D01*
X108815619Y-90133385D01*
X108821998Y-90135236D01*
X108823812Y-90135919D01*
X108845334Y-90146654D01*
X108865428Y-90160641D01*
X108881453Y-90175956D01*
X108885173Y-90180660D01*
X108888499Y-90186397D01*
X108894823Y-90198440D01*
X108903861Y-90216213D01*
X108915330Y-90239144D01*
X108928947Y-90266659D01*
X108944430Y-90298183D01*
X108961496Y-90333143D01*
X108979862Y-90370966D01*
X108999244Y-90411077D01*
X109018840Y-90451817D01*
X109038731Y-90493233D01*
X109057695Y-90532655D01*
X109075470Y-90569543D01*
X109091795Y-90603357D01*
X109106406Y-90633557D01*
X109119043Y-90659601D01*
X109129444Y-90680950D01*
X109137346Y-90697062D01*
X109142489Y-90707397D01*
X109144609Y-90711416D01*
X109144623Y-90711432D01*
X109146659Y-90708563D01*
X109151751Y-90699351D01*
X109159640Y-90684313D01*
X109170063Y-90663968D01*
X109182763Y-90638834D01*
X109197477Y-90609428D01*
X109213947Y-90576270D01*
X109231911Y-90539876D01*
X109251110Y-90500765D01*
X109271284Y-90459456D01*
X109274607Y-90452630D01*
X109298347Y-90403878D01*
X109319024Y-90361493D01*
X109336897Y-90324982D01*
X109352223Y-90293854D01*
X109365261Y-90267616D01*
X109376269Y-90245776D01*
X109385507Y-90227842D01*
X109393233Y-90213321D01*
X109399704Y-90201723D01*
X109405179Y-90192553D01*
X109409917Y-90185321D01*
X109414176Y-90179534D01*
X109418215Y-90174700D01*
X109422291Y-90170327D01*
X109423468Y-90169125D01*
X109444479Y-90150920D01*
X109465856Y-90138928D01*
X109467287Y-90138338D01*
X109474253Y-90135645D01*
X109480875Y-90133549D01*
X109488196Y-90131976D01*
X109497257Y-90130852D01*
X109509097Y-90130100D01*
X109524760Y-90129647D01*
X109545285Y-90129418D01*
X109571715Y-90129336D01*
X109592515Y-90129328D01*
X109695395Y-90129328D01*
X109717183Y-90139540D01*
X109717183Y-90139540D01*
G37*
X109717183Y-90139540D02*
X109743940Y-90155802D01*
X109766747Y-90177120D01*
X109784047Y-90201965D01*
X109787286Y-90208453D01*
X109793042Y-90222179D01*
X109796379Y-90234352D01*
X109797912Y-90248122D01*
X109798258Y-90264596D01*
X109797905Y-90282022D01*
X109796391Y-90294959D01*
X109793069Y-90306520D01*
X109787292Y-90319820D01*
X109786368Y-90321752D01*
X109782782Y-90328550D01*
X109775655Y-90341448D01*
X109765270Y-90359956D01*
X109751907Y-90383579D01*
X109735847Y-90411826D01*
X109717372Y-90444203D01*
X109696763Y-90480220D01*
X109674301Y-90519382D01*
X109650267Y-90561198D01*
X109624943Y-90605175D01*
X109598609Y-90650821D01*
X109587714Y-90669681D01*
X109400967Y-90992843D01*
X109611368Y-91336945D01*
X109644889Y-91391858D01*
X109676143Y-91443242D01*
X109704956Y-91490803D01*
X109731154Y-91534250D01*
X109754562Y-91573288D01*
X109775007Y-91607626D01*
X109792313Y-91636970D01*
X109806306Y-91661027D01*
X109816812Y-91679504D01*
X109823657Y-91692109D01*
X109826666Y-91698548D01*
X109826716Y-91698716D01*
X109829491Y-91715146D01*
X109830218Y-91735585D01*
X109829849Y-91744652D01*
X109824269Y-91776345D01*
X109811990Y-91804576D01*
X109793298Y-91828934D01*
X109768478Y-91849008D01*
X109750646Y-91858880D01*
X109725878Y-91870672D01*
X109628899Y-91871969D01*
X109592646Y-91872289D01*
X109563000Y-91872107D01*
X109538958Y-91871317D01*
X109519517Y-91869811D01*
X109503673Y-91867481D01*
X109490424Y-91864220D01*
X109478766Y-91859920D01*
X109468152Y-91854722D01*
X109462130Y-91851422D01*
X109456555Y-91848109D01*
X109451219Y-91844414D01*
X109445916Y-91839964D01*
X109440438Y-91834390D01*
X109434579Y-91827321D01*
X109428130Y-91818386D01*
X109420886Y-91807215D01*
X109412638Y-91793437D01*
X109403181Y-91776682D01*
X109392306Y-91756579D01*
X109379806Y-91732757D01*
X109365475Y-91704846D01*
X109349106Y-91672476D01*
X109330491Y-91635275D01*
X109309423Y-91592873D01*
X109285695Y-91544900D01*
X109259100Y-91490984D01*
X109229431Y-91430756D01*
X109216206Y-91403900D01*
X109151472Y-91272442D01*
X109017076Y-91543082D01*
X108991526Y-91594531D01*
X108969099Y-91639614D01*
X108949518Y-91678788D01*
X108932505Y-91712507D01*
X108917784Y-91741228D01*
X108905076Y-91765405D01*
X108894105Y-91785494D01*
X108884593Y-91801950D01*
X108876263Y-91815228D01*
X108868837Y-91825784D01*
X108862039Y-91834072D01*
X108855591Y-91840549D01*
X108849215Y-91845669D01*
X108842634Y-91849888D01*
X108835572Y-91853660D01*
X108827750Y-91857442D01*
X108824723Y-91858880D01*
X108799955Y-91870672D01*
X108706601Y-91871374D01*
X108679662Y-91871433D01*
X108654361Y-91871217D01*
X108631989Y-91870761D01*
X108613835Y-91870095D01*
X108601190Y-91869252D01*
X108596602Y-91868638D01*
X108568157Y-91859003D01*
X108542204Y-91842872D01*
X108520044Y-91821278D01*
X108502976Y-91795252D01*
X108502220Y-91793730D01*
X108494028Y-91770577D01*
X108489927Y-91744593D01*
X108490086Y-91718572D01*
X108494676Y-91695303D01*
X108496000Y-91691584D01*
X108498924Y-91685678D01*
X108505431Y-91673666D01*
X108515251Y-91656017D01*
X108528116Y-91633200D01*
X108543757Y-91605686D01*
X108561905Y-91573943D01*
X108582291Y-91538442D01*
X108604647Y-91499651D01*
X108628703Y-91458041D01*
X108654191Y-91414080D01*
X108680841Y-91368239D01*
X108698916Y-91337218D01*
X108726023Y-91290703D01*
X108752049Y-91245979D01*
X108776735Y-91203495D01*
X108799823Y-91163698D01*
X108821056Y-91127034D01*
X108840174Y-91093951D01*
X108856919Y-91064896D01*
X108871034Y-91040316D01*
X108882260Y-91020658D01*
X108890340Y-91006370D01*
X108895014Y-90997898D01*
X108896123Y-90995662D01*
X108894491Y-90991511D01*
X108889256Y-90981185D01*
X108880646Y-90965091D01*
X108868894Y-90943642D01*
X108854228Y-90917245D01*
X108836879Y-90886312D01*
X108817078Y-90851252D01*
X108795055Y-90812474D01*
X108771040Y-90770390D01*
X108745263Y-90725407D01*
X108717954Y-90677937D01*
X108705167Y-90655769D01*
X108678214Y-90609001D01*
X108652258Y-90563801D01*
X108627565Y-90520644D01*
X108604401Y-90480001D01*
X108583033Y-90442346D01*
X108563728Y-90408151D01*
X108546752Y-90377891D01*
X108532372Y-90352038D01*
X108520854Y-90331065D01*
X108512465Y-90315445D01*
X108507472Y-90305651D01*
X108506203Y-90302724D01*
X108501977Y-90281053D01*
X108501593Y-90256182D01*
X108504866Y-90231380D01*
X108511441Y-90210295D01*
X108523968Y-90189279D01*
X108541788Y-90168961D01*
X108562719Y-90151512D01*
X108581916Y-90140279D01*
X108605626Y-90129328D01*
X108706601Y-90129406D01*
X108738098Y-90129493D01*
X108762956Y-90129738D01*
X108782155Y-90130196D01*
X108796678Y-90130920D01*
X108807506Y-90131965D01*
X108815619Y-90133385D01*
X108821998Y-90135236D01*
X108823812Y-90135919D01*
X108845334Y-90146654D01*
X108865428Y-90160641D01*
X108881453Y-90175956D01*
X108885173Y-90180660D01*
X108888499Y-90186397D01*
X108894823Y-90198440D01*
X108903861Y-90216213D01*
X108915330Y-90239144D01*
X108928947Y-90266659D01*
X108944430Y-90298183D01*
X108961496Y-90333143D01*
X108979862Y-90370966D01*
X108999244Y-90411077D01*
X109018840Y-90451817D01*
X109038731Y-90493233D01*
X109057695Y-90532655D01*
X109075470Y-90569543D01*
X109091795Y-90603357D01*
X109106406Y-90633557D01*
X109119043Y-90659601D01*
X109129444Y-90680950D01*
X109137346Y-90697062D01*
X109142489Y-90707397D01*
X109144609Y-90711416D01*
X109144623Y-90711432D01*
X109146659Y-90708563D01*
X109151751Y-90699351D01*
X109159640Y-90684313D01*
X109170063Y-90663968D01*
X109182763Y-90638834D01*
X109197477Y-90609428D01*
X109213947Y-90576270D01*
X109231911Y-90539876D01*
X109251110Y-90500765D01*
X109271284Y-90459456D01*
X109274607Y-90452630D01*
X109298347Y-90403878D01*
X109319024Y-90361493D01*
X109336897Y-90324982D01*
X109352223Y-90293854D01*
X109365261Y-90267616D01*
X109376269Y-90245776D01*
X109385507Y-90227842D01*
X109393233Y-90213321D01*
X109399704Y-90201723D01*
X109405179Y-90192553D01*
X109409917Y-90185321D01*
X109414176Y-90179534D01*
X109418215Y-90174700D01*
X109422291Y-90170327D01*
X109423468Y-90169125D01*
X109444479Y-90150920D01*
X109465856Y-90138928D01*
X109467287Y-90138338D01*
X109474253Y-90135645D01*
X109480875Y-90133549D01*
X109488196Y-90131976D01*
X109497257Y-90130852D01*
X109509097Y-90130100D01*
X109524760Y-90129647D01*
X109545285Y-90129418D01*
X109571715Y-90129336D01*
X109592515Y-90129328D01*
X109695395Y-90129328D01*
X109717183Y-90139540D01*
G36*
X107605445Y-90128833D02*
G01*
X107682389Y-90135664D01*
X107756079Y-90149231D01*
X107826380Y-90169481D01*
X107893156Y-90196359D01*
X107956271Y-90229814D01*
X108015590Y-90269790D01*
X108070977Y-90316235D01*
X108115164Y-90361093D01*
X108161082Y-90417462D01*
X108200470Y-90477742D01*
X108233302Y-90541868D01*
X108259548Y-90609777D01*
X108279183Y-90681401D01*
X108292177Y-90756678D01*
X108294840Y-90780612D01*
X108295836Y-90795225D01*
X108296687Y-90816426D01*
X108297393Y-90843181D01*
X108297955Y-90874459D01*
X108298371Y-90909227D01*
X108298644Y-90946453D01*
X108298771Y-90985105D01*
X108298754Y-91024151D01*
X108298592Y-91062558D01*
X108298286Y-91099293D01*
X108297834Y-91133326D01*
X108297238Y-91163623D01*
X108296498Y-91189152D01*
X108295612Y-91208881D01*
X108294840Y-91219387D01*
X108283895Y-91296423D01*
X108266431Y-91369518D01*
X108242432Y-91438700D01*
X108211886Y-91503996D01*
X108174779Y-91565434D01*
X108131097Y-91623039D01*
X108080827Y-91676840D01*
X108052111Y-91703293D01*
X107998301Y-91745416D01*
X107939828Y-91781708D01*
X107877056Y-91812068D01*
X107810347Y-91836392D01*
X107740066Y-91854577D01*
X107666575Y-91866522D01*
X107590240Y-91872123D01*
X107511422Y-91871279D01*
X107468227Y-91868131D01*
X107393857Y-91857524D01*
X107322308Y-91840082D01*
X107253925Y-91815991D01*
X107189050Y-91785439D01*
X107128029Y-91748613D01*
X107071204Y-91705701D01*
X107018920Y-91656889D01*
X106971520Y-91602364D01*
X106965395Y-91594419D01*
X106924533Y-91534456D01*
X106890374Y-91470947D01*
X106862891Y-91403826D01*
X106842058Y-91333025D01*
X106827848Y-91258478D01*
X106826230Y-91246527D01*
X106824696Y-91230096D01*
X106823378Y-91207062D01*
X106822276Y-91178417D01*
X106821389Y-91145152D01*
X106820717Y-91108259D01*
X106820260Y-91068732D01*
X106820018Y-91027562D01*
X106820006Y-91009280D01*
X107221078Y-91009280D01*
X107221115Y-91061143D01*
X107221744Y-91106703D01*
X107222997Y-91146611D01*
X107224903Y-91181517D01*
X107227497Y-91212069D01*
X107230808Y-91238919D01*
X107234868Y-91262717D01*
X107237343Y-91274347D01*
X107252771Y-91328854D01*
X107272877Y-91378234D01*
X107297439Y-91422218D01*
X107326233Y-91460538D01*
X107359036Y-91492923D01*
X107395625Y-91519106D01*
X107435777Y-91538818D01*
X107464633Y-91548289D01*
X107480377Y-91552449D01*
X107492883Y-91555424D01*
X107503945Y-91557384D01*
X107515354Y-91558501D01*
X107528905Y-91558948D01*
X107546388Y-91558897D01*
X107569597Y-91558518D01*
X107571108Y-91558490D01*
X107594338Y-91557965D01*
X107611893Y-91557180D01*
X107625716Y-91555863D01*
X107637752Y-91553739D01*
X107649945Y-91550536D01*
X107664241Y-91545981D01*
X107667232Y-91544981D01*
X107709728Y-91526800D01*
X107748345Y-91502164D01*
X107782921Y-91471271D01*
X107813293Y-91434317D01*
X107839299Y-91391502D01*
X107860777Y-91343023D01*
X107877565Y-91289077D01*
X107877705Y-91288525D01*
X107881465Y-91272948D01*
X107884646Y-91257824D01*
X107887294Y-91242366D01*
X107889457Y-91225784D01*
X107891181Y-91207289D01*
X107892514Y-91186093D01*
X107893503Y-91161406D01*
X107894196Y-91132440D01*
X107894639Y-91098405D01*
X107894880Y-91058513D01*
X107894966Y-91011975D01*
X107894968Y-91000000D01*
X107894912Y-90951760D01*
X107894710Y-90910353D01*
X107894318Y-90874992D01*
X107893687Y-90844889D01*
X107892770Y-90819258D01*
X107891522Y-90797311D01*
X107889895Y-90778262D01*
X107887843Y-90761322D01*
X107885318Y-90745706D01*
X107882274Y-90730625D01*
X107878664Y-90715293D01*
X107877836Y-90711992D01*
X107861037Y-90657872D01*
X107839493Y-90609239D01*
X107813360Y-90566272D01*
X107782796Y-90529154D01*
X107747956Y-90498066D01*
X107708995Y-90473190D01*
X107666072Y-90454706D01*
X107652859Y-90450555D01*
X107640396Y-90447208D01*
X107628695Y-90444831D01*
X107616053Y-90443268D01*
X107600766Y-90442365D01*
X107581132Y-90441967D01*
X107557771Y-90441914D01*
X107527087Y-90442331D01*
X107502177Y-90443666D01*
X107481216Y-90446261D01*
X107462380Y-90450455D01*
X107443845Y-90456589D01*
X107423786Y-90465003D01*
X107416787Y-90468214D01*
X107379353Y-90489786D01*
X107344993Y-90518001D01*
X107314099Y-90552366D01*
X107287065Y-90592391D01*
X107264282Y-90637584D01*
X107249090Y-90678023D01*
X107243209Y-90697061D01*
X107238273Y-90715345D01*
X107234189Y-90733794D01*
X107230864Y-90753327D01*
X107228206Y-90774861D01*
X107226122Y-90799315D01*
X107224520Y-90827608D01*
X107223306Y-90860659D01*
X107222389Y-90899385D01*
X107221675Y-90944706D01*
X107221601Y-90950465D01*
X107221078Y-91009280D01*
X106820006Y-91009280D01*
X106819990Y-90985740D01*
X106820176Y-90944260D01*
X106820577Y-90904114D01*
X106821191Y-90866293D01*
X106822020Y-90831790D01*
X106823062Y-90801597D01*
X106824317Y-90776706D01*
X106825786Y-90758110D01*
X106826324Y-90753473D01*
X106839620Y-90678853D01*
X106859553Y-90607481D01*
X106885957Y-90539656D01*
X106918670Y-90475677D01*
X106957530Y-90415846D01*
X107002372Y-90360460D01*
X107053034Y-90309820D01*
X107080728Y-90286186D01*
X107135957Y-90245492D01*
X107193353Y-90211196D01*
X107253493Y-90183092D01*
X107316956Y-90160975D01*
X107384322Y-90144640D01*
X107456168Y-90133883D01*
X107525383Y-90128791D01*
X107605445Y-90128833D01*
X107605445Y-90128833D01*
G37*
X107605445Y-90128833D02*
X107682389Y-90135664D01*
X107756079Y-90149231D01*
X107826380Y-90169481D01*
X107893156Y-90196359D01*
X107956271Y-90229814D01*
X108015590Y-90269790D01*
X108070977Y-90316235D01*
X108115164Y-90361093D01*
X108161082Y-90417462D01*
X108200470Y-90477742D01*
X108233302Y-90541868D01*
X108259548Y-90609777D01*
X108279183Y-90681401D01*
X108292177Y-90756678D01*
X108294840Y-90780612D01*
X108295836Y-90795225D01*
X108296687Y-90816426D01*
X108297393Y-90843181D01*
X108297955Y-90874459D01*
X108298371Y-90909227D01*
X108298644Y-90946453D01*
X108298771Y-90985105D01*
X108298754Y-91024151D01*
X108298592Y-91062558D01*
X108298286Y-91099293D01*
X108297834Y-91133326D01*
X108297238Y-91163623D01*
X108296498Y-91189152D01*
X108295612Y-91208881D01*
X108294840Y-91219387D01*
X108283895Y-91296423D01*
X108266431Y-91369518D01*
X108242432Y-91438700D01*
X108211886Y-91503996D01*
X108174779Y-91565434D01*
X108131097Y-91623039D01*
X108080827Y-91676840D01*
X108052111Y-91703293D01*
X107998301Y-91745416D01*
X107939828Y-91781708D01*
X107877056Y-91812068D01*
X107810347Y-91836392D01*
X107740066Y-91854577D01*
X107666575Y-91866522D01*
X107590240Y-91872123D01*
X107511422Y-91871279D01*
X107468227Y-91868131D01*
X107393857Y-91857524D01*
X107322308Y-91840082D01*
X107253925Y-91815991D01*
X107189050Y-91785439D01*
X107128029Y-91748613D01*
X107071204Y-91705701D01*
X107018920Y-91656889D01*
X106971520Y-91602364D01*
X106965395Y-91594419D01*
X106924533Y-91534456D01*
X106890374Y-91470947D01*
X106862891Y-91403826D01*
X106842058Y-91333025D01*
X106827848Y-91258478D01*
X106826230Y-91246527D01*
X106824696Y-91230096D01*
X106823378Y-91207062D01*
X106822276Y-91178417D01*
X106821389Y-91145152D01*
X106820717Y-91108259D01*
X106820260Y-91068732D01*
X106820018Y-91027562D01*
X106820006Y-91009280D01*
X107221078Y-91009280D01*
X107221115Y-91061143D01*
X107221744Y-91106703D01*
X107222997Y-91146611D01*
X107224903Y-91181517D01*
X107227497Y-91212069D01*
X107230808Y-91238919D01*
X107234868Y-91262717D01*
X107237343Y-91274347D01*
X107252771Y-91328854D01*
X107272877Y-91378234D01*
X107297439Y-91422218D01*
X107326233Y-91460538D01*
X107359036Y-91492923D01*
X107395625Y-91519106D01*
X107435777Y-91538818D01*
X107464633Y-91548289D01*
X107480377Y-91552449D01*
X107492883Y-91555424D01*
X107503945Y-91557384D01*
X107515354Y-91558501D01*
X107528905Y-91558948D01*
X107546388Y-91558897D01*
X107569597Y-91558518D01*
X107571108Y-91558490D01*
X107594338Y-91557965D01*
X107611893Y-91557180D01*
X107625716Y-91555863D01*
X107637752Y-91553739D01*
X107649945Y-91550536D01*
X107664241Y-91545981D01*
X107667232Y-91544981D01*
X107709728Y-91526800D01*
X107748345Y-91502164D01*
X107782921Y-91471271D01*
X107813293Y-91434317D01*
X107839299Y-91391502D01*
X107860777Y-91343023D01*
X107877565Y-91289077D01*
X107877705Y-91288525D01*
X107881465Y-91272948D01*
X107884646Y-91257824D01*
X107887294Y-91242366D01*
X107889457Y-91225784D01*
X107891181Y-91207289D01*
X107892514Y-91186093D01*
X107893503Y-91161406D01*
X107894196Y-91132440D01*
X107894639Y-91098405D01*
X107894880Y-91058513D01*
X107894966Y-91011975D01*
X107894968Y-91000000D01*
X107894912Y-90951760D01*
X107894710Y-90910353D01*
X107894318Y-90874992D01*
X107893687Y-90844889D01*
X107892770Y-90819258D01*
X107891522Y-90797311D01*
X107889895Y-90778262D01*
X107887843Y-90761322D01*
X107885318Y-90745706D01*
X107882274Y-90730625D01*
X107878664Y-90715293D01*
X107877836Y-90711992D01*
X107861037Y-90657872D01*
X107839493Y-90609239D01*
X107813360Y-90566272D01*
X107782796Y-90529154D01*
X107747956Y-90498066D01*
X107708995Y-90473190D01*
X107666072Y-90454706D01*
X107652859Y-90450555D01*
X107640396Y-90447208D01*
X107628695Y-90444831D01*
X107616053Y-90443268D01*
X107600766Y-90442365D01*
X107581132Y-90441967D01*
X107557771Y-90441914D01*
X107527087Y-90442331D01*
X107502177Y-90443666D01*
X107481216Y-90446261D01*
X107462380Y-90450455D01*
X107443845Y-90456589D01*
X107423786Y-90465003D01*
X107416787Y-90468214D01*
X107379353Y-90489786D01*
X107344993Y-90518001D01*
X107314099Y-90552366D01*
X107287065Y-90592391D01*
X107264282Y-90637584D01*
X107249090Y-90678023D01*
X107243209Y-90697061D01*
X107238273Y-90715345D01*
X107234189Y-90733794D01*
X107230864Y-90753327D01*
X107228206Y-90774861D01*
X107226122Y-90799315D01*
X107224520Y-90827608D01*
X107223306Y-90860659D01*
X107222389Y-90899385D01*
X107221675Y-90944706D01*
X107221601Y-90950465D01*
X107221078Y-91009280D01*
X106820006Y-91009280D01*
X106819990Y-90985740D01*
X106820176Y-90944260D01*
X106820577Y-90904114D01*
X106821191Y-90866293D01*
X106822020Y-90831790D01*
X106823062Y-90801597D01*
X106824317Y-90776706D01*
X106825786Y-90758110D01*
X106826324Y-90753473D01*
X106839620Y-90678853D01*
X106859553Y-90607481D01*
X106885957Y-90539656D01*
X106918670Y-90475677D01*
X106957530Y-90415846D01*
X107002372Y-90360460D01*
X107053034Y-90309820D01*
X107080728Y-90286186D01*
X107135957Y-90245492D01*
X107193353Y-90211196D01*
X107253493Y-90183092D01*
X107316956Y-90160975D01*
X107384322Y-90144640D01*
X107456168Y-90133883D01*
X107525383Y-90128791D01*
X107605445Y-90128833D01*
G36*
X105591771Y-90127909D02*
G01*
X105643516Y-90128106D01*
X105702267Y-90128377D01*
X105717357Y-90128450D01*
X105778502Y-90128755D01*
X105832598Y-90129060D01*
X105880216Y-90129397D01*
X105921928Y-90129796D01*
X105958306Y-90130289D01*
X105989921Y-90130907D01*
X106017345Y-90131683D01*
X106041149Y-90132647D01*
X106061906Y-90133831D01*
X106080186Y-90135266D01*
X106096562Y-90136984D01*
X106111604Y-90139017D01*
X106125885Y-90141396D01*
X106139975Y-90144152D01*
X106154448Y-90147316D01*
X106169873Y-90150921D01*
X106183068Y-90154091D01*
X106249110Y-90173448D01*
X106311013Y-90198504D01*
X106368443Y-90228976D01*
X106421064Y-90264581D01*
X106468543Y-90305036D01*
X106510545Y-90350060D01*
X106546736Y-90399368D01*
X106576781Y-90452677D01*
X106598998Y-90505838D01*
X106608157Y-90533227D01*
X106615221Y-90558199D01*
X106620439Y-90582443D01*
X106624057Y-90607648D01*
X106626322Y-90635507D01*
X106627481Y-90667707D01*
X106627782Y-90702790D01*
X106627692Y-90732266D01*
X106627356Y-90755586D01*
X106626673Y-90774213D01*
X106625545Y-90789610D01*
X106623872Y-90803242D01*
X106621555Y-90816571D01*
X106619313Y-90827345D01*
X106604243Y-90884354D01*
X106584795Y-90935999D01*
X106560248Y-90983601D01*
X106529886Y-91028480D01*
X106492991Y-91071955D01*
X106477612Y-91087876D01*
X106432817Y-91128648D01*
X106384916Y-91163956D01*
X106333298Y-91194089D01*
X106277351Y-91219334D01*
X106216463Y-91239978D01*
X106150022Y-91256310D01*
X106100058Y-91265302D01*
X106089254Y-91266770D01*
X106076593Y-91268035D01*
X106061390Y-91269120D01*
X106042959Y-91270046D01*
X106020618Y-91270838D01*
X105993681Y-91271516D01*
X105961464Y-91272104D01*
X105923282Y-91272624D01*
X105878451Y-91273099D01*
X105857494Y-91273290D01*
X105654696Y-91275071D01*
X105653638Y-91525241D01*
X105652581Y-91775412D01*
X105641834Y-91795820D01*
X105623508Y-91822751D01*
X105600025Y-91844401D01*
X105572247Y-91860134D01*
X105543183Y-91868919D01*
X105530995Y-91870372D01*
X105513076Y-91871404D01*
X105491003Y-91872029D01*
X105466351Y-91872261D01*
X105440698Y-91872115D01*
X105415619Y-91871605D01*
X105392692Y-91870746D01*
X105373491Y-91869550D01*
X105359594Y-91868033D01*
X105355371Y-91867221D01*
X105325393Y-91856033D01*
X105299197Y-91838574D01*
X105277703Y-91815604D01*
X105263463Y-91791547D01*
X105252491Y-91767792D01*
X105252491Y-90962296D01*
X105654486Y-90962296D01*
X105840242Y-90960971D01*
X105882763Y-90960658D01*
X105918395Y-90960354D01*
X105947868Y-90960025D01*
X105971915Y-90959638D01*
X105991265Y-90959158D01*
X106006650Y-90958551D01*
X106018802Y-90957783D01*
X106028452Y-90956820D01*
X106036329Y-90955628D01*
X106043167Y-90954173D01*
X106049696Y-90952420D01*
X106054549Y-90950975D01*
X106095187Y-90934951D01*
X106130939Y-90913160D01*
X106161546Y-90885856D01*
X106186748Y-90853288D01*
X106206285Y-90815710D01*
X106213249Y-90796962D01*
X106217287Y-90784046D01*
X106220129Y-90772648D01*
X106221990Y-90760924D01*
X106223087Y-90747028D01*
X106223637Y-90729116D01*
X106223850Y-90706600D01*
X106223540Y-90676115D01*
X106222015Y-90651235D01*
X106218881Y-90629989D01*
X106213745Y-90610404D01*
X106206212Y-90590509D01*
X106196428Y-90569427D01*
X106184487Y-90548577D01*
X106169226Y-90528683D01*
X106153715Y-90512106D01*
X106128550Y-90489462D01*
X106102848Y-90472195D01*
X106074017Y-90458764D01*
X106050738Y-90450866D01*
X106043928Y-90448886D01*
X106037295Y-90447228D01*
X106030101Y-90445857D01*
X106021610Y-90444737D01*
X106011085Y-90443834D01*
X105997791Y-90443113D01*
X105980990Y-90442539D01*
X105959945Y-90442077D01*
X105933922Y-90441692D01*
X105902181Y-90441350D01*
X105863989Y-90441015D01*
X105838337Y-90440809D01*
X105654486Y-90439352D01*
X105654486Y-90962296D01*
X105252491Y-90962296D01*
X105252491Y-90232208D01*
X105263463Y-90208453D01*
X105277471Y-90185340D01*
X105296434Y-90164224D01*
X105318060Y-90147516D01*
X105325393Y-90143378D01*
X105331105Y-90140572D01*
X105336881Y-90138103D01*
X105343219Y-90135952D01*
X105350614Y-90134101D01*
X105359562Y-90132530D01*
X105370558Y-90131221D01*
X105384098Y-90130155D01*
X105400679Y-90129313D01*
X105420796Y-90128677D01*
X105444944Y-90128226D01*
X105473620Y-90127943D01*
X105507319Y-90127808D01*
X105546538Y-90127803D01*
X105591771Y-90127909D01*
X105591771Y-90127909D01*
G37*
X105591771Y-90127909D02*
X105643516Y-90128106D01*
X105702267Y-90128377D01*
X105717357Y-90128450D01*
X105778502Y-90128755D01*
X105832598Y-90129060D01*
X105880216Y-90129397D01*
X105921928Y-90129796D01*
X105958306Y-90130289D01*
X105989921Y-90130907D01*
X106017345Y-90131683D01*
X106041149Y-90132647D01*
X106061906Y-90133831D01*
X106080186Y-90135266D01*
X106096562Y-90136984D01*
X106111604Y-90139017D01*
X106125885Y-90141396D01*
X106139975Y-90144152D01*
X106154448Y-90147316D01*
X106169873Y-90150921D01*
X106183068Y-90154091D01*
X106249110Y-90173448D01*
X106311013Y-90198504D01*
X106368443Y-90228976D01*
X106421064Y-90264581D01*
X106468543Y-90305036D01*
X106510545Y-90350060D01*
X106546736Y-90399368D01*
X106576781Y-90452677D01*
X106598998Y-90505838D01*
X106608157Y-90533227D01*
X106615221Y-90558199D01*
X106620439Y-90582443D01*
X106624057Y-90607648D01*
X106626322Y-90635507D01*
X106627481Y-90667707D01*
X106627782Y-90702790D01*
X106627692Y-90732266D01*
X106627356Y-90755586D01*
X106626673Y-90774213D01*
X106625545Y-90789610D01*
X106623872Y-90803242D01*
X106621555Y-90816571D01*
X106619313Y-90827345D01*
X106604243Y-90884354D01*
X106584795Y-90935999D01*
X106560248Y-90983601D01*
X106529886Y-91028480D01*
X106492991Y-91071955D01*
X106477612Y-91087876D01*
X106432817Y-91128648D01*
X106384916Y-91163956D01*
X106333298Y-91194089D01*
X106277351Y-91219334D01*
X106216463Y-91239978D01*
X106150022Y-91256310D01*
X106100058Y-91265302D01*
X106089254Y-91266770D01*
X106076593Y-91268035D01*
X106061390Y-91269120D01*
X106042959Y-91270046D01*
X106020618Y-91270838D01*
X105993681Y-91271516D01*
X105961464Y-91272104D01*
X105923282Y-91272624D01*
X105878451Y-91273099D01*
X105857494Y-91273290D01*
X105654696Y-91275071D01*
X105653638Y-91525241D01*
X105652581Y-91775412D01*
X105641834Y-91795820D01*
X105623508Y-91822751D01*
X105600025Y-91844401D01*
X105572247Y-91860134D01*
X105543183Y-91868919D01*
X105530995Y-91870372D01*
X105513076Y-91871404D01*
X105491003Y-91872029D01*
X105466351Y-91872261D01*
X105440698Y-91872115D01*
X105415619Y-91871605D01*
X105392692Y-91870746D01*
X105373491Y-91869550D01*
X105359594Y-91868033D01*
X105355371Y-91867221D01*
X105325393Y-91856033D01*
X105299197Y-91838574D01*
X105277703Y-91815604D01*
X105263463Y-91791547D01*
X105252491Y-91767792D01*
X105252491Y-90962296D01*
X105654486Y-90962296D01*
X105840242Y-90960971D01*
X105882763Y-90960658D01*
X105918395Y-90960354D01*
X105947868Y-90960025D01*
X105971915Y-90959638D01*
X105991265Y-90959158D01*
X106006650Y-90958551D01*
X106018802Y-90957783D01*
X106028452Y-90956820D01*
X106036329Y-90955628D01*
X106043167Y-90954173D01*
X106049696Y-90952420D01*
X106054549Y-90950975D01*
X106095187Y-90934951D01*
X106130939Y-90913160D01*
X106161546Y-90885856D01*
X106186748Y-90853288D01*
X106206285Y-90815710D01*
X106213249Y-90796962D01*
X106217287Y-90784046D01*
X106220129Y-90772648D01*
X106221990Y-90760924D01*
X106223087Y-90747028D01*
X106223637Y-90729116D01*
X106223850Y-90706600D01*
X106223540Y-90676115D01*
X106222015Y-90651235D01*
X106218881Y-90629989D01*
X106213745Y-90610404D01*
X106206212Y-90590509D01*
X106196428Y-90569427D01*
X106184487Y-90548577D01*
X106169226Y-90528683D01*
X106153715Y-90512106D01*
X106128550Y-90489462D01*
X106102848Y-90472195D01*
X106074017Y-90458764D01*
X106050738Y-90450866D01*
X106043928Y-90448886D01*
X106037295Y-90447228D01*
X106030101Y-90445857D01*
X106021610Y-90444737D01*
X106011085Y-90443834D01*
X105997791Y-90443113D01*
X105980990Y-90442539D01*
X105959945Y-90442077D01*
X105933922Y-90441692D01*
X105902181Y-90441350D01*
X105863989Y-90441015D01*
X105838337Y-90440809D01*
X105654486Y-90439352D01*
X105654486Y-90962296D01*
X105252491Y-90962296D01*
X105252491Y-90232208D01*
X105263463Y-90208453D01*
X105277471Y-90185340D01*
X105296434Y-90164224D01*
X105318060Y-90147516D01*
X105325393Y-90143378D01*
X105331105Y-90140572D01*
X105336881Y-90138103D01*
X105343219Y-90135952D01*
X105350614Y-90134101D01*
X105359562Y-90132530D01*
X105370558Y-90131221D01*
X105384098Y-90130155D01*
X105400679Y-90129313D01*
X105420796Y-90128677D01*
X105444944Y-90128226D01*
X105473620Y-90127943D01*
X105507319Y-90127808D01*
X105546538Y-90127803D01*
X105591771Y-90127909D01*
D11*
X111485000Y-87415000D02*
X107400000Y-87415000D01*
X111485000Y-89585000D02*
X111485000Y-87415000D01*
X107400000Y-89585000D02*
X111485000Y-89585000D01*
M02*
