G04 #@! TF.GenerationSoftware,KiCad,Pcbnew,(5.1.0-0)*
G04 #@! TF.CreationDate,2020-07-01T23:26:51+02:00*
G04 #@! TF.ProjectId,POxiM-fingersensor,504f7869-4d2d-4666-996e-67657273656e,Test proto*
G04 #@! TF.SameCoordinates,Original*
G04 #@! TF.FileFunction,Copper,L1,Top*
G04 #@! TF.FilePolarity,Positive*
%FSLAX46Y46*%
G04 Gerber Fmt 4.6, Leading zero omitted, Abs format (unit mm)*
G04 Created by KiCad (PCBNEW (5.1.0-0)) date 2020-07-01 23:26:51*
%MOMM*%
%LPD*%
G04 APERTURE LIST*
%ADD10C,0.100000*%
%ADD11C,1.650000*%
%ADD12C,0.500000*%
%ADD13C,1.075000*%
%ADD14C,0.800000*%
%ADD15C,1.800000*%
%ADD16C,0.400000*%
%ADD17C,0.250000*%
G04 APERTURE END LIST*
D10*
G36*
X110992830Y-84676239D02*
G01*
X111017816Y-84679946D01*
X111042319Y-84686084D01*
X111066103Y-84694593D01*
X111088938Y-84705393D01*
X111110604Y-84718380D01*
X111130893Y-84733427D01*
X111149609Y-84750391D01*
X111166573Y-84769107D01*
X111181620Y-84789396D01*
X111194607Y-84811062D01*
X111205407Y-84833897D01*
X111213916Y-84857681D01*
X111220054Y-84882184D01*
X111223761Y-84907170D01*
X111225000Y-84932400D01*
X111225000Y-86067600D01*
X111223761Y-86092830D01*
X111220054Y-86117816D01*
X111213916Y-86142319D01*
X111205407Y-86166103D01*
X111194607Y-86188938D01*
X111181620Y-86210604D01*
X111166573Y-86230893D01*
X111149609Y-86249609D01*
X111130893Y-86266573D01*
X111110604Y-86281620D01*
X111088938Y-86294607D01*
X111066103Y-86305407D01*
X111042319Y-86313916D01*
X111017816Y-86320054D01*
X110992830Y-86323761D01*
X110967600Y-86325000D01*
X109557400Y-86325000D01*
X109532170Y-86323761D01*
X109507184Y-86320054D01*
X109482681Y-86313916D01*
X109458897Y-86305407D01*
X109436062Y-86294607D01*
X109414396Y-86281620D01*
X109394107Y-86266573D01*
X109375391Y-86249609D01*
X109358427Y-86230893D01*
X109343380Y-86210604D01*
X109330393Y-86188938D01*
X109319593Y-86166103D01*
X109311084Y-86142319D01*
X109304946Y-86117816D01*
X109301239Y-86092830D01*
X109300000Y-86067600D01*
X109300000Y-84932400D01*
X109301239Y-84907170D01*
X109304946Y-84882184D01*
X109311084Y-84857681D01*
X109319593Y-84833897D01*
X109330393Y-84811062D01*
X109343380Y-84789396D01*
X109358427Y-84769107D01*
X109375391Y-84750391D01*
X109394107Y-84733427D01*
X109414396Y-84718380D01*
X109436062Y-84705393D01*
X109458897Y-84694593D01*
X109482681Y-84686084D01*
X109507184Y-84679946D01*
X109532170Y-84676239D01*
X109557400Y-84675000D01*
X110967600Y-84675000D01*
X110992830Y-84676239D01*
X110992830Y-84676239D01*
G37*
D11*
X110262500Y-85500000D03*
D10*
G36*
X108467830Y-84676239D02*
G01*
X108492816Y-84679946D01*
X108517319Y-84686084D01*
X108541103Y-84694593D01*
X108563938Y-84705393D01*
X108585604Y-84718380D01*
X108605893Y-84733427D01*
X108624609Y-84750391D01*
X108641573Y-84769107D01*
X108656620Y-84789396D01*
X108669607Y-84811062D01*
X108680407Y-84833897D01*
X108688916Y-84857681D01*
X108695054Y-84882184D01*
X108698761Y-84907170D01*
X108700000Y-84932400D01*
X108700000Y-86067600D01*
X108698761Y-86092830D01*
X108695054Y-86117816D01*
X108688916Y-86142319D01*
X108680407Y-86166103D01*
X108669607Y-86188938D01*
X108656620Y-86210604D01*
X108641573Y-86230893D01*
X108624609Y-86249609D01*
X108605893Y-86266573D01*
X108585604Y-86281620D01*
X108563938Y-86294607D01*
X108541103Y-86305407D01*
X108517319Y-86313916D01*
X108492816Y-86320054D01*
X108467830Y-86323761D01*
X108442600Y-86325000D01*
X107032400Y-86325000D01*
X107007170Y-86323761D01*
X106982184Y-86320054D01*
X106957681Y-86313916D01*
X106933897Y-86305407D01*
X106911062Y-86294607D01*
X106889396Y-86281620D01*
X106869107Y-86266573D01*
X106850391Y-86249609D01*
X106833427Y-86230893D01*
X106818380Y-86210604D01*
X106805393Y-86188938D01*
X106794593Y-86166103D01*
X106786084Y-86142319D01*
X106779946Y-86117816D01*
X106776239Y-86092830D01*
X106775000Y-86067600D01*
X106775000Y-84932400D01*
X106776239Y-84907170D01*
X106779946Y-84882184D01*
X106786084Y-84857681D01*
X106794593Y-84833897D01*
X106805393Y-84811062D01*
X106818380Y-84789396D01*
X106833427Y-84769107D01*
X106850391Y-84750391D01*
X106869107Y-84733427D01*
X106889396Y-84718380D01*
X106911062Y-84705393D01*
X106933897Y-84694593D01*
X106957681Y-84686084D01*
X106982184Y-84679946D01*
X107007170Y-84676239D01*
X107032400Y-84675000D01*
X108442600Y-84675000D01*
X108467830Y-84676239D01*
X108467830Y-84676239D01*
G37*
D11*
X107737500Y-85500000D03*
D12*
X105000000Y-84250000D03*
X113000000Y-86250000D03*
X105875000Y-64250000D03*
X113000000Y-69750000D03*
D10*
G36*
X110457592Y-67576294D02*
G01*
X110483681Y-67580164D01*
X110509264Y-67586572D01*
X110534096Y-67595457D01*
X110557938Y-67606734D01*
X110580560Y-67620293D01*
X110601743Y-67636003D01*
X110621285Y-67653715D01*
X110638997Y-67673257D01*
X110654707Y-67694440D01*
X110668266Y-67717062D01*
X110679543Y-67740904D01*
X110688428Y-67765736D01*
X110694836Y-67791319D01*
X110698706Y-67817408D01*
X110700000Y-67843750D01*
X110700000Y-68381250D01*
X110698706Y-68407592D01*
X110694836Y-68433681D01*
X110688428Y-68459264D01*
X110679543Y-68484096D01*
X110668266Y-68507938D01*
X110654707Y-68530560D01*
X110638997Y-68551743D01*
X110621285Y-68571285D01*
X110601743Y-68588997D01*
X110580560Y-68604707D01*
X110557938Y-68618266D01*
X110534096Y-68629543D01*
X110509264Y-68638428D01*
X110483681Y-68644836D01*
X110457592Y-68648706D01*
X110431250Y-68650000D01*
X109568750Y-68650000D01*
X109542408Y-68648706D01*
X109516319Y-68644836D01*
X109490736Y-68638428D01*
X109465904Y-68629543D01*
X109442062Y-68618266D01*
X109419440Y-68604707D01*
X109398257Y-68588997D01*
X109378715Y-68571285D01*
X109361003Y-68551743D01*
X109345293Y-68530560D01*
X109331734Y-68507938D01*
X109320457Y-68484096D01*
X109311572Y-68459264D01*
X109305164Y-68433681D01*
X109301294Y-68407592D01*
X109300000Y-68381250D01*
X109300000Y-67843750D01*
X109301294Y-67817408D01*
X109305164Y-67791319D01*
X109311572Y-67765736D01*
X109320457Y-67740904D01*
X109331734Y-67717062D01*
X109345293Y-67694440D01*
X109361003Y-67673257D01*
X109378715Y-67653715D01*
X109398257Y-67636003D01*
X109419440Y-67620293D01*
X109442062Y-67606734D01*
X109465904Y-67595457D01*
X109490736Y-67586572D01*
X109516319Y-67580164D01*
X109542408Y-67576294D01*
X109568750Y-67575000D01*
X110431250Y-67575000D01*
X110457592Y-67576294D01*
X110457592Y-67576294D01*
G37*
D13*
X110000000Y-68112500D03*
D10*
G36*
X110457592Y-69351294D02*
G01*
X110483681Y-69355164D01*
X110509264Y-69361572D01*
X110534096Y-69370457D01*
X110557938Y-69381734D01*
X110580560Y-69395293D01*
X110601743Y-69411003D01*
X110621285Y-69428715D01*
X110638997Y-69448257D01*
X110654707Y-69469440D01*
X110668266Y-69492062D01*
X110679543Y-69515904D01*
X110688428Y-69540736D01*
X110694836Y-69566319D01*
X110698706Y-69592408D01*
X110700000Y-69618750D01*
X110700000Y-70156250D01*
X110698706Y-70182592D01*
X110694836Y-70208681D01*
X110688428Y-70234264D01*
X110679543Y-70259096D01*
X110668266Y-70282938D01*
X110654707Y-70305560D01*
X110638997Y-70326743D01*
X110621285Y-70346285D01*
X110601743Y-70363997D01*
X110580560Y-70379707D01*
X110557938Y-70393266D01*
X110534096Y-70404543D01*
X110509264Y-70413428D01*
X110483681Y-70419836D01*
X110457592Y-70423706D01*
X110431250Y-70425000D01*
X109568750Y-70425000D01*
X109542408Y-70423706D01*
X109516319Y-70419836D01*
X109490736Y-70413428D01*
X109465904Y-70404543D01*
X109442062Y-70393266D01*
X109419440Y-70379707D01*
X109398257Y-70363997D01*
X109378715Y-70346285D01*
X109361003Y-70326743D01*
X109345293Y-70305560D01*
X109331734Y-70282938D01*
X109320457Y-70259096D01*
X109311572Y-70234264D01*
X109305164Y-70208681D01*
X109301294Y-70182592D01*
X109300000Y-70156250D01*
X109300000Y-69618750D01*
X109301294Y-69592408D01*
X109305164Y-69566319D01*
X109311572Y-69540736D01*
X109320457Y-69515904D01*
X109331734Y-69492062D01*
X109345293Y-69469440D01*
X109361003Y-69448257D01*
X109378715Y-69428715D01*
X109398257Y-69411003D01*
X109419440Y-69395293D01*
X109442062Y-69381734D01*
X109465904Y-69370457D01*
X109490736Y-69361572D01*
X109516319Y-69355164D01*
X109542408Y-69351294D01*
X109568750Y-69350000D01*
X110431250Y-69350000D01*
X110457592Y-69351294D01*
X110457592Y-69351294D01*
G37*
D13*
X110000000Y-69887500D03*
D10*
G36*
X108457592Y-67576294D02*
G01*
X108483681Y-67580164D01*
X108509264Y-67586572D01*
X108534096Y-67595457D01*
X108557938Y-67606734D01*
X108580560Y-67620293D01*
X108601743Y-67636003D01*
X108621285Y-67653715D01*
X108638997Y-67673257D01*
X108654707Y-67694440D01*
X108668266Y-67717062D01*
X108679543Y-67740904D01*
X108688428Y-67765736D01*
X108694836Y-67791319D01*
X108698706Y-67817408D01*
X108700000Y-67843750D01*
X108700000Y-68381250D01*
X108698706Y-68407592D01*
X108694836Y-68433681D01*
X108688428Y-68459264D01*
X108679543Y-68484096D01*
X108668266Y-68507938D01*
X108654707Y-68530560D01*
X108638997Y-68551743D01*
X108621285Y-68571285D01*
X108601743Y-68588997D01*
X108580560Y-68604707D01*
X108557938Y-68618266D01*
X108534096Y-68629543D01*
X108509264Y-68638428D01*
X108483681Y-68644836D01*
X108457592Y-68648706D01*
X108431250Y-68650000D01*
X107568750Y-68650000D01*
X107542408Y-68648706D01*
X107516319Y-68644836D01*
X107490736Y-68638428D01*
X107465904Y-68629543D01*
X107442062Y-68618266D01*
X107419440Y-68604707D01*
X107398257Y-68588997D01*
X107378715Y-68571285D01*
X107361003Y-68551743D01*
X107345293Y-68530560D01*
X107331734Y-68507938D01*
X107320457Y-68484096D01*
X107311572Y-68459264D01*
X107305164Y-68433681D01*
X107301294Y-68407592D01*
X107300000Y-68381250D01*
X107300000Y-67843750D01*
X107301294Y-67817408D01*
X107305164Y-67791319D01*
X107311572Y-67765736D01*
X107320457Y-67740904D01*
X107331734Y-67717062D01*
X107345293Y-67694440D01*
X107361003Y-67673257D01*
X107378715Y-67653715D01*
X107398257Y-67636003D01*
X107419440Y-67620293D01*
X107442062Y-67606734D01*
X107465904Y-67595457D01*
X107490736Y-67586572D01*
X107516319Y-67580164D01*
X107542408Y-67576294D01*
X107568750Y-67575000D01*
X108431250Y-67575000D01*
X108457592Y-67576294D01*
X108457592Y-67576294D01*
G37*
D13*
X108000000Y-68112500D03*
D10*
G36*
X108457592Y-69351294D02*
G01*
X108483681Y-69355164D01*
X108509264Y-69361572D01*
X108534096Y-69370457D01*
X108557938Y-69381734D01*
X108580560Y-69395293D01*
X108601743Y-69411003D01*
X108621285Y-69428715D01*
X108638997Y-69448257D01*
X108654707Y-69469440D01*
X108668266Y-69492062D01*
X108679543Y-69515904D01*
X108688428Y-69540736D01*
X108694836Y-69566319D01*
X108698706Y-69592408D01*
X108700000Y-69618750D01*
X108700000Y-70156250D01*
X108698706Y-70182592D01*
X108694836Y-70208681D01*
X108688428Y-70234264D01*
X108679543Y-70259096D01*
X108668266Y-70282938D01*
X108654707Y-70305560D01*
X108638997Y-70326743D01*
X108621285Y-70346285D01*
X108601743Y-70363997D01*
X108580560Y-70379707D01*
X108557938Y-70393266D01*
X108534096Y-70404543D01*
X108509264Y-70413428D01*
X108483681Y-70419836D01*
X108457592Y-70423706D01*
X108431250Y-70425000D01*
X107568750Y-70425000D01*
X107542408Y-70423706D01*
X107516319Y-70419836D01*
X107490736Y-70413428D01*
X107465904Y-70404543D01*
X107442062Y-70393266D01*
X107419440Y-70379707D01*
X107398257Y-70363997D01*
X107378715Y-70346285D01*
X107361003Y-70326743D01*
X107345293Y-70305560D01*
X107331734Y-70282938D01*
X107320457Y-70259096D01*
X107311572Y-70234264D01*
X107305164Y-70208681D01*
X107301294Y-70182592D01*
X107300000Y-70156250D01*
X107300000Y-69618750D01*
X107301294Y-69592408D01*
X107305164Y-69566319D01*
X107311572Y-69540736D01*
X107320457Y-69515904D01*
X107331734Y-69492062D01*
X107345293Y-69469440D01*
X107361003Y-69448257D01*
X107378715Y-69428715D01*
X107398257Y-69411003D01*
X107419440Y-69395293D01*
X107442062Y-69381734D01*
X107465904Y-69370457D01*
X107490736Y-69361572D01*
X107516319Y-69355164D01*
X107542408Y-69351294D01*
X107568750Y-69350000D01*
X108431250Y-69350000D01*
X108457592Y-69351294D01*
X108457592Y-69351294D01*
G37*
D13*
X108000000Y-69887500D03*
D14*
X108500000Y-71250000D03*
X108500000Y-72250000D03*
X105000000Y-71250000D03*
X106750000Y-71250000D03*
X106750000Y-72250000D03*
X105000000Y-72250000D03*
X107500000Y-75375000D03*
X106750000Y-76000000D03*
X106000000Y-75375000D03*
X105250000Y-74750000D03*
X108250000Y-74750000D03*
X108250000Y-76000000D03*
D15*
X106750000Y-74250000D03*
D14*
X105250000Y-76000000D03*
X106750000Y-80250000D03*
X108250000Y-80250000D03*
X105250000Y-80250000D03*
D15*
X106750000Y-82250000D03*
D14*
X108250000Y-82000000D03*
X107500000Y-81125000D03*
X106000000Y-81125000D03*
X105250000Y-82000000D03*
X105000000Y-66250000D03*
X106750000Y-66250000D03*
X107750000Y-66750000D03*
X108500000Y-66250000D03*
X106500000Y-67250000D03*
X105000000Y-67250000D03*
X105000000Y-63750000D03*
X105000000Y-64750000D03*
X108500000Y-63750000D03*
X106750000Y-63750000D03*
X106750000Y-64750000D03*
X108500000Y-64750000D03*
X105000000Y-69750000D03*
X105000000Y-68750000D03*
X105750000Y-69250000D03*
X106500000Y-68750000D03*
X106500000Y-69750000D03*
X111500000Y-69750000D03*
X112750000Y-76000000D03*
X111250000Y-76000000D03*
X112000000Y-75375000D03*
X110500000Y-75375000D03*
X109750000Y-76000000D03*
X112750000Y-74750000D03*
D15*
X111250000Y-74250000D03*
D14*
X109750000Y-74750000D03*
X109000000Y-88750000D03*
X112750000Y-82000000D03*
X112750000Y-80250000D03*
X110500000Y-81125000D03*
X109750000Y-82000000D03*
X109750000Y-80250000D03*
D15*
X111250000Y-82250000D03*
D14*
X111250000Y-80250000D03*
X112000000Y-81125000D03*
D16*
X105000000Y-73750000D02*
X105000000Y-75000000D01*
X107575000Y-85500000D02*
X106000000Y-85500000D01*
X108000000Y-68187500D02*
X108000000Y-66612500D01*
X109500000Y-64250000D02*
X108750000Y-64250000D01*
X110000000Y-68112500D02*
X110000000Y-64750000D01*
X110000000Y-64750000D02*
X109500000Y-64250000D01*
X106637500Y-69887500D02*
X106500000Y-69750000D01*
X110000000Y-69887500D02*
X108000000Y-69887500D01*
X108000000Y-69887500D02*
X106637500Y-69887500D01*
X110000000Y-69925000D02*
X110000000Y-71500000D01*
X110425000Y-85500000D02*
X112250000Y-85500000D01*
D17*
G36*
X107264023Y-70891926D02*
G01*
X107413402Y-70937240D01*
X107568750Y-70952540D01*
X108431250Y-70952540D01*
X108586598Y-70937240D01*
X108735977Y-70891926D01*
X108767643Y-70875000D01*
X108875000Y-70875000D01*
X108875000Y-72448224D01*
X108661612Y-72661612D01*
X108646066Y-72680554D01*
X108634515Y-72702165D01*
X108627402Y-72725614D01*
X108625000Y-72750000D01*
X108625000Y-76475000D01*
X104425000Y-76475000D01*
X104425000Y-70875000D01*
X107232357Y-70875000D01*
X107264023Y-70891926D01*
X107264023Y-70891926D01*
G37*
X107264023Y-70891926D02*
X107413402Y-70937240D01*
X107568750Y-70952540D01*
X108431250Y-70952540D01*
X108586598Y-70937240D01*
X108735977Y-70891926D01*
X108767643Y-70875000D01*
X108875000Y-70875000D01*
X108875000Y-72448224D01*
X108661612Y-72661612D01*
X108646066Y-72680554D01*
X108634515Y-72702165D01*
X108627402Y-72725614D01*
X108625000Y-72750000D01*
X108625000Y-76475000D01*
X104425000Y-76475000D01*
X104425000Y-70875000D01*
X107232357Y-70875000D01*
X107264023Y-70891926D01*
G36*
X113575001Y-64225130D02*
G01*
X113512819Y-64075009D01*
X113356870Y-63841615D01*
X113158385Y-63643130D01*
X112924991Y-63487181D01*
X112665657Y-63379762D01*
X112390350Y-63325000D01*
X112109650Y-63325000D01*
X111834343Y-63379762D01*
X111575009Y-63487181D01*
X111341615Y-63643130D01*
X111143130Y-63841615D01*
X110987181Y-64075009D01*
X110879762Y-64334343D01*
X110825000Y-64609650D01*
X110825000Y-64890350D01*
X110879762Y-65165657D01*
X110987181Y-65424991D01*
X111143130Y-65658385D01*
X111341615Y-65856870D01*
X111575009Y-66012819D01*
X111834343Y-66120238D01*
X112109650Y-66175000D01*
X112390350Y-66175000D01*
X112665657Y-66120238D01*
X112924991Y-66012819D01*
X113158385Y-65856870D01*
X113356870Y-65658385D01*
X113512819Y-65424991D01*
X113575001Y-65274870D01*
X113575001Y-69228985D01*
X113494034Y-69148018D01*
X113367100Y-69063204D01*
X113226059Y-69004783D01*
X113076331Y-68975000D01*
X112923669Y-68975000D01*
X112773941Y-69004783D01*
X112632900Y-69063204D01*
X112505966Y-69148018D01*
X112398018Y-69255966D01*
X112313204Y-69382900D01*
X112254783Y-69523941D01*
X112225000Y-69673669D01*
X112225000Y-69826331D01*
X112254783Y-69976059D01*
X112295766Y-70075000D01*
X112109650Y-70075000D01*
X111834343Y-70129762D01*
X111575009Y-70237181D01*
X111341615Y-70393130D01*
X111143130Y-70591615D01*
X110987181Y-70825009D01*
X110879762Y-71084343D01*
X110825000Y-71359650D01*
X110825000Y-71640350D01*
X110879762Y-71915657D01*
X110987181Y-72174991D01*
X111143130Y-72408385D01*
X111341615Y-72606870D01*
X111575009Y-72762819D01*
X111834343Y-72870238D01*
X112109650Y-72925000D01*
X112390350Y-72925000D01*
X112665657Y-72870238D01*
X112924991Y-72762819D01*
X113158385Y-72606870D01*
X113356870Y-72408385D01*
X113512819Y-72174991D01*
X113575000Y-72024871D01*
X113575000Y-76475000D01*
X109375000Y-76475000D01*
X109375000Y-73051776D01*
X109588388Y-72838388D01*
X109603934Y-72819446D01*
X109615485Y-72797835D01*
X109622598Y-72774386D01*
X109625000Y-72750000D01*
X109625000Y-70935457D01*
X110431250Y-70935457D01*
X110583266Y-70920485D01*
X110729440Y-70876143D01*
X110864154Y-70804137D01*
X110982233Y-70707233D01*
X111079137Y-70589154D01*
X111151143Y-70454440D01*
X111195485Y-70308266D01*
X111210457Y-70156250D01*
X111210457Y-69618750D01*
X111195485Y-69466734D01*
X111151143Y-69320560D01*
X111079137Y-69185846D01*
X110982233Y-69067767D01*
X110913057Y-69010996D01*
X110994312Y-68944312D01*
X111093341Y-68823645D01*
X111166926Y-68685977D01*
X111212240Y-68536598D01*
X111227540Y-68381250D01*
X111227540Y-67843750D01*
X111212240Y-67688402D01*
X111166926Y-67539023D01*
X111093341Y-67401355D01*
X110994312Y-67280688D01*
X110873645Y-67181659D01*
X110735977Y-67108074D01*
X110586598Y-67062760D01*
X110525000Y-67056693D01*
X110525000Y-64775780D01*
X110527539Y-64750000D01*
X110525000Y-64724220D01*
X110525000Y-64724212D01*
X110517403Y-64647082D01*
X110487383Y-64548119D01*
X110438633Y-64456914D01*
X110413339Y-64426093D01*
X110389466Y-64397003D01*
X110389462Y-64396999D01*
X110373027Y-64376973D01*
X110353001Y-64360538D01*
X109889470Y-63897009D01*
X109873027Y-63876973D01*
X109793086Y-63811367D01*
X109701881Y-63762617D01*
X109625000Y-63739295D01*
X109625000Y-63175000D01*
X113575001Y-63175000D01*
X113575001Y-64225130D01*
X113575001Y-64225130D01*
G37*
X113575001Y-64225130D02*
X113512819Y-64075009D01*
X113356870Y-63841615D01*
X113158385Y-63643130D01*
X112924991Y-63487181D01*
X112665657Y-63379762D01*
X112390350Y-63325000D01*
X112109650Y-63325000D01*
X111834343Y-63379762D01*
X111575009Y-63487181D01*
X111341615Y-63643130D01*
X111143130Y-63841615D01*
X110987181Y-64075009D01*
X110879762Y-64334343D01*
X110825000Y-64609650D01*
X110825000Y-64890350D01*
X110879762Y-65165657D01*
X110987181Y-65424991D01*
X111143130Y-65658385D01*
X111341615Y-65856870D01*
X111575009Y-66012819D01*
X111834343Y-66120238D01*
X112109650Y-66175000D01*
X112390350Y-66175000D01*
X112665657Y-66120238D01*
X112924991Y-66012819D01*
X113158385Y-65856870D01*
X113356870Y-65658385D01*
X113512819Y-65424991D01*
X113575001Y-65274870D01*
X113575001Y-69228985D01*
X113494034Y-69148018D01*
X113367100Y-69063204D01*
X113226059Y-69004783D01*
X113076331Y-68975000D01*
X112923669Y-68975000D01*
X112773941Y-69004783D01*
X112632900Y-69063204D01*
X112505966Y-69148018D01*
X112398018Y-69255966D01*
X112313204Y-69382900D01*
X112254783Y-69523941D01*
X112225000Y-69673669D01*
X112225000Y-69826331D01*
X112254783Y-69976059D01*
X112295766Y-70075000D01*
X112109650Y-70075000D01*
X111834343Y-70129762D01*
X111575009Y-70237181D01*
X111341615Y-70393130D01*
X111143130Y-70591615D01*
X110987181Y-70825009D01*
X110879762Y-71084343D01*
X110825000Y-71359650D01*
X110825000Y-71640350D01*
X110879762Y-71915657D01*
X110987181Y-72174991D01*
X111143130Y-72408385D01*
X111341615Y-72606870D01*
X111575009Y-72762819D01*
X111834343Y-72870238D01*
X112109650Y-72925000D01*
X112390350Y-72925000D01*
X112665657Y-72870238D01*
X112924991Y-72762819D01*
X113158385Y-72606870D01*
X113356870Y-72408385D01*
X113512819Y-72174991D01*
X113575000Y-72024871D01*
X113575000Y-76475000D01*
X109375000Y-76475000D01*
X109375000Y-73051776D01*
X109588388Y-72838388D01*
X109603934Y-72819446D01*
X109615485Y-72797835D01*
X109622598Y-72774386D01*
X109625000Y-72750000D01*
X109625000Y-70935457D01*
X110431250Y-70935457D01*
X110583266Y-70920485D01*
X110729440Y-70876143D01*
X110864154Y-70804137D01*
X110982233Y-70707233D01*
X111079137Y-70589154D01*
X111151143Y-70454440D01*
X111195485Y-70308266D01*
X111210457Y-70156250D01*
X111210457Y-69618750D01*
X111195485Y-69466734D01*
X111151143Y-69320560D01*
X111079137Y-69185846D01*
X110982233Y-69067767D01*
X110913057Y-69010996D01*
X110994312Y-68944312D01*
X111093341Y-68823645D01*
X111166926Y-68685977D01*
X111212240Y-68536598D01*
X111227540Y-68381250D01*
X111227540Y-67843750D01*
X111212240Y-67688402D01*
X111166926Y-67539023D01*
X111093341Y-67401355D01*
X110994312Y-67280688D01*
X110873645Y-67181659D01*
X110735977Y-67108074D01*
X110586598Y-67062760D01*
X110525000Y-67056693D01*
X110525000Y-64775780D01*
X110527539Y-64750000D01*
X110525000Y-64724220D01*
X110525000Y-64724212D01*
X110517403Y-64647082D01*
X110487383Y-64548119D01*
X110438633Y-64456914D01*
X110413339Y-64426093D01*
X110389466Y-64397003D01*
X110389462Y-64396999D01*
X110373027Y-64376973D01*
X110353001Y-64360538D01*
X109889470Y-63897009D01*
X109873027Y-63876973D01*
X109793086Y-63811367D01*
X109701881Y-63762617D01*
X109625000Y-63739295D01*
X109625000Y-63175000D01*
X113575001Y-63175000D01*
X113575001Y-64225130D01*
G36*
X106772460Y-68381250D02*
G01*
X106787760Y-68536598D01*
X106833074Y-68685977D01*
X106906659Y-68823645D01*
X107005688Y-68944312D01*
X107086943Y-69010996D01*
X107017767Y-69067767D01*
X106920863Y-69185846D01*
X106848857Y-69320560D01*
X106804515Y-69466734D01*
X106789543Y-69618750D01*
X106789543Y-70125000D01*
X104425000Y-70125000D01*
X104425000Y-68375000D01*
X106772460Y-68375000D01*
X106772460Y-68381250D01*
X106772460Y-68381250D01*
G37*
X106772460Y-68381250D02*
X106787760Y-68536598D01*
X106833074Y-68685977D01*
X106906659Y-68823645D01*
X107005688Y-68944312D01*
X107086943Y-69010996D01*
X107017767Y-69067767D01*
X106920863Y-69185846D01*
X106848857Y-69320560D01*
X106804515Y-69466734D01*
X106789543Y-69618750D01*
X106789543Y-70125000D01*
X104425000Y-70125000D01*
X104425000Y-68375000D01*
X106772460Y-68375000D01*
X106772460Y-68381250D01*
G36*
X108875000Y-65125000D02*
G01*
X104425000Y-65125000D01*
X104425000Y-64173669D01*
X105100000Y-64173669D01*
X105100000Y-64326331D01*
X105129783Y-64476059D01*
X105188204Y-64617100D01*
X105273018Y-64744034D01*
X105380966Y-64851982D01*
X105507900Y-64936796D01*
X105648941Y-64995217D01*
X105798669Y-65025000D01*
X105951331Y-65025000D01*
X106101059Y-64995217D01*
X106242100Y-64936796D01*
X106369034Y-64851982D01*
X106476982Y-64744034D01*
X106561796Y-64617100D01*
X106620217Y-64476059D01*
X106650000Y-64326331D01*
X106650000Y-64173669D01*
X106620217Y-64023941D01*
X106561796Y-63882900D01*
X106476982Y-63755966D01*
X106369034Y-63648018D01*
X106242100Y-63563204D01*
X106101059Y-63504783D01*
X105951331Y-63475000D01*
X105798669Y-63475000D01*
X105648941Y-63504783D01*
X105507900Y-63563204D01*
X105380966Y-63648018D01*
X105273018Y-63755966D01*
X105188204Y-63882900D01*
X105129783Y-64023941D01*
X105100000Y-64173669D01*
X104425000Y-64173669D01*
X104425000Y-63175000D01*
X108875000Y-63175000D01*
X108875000Y-65125000D01*
X108875000Y-65125000D01*
G37*
X108875000Y-65125000D02*
X104425000Y-65125000D01*
X104425000Y-64173669D01*
X105100000Y-64173669D01*
X105100000Y-64326331D01*
X105129783Y-64476059D01*
X105188204Y-64617100D01*
X105273018Y-64744034D01*
X105380966Y-64851982D01*
X105507900Y-64936796D01*
X105648941Y-64995217D01*
X105798669Y-65025000D01*
X105951331Y-65025000D01*
X106101059Y-64995217D01*
X106242100Y-64936796D01*
X106369034Y-64851982D01*
X106476982Y-64744034D01*
X106561796Y-64617100D01*
X106620217Y-64476059D01*
X106650000Y-64326331D01*
X106650000Y-64173669D01*
X106620217Y-64023941D01*
X106561796Y-63882900D01*
X106476982Y-63755966D01*
X106369034Y-63648018D01*
X106242100Y-63563204D01*
X106101059Y-63504783D01*
X105951331Y-63475000D01*
X105798669Y-63475000D01*
X105648941Y-63504783D01*
X105507900Y-63563204D01*
X105380966Y-63648018D01*
X105273018Y-63755966D01*
X105188204Y-63882900D01*
X105129783Y-64023941D01*
X105100000Y-64173669D01*
X104425000Y-64173669D01*
X104425000Y-63175000D01*
X108875000Y-63175000D01*
X108875000Y-65125000D01*
G36*
X108875000Y-67204764D02*
G01*
X108864154Y-67195863D01*
X108729440Y-67123857D01*
X108583266Y-67079515D01*
X108431250Y-67064543D01*
X107568750Y-67064543D01*
X107416734Y-67079515D01*
X107270560Y-67123857D01*
X107135846Y-67195863D01*
X107017767Y-67292767D01*
X106920863Y-67410846D01*
X106848857Y-67545560D01*
X106824759Y-67625000D01*
X104425000Y-67625000D01*
X104425000Y-65875000D01*
X108875000Y-65875000D01*
X108875000Y-67204764D01*
X108875000Y-67204764D01*
G37*
X108875000Y-67204764D02*
X108864154Y-67195863D01*
X108729440Y-67123857D01*
X108583266Y-67079515D01*
X108431250Y-67064543D01*
X107568750Y-67064543D01*
X107416734Y-67079515D01*
X107270560Y-67123857D01*
X107135846Y-67195863D01*
X107017767Y-67292767D01*
X106920863Y-67410846D01*
X106848857Y-67545560D01*
X106824759Y-67625000D01*
X104425000Y-67625000D01*
X104425000Y-65875000D01*
X108875000Y-65875000D01*
X108875000Y-67204764D01*
G36*
X113575000Y-89575000D02*
G01*
X104425000Y-89575000D01*
X104425000Y-86625000D01*
X105608283Y-86625000D01*
X105584343Y-86629762D01*
X105325009Y-86737181D01*
X105091615Y-86893130D01*
X104893130Y-87091615D01*
X104737181Y-87325009D01*
X104629762Y-87584343D01*
X104575000Y-87859650D01*
X104575000Y-88140350D01*
X104629762Y-88415657D01*
X104737181Y-88674991D01*
X104893130Y-88908385D01*
X105091615Y-89106870D01*
X105325009Y-89262819D01*
X105584343Y-89370238D01*
X105859650Y-89425000D01*
X106140350Y-89425000D01*
X106415657Y-89370238D01*
X106674991Y-89262819D01*
X106908385Y-89106870D01*
X107106870Y-88908385D01*
X107262819Y-88674991D01*
X107370238Y-88415657D01*
X107425000Y-88140350D01*
X107425000Y-87859650D01*
X107370238Y-87584343D01*
X107262819Y-87325009D01*
X107106870Y-87091615D01*
X106908385Y-86893130D01*
X106780000Y-86807346D01*
X106879266Y-86837458D01*
X107032400Y-86852540D01*
X108442600Y-86852540D01*
X108595734Y-86837458D01*
X108742984Y-86792790D01*
X108878689Y-86720254D01*
X108994755Y-86625000D01*
X109032042Y-86625000D01*
X109130802Y-86706050D01*
X109263554Y-86777007D01*
X109407599Y-86820703D01*
X109557400Y-86835457D01*
X110967600Y-86835457D01*
X111117401Y-86820703D01*
X111261446Y-86777007D01*
X111281237Y-86766429D01*
X111091615Y-86893130D01*
X110893130Y-87091615D01*
X110737181Y-87325009D01*
X110629762Y-87584343D01*
X110575000Y-87859650D01*
X110575000Y-88140350D01*
X110629762Y-88415657D01*
X110737181Y-88674991D01*
X110893130Y-88908385D01*
X111091615Y-89106870D01*
X111325009Y-89262819D01*
X111584343Y-89370238D01*
X111859650Y-89425000D01*
X112140350Y-89425000D01*
X112415657Y-89370238D01*
X112674991Y-89262819D01*
X112908385Y-89106870D01*
X113106870Y-88908385D01*
X113262819Y-88674991D01*
X113370238Y-88415657D01*
X113425000Y-88140350D01*
X113425000Y-87859650D01*
X113370238Y-87584343D01*
X113262819Y-87325009D01*
X113106870Y-87091615D01*
X112908385Y-86893130D01*
X112857009Y-86858801D01*
X112938443Y-86875000D01*
X113061557Y-86875000D01*
X113182306Y-86850981D01*
X113296048Y-86803868D01*
X113398414Y-86735469D01*
X113485469Y-86648414D01*
X113553868Y-86546048D01*
X113575000Y-86495030D01*
X113575000Y-89575000D01*
X113575000Y-89575000D01*
G37*
X113575000Y-89575000D02*
X104425000Y-89575000D01*
X104425000Y-86625000D01*
X105608283Y-86625000D01*
X105584343Y-86629762D01*
X105325009Y-86737181D01*
X105091615Y-86893130D01*
X104893130Y-87091615D01*
X104737181Y-87325009D01*
X104629762Y-87584343D01*
X104575000Y-87859650D01*
X104575000Y-88140350D01*
X104629762Y-88415657D01*
X104737181Y-88674991D01*
X104893130Y-88908385D01*
X105091615Y-89106870D01*
X105325009Y-89262819D01*
X105584343Y-89370238D01*
X105859650Y-89425000D01*
X106140350Y-89425000D01*
X106415657Y-89370238D01*
X106674991Y-89262819D01*
X106908385Y-89106870D01*
X107106870Y-88908385D01*
X107262819Y-88674991D01*
X107370238Y-88415657D01*
X107425000Y-88140350D01*
X107425000Y-87859650D01*
X107370238Y-87584343D01*
X107262819Y-87325009D01*
X107106870Y-87091615D01*
X106908385Y-86893130D01*
X106780000Y-86807346D01*
X106879266Y-86837458D01*
X107032400Y-86852540D01*
X108442600Y-86852540D01*
X108595734Y-86837458D01*
X108742984Y-86792790D01*
X108878689Y-86720254D01*
X108994755Y-86625000D01*
X109032042Y-86625000D01*
X109130802Y-86706050D01*
X109263554Y-86777007D01*
X109407599Y-86820703D01*
X109557400Y-86835457D01*
X110967600Y-86835457D01*
X111117401Y-86820703D01*
X111261446Y-86777007D01*
X111281237Y-86766429D01*
X111091615Y-86893130D01*
X110893130Y-87091615D01*
X110737181Y-87325009D01*
X110629762Y-87584343D01*
X110575000Y-87859650D01*
X110575000Y-88140350D01*
X110629762Y-88415657D01*
X110737181Y-88674991D01*
X110893130Y-88908385D01*
X111091615Y-89106870D01*
X111325009Y-89262819D01*
X111584343Y-89370238D01*
X111859650Y-89425000D01*
X112140350Y-89425000D01*
X112415657Y-89370238D01*
X112674991Y-89262819D01*
X112908385Y-89106870D01*
X113106870Y-88908385D01*
X113262819Y-88674991D01*
X113370238Y-88415657D01*
X113425000Y-88140350D01*
X113425000Y-87859650D01*
X113370238Y-87584343D01*
X113262819Y-87325009D01*
X113106870Y-87091615D01*
X112908385Y-86893130D01*
X112857009Y-86858801D01*
X112938443Y-86875000D01*
X113061557Y-86875000D01*
X113182306Y-86850981D01*
X113296048Y-86803868D01*
X113398414Y-86735469D01*
X113485469Y-86648414D01*
X113553868Y-86546048D01*
X113575000Y-86495030D01*
X113575000Y-89575000D01*
G36*
X113575000Y-86004971D02*
G01*
X113553868Y-85953952D01*
X113485469Y-85851586D01*
X113398414Y-85764531D01*
X113296048Y-85696132D01*
X113182306Y-85649019D01*
X113061557Y-85625000D01*
X112938443Y-85625000D01*
X112817694Y-85649019D01*
X112703952Y-85696132D01*
X112601586Y-85764531D01*
X112514531Y-85851586D01*
X112446132Y-85953952D01*
X112399019Y-86067694D01*
X112375000Y-86188443D01*
X112375000Y-86311557D01*
X112399019Y-86432306D01*
X112446132Y-86546048D01*
X112514531Y-86648414D01*
X112552604Y-86686487D01*
X112415657Y-86629762D01*
X112140350Y-86575000D01*
X111859650Y-86575000D01*
X111584343Y-86629762D01*
X111373648Y-86717034D01*
X111394198Y-86706050D01*
X111510557Y-86610557D01*
X111606050Y-86494198D01*
X111677007Y-86361446D01*
X111720703Y-86217401D01*
X111735457Y-86067600D01*
X111735457Y-84932400D01*
X111720703Y-84782599D01*
X111677007Y-84638554D01*
X111606050Y-84505802D01*
X111510557Y-84389443D01*
X111394198Y-84293950D01*
X111261446Y-84222993D01*
X111117401Y-84179297D01*
X110967600Y-84164543D01*
X109557400Y-84164543D01*
X109407599Y-84179297D01*
X109375000Y-84189186D01*
X109375000Y-79425000D01*
X113575001Y-79425000D01*
X113575000Y-86004971D01*
X113575000Y-86004971D01*
G37*
X113575000Y-86004971D02*
X113553868Y-85953952D01*
X113485469Y-85851586D01*
X113398414Y-85764531D01*
X113296048Y-85696132D01*
X113182306Y-85649019D01*
X113061557Y-85625000D01*
X112938443Y-85625000D01*
X112817694Y-85649019D01*
X112703952Y-85696132D01*
X112601586Y-85764531D01*
X112514531Y-85851586D01*
X112446132Y-85953952D01*
X112399019Y-86067694D01*
X112375000Y-86188443D01*
X112375000Y-86311557D01*
X112399019Y-86432306D01*
X112446132Y-86546048D01*
X112514531Y-86648414D01*
X112552604Y-86686487D01*
X112415657Y-86629762D01*
X112140350Y-86575000D01*
X111859650Y-86575000D01*
X111584343Y-86629762D01*
X111373648Y-86717034D01*
X111394198Y-86706050D01*
X111510557Y-86610557D01*
X111606050Y-86494198D01*
X111677007Y-86361446D01*
X111720703Y-86217401D01*
X111735457Y-86067600D01*
X111735457Y-84932400D01*
X111720703Y-84782599D01*
X111677007Y-84638554D01*
X111606050Y-84505802D01*
X111510557Y-84389443D01*
X111394198Y-84293950D01*
X111261446Y-84222993D01*
X111117401Y-84179297D01*
X110967600Y-84164543D01*
X109557400Y-84164543D01*
X109407599Y-84179297D01*
X109375000Y-84189186D01*
X109375000Y-79425000D01*
X113575001Y-79425000D01*
X113575000Y-86004971D01*
G36*
X108625000Y-84189186D02*
G01*
X108592401Y-84179297D01*
X108442600Y-84164543D01*
X107032400Y-84164543D01*
X106882599Y-84179297D01*
X106738554Y-84222993D01*
X106605802Y-84293950D01*
X106489443Y-84389443D01*
X106393950Y-84505802D01*
X106322993Y-84638554D01*
X106279297Y-84782599D01*
X106264543Y-84932400D01*
X106264543Y-85875000D01*
X104425000Y-85875000D01*
X104425000Y-84771016D01*
X104505966Y-84851982D01*
X104632900Y-84936796D01*
X104773941Y-84995217D01*
X104923669Y-85025000D01*
X105076331Y-85025000D01*
X105226059Y-84995217D01*
X105367100Y-84936796D01*
X105494034Y-84851982D01*
X105601982Y-84744034D01*
X105686796Y-84617100D01*
X105745217Y-84476059D01*
X105775000Y-84326331D01*
X105775000Y-84173669D01*
X105745217Y-84023941D01*
X105686796Y-83882900D01*
X105601982Y-83755966D01*
X105494034Y-83648018D01*
X105367100Y-83563204D01*
X105226059Y-83504783D01*
X105076331Y-83475000D01*
X104923669Y-83475000D01*
X104773941Y-83504783D01*
X104632900Y-83563204D01*
X104505966Y-83648018D01*
X104425000Y-83728984D01*
X104425000Y-79425000D01*
X108625000Y-79425000D01*
X108625000Y-84189186D01*
X108625000Y-84189186D01*
G37*
X108625000Y-84189186D02*
X108592401Y-84179297D01*
X108442600Y-84164543D01*
X107032400Y-84164543D01*
X106882599Y-84179297D01*
X106738554Y-84222993D01*
X106605802Y-84293950D01*
X106489443Y-84389443D01*
X106393950Y-84505802D01*
X106322993Y-84638554D01*
X106279297Y-84782599D01*
X106264543Y-84932400D01*
X106264543Y-85875000D01*
X104425000Y-85875000D01*
X104425000Y-84771016D01*
X104505966Y-84851982D01*
X104632900Y-84936796D01*
X104773941Y-84995217D01*
X104923669Y-85025000D01*
X105076331Y-85025000D01*
X105226059Y-84995217D01*
X105367100Y-84936796D01*
X105494034Y-84851982D01*
X105601982Y-84744034D01*
X105686796Y-84617100D01*
X105745217Y-84476059D01*
X105775000Y-84326331D01*
X105775000Y-84173669D01*
X105745217Y-84023941D01*
X105686796Y-83882900D01*
X105601982Y-83755966D01*
X105494034Y-83648018D01*
X105367100Y-83563204D01*
X105226059Y-83504783D01*
X105076331Y-83475000D01*
X104923669Y-83475000D01*
X104773941Y-83504783D01*
X104632900Y-83563204D01*
X104505966Y-83648018D01*
X104425000Y-83728984D01*
X104425000Y-79425000D01*
X108625000Y-79425000D01*
X108625000Y-84189186D01*
M02*
