G04 #@! TF.GenerationSoftware,KiCad,Pcbnew,(5.1.0-0)*
G04 #@! TF.CreationDate,2020-07-01T23:26:51+02:00*
G04 #@! TF.ProjectId,POxiM-fingersensor,504f7869-4d2d-4666-996e-67657273656e,Test proto*
G04 #@! TF.SameCoordinates,Original*
G04 #@! TF.FileFunction,Other,Fab,Top*
%FSLAX46Y46*%
G04 Gerber Fmt 4.6, Leading zero omitted, Abs format (unit mm)*
G04 Created by KiCad (PCBNEW (5.1.0-0)) date 2020-07-01 23:26:51*
%MOMM*%
%LPD*%
G04 APERTURE LIST*
%ADD10C,0.100000*%
%ADD11C,0.150000*%
%ADD12C,0.120000*%
%ADD13C,0.040000*%
%ADD14C,0.060000*%
G04 APERTURE END LIST*
D10*
X110600000Y-86300000D02*
X110600000Y-84700000D01*
X107400000Y-86300000D02*
X110600000Y-86300000D01*
X107400000Y-85100000D02*
X107400000Y-86300000D01*
X107800000Y-84700000D02*
X107400000Y-85100000D01*
X110600000Y-84700000D02*
X107800000Y-84700000D01*
X105500000Y-84250000D02*
G75*
G03X105500000Y-84250000I-500000J0D01*
G01*
X113500000Y-86250000D02*
G75*
G03X113500000Y-86250000I-500000J0D01*
G01*
X106375000Y-64250000D02*
G75*
G03X106375000Y-64250000I-500000J0D01*
G01*
X113500000Y-69750000D02*
G75*
G03X113500000Y-69750000I-500000J0D01*
G01*
X110400000Y-68200000D02*
X109600000Y-68200000D01*
X109600000Y-68200000D02*
X109600000Y-69500000D01*
X109600000Y-69500000D02*
X109900000Y-69800000D01*
X110400000Y-69800000D02*
X110400000Y-68200000D01*
X109900000Y-69800000D02*
X110400000Y-69800000D01*
X108400000Y-68200000D02*
X107600000Y-68200000D01*
X107600000Y-68200000D02*
X107600000Y-69500000D01*
X107600000Y-69500000D02*
X107900000Y-69800000D01*
X108400000Y-69800000D02*
X108400000Y-68200000D01*
X107900000Y-69800000D02*
X108400000Y-69800000D01*
D11*
X105071428Y-87732380D02*
X105071428Y-86732380D01*
X105452380Y-86732380D01*
X105547619Y-86780000D01*
X105595238Y-86827619D01*
X105642857Y-86922857D01*
X105642857Y-87065714D01*
X105595238Y-87160952D01*
X105547619Y-87208571D01*
X105452380Y-87256190D01*
X105071428Y-87256190D01*
X106071428Y-87732380D02*
X106071428Y-86732380D01*
X106500000Y-87732380D02*
X106500000Y-87208571D01*
X106452380Y-87113333D01*
X106357142Y-87065714D01*
X106214285Y-87065714D01*
X106119047Y-87113333D01*
X106071428Y-87160952D01*
X107119047Y-87732380D02*
X107023809Y-87684761D01*
X106976190Y-87637142D01*
X106928571Y-87541904D01*
X106928571Y-87256190D01*
X106976190Y-87160952D01*
X107023809Y-87113333D01*
X107119047Y-87065714D01*
X107261904Y-87065714D01*
X107357142Y-87113333D01*
X107404761Y-87160952D01*
X107452380Y-87256190D01*
X107452380Y-87541904D01*
X107404761Y-87637142D01*
X107357142Y-87684761D01*
X107261904Y-87732380D01*
X107119047Y-87732380D01*
X107738095Y-87065714D02*
X108119047Y-87065714D01*
X107880952Y-86732380D02*
X107880952Y-87589523D01*
X107928571Y-87684761D01*
X108023809Y-87732380D01*
X108119047Y-87732380D01*
X108595238Y-87732380D02*
X108500000Y-87684761D01*
X108452380Y-87637142D01*
X108404761Y-87541904D01*
X108404761Y-87256190D01*
X108452380Y-87160952D01*
X108500000Y-87113333D01*
X108595238Y-87065714D01*
X108738095Y-87065714D01*
X108833333Y-87113333D01*
X108880952Y-87160952D01*
X108928571Y-87256190D01*
X108928571Y-87541904D01*
X108880952Y-87637142D01*
X108833333Y-87684761D01*
X108738095Y-87732380D01*
X108595238Y-87732380D01*
X109785714Y-87732380D02*
X109785714Y-86732380D01*
X109785714Y-87684761D02*
X109690476Y-87732380D01*
X109500000Y-87732380D01*
X109404761Y-87684761D01*
X109357142Y-87637142D01*
X109309523Y-87541904D01*
X109309523Y-87256190D01*
X109357142Y-87160952D01*
X109404761Y-87113333D01*
X109500000Y-87065714D01*
X109690476Y-87065714D01*
X109785714Y-87113333D01*
X110261904Y-87732380D02*
X110261904Y-87065714D01*
X110261904Y-86732380D02*
X110214285Y-86780000D01*
X110261904Y-86827619D01*
X110309523Y-86780000D01*
X110261904Y-86732380D01*
X110261904Y-86827619D01*
X110880952Y-87732380D02*
X110785714Y-87684761D01*
X110738095Y-87637142D01*
X110690476Y-87541904D01*
X110690476Y-87256190D01*
X110738095Y-87160952D01*
X110785714Y-87113333D01*
X110880952Y-87065714D01*
X111023809Y-87065714D01*
X111119047Y-87113333D01*
X111166666Y-87160952D01*
X111214285Y-87256190D01*
X111214285Y-87541904D01*
X111166666Y-87637142D01*
X111119047Y-87684761D01*
X111023809Y-87732380D01*
X110880952Y-87732380D01*
X112071428Y-87732380D02*
X112071428Y-86732380D01*
X112071428Y-87684761D02*
X111976190Y-87732380D01*
X111785714Y-87732380D01*
X111690476Y-87684761D01*
X111642857Y-87637142D01*
X111595238Y-87541904D01*
X111595238Y-87256190D01*
X111642857Y-87160952D01*
X111690476Y-87113333D01*
X111785714Y-87065714D01*
X111976190Y-87065714D01*
X112071428Y-87113333D01*
X112928571Y-87684761D02*
X112833333Y-87732380D01*
X112642857Y-87732380D01*
X112547619Y-87684761D01*
X112500000Y-87589523D01*
X112500000Y-87208571D01*
X112547619Y-87113333D01*
X112642857Y-87065714D01*
X112833333Y-87065714D01*
X112928571Y-87113333D01*
X112976190Y-87208571D01*
X112976190Y-87303809D01*
X112500000Y-87399047D01*
D12*
X108409523Y-85861904D02*
X108409523Y-85061904D01*
X108600000Y-85061904D01*
X108714285Y-85100000D01*
X108790476Y-85176190D01*
X108828571Y-85252380D01*
X108866666Y-85404761D01*
X108866666Y-85519047D01*
X108828571Y-85671428D01*
X108790476Y-85747619D01*
X108714285Y-85823809D01*
X108600000Y-85861904D01*
X108409523Y-85861904D01*
X109628571Y-85861904D02*
X109171428Y-85861904D01*
X109400000Y-85861904D02*
X109400000Y-85061904D01*
X109323809Y-85176190D01*
X109247619Y-85252380D01*
X109171428Y-85290476D01*
D13*
X104785714Y-84235714D02*
X104719047Y-84235714D01*
X104719047Y-84340476D02*
X104719047Y-84140476D01*
X104814285Y-84140476D01*
X104890476Y-84340476D02*
X104890476Y-84140476D01*
X104985714Y-84340476D02*
X104985714Y-84140476D01*
X105033333Y-84140476D01*
X105061904Y-84150000D01*
X105080952Y-84169047D01*
X105090476Y-84188095D01*
X105100000Y-84226190D01*
X105100000Y-84254761D01*
X105090476Y-84292857D01*
X105080952Y-84311904D01*
X105061904Y-84330952D01*
X105033333Y-84340476D01*
X104985714Y-84340476D01*
X105290476Y-84340476D02*
X105176190Y-84340476D01*
X105233333Y-84340476D02*
X105233333Y-84140476D01*
X105214285Y-84169047D01*
X105195238Y-84188095D01*
X105176190Y-84197619D01*
X112785714Y-86235714D02*
X112719047Y-86235714D01*
X112719047Y-86340476D02*
X112719047Y-86140476D01*
X112814285Y-86140476D01*
X112890476Y-86340476D02*
X112890476Y-86140476D01*
X112985714Y-86340476D02*
X112985714Y-86140476D01*
X113033333Y-86140476D01*
X113061904Y-86150000D01*
X113080952Y-86169047D01*
X113090476Y-86188095D01*
X113100000Y-86226190D01*
X113100000Y-86254761D01*
X113090476Y-86292857D01*
X113080952Y-86311904D01*
X113061904Y-86330952D01*
X113033333Y-86340476D01*
X112985714Y-86340476D01*
X113176190Y-86159523D02*
X113185714Y-86150000D01*
X113204761Y-86140476D01*
X113252380Y-86140476D01*
X113271428Y-86150000D01*
X113280952Y-86159523D01*
X113290476Y-86178571D01*
X113290476Y-86197619D01*
X113280952Y-86226190D01*
X113166666Y-86340476D01*
X113290476Y-86340476D01*
D11*
X105538095Y-88452380D02*
X105538095Y-87452380D01*
X105538095Y-87928571D02*
X106109523Y-87928571D01*
X106109523Y-88452380D02*
X106109523Y-87452380D01*
X107109523Y-88452380D02*
X106538095Y-88452380D01*
X106823809Y-88452380D02*
X106823809Y-87452380D01*
X106728571Y-87595238D01*
X106633333Y-87690476D01*
X106538095Y-87738095D01*
X111538095Y-88452380D02*
X111538095Y-87452380D01*
X111538095Y-87928571D02*
X112109523Y-87928571D01*
X112109523Y-88452380D02*
X112109523Y-87452380D01*
X112538095Y-87547619D02*
X112585714Y-87500000D01*
X112680952Y-87452380D01*
X112919047Y-87452380D01*
X113014285Y-87500000D01*
X113061904Y-87547619D01*
X113109523Y-87642857D01*
X113109523Y-87738095D01*
X113061904Y-87880952D01*
X112490476Y-88452380D01*
X113109523Y-88452380D01*
D13*
X105660714Y-64235714D02*
X105594047Y-64235714D01*
X105594047Y-64340476D02*
X105594047Y-64140476D01*
X105689285Y-64140476D01*
X105765476Y-64340476D02*
X105765476Y-64140476D01*
X105860714Y-64340476D02*
X105860714Y-64140476D01*
X105908333Y-64140476D01*
X105936904Y-64150000D01*
X105955952Y-64169047D01*
X105965476Y-64188095D01*
X105975000Y-64226190D01*
X105975000Y-64254761D01*
X105965476Y-64292857D01*
X105955952Y-64311904D01*
X105936904Y-64330952D01*
X105908333Y-64340476D01*
X105860714Y-64340476D01*
X106041666Y-64140476D02*
X106165476Y-64140476D01*
X106098809Y-64216666D01*
X106127380Y-64216666D01*
X106146428Y-64226190D01*
X106155952Y-64235714D01*
X106165476Y-64254761D01*
X106165476Y-64302380D01*
X106155952Y-64321428D01*
X106146428Y-64330952D01*
X106127380Y-64340476D01*
X106070238Y-64340476D01*
X106051190Y-64330952D01*
X106041666Y-64321428D01*
X112785714Y-69735714D02*
X112719047Y-69735714D01*
X112719047Y-69840476D02*
X112719047Y-69640476D01*
X112814285Y-69640476D01*
X112890476Y-69840476D02*
X112890476Y-69640476D01*
X112985714Y-69840476D02*
X112985714Y-69640476D01*
X113033333Y-69640476D01*
X113061904Y-69650000D01*
X113080952Y-69669047D01*
X113090476Y-69688095D01*
X113100000Y-69726190D01*
X113100000Y-69754761D01*
X113090476Y-69792857D01*
X113080952Y-69811904D01*
X113061904Y-69830952D01*
X113033333Y-69840476D01*
X112985714Y-69840476D01*
X113271428Y-69707142D02*
X113271428Y-69840476D01*
X113223809Y-69630952D02*
X113176190Y-69773809D01*
X113300000Y-69773809D01*
D11*
X111788095Y-65202380D02*
X111788095Y-64202380D01*
X111788095Y-64678571D02*
X112359523Y-64678571D01*
X112359523Y-65202380D02*
X112359523Y-64202380D01*
X112740476Y-64202380D02*
X113359523Y-64202380D01*
X113026190Y-64583333D01*
X113169047Y-64583333D01*
X113264285Y-64630952D01*
X113311904Y-64678571D01*
X113359523Y-64773809D01*
X113359523Y-65011904D01*
X113311904Y-65107142D01*
X113264285Y-65154761D01*
X113169047Y-65202380D01*
X112883333Y-65202380D01*
X112788095Y-65154761D01*
X112740476Y-65107142D01*
X111788095Y-71952380D02*
X111788095Y-70952380D01*
X111788095Y-71428571D02*
X112359523Y-71428571D01*
X112359523Y-71952380D02*
X112359523Y-70952380D01*
X113264285Y-71285714D02*
X113264285Y-71952380D01*
X113026190Y-70904761D02*
X112788095Y-71619047D01*
X113407142Y-71619047D01*
D14*
X110180952Y-69295238D02*
X109780952Y-69295238D01*
X109780952Y-69200000D01*
X109800000Y-69142857D01*
X109838095Y-69104761D01*
X109876190Y-69085714D01*
X109952380Y-69066666D01*
X110009523Y-69066666D01*
X110085714Y-69085714D01*
X110123809Y-69104761D01*
X110161904Y-69142857D01*
X110180952Y-69200000D01*
X110180952Y-69295238D01*
X109780952Y-68933333D02*
X109780952Y-68685714D01*
X109933333Y-68819047D01*
X109933333Y-68761904D01*
X109952380Y-68723809D01*
X109971428Y-68704761D01*
X110009523Y-68685714D01*
X110104761Y-68685714D01*
X110142857Y-68704761D01*
X110161904Y-68723809D01*
X110180952Y-68761904D01*
X110180952Y-68876190D01*
X110161904Y-68914285D01*
X110142857Y-68933333D01*
X108180952Y-69295238D02*
X107780952Y-69295238D01*
X107780952Y-69200000D01*
X107800000Y-69142857D01*
X107838095Y-69104761D01*
X107876190Y-69085714D01*
X107952380Y-69066666D01*
X108009523Y-69066666D01*
X108085714Y-69085714D01*
X108123809Y-69104761D01*
X108161904Y-69142857D01*
X108180952Y-69200000D01*
X108180952Y-69295238D01*
X107819047Y-68914285D02*
X107800000Y-68895238D01*
X107780952Y-68857142D01*
X107780952Y-68761904D01*
X107800000Y-68723809D01*
X107819047Y-68704761D01*
X107857142Y-68685714D01*
X107895238Y-68685714D01*
X107952380Y-68704761D01*
X108180952Y-68933333D01*
X108180952Y-68685714D01*
M02*
