G04 #@! TF.GenerationSoftware,KiCad,Pcbnew,(5.1.0-0)*
G04 #@! TF.CreationDate,2020-07-10T00:15:35+02:00*
G04 #@! TF.ProjectId,POxiM-fingersensor-LEDBoard,504f7869-4d2d-4666-996e-67657273656e,Test proto*
G04 #@! TF.SameCoordinates,Original*
G04 #@! TF.FileFunction,Legend,Bot*
G04 #@! TF.FilePolarity,Positive*
%FSLAX46Y46*%
G04 Gerber Fmt 4.6, Leading zero omitted, Abs format (unit mm)*
G04 Created by KiCad (PCBNEW (5.1.0-0)) date 2020-07-10 00:15:35*
%MOMM*%
%LPD*%
G04 APERTURE LIST*
%ADD10C,0.150000*%
%ADD11C,0.120000*%
G04 APERTURE END LIST*
D10*
X110111904Y-66350000D02*
X109311904Y-66350000D01*
X110111904Y-67188095D02*
X109730952Y-66921428D01*
X110111904Y-66730952D02*
X109311904Y-66730952D01*
X109311904Y-67035714D01*
X109350000Y-67111904D01*
X109388095Y-67150000D01*
X109464285Y-67188095D01*
X109578571Y-67188095D01*
X109654761Y-67150000D01*
X109692857Y-67111904D01*
X109730952Y-67035714D01*
X109730952Y-66730952D01*
X109350000Y-68640476D02*
X109311904Y-68564285D01*
X109311904Y-68450000D01*
X109350000Y-68335714D01*
X109426190Y-68259523D01*
X109502380Y-68221428D01*
X109654761Y-68183333D01*
X109769047Y-68183333D01*
X109921428Y-68221428D01*
X109997619Y-68259523D01*
X110073809Y-68335714D01*
X110111904Y-68450000D01*
X110111904Y-68526190D01*
X110073809Y-68640476D01*
X110035714Y-68678571D01*
X109769047Y-68678571D01*
X109769047Y-68526190D01*
X110111904Y-69021428D02*
X109311904Y-69021428D01*
X110111904Y-69478571D01*
X109311904Y-69478571D01*
X110111904Y-69859523D02*
X109311904Y-69859523D01*
X109311904Y-70050000D01*
X109350000Y-70164285D01*
X109426190Y-70240476D01*
X109502380Y-70278571D01*
X109654761Y-70316666D01*
X109769047Y-70316666D01*
X109921428Y-70278571D01*
X109997619Y-70240476D01*
X110073809Y-70164285D01*
X110111904Y-70050000D01*
X110111904Y-69859523D01*
X110111904Y-71140476D02*
X109311904Y-71140476D01*
X109311904Y-71445238D01*
X109350000Y-71521428D01*
X109388095Y-71559523D01*
X109464285Y-71597619D01*
X109578571Y-71597619D01*
X109654761Y-71559523D01*
X109692857Y-71521428D01*
X109730952Y-71445238D01*
X109730952Y-71140476D01*
X110111904Y-71940476D02*
X109311904Y-71940476D01*
X109311904Y-72130952D01*
X109350000Y-72245238D01*
X109426190Y-72321428D01*
X109502380Y-72359523D01*
X109654761Y-72397619D01*
X109769047Y-72397619D01*
X109921428Y-72359523D01*
X109997619Y-72321428D01*
X110073809Y-72245238D01*
X110111904Y-72130952D01*
X110111904Y-71940476D01*
X110111904Y-63792857D02*
X109730952Y-63526190D01*
X110111904Y-63335714D02*
X109311904Y-63335714D01*
X109311904Y-63640476D01*
X109350000Y-63716666D01*
X109388095Y-63754761D01*
X109464285Y-63792857D01*
X109578571Y-63792857D01*
X109654761Y-63754761D01*
X109692857Y-63716666D01*
X109730952Y-63640476D01*
X109730952Y-63335714D01*
X110073809Y-64440476D02*
X110111904Y-64364285D01*
X110111904Y-64211904D01*
X110073809Y-64135714D01*
X109997619Y-64097619D01*
X109692857Y-64097619D01*
X109616666Y-64135714D01*
X109578571Y-64211904D01*
X109578571Y-64364285D01*
X109616666Y-64440476D01*
X109692857Y-64478571D01*
X109769047Y-64478571D01*
X109845238Y-64097619D01*
X110111904Y-65164285D02*
X109311904Y-65164285D01*
X110073809Y-65164285D02*
X110111904Y-65088095D01*
X110111904Y-64935714D01*
X110073809Y-64859523D01*
X110035714Y-64821428D01*
X109959523Y-64783333D01*
X109730952Y-64783333D01*
X109654761Y-64821428D01*
X109616666Y-64859523D01*
X109578571Y-64935714D01*
X109578571Y-65088095D01*
X109616666Y-65164285D01*
D11*
X112000000Y-66000000D02*
X114000000Y-66000000D01*
X112000000Y-70000000D02*
X114000000Y-70000000D01*
M02*
