G04 #@! TF.GenerationSoftware,KiCad,Pcbnew,(5.1.0-0)*
G04 #@! TF.CreationDate,2020-07-10T00:15:35+02:00*
G04 #@! TF.ProjectId,POxiM-fingersensor-LEDBoard,504f7869-4d2d-4666-996e-67657273656e,Test proto*
G04 #@! TF.SameCoordinates,Original*
G04 #@! TF.FileFunction,Copper,L1,Top*
G04 #@! TF.FilePolarity,Positive*
%FSLAX46Y46*%
G04 Gerber Fmt 4.6, Leading zero omitted, Abs format (unit mm)*
G04 Created by KiCad (PCBNEW (5.1.0-0)) date 2020-07-10 00:15:35*
%MOMM*%
%LPD*%
G04 APERTURE LIST*
%ADD10C,1.000000*%
%ADD11C,0.100000*%
%ADD12C,1.250000*%
%ADD13C,0.800000*%
%ADD14C,1.800000*%
%ADD15C,0.400000*%
%ADD16C,0.250000*%
G04 APERTURE END LIST*
D10*
X112500000Y-69250000D03*
D11*
G36*
X108418130Y-70851505D02*
G01*
X108448466Y-70856005D01*
X108478214Y-70863456D01*
X108507089Y-70873788D01*
X108534811Y-70886900D01*
X108561116Y-70902666D01*
X108585748Y-70920934D01*
X108608471Y-70941529D01*
X108629066Y-70964252D01*
X108647334Y-70988884D01*
X108663100Y-71015189D01*
X108676212Y-71042911D01*
X108686544Y-71071786D01*
X108693995Y-71101534D01*
X108698495Y-71131870D01*
X108700000Y-71162500D01*
X108700000Y-71787500D01*
X108698495Y-71818130D01*
X108693995Y-71848466D01*
X108686544Y-71878214D01*
X108676212Y-71907089D01*
X108663100Y-71934811D01*
X108647334Y-71961116D01*
X108629066Y-71985748D01*
X108608471Y-72008471D01*
X108585748Y-72029066D01*
X108561116Y-72047334D01*
X108534811Y-72063100D01*
X108507089Y-72076212D01*
X108478214Y-72086544D01*
X108448466Y-72093995D01*
X108418130Y-72098495D01*
X108387500Y-72100000D01*
X107612500Y-72100000D01*
X107581870Y-72098495D01*
X107551534Y-72093995D01*
X107521786Y-72086544D01*
X107492911Y-72076212D01*
X107465189Y-72063100D01*
X107438884Y-72047334D01*
X107414252Y-72029066D01*
X107391529Y-72008471D01*
X107370934Y-71985748D01*
X107352666Y-71961116D01*
X107336900Y-71934811D01*
X107323788Y-71907089D01*
X107313456Y-71878214D01*
X107306005Y-71848466D01*
X107301505Y-71818130D01*
X107300000Y-71787500D01*
X107300000Y-71162500D01*
X107301505Y-71131870D01*
X107306005Y-71101534D01*
X107313456Y-71071786D01*
X107323788Y-71042911D01*
X107336900Y-71015189D01*
X107352666Y-70988884D01*
X107370934Y-70964252D01*
X107391529Y-70941529D01*
X107414252Y-70920934D01*
X107438884Y-70902666D01*
X107465189Y-70886900D01*
X107492911Y-70873788D01*
X107521786Y-70863456D01*
X107551534Y-70856005D01*
X107581870Y-70851505D01*
X107612500Y-70850000D01*
X108387500Y-70850000D01*
X108418130Y-70851505D01*
X108418130Y-70851505D01*
G37*
D12*
X108000000Y-71475000D03*
D11*
G36*
X108418130Y-68901505D02*
G01*
X108448466Y-68906005D01*
X108478214Y-68913456D01*
X108507089Y-68923788D01*
X108534811Y-68936900D01*
X108561116Y-68952666D01*
X108585748Y-68970934D01*
X108608471Y-68991529D01*
X108629066Y-69014252D01*
X108647334Y-69038884D01*
X108663100Y-69065189D01*
X108676212Y-69092911D01*
X108686544Y-69121786D01*
X108693995Y-69151534D01*
X108698495Y-69181870D01*
X108700000Y-69212500D01*
X108700000Y-69837500D01*
X108698495Y-69868130D01*
X108693995Y-69898466D01*
X108686544Y-69928214D01*
X108676212Y-69957089D01*
X108663100Y-69984811D01*
X108647334Y-70011116D01*
X108629066Y-70035748D01*
X108608471Y-70058471D01*
X108585748Y-70079066D01*
X108561116Y-70097334D01*
X108534811Y-70113100D01*
X108507089Y-70126212D01*
X108478214Y-70136544D01*
X108448466Y-70143995D01*
X108418130Y-70148495D01*
X108387500Y-70150000D01*
X107612500Y-70150000D01*
X107581870Y-70148495D01*
X107551534Y-70143995D01*
X107521786Y-70136544D01*
X107492911Y-70126212D01*
X107465189Y-70113100D01*
X107438884Y-70097334D01*
X107414252Y-70079066D01*
X107391529Y-70058471D01*
X107370934Y-70035748D01*
X107352666Y-70011116D01*
X107336900Y-69984811D01*
X107323788Y-69957089D01*
X107313456Y-69928214D01*
X107306005Y-69898466D01*
X107301505Y-69868130D01*
X107300000Y-69837500D01*
X107300000Y-69212500D01*
X107301505Y-69181870D01*
X107306005Y-69151534D01*
X107313456Y-69121786D01*
X107323788Y-69092911D01*
X107336900Y-69065189D01*
X107352666Y-69038884D01*
X107370934Y-69014252D01*
X107391529Y-68991529D01*
X107414252Y-68970934D01*
X107438884Y-68952666D01*
X107465189Y-68936900D01*
X107492911Y-68923788D01*
X107521786Y-68913456D01*
X107551534Y-68906005D01*
X107581870Y-68901505D01*
X107612500Y-68900000D01*
X108387500Y-68900000D01*
X108418130Y-68901505D01*
X108418130Y-68901505D01*
G37*
D12*
X108000000Y-69525000D03*
D10*
X106300000Y-63750000D03*
D11*
G36*
X110418130Y-70851505D02*
G01*
X110448466Y-70856005D01*
X110478214Y-70863456D01*
X110507089Y-70873788D01*
X110534811Y-70886900D01*
X110561116Y-70902666D01*
X110585748Y-70920934D01*
X110608471Y-70941529D01*
X110629066Y-70964252D01*
X110647334Y-70988884D01*
X110663100Y-71015189D01*
X110676212Y-71042911D01*
X110686544Y-71071786D01*
X110693995Y-71101534D01*
X110698495Y-71131870D01*
X110700000Y-71162500D01*
X110700000Y-71787500D01*
X110698495Y-71818130D01*
X110693995Y-71848466D01*
X110686544Y-71878214D01*
X110676212Y-71907089D01*
X110663100Y-71934811D01*
X110647334Y-71961116D01*
X110629066Y-71985748D01*
X110608471Y-72008471D01*
X110585748Y-72029066D01*
X110561116Y-72047334D01*
X110534811Y-72063100D01*
X110507089Y-72076212D01*
X110478214Y-72086544D01*
X110448466Y-72093995D01*
X110418130Y-72098495D01*
X110387500Y-72100000D01*
X109612500Y-72100000D01*
X109581870Y-72098495D01*
X109551534Y-72093995D01*
X109521786Y-72086544D01*
X109492911Y-72076212D01*
X109465189Y-72063100D01*
X109438884Y-72047334D01*
X109414252Y-72029066D01*
X109391529Y-72008471D01*
X109370934Y-71985748D01*
X109352666Y-71961116D01*
X109336900Y-71934811D01*
X109323788Y-71907089D01*
X109313456Y-71878214D01*
X109306005Y-71848466D01*
X109301505Y-71818130D01*
X109300000Y-71787500D01*
X109300000Y-71162500D01*
X109301505Y-71131870D01*
X109306005Y-71101534D01*
X109313456Y-71071786D01*
X109323788Y-71042911D01*
X109336900Y-71015189D01*
X109352666Y-70988884D01*
X109370934Y-70964252D01*
X109391529Y-70941529D01*
X109414252Y-70920934D01*
X109438884Y-70902666D01*
X109465189Y-70886900D01*
X109492911Y-70873788D01*
X109521786Y-70863456D01*
X109551534Y-70856005D01*
X109581870Y-70851505D01*
X109612500Y-70850000D01*
X110387500Y-70850000D01*
X110418130Y-70851505D01*
X110418130Y-70851505D01*
G37*
D12*
X110000000Y-71475000D03*
D11*
G36*
X110418130Y-68901505D02*
G01*
X110448466Y-68906005D01*
X110478214Y-68913456D01*
X110507089Y-68923788D01*
X110534811Y-68936900D01*
X110561116Y-68952666D01*
X110585748Y-68970934D01*
X110608471Y-68991529D01*
X110629066Y-69014252D01*
X110647334Y-69038884D01*
X110663100Y-69065189D01*
X110676212Y-69092911D01*
X110686544Y-69121786D01*
X110693995Y-69151534D01*
X110698495Y-69181870D01*
X110700000Y-69212500D01*
X110700000Y-69837500D01*
X110698495Y-69868130D01*
X110693995Y-69898466D01*
X110686544Y-69928214D01*
X110676212Y-69957089D01*
X110663100Y-69984811D01*
X110647334Y-70011116D01*
X110629066Y-70035748D01*
X110608471Y-70058471D01*
X110585748Y-70079066D01*
X110561116Y-70097334D01*
X110534811Y-70113100D01*
X110507089Y-70126212D01*
X110478214Y-70136544D01*
X110448466Y-70143995D01*
X110418130Y-70148495D01*
X110387500Y-70150000D01*
X109612500Y-70150000D01*
X109581870Y-70148495D01*
X109551534Y-70143995D01*
X109521786Y-70136544D01*
X109492911Y-70126212D01*
X109465189Y-70113100D01*
X109438884Y-70097334D01*
X109414252Y-70079066D01*
X109391529Y-70058471D01*
X109370934Y-70035748D01*
X109352666Y-70011116D01*
X109336900Y-69984811D01*
X109323788Y-69957089D01*
X109313456Y-69928214D01*
X109306005Y-69898466D01*
X109301505Y-69868130D01*
X109300000Y-69837500D01*
X109300000Y-69212500D01*
X109301505Y-69181870D01*
X109306005Y-69151534D01*
X109313456Y-69121786D01*
X109323788Y-69092911D01*
X109336900Y-69065189D01*
X109352666Y-69038884D01*
X109370934Y-69014252D01*
X109391529Y-68991529D01*
X109414252Y-68970934D01*
X109438884Y-68952666D01*
X109465189Y-68936900D01*
X109492911Y-68923788D01*
X109521786Y-68913456D01*
X109551534Y-68906005D01*
X109581870Y-68901505D01*
X109612500Y-68900000D01*
X110387500Y-68900000D01*
X110418130Y-68901505D01*
X110418130Y-68901505D01*
G37*
D12*
X110000000Y-69525000D03*
D13*
X105250000Y-74750000D03*
X106000000Y-75625000D03*
X105750000Y-71250000D03*
D14*
X106750000Y-74500000D03*
D13*
X106500000Y-70750000D03*
X106500000Y-71750000D03*
X105250000Y-76000000D03*
X105000000Y-70750000D03*
X105000000Y-71750000D03*
X108250000Y-76000000D03*
X106750000Y-76000000D03*
X108250000Y-74750000D03*
X107500000Y-75625000D03*
X105000000Y-65750000D03*
X106750000Y-65750000D03*
X108500000Y-65750000D03*
X105000000Y-66750000D03*
X108500000Y-66750000D03*
X106750000Y-66750000D03*
X104900000Y-63250000D03*
X104900000Y-64250000D03*
X107700000Y-64250000D03*
X108600000Y-64250000D03*
X107700000Y-63250000D03*
X108600000Y-63250000D03*
X105000000Y-69250000D03*
X109750000Y-74750000D03*
X111250000Y-76000000D03*
X111500000Y-67750000D03*
D14*
X111250000Y-74500000D03*
D13*
X110500000Y-75625000D03*
X112750000Y-76000000D03*
X112750000Y-74750000D03*
X106500000Y-68250000D03*
X106500000Y-69250000D03*
X109750000Y-76000000D03*
X105000000Y-68250000D03*
X110000000Y-72850000D03*
X105750000Y-68750000D03*
X112000000Y-75625000D03*
D15*
X105000000Y-73750000D02*
X105000000Y-75000000D01*
X108000000Y-68000000D02*
X108000000Y-69525000D01*
X108000000Y-68000000D02*
X108000000Y-66612500D01*
X109500000Y-64250000D02*
X108750000Y-64250000D01*
X109750000Y-64500000D02*
X109500000Y-64250000D01*
X110000000Y-69525000D02*
X110000000Y-66250000D01*
X110000000Y-66250000D02*
X109750000Y-66000000D01*
X109750000Y-66000000D02*
X109750000Y-64500000D01*
X108188128Y-72688128D02*
X109688128Y-72688128D01*
X108000000Y-71475000D02*
X108000000Y-72500000D01*
X108000000Y-72500000D02*
X108188128Y-72688128D01*
X109688128Y-72688128D02*
X109750000Y-72750000D01*
X110000000Y-71387500D02*
X110000000Y-72500000D01*
X110000000Y-72500000D02*
X110000000Y-73000000D01*
D16*
G36*
X113575000Y-76475000D02*
G01*
X109375000Y-76475000D01*
X109375000Y-72875000D01*
X109500000Y-72875000D01*
X109524386Y-72872598D01*
X109547835Y-72865485D01*
X109569446Y-72853934D01*
X109588388Y-72838388D01*
X109603934Y-72819446D01*
X109615485Y-72797835D01*
X109622598Y-72774386D01*
X109625000Y-72750000D01*
X109625000Y-72627540D01*
X110387500Y-72627540D01*
X110551384Y-72611399D01*
X110708969Y-72563596D01*
X110854201Y-72485968D01*
X110981498Y-72381498D01*
X110994395Y-72365783D01*
X111065455Y-72472131D01*
X111277869Y-72684545D01*
X111527642Y-72851438D01*
X111805174Y-72966395D01*
X112099801Y-73025000D01*
X112400199Y-73025000D01*
X112694826Y-72966395D01*
X112972358Y-72851438D01*
X113222131Y-72684545D01*
X113434545Y-72472131D01*
X113575000Y-72261925D01*
X113575000Y-76475000D01*
X113575000Y-76475000D01*
G37*
X113575000Y-76475000D02*
X109375000Y-76475000D01*
X109375000Y-72875000D01*
X109500000Y-72875000D01*
X109524386Y-72872598D01*
X109547835Y-72865485D01*
X109569446Y-72853934D01*
X109588388Y-72838388D01*
X109603934Y-72819446D01*
X109615485Y-72797835D01*
X109622598Y-72774386D01*
X109625000Y-72750000D01*
X109625000Y-72627540D01*
X110387500Y-72627540D01*
X110551384Y-72611399D01*
X110708969Y-72563596D01*
X110854201Y-72485968D01*
X110981498Y-72381498D01*
X110994395Y-72365783D01*
X111065455Y-72472131D01*
X111277869Y-72684545D01*
X111527642Y-72851438D01*
X111805174Y-72966395D01*
X112099801Y-73025000D01*
X112400199Y-73025000D01*
X112694826Y-72966395D01*
X112972358Y-72851438D01*
X113222131Y-72684545D01*
X113434545Y-72472131D01*
X113575000Y-72261925D01*
X113575000Y-76475000D01*
G36*
X113575001Y-68653910D02*
G01*
X113451519Y-68469108D01*
X113280892Y-68298481D01*
X113080255Y-68164419D01*
X112857319Y-68072076D01*
X112620652Y-68025000D01*
X112379348Y-68025000D01*
X112142681Y-68072076D01*
X111919745Y-68164419D01*
X111719108Y-68298481D01*
X111548481Y-68469108D01*
X111414419Y-68669745D01*
X111322076Y-68892681D01*
X111275000Y-69129348D01*
X111275000Y-69370652D01*
X111322076Y-69607319D01*
X111414419Y-69830255D01*
X111548481Y-70030892D01*
X111625583Y-70107994D01*
X111527642Y-70148562D01*
X111277869Y-70315455D01*
X111065455Y-70527869D01*
X111012811Y-70606657D01*
X110981498Y-70568502D01*
X110898028Y-70500000D01*
X110981498Y-70431498D01*
X111085968Y-70304201D01*
X111163596Y-70158969D01*
X111211399Y-70001384D01*
X111227540Y-69837500D01*
X111227540Y-69212500D01*
X111211399Y-69048616D01*
X111163596Y-68891031D01*
X111085968Y-68745799D01*
X110981498Y-68618502D01*
X110854201Y-68514032D01*
X110725000Y-68444973D01*
X110725000Y-66566264D01*
X110777642Y-66601438D01*
X111055174Y-66716395D01*
X111349801Y-66775000D01*
X111650199Y-66775000D01*
X111944826Y-66716395D01*
X112222358Y-66601438D01*
X112472131Y-66434545D01*
X112684545Y-66222131D01*
X112851438Y-65972358D01*
X112966395Y-65694826D01*
X113025000Y-65400199D01*
X113025000Y-65099801D01*
X112966395Y-64805174D01*
X112851438Y-64527642D01*
X112684545Y-64277869D01*
X112472131Y-64065455D01*
X112222358Y-63898562D01*
X111944826Y-63783605D01*
X111650199Y-63725000D01*
X111349801Y-63725000D01*
X111055174Y-63783605D01*
X110777642Y-63898562D01*
X110527869Y-64065455D01*
X110405309Y-64188015D01*
X110355731Y-64095263D01*
X110265132Y-63984868D01*
X110237472Y-63962168D01*
X110037832Y-63762528D01*
X110015132Y-63734868D01*
X109904737Y-63644269D01*
X109778788Y-63576947D01*
X109642125Y-63535491D01*
X109625000Y-63533804D01*
X109625000Y-62825000D01*
X113575001Y-62825000D01*
X113575001Y-68653910D01*
X113575001Y-68653910D01*
G37*
X113575001Y-68653910D02*
X113451519Y-68469108D01*
X113280892Y-68298481D01*
X113080255Y-68164419D01*
X112857319Y-68072076D01*
X112620652Y-68025000D01*
X112379348Y-68025000D01*
X112142681Y-68072076D01*
X111919745Y-68164419D01*
X111719108Y-68298481D01*
X111548481Y-68469108D01*
X111414419Y-68669745D01*
X111322076Y-68892681D01*
X111275000Y-69129348D01*
X111275000Y-69370652D01*
X111322076Y-69607319D01*
X111414419Y-69830255D01*
X111548481Y-70030892D01*
X111625583Y-70107994D01*
X111527642Y-70148562D01*
X111277869Y-70315455D01*
X111065455Y-70527869D01*
X111012811Y-70606657D01*
X110981498Y-70568502D01*
X110898028Y-70500000D01*
X110981498Y-70431498D01*
X111085968Y-70304201D01*
X111163596Y-70158969D01*
X111211399Y-70001384D01*
X111227540Y-69837500D01*
X111227540Y-69212500D01*
X111211399Y-69048616D01*
X111163596Y-68891031D01*
X111085968Y-68745799D01*
X110981498Y-68618502D01*
X110854201Y-68514032D01*
X110725000Y-68444973D01*
X110725000Y-66566264D01*
X110777642Y-66601438D01*
X111055174Y-66716395D01*
X111349801Y-66775000D01*
X111650199Y-66775000D01*
X111944826Y-66716395D01*
X112222358Y-66601438D01*
X112472131Y-66434545D01*
X112684545Y-66222131D01*
X112851438Y-65972358D01*
X112966395Y-65694826D01*
X113025000Y-65400199D01*
X113025000Y-65099801D01*
X112966395Y-64805174D01*
X112851438Y-64527642D01*
X112684545Y-64277869D01*
X112472131Y-64065455D01*
X112222358Y-63898562D01*
X111944826Y-63783605D01*
X111650199Y-63725000D01*
X111349801Y-63725000D01*
X111055174Y-63783605D01*
X110777642Y-63898562D01*
X110527869Y-64065455D01*
X110405309Y-64188015D01*
X110355731Y-64095263D01*
X110265132Y-63984868D01*
X110237472Y-63962168D01*
X110037832Y-63762528D01*
X110015132Y-63734868D01*
X109904737Y-63644269D01*
X109778788Y-63576947D01*
X109642125Y-63535491D01*
X109625000Y-63533804D01*
X109625000Y-62825000D01*
X113575001Y-62825000D01*
X113575001Y-68653910D01*
G36*
X107275000Y-68444973D02*
G01*
X107145799Y-68514032D01*
X107018502Y-68618502D01*
X106914032Y-68745799D01*
X106836404Y-68891031D01*
X106788601Y-69048616D01*
X106772460Y-69212500D01*
X106772460Y-69625000D01*
X104425000Y-69625000D01*
X104425000Y-67875000D01*
X107275000Y-67875000D01*
X107275000Y-68444973D01*
X107275000Y-68444973D01*
G37*
X107275000Y-68444973D02*
X107145799Y-68514032D01*
X107018502Y-68618502D01*
X106914032Y-68745799D01*
X106836404Y-68891031D01*
X106788601Y-69048616D01*
X106772460Y-69212500D01*
X106772460Y-69625000D01*
X104425000Y-69625000D01*
X104425000Y-67875000D01*
X107275000Y-67875000D01*
X107275000Y-68444973D01*
G36*
X105348481Y-62969108D02*
G01*
X105214419Y-63169745D01*
X105122076Y-63392681D01*
X105075000Y-63629348D01*
X105075000Y-63870652D01*
X105122076Y-64107319D01*
X105214419Y-64330255D01*
X105348481Y-64530892D01*
X105442589Y-64625000D01*
X104425000Y-64625000D01*
X104425000Y-62825000D01*
X105492589Y-62825000D01*
X105348481Y-62969108D01*
X105348481Y-62969108D01*
G37*
X105348481Y-62969108D02*
X105214419Y-63169745D01*
X105122076Y-63392681D01*
X105075000Y-63629348D01*
X105075000Y-63870652D01*
X105122076Y-64107319D01*
X105214419Y-64330255D01*
X105348481Y-64530892D01*
X105442589Y-64625000D01*
X104425000Y-64625000D01*
X104425000Y-62825000D01*
X105492589Y-62825000D01*
X105348481Y-62969108D01*
G36*
X108875000Y-64625000D02*
G01*
X107157411Y-64625000D01*
X107251519Y-64530892D01*
X107385581Y-64330255D01*
X107477924Y-64107319D01*
X107525000Y-63870652D01*
X107525000Y-63629348D01*
X107477924Y-63392681D01*
X107385581Y-63169745D01*
X107251519Y-62969108D01*
X107107411Y-62825000D01*
X108875000Y-62825000D01*
X108875000Y-64625000D01*
X108875000Y-64625000D01*
G37*
X108875000Y-64625000D02*
X107157411Y-64625000D01*
X107251519Y-64530892D01*
X107385581Y-64330255D01*
X107477924Y-64107319D01*
X107525000Y-63870652D01*
X107525000Y-63629348D01*
X107477924Y-63392681D01*
X107385581Y-63169745D01*
X107251519Y-62969108D01*
X107107411Y-62825000D01*
X108875000Y-62825000D01*
X108875000Y-64625000D01*
G36*
X108875000Y-67125000D02*
G01*
X104425000Y-67125000D01*
X104425000Y-65375000D01*
X108875000Y-65375000D01*
X108875000Y-67125000D01*
X108875000Y-67125000D01*
G37*
X108875000Y-67125000D02*
X104425000Y-67125000D01*
X104425000Y-65375000D01*
X108875000Y-65375000D01*
X108875000Y-67125000D01*
G36*
X106775000Y-71136711D02*
G01*
X106772460Y-71162500D01*
X106772460Y-71787500D01*
X106775000Y-71813289D01*
X106775000Y-72150000D01*
X106777402Y-72174386D01*
X106784515Y-72197835D01*
X106796066Y-72219446D01*
X106811612Y-72238388D01*
X107316034Y-72742810D01*
X107326947Y-72778787D01*
X107394269Y-72904736D01*
X107462170Y-72987474D01*
X107462173Y-72987477D01*
X107484869Y-73015132D01*
X107512524Y-73037828D01*
X107650296Y-73175600D01*
X107672996Y-73203260D01*
X107783391Y-73293859D01*
X107909340Y-73361181D01*
X108046003Y-73402637D01*
X108152521Y-73413128D01*
X108152530Y-73413128D01*
X108188127Y-73416634D01*
X108223724Y-73413128D01*
X108486352Y-73413128D01*
X108625000Y-73551776D01*
X108625000Y-76475000D01*
X104425000Y-76475000D01*
X104425000Y-70375000D01*
X106775000Y-70375000D01*
X106775000Y-71136711D01*
X106775000Y-71136711D01*
G37*
X106775000Y-71136711D02*
X106772460Y-71162500D01*
X106772460Y-71787500D01*
X106775000Y-71813289D01*
X106775000Y-72150000D01*
X106777402Y-72174386D01*
X106784515Y-72197835D01*
X106796066Y-72219446D01*
X106811612Y-72238388D01*
X107316034Y-72742810D01*
X107326947Y-72778787D01*
X107394269Y-72904736D01*
X107462170Y-72987474D01*
X107462173Y-72987477D01*
X107484869Y-73015132D01*
X107512524Y-73037828D01*
X107650296Y-73175600D01*
X107672996Y-73203260D01*
X107783391Y-73293859D01*
X107909340Y-73361181D01*
X108046003Y-73402637D01*
X108152521Y-73413128D01*
X108152530Y-73413128D01*
X108188127Y-73416634D01*
X108223724Y-73413128D01*
X108486352Y-73413128D01*
X108625000Y-73551776D01*
X108625000Y-76475000D01*
X104425000Y-76475000D01*
X104425000Y-70375000D01*
X106775000Y-70375000D01*
X106775000Y-71136711D01*
M02*
