M48
METRIC
T1C0.400
T2C1.200
T3C2.000
%
G90
G05
T1
X104.9Y-63.25
X104.9Y-64.25
X105.0Y-65.75
X105.0Y-66.75
X105.0Y-68.25
X105.0Y-69.25
X105.0Y-70.75
X105.0Y-71.75
X105.25Y-74.75
X105.25Y-76.0
X105.75Y-68.75
X105.75Y-71.25
X106.0Y-75.625
X106.5Y-68.25
X106.5Y-69.25
X106.5Y-70.75
X106.5Y-71.75
X106.75Y-65.75
X106.75Y-66.75
X106.75Y-76.0
X107.5Y-75.625
X107.7Y-63.25
X107.7Y-64.25
X108.25Y-74.75
X108.25Y-76.0
X108.5Y-65.75
X108.5Y-66.75
X108.6Y-63.25
X108.6Y-64.25
X109.75Y-74.75
X109.75Y-76.0
X110.0Y-72.85
X110.5Y-75.625
X111.25Y-76.0
X111.5Y-67.75
X112.0Y-75.625
X112.75Y-74.75
X112.75Y-76.0
T2
X106.75Y-74.5
X111.25Y-74.5
T3
X111.5Y-65.25
X112.25Y-71.5
T0
M30
