G04 #@! TF.GenerationSoftware,KiCad,Pcbnew,(5.1.0-0)*
G04 #@! TF.CreationDate,2020-07-10T00:15:35+02:00*
G04 #@! TF.ProjectId,POxiM-fingersensor-LEDBoard,504f7869-4d2d-4666-996e-67657273656e,Test proto*
G04 #@! TF.SameCoordinates,Original*
G04 #@! TF.FileFunction,Soldermask,Top*
G04 #@! TF.FilePolarity,Negative*
%FSLAX46Y46*%
G04 Gerber Fmt 4.6, Leading zero omitted, Abs format (unit mm)*
G04 Created by KiCad (PCBNEW (5.1.0-0)) date 2020-07-10 00:15:35*
%MOMM*%
%LPD*%
G04 APERTURE LIST*
%ADD10C,0.550000*%
%ADD11C,0.100000*%
G04 APERTURE END LIST*
D10*
G36*
X112750000Y-76325000D02*
G01*
X109750000Y-76325000D01*
X109750000Y-73750000D01*
X112750000Y-73750000D01*
X112750000Y-76325000D01*
G37*
X112750000Y-76325000D02*
X109750000Y-76325000D01*
X109750000Y-73750000D01*
X112750000Y-73750000D01*
X112750000Y-76325000D01*
G36*
X108250000Y-76325000D02*
G01*
X105250000Y-76325000D01*
X105250000Y-73750000D01*
X108250000Y-73750000D01*
X108250000Y-76325000D01*
G37*
X108250000Y-76325000D02*
X105250000Y-76325000D01*
X105250000Y-73750000D01*
X108250000Y-73750000D01*
X108250000Y-76325000D01*
D11*
G36*
X112727290Y-68275619D02*
G01*
X112791689Y-68288429D01*
X112973678Y-68363811D01*
X113137463Y-68473249D01*
X113276751Y-68612537D01*
X113386189Y-68776322D01*
X113461571Y-68958311D01*
X113500000Y-69151509D01*
X113500000Y-69348491D01*
X113461571Y-69541689D01*
X113386189Y-69723678D01*
X113276751Y-69887463D01*
X113137463Y-70026751D01*
X112973678Y-70136189D01*
X112791689Y-70211571D01*
X112748971Y-70220068D01*
X112590107Y-70251668D01*
X112582655Y-70252402D01*
X112559206Y-70259515D01*
X112537595Y-70271066D01*
X112518653Y-70286611D01*
X112503108Y-70305553D01*
X112491557Y-70327164D01*
X112484444Y-70350613D01*
X112482042Y-70374999D01*
X112484444Y-70399385D01*
X112491557Y-70422834D01*
X112503108Y-70444445D01*
X112518653Y-70463387D01*
X112537595Y-70478932D01*
X112559206Y-70490483D01*
X112747833Y-70568615D01*
X112747835Y-70568616D01*
X112919973Y-70683635D01*
X113066365Y-70830027D01*
X113181385Y-71002167D01*
X113260611Y-71193436D01*
X113301000Y-71396484D01*
X113301000Y-71603516D01*
X113260611Y-71806564D01*
X113204368Y-71942347D01*
X113181384Y-71997835D01*
X113066365Y-72169973D01*
X112919973Y-72316365D01*
X112747835Y-72431384D01*
X112747834Y-72431385D01*
X112747833Y-72431385D01*
X112556564Y-72510611D01*
X112353516Y-72551000D01*
X112146484Y-72551000D01*
X111943436Y-72510611D01*
X111752167Y-72431385D01*
X111752166Y-72431385D01*
X111752165Y-72431384D01*
X111580027Y-72316365D01*
X111433635Y-72169973D01*
X111318616Y-71997835D01*
X111295632Y-71942347D01*
X111239389Y-71806564D01*
X111199000Y-71603516D01*
X111199000Y-71396484D01*
X111239389Y-71193436D01*
X111318615Y-71002167D01*
X111433635Y-70830027D01*
X111580027Y-70683635D01*
X111752165Y-70568616D01*
X111752167Y-70568615D01*
X111943436Y-70489389D01*
X112146484Y-70449000D01*
X112153104Y-70449000D01*
X112177490Y-70446598D01*
X112200939Y-70439485D01*
X112222550Y-70427934D01*
X112241492Y-70412389D01*
X112257037Y-70393447D01*
X112268588Y-70371836D01*
X112275701Y-70348387D01*
X112278103Y-70324001D01*
X112275701Y-70299615D01*
X112268588Y-70276166D01*
X112257037Y-70254555D01*
X112241492Y-70235613D01*
X112222550Y-70220068D01*
X112200943Y-70208519D01*
X112026322Y-70136189D01*
X111862537Y-70026751D01*
X111723249Y-69887463D01*
X111613811Y-69723678D01*
X111538429Y-69541689D01*
X111500000Y-69348491D01*
X111500000Y-69151509D01*
X111538429Y-68958311D01*
X111613811Y-68776322D01*
X111723249Y-68612537D01*
X111862537Y-68473249D01*
X112026322Y-68363811D01*
X112208311Y-68288429D01*
X112272710Y-68275619D01*
X112401507Y-68250000D01*
X112598493Y-68250000D01*
X112727290Y-68275619D01*
X112727290Y-68275619D01*
G37*
G36*
X110529130Y-70804886D02*
G01*
X110580697Y-70820529D01*
X110628222Y-70845932D01*
X110669881Y-70880119D01*
X110704068Y-70921778D01*
X110729471Y-70969303D01*
X110745114Y-71020870D01*
X110751000Y-71080638D01*
X110751000Y-71869362D01*
X110745114Y-71929130D01*
X110729471Y-71980697D01*
X110704068Y-72028222D01*
X110669881Y-72069881D01*
X110628222Y-72104068D01*
X110580697Y-72129471D01*
X110529130Y-72145114D01*
X110469362Y-72151000D01*
X109530638Y-72151000D01*
X109470870Y-72145114D01*
X109419303Y-72129471D01*
X109371778Y-72104068D01*
X109330119Y-72069881D01*
X109295932Y-72028222D01*
X109270529Y-71980697D01*
X109254886Y-71929130D01*
X109249000Y-71869362D01*
X109249000Y-71080638D01*
X109254886Y-71020870D01*
X109270529Y-70969303D01*
X109295932Y-70921778D01*
X109330119Y-70880119D01*
X109371778Y-70845932D01*
X109419303Y-70820529D01*
X109470870Y-70804886D01*
X109530638Y-70799000D01*
X110469362Y-70799000D01*
X110529130Y-70804886D01*
X110529130Y-70804886D01*
G37*
G36*
X108529130Y-70804886D02*
G01*
X108580697Y-70820529D01*
X108628222Y-70845932D01*
X108669881Y-70880119D01*
X108704068Y-70921778D01*
X108729471Y-70969303D01*
X108745114Y-71020870D01*
X108751000Y-71080638D01*
X108751000Y-71869362D01*
X108745114Y-71929130D01*
X108729471Y-71980697D01*
X108704068Y-72028222D01*
X108669881Y-72069881D01*
X108628222Y-72104068D01*
X108580697Y-72129471D01*
X108529130Y-72145114D01*
X108469362Y-72151000D01*
X107530638Y-72151000D01*
X107470870Y-72145114D01*
X107419303Y-72129471D01*
X107371778Y-72104068D01*
X107330119Y-72069881D01*
X107295932Y-72028222D01*
X107270529Y-71980697D01*
X107254886Y-71929130D01*
X107249000Y-71869362D01*
X107249000Y-71080638D01*
X107254886Y-71020870D01*
X107270529Y-70969303D01*
X107295932Y-70921778D01*
X107330119Y-70880119D01*
X107371778Y-70845932D01*
X107419303Y-70820529D01*
X107470870Y-70804886D01*
X107530638Y-70799000D01*
X108469362Y-70799000D01*
X108529130Y-70804886D01*
X108529130Y-70804886D01*
G37*
G36*
X110529130Y-68854886D02*
G01*
X110580697Y-68870529D01*
X110628222Y-68895932D01*
X110669881Y-68930119D01*
X110704068Y-68971778D01*
X110729471Y-69019303D01*
X110745114Y-69070870D01*
X110751000Y-69130638D01*
X110751000Y-69919362D01*
X110745114Y-69979130D01*
X110729471Y-70030697D01*
X110704068Y-70078222D01*
X110669881Y-70119881D01*
X110628222Y-70154068D01*
X110580697Y-70179471D01*
X110529130Y-70195114D01*
X110469362Y-70201000D01*
X109530638Y-70201000D01*
X109470870Y-70195114D01*
X109419303Y-70179471D01*
X109371778Y-70154068D01*
X109330119Y-70119881D01*
X109295932Y-70078222D01*
X109270529Y-70030697D01*
X109254886Y-69979130D01*
X109249000Y-69919362D01*
X109249000Y-69130638D01*
X109254886Y-69070870D01*
X109270529Y-69019303D01*
X109295932Y-68971778D01*
X109330119Y-68930119D01*
X109371778Y-68895932D01*
X109419303Y-68870529D01*
X109470870Y-68854886D01*
X109530638Y-68849000D01*
X110469362Y-68849000D01*
X110529130Y-68854886D01*
X110529130Y-68854886D01*
G37*
G36*
X108529130Y-68854886D02*
G01*
X108580697Y-68870529D01*
X108628222Y-68895932D01*
X108669881Y-68930119D01*
X108704068Y-68971778D01*
X108729471Y-69019303D01*
X108745114Y-69070870D01*
X108751000Y-69130638D01*
X108751000Y-69919362D01*
X108745114Y-69979130D01*
X108729471Y-70030697D01*
X108704068Y-70078222D01*
X108669881Y-70119881D01*
X108628222Y-70154068D01*
X108580697Y-70179471D01*
X108529130Y-70195114D01*
X108469362Y-70201000D01*
X107530638Y-70201000D01*
X107470870Y-70195114D01*
X107419303Y-70179471D01*
X107371778Y-70154068D01*
X107330119Y-70119881D01*
X107295932Y-70078222D01*
X107270529Y-70030697D01*
X107254886Y-69979130D01*
X107249000Y-69919362D01*
X107249000Y-69130638D01*
X107254886Y-69070870D01*
X107270529Y-69019303D01*
X107295932Y-68971778D01*
X107330119Y-68930119D01*
X107371778Y-68895932D01*
X107419303Y-68870529D01*
X107470870Y-68854886D01*
X107530638Y-68849000D01*
X108469362Y-68849000D01*
X108529130Y-68854886D01*
X108529130Y-68854886D01*
G37*
G36*
X111806564Y-64239389D02*
G01*
X111997833Y-64318615D01*
X111997835Y-64318616D01*
X112100869Y-64387461D01*
X112169973Y-64433635D01*
X112316365Y-64580027D01*
X112431385Y-64752167D01*
X112510611Y-64943436D01*
X112551000Y-65146484D01*
X112551000Y-65353516D01*
X112510611Y-65556564D01*
X112431385Y-65747833D01*
X112431384Y-65747835D01*
X112316365Y-65919973D01*
X112169973Y-66066365D01*
X111997835Y-66181384D01*
X111997834Y-66181385D01*
X111997833Y-66181385D01*
X111806564Y-66260611D01*
X111603516Y-66301000D01*
X111396484Y-66301000D01*
X111193436Y-66260611D01*
X111002167Y-66181385D01*
X111002166Y-66181385D01*
X111002165Y-66181384D01*
X110830027Y-66066365D01*
X110683635Y-65919973D01*
X110568616Y-65747835D01*
X110568615Y-65747833D01*
X110489389Y-65556564D01*
X110449000Y-65353516D01*
X110449000Y-65146484D01*
X110489389Y-64943436D01*
X110568615Y-64752167D01*
X110683635Y-64580027D01*
X110830027Y-64433635D01*
X110899131Y-64387461D01*
X111002165Y-64318616D01*
X111002167Y-64318615D01*
X111193436Y-64239389D01*
X111396484Y-64199000D01*
X111603516Y-64199000D01*
X111806564Y-64239389D01*
X111806564Y-64239389D01*
G37*
G36*
X106527290Y-62775619D02*
G01*
X106591689Y-62788429D01*
X106773678Y-62863811D01*
X106937463Y-62973249D01*
X107076751Y-63112537D01*
X107186189Y-63276322D01*
X107261571Y-63458311D01*
X107300000Y-63651509D01*
X107300000Y-63848491D01*
X107261571Y-64041689D01*
X107186189Y-64223678D01*
X107076751Y-64387463D01*
X106937463Y-64526751D01*
X106773678Y-64636189D01*
X106591689Y-64711571D01*
X106527290Y-64724381D01*
X106398493Y-64750000D01*
X106201507Y-64750000D01*
X106072710Y-64724381D01*
X106008311Y-64711571D01*
X105826322Y-64636189D01*
X105662537Y-64526751D01*
X105523249Y-64387463D01*
X105413811Y-64223678D01*
X105338429Y-64041689D01*
X105300000Y-63848491D01*
X105300000Y-63651509D01*
X105338429Y-63458311D01*
X105413811Y-63276322D01*
X105523249Y-63112537D01*
X105662537Y-62973249D01*
X105826322Y-62863811D01*
X106008311Y-62788429D01*
X106072710Y-62775619D01*
X106201507Y-62750000D01*
X106398493Y-62750000D01*
X106527290Y-62775619D01*
X106527290Y-62775619D01*
G37*
M02*
