G04 #@! TF.GenerationSoftware,KiCad,Pcbnew,(5.1.0-0)*
G04 #@! TF.CreationDate,2020-07-10T00:15:35+02:00*
G04 #@! TF.ProjectId,POxiM-fingersensor-LEDBoard,504f7869-4d2d-4666-996e-67657273656e,Test proto*
G04 #@! TF.SameCoordinates,Original*
G04 #@! TF.FileFunction,Copper,L2,Bot*
G04 #@! TF.FilePolarity,Positive*
%FSLAX46Y46*%
G04 Gerber Fmt 4.6, Leading zero omitted, Abs format (unit mm)*
G04 Created by KiCad (PCBNEW (5.1.0-0)) date 2020-07-10 00:15:35*
%MOMM*%
%LPD*%
G04 APERTURE LIST*
%ADD10C,0.100000*%
%ADD11C,2.000000*%
%ADD12C,0.800000*%
%ADD13C,1.800000*%
%ADD14C,0.400000*%
%ADD15C,0.250000*%
G04 APERTURE END LIST*
D10*
G36*
X108549009Y-70252408D02*
G01*
X108597545Y-70259607D01*
X108645142Y-70271530D01*
X108691342Y-70288060D01*
X108735698Y-70309039D01*
X108777785Y-70334265D01*
X108817197Y-70363495D01*
X108853553Y-70396447D01*
X108886505Y-70432803D01*
X108915735Y-70472215D01*
X108940961Y-70514302D01*
X108961940Y-70558658D01*
X108978470Y-70604858D01*
X108990393Y-70652455D01*
X108997592Y-70700991D01*
X109000000Y-70750000D01*
X109000000Y-71750000D01*
X108997592Y-71799009D01*
X108990393Y-71847545D01*
X108978470Y-71895142D01*
X108961940Y-71941342D01*
X108940961Y-71985698D01*
X108915735Y-72027785D01*
X108886505Y-72067197D01*
X108853553Y-72103553D01*
X108817197Y-72136505D01*
X108777785Y-72165735D01*
X108735698Y-72190961D01*
X108691342Y-72211940D01*
X108645142Y-72228470D01*
X108597545Y-72240393D01*
X108549009Y-72247592D01*
X108500000Y-72250000D01*
X105000000Y-72250000D01*
X104950991Y-72247592D01*
X104902455Y-72240393D01*
X104854858Y-72228470D01*
X104808658Y-72211940D01*
X104764302Y-72190961D01*
X104722215Y-72165735D01*
X104682803Y-72136505D01*
X104646447Y-72103553D01*
X104613495Y-72067197D01*
X104584265Y-72027785D01*
X104559039Y-71985698D01*
X104538060Y-71941342D01*
X104521530Y-71895142D01*
X104509607Y-71847545D01*
X104502408Y-71799009D01*
X104500000Y-71750000D01*
X104500000Y-70750000D01*
X104502408Y-70700991D01*
X104509607Y-70652455D01*
X104521530Y-70604858D01*
X104538060Y-70558658D01*
X104559039Y-70514302D01*
X104584265Y-70472215D01*
X104613495Y-70432803D01*
X104646447Y-70396447D01*
X104682803Y-70363495D01*
X104722215Y-70334265D01*
X104764302Y-70309039D01*
X104808658Y-70288060D01*
X104854858Y-70271530D01*
X104902455Y-70259607D01*
X104950991Y-70252408D01*
X105000000Y-70250000D01*
X108500000Y-70250000D01*
X108549009Y-70252408D01*
X108549009Y-70252408D01*
G37*
D11*
X106750000Y-71250000D03*
D10*
G36*
X108549009Y-67752408D02*
G01*
X108597545Y-67759607D01*
X108645142Y-67771530D01*
X108691342Y-67788060D01*
X108735698Y-67809039D01*
X108777785Y-67834265D01*
X108817197Y-67863495D01*
X108853553Y-67896447D01*
X108886505Y-67932803D01*
X108915735Y-67972215D01*
X108940961Y-68014302D01*
X108961940Y-68058658D01*
X108978470Y-68104858D01*
X108990393Y-68152455D01*
X108997592Y-68200991D01*
X109000000Y-68250000D01*
X109000000Y-69250000D01*
X108997592Y-69299009D01*
X108990393Y-69347545D01*
X108978470Y-69395142D01*
X108961940Y-69441342D01*
X108940961Y-69485698D01*
X108915735Y-69527785D01*
X108886505Y-69567197D01*
X108853553Y-69603553D01*
X108817197Y-69636505D01*
X108777785Y-69665735D01*
X108735698Y-69690961D01*
X108691342Y-69711940D01*
X108645142Y-69728470D01*
X108597545Y-69740393D01*
X108549009Y-69747592D01*
X108500000Y-69750000D01*
X105000000Y-69750000D01*
X104950991Y-69747592D01*
X104902455Y-69740393D01*
X104854858Y-69728470D01*
X104808658Y-69711940D01*
X104764302Y-69690961D01*
X104722215Y-69665735D01*
X104682803Y-69636505D01*
X104646447Y-69603553D01*
X104613495Y-69567197D01*
X104584265Y-69527785D01*
X104559039Y-69485698D01*
X104538060Y-69441342D01*
X104521530Y-69395142D01*
X104509607Y-69347545D01*
X104502408Y-69299009D01*
X104500000Y-69250000D01*
X104500000Y-68250000D01*
X104502408Y-68200991D01*
X104509607Y-68152455D01*
X104521530Y-68104858D01*
X104538060Y-68058658D01*
X104559039Y-68014302D01*
X104584265Y-67972215D01*
X104613495Y-67932803D01*
X104646447Y-67896447D01*
X104682803Y-67863495D01*
X104722215Y-67834265D01*
X104764302Y-67809039D01*
X104808658Y-67788060D01*
X104854858Y-67771530D01*
X104902455Y-67759607D01*
X104950991Y-67752408D01*
X105000000Y-67750000D01*
X108500000Y-67750000D01*
X108549009Y-67752408D01*
X108549009Y-67752408D01*
G37*
D11*
X106750000Y-68750000D03*
D10*
G36*
X108549009Y-65252408D02*
G01*
X108597545Y-65259607D01*
X108645142Y-65271530D01*
X108691342Y-65288060D01*
X108735698Y-65309039D01*
X108777785Y-65334265D01*
X108817197Y-65363495D01*
X108853553Y-65396447D01*
X108886505Y-65432803D01*
X108915735Y-65472215D01*
X108940961Y-65514302D01*
X108961940Y-65558658D01*
X108978470Y-65604858D01*
X108990393Y-65652455D01*
X108997592Y-65700991D01*
X109000000Y-65750000D01*
X109000000Y-66750000D01*
X108997592Y-66799009D01*
X108990393Y-66847545D01*
X108978470Y-66895142D01*
X108961940Y-66941342D01*
X108940961Y-66985698D01*
X108915735Y-67027785D01*
X108886505Y-67067197D01*
X108853553Y-67103553D01*
X108817197Y-67136505D01*
X108777785Y-67165735D01*
X108735698Y-67190961D01*
X108691342Y-67211940D01*
X108645142Y-67228470D01*
X108597545Y-67240393D01*
X108549009Y-67247592D01*
X108500000Y-67250000D01*
X105000000Y-67250000D01*
X104950991Y-67247592D01*
X104902455Y-67240393D01*
X104854858Y-67228470D01*
X104808658Y-67211940D01*
X104764302Y-67190961D01*
X104722215Y-67165735D01*
X104682803Y-67136505D01*
X104646447Y-67103553D01*
X104613495Y-67067197D01*
X104584265Y-67027785D01*
X104559039Y-66985698D01*
X104538060Y-66941342D01*
X104521530Y-66895142D01*
X104509607Y-66847545D01*
X104502408Y-66799009D01*
X104500000Y-66750000D01*
X104500000Y-65750000D01*
X104502408Y-65700991D01*
X104509607Y-65652455D01*
X104521530Y-65604858D01*
X104538060Y-65558658D01*
X104559039Y-65514302D01*
X104584265Y-65472215D01*
X104613495Y-65432803D01*
X104646447Y-65396447D01*
X104682803Y-65363495D01*
X104722215Y-65334265D01*
X104764302Y-65309039D01*
X104808658Y-65288060D01*
X104854858Y-65271530D01*
X104902455Y-65259607D01*
X104950991Y-65252408D01*
X105000000Y-65250000D01*
X108500000Y-65250000D01*
X108549009Y-65252408D01*
X108549009Y-65252408D01*
G37*
D11*
X106750000Y-66250000D03*
D10*
G36*
X108549009Y-62752408D02*
G01*
X108597545Y-62759607D01*
X108645142Y-62771530D01*
X108691342Y-62788060D01*
X108735698Y-62809039D01*
X108777785Y-62834265D01*
X108817197Y-62863495D01*
X108853553Y-62896447D01*
X108886505Y-62932803D01*
X108915735Y-62972215D01*
X108940961Y-63014302D01*
X108961940Y-63058658D01*
X108978470Y-63104858D01*
X108990393Y-63152455D01*
X108997592Y-63200991D01*
X109000000Y-63250000D01*
X109000000Y-64250000D01*
X108997592Y-64299009D01*
X108990393Y-64347545D01*
X108978470Y-64395142D01*
X108961940Y-64441342D01*
X108940961Y-64485698D01*
X108915735Y-64527785D01*
X108886505Y-64567197D01*
X108853553Y-64603553D01*
X108817197Y-64636505D01*
X108777785Y-64665735D01*
X108735698Y-64690961D01*
X108691342Y-64711940D01*
X108645142Y-64728470D01*
X108597545Y-64740393D01*
X108549009Y-64747592D01*
X108500000Y-64750000D01*
X105000000Y-64750000D01*
X104950991Y-64747592D01*
X104902455Y-64740393D01*
X104854858Y-64728470D01*
X104808658Y-64711940D01*
X104764302Y-64690961D01*
X104722215Y-64665735D01*
X104682803Y-64636505D01*
X104646447Y-64603553D01*
X104613495Y-64567197D01*
X104584265Y-64527785D01*
X104559039Y-64485698D01*
X104538060Y-64441342D01*
X104521530Y-64395142D01*
X104509607Y-64347545D01*
X104502408Y-64299009D01*
X104500000Y-64250000D01*
X104500000Y-63250000D01*
X104502408Y-63200991D01*
X104509607Y-63152455D01*
X104521530Y-63104858D01*
X104538060Y-63058658D01*
X104559039Y-63014302D01*
X104584265Y-62972215D01*
X104613495Y-62932803D01*
X104646447Y-62896447D01*
X104682803Y-62863495D01*
X104722215Y-62834265D01*
X104764302Y-62809039D01*
X104808658Y-62788060D01*
X104854858Y-62771530D01*
X104902455Y-62759607D01*
X104950991Y-62752408D01*
X105000000Y-62750000D01*
X108500000Y-62750000D01*
X108549009Y-62752408D01*
X108549009Y-62752408D01*
G37*
D11*
X106750000Y-63750000D03*
D12*
X105250000Y-74750000D03*
X106000000Y-75625000D03*
X105750000Y-71250000D03*
D13*
X106750000Y-74500000D03*
D12*
X106500000Y-70750000D03*
X106500000Y-71750000D03*
X105250000Y-76000000D03*
X105000000Y-70750000D03*
X105000000Y-71750000D03*
X108250000Y-76000000D03*
X106750000Y-76000000D03*
X108250000Y-74750000D03*
X107500000Y-75625000D03*
X105000000Y-65750000D03*
X106750000Y-65750000D03*
X108500000Y-65750000D03*
X105000000Y-66750000D03*
X108500000Y-66750000D03*
X106750000Y-66750000D03*
X104900000Y-63250000D03*
X104900000Y-64250000D03*
X107700000Y-64250000D03*
X108600000Y-64250000D03*
X107700000Y-63250000D03*
X108600000Y-63250000D03*
X105000000Y-69250000D03*
X109750000Y-74750000D03*
X111250000Y-76000000D03*
X111500000Y-67750000D03*
D13*
X111250000Y-74500000D03*
D12*
X110500000Y-75625000D03*
X112750000Y-76000000D03*
X112750000Y-74750000D03*
X106500000Y-68250000D03*
X106500000Y-69250000D03*
X109750000Y-76000000D03*
X105000000Y-68250000D03*
X110000000Y-72850000D03*
X105750000Y-68750000D03*
X112000000Y-75625000D03*
D14*
X106750000Y-71750000D02*
X106750000Y-74250000D01*
D15*
G36*
X108625000Y-76475000D02*
G01*
X104425000Y-76475000D01*
X104425000Y-73125000D01*
X108625000Y-73125000D01*
X108625000Y-76475000D01*
X108625000Y-76475000D01*
G37*
X108625000Y-76475000D02*
X104425000Y-76475000D01*
X104425000Y-73125000D01*
X108625000Y-73125000D01*
X108625000Y-76475000D01*
G36*
X113175000Y-76475000D02*
G01*
X109375000Y-76475000D01*
X109375000Y-73125000D01*
X113175000Y-73125000D01*
X113175000Y-76475000D01*
X113175000Y-76475000D01*
G37*
X113175000Y-76475000D02*
X109375000Y-76475000D01*
X109375000Y-73125000D01*
X113175000Y-73125000D01*
X113175000Y-76475000D01*
G36*
X113575000Y-70738075D02*
G01*
X113434545Y-70527869D01*
X113222131Y-70315455D01*
X112972358Y-70148562D01*
X112694826Y-70033605D01*
X112400199Y-69975000D01*
X112099801Y-69975000D01*
X111805174Y-70033605D01*
X111527642Y-70148562D01*
X111277869Y-70315455D01*
X111065455Y-70527869D01*
X110898562Y-70777642D01*
X110783605Y-71055174D01*
X110725000Y-71349801D01*
X110725000Y-71650199D01*
X110783605Y-71944826D01*
X110898562Y-72222358D01*
X111065455Y-72472131D01*
X111277869Y-72684545D01*
X111527642Y-72851438D01*
X111805174Y-72966395D01*
X112099801Y-73025000D01*
X112400199Y-73025000D01*
X112694826Y-72966395D01*
X112972358Y-72851438D01*
X113222131Y-72684545D01*
X113434545Y-72472131D01*
X113575000Y-72261925D01*
X113575000Y-76475000D01*
X109375000Y-76475000D01*
X109375000Y-72750000D01*
X109372598Y-72725614D01*
X109365485Y-72702165D01*
X109353934Y-72680554D01*
X109338388Y-72661612D01*
X109319446Y-72646066D01*
X109297835Y-72634515D01*
X109274386Y-72627402D01*
X109250000Y-72625000D01*
X109116638Y-72625000D01*
X109081185Y-72595904D01*
X109226581Y-72476581D01*
X109354368Y-72320871D01*
X109449323Y-72143223D01*
X109507796Y-71950463D01*
X109527540Y-71750000D01*
X109527540Y-70750000D01*
X109507796Y-70549537D01*
X109449323Y-70356777D01*
X109391122Y-70247891D01*
X109449764Y-70199764D01*
X109528867Y-70103378D01*
X109587646Y-69993411D01*
X109623841Y-69874090D01*
X109636063Y-69750000D01*
X109633000Y-69037250D01*
X109474750Y-68879000D01*
X106879000Y-68879000D01*
X106879000Y-68899000D01*
X106621000Y-68899000D01*
X106621000Y-68879000D01*
X106601000Y-68879000D01*
X106601000Y-68621000D01*
X106621000Y-68621000D01*
X106621000Y-68601000D01*
X106879000Y-68601000D01*
X106879000Y-68621000D01*
X109474750Y-68621000D01*
X109633000Y-68462750D01*
X109636063Y-67750000D01*
X109623841Y-67625910D01*
X109587646Y-67506589D01*
X109528867Y-67396622D01*
X109449764Y-67300236D01*
X109391122Y-67252109D01*
X109449323Y-67143223D01*
X109507796Y-66950463D01*
X109527540Y-66750000D01*
X109527540Y-65750000D01*
X109507796Y-65549537D01*
X109449323Y-65356777D01*
X109354368Y-65179129D01*
X109289266Y-65099801D01*
X109975000Y-65099801D01*
X109975000Y-65400199D01*
X110033605Y-65694826D01*
X110148562Y-65972358D01*
X110315455Y-66222131D01*
X110527869Y-66434545D01*
X110777642Y-66601438D01*
X111055174Y-66716395D01*
X111349801Y-66775000D01*
X111650199Y-66775000D01*
X111944826Y-66716395D01*
X112222358Y-66601438D01*
X112472131Y-66434545D01*
X112684545Y-66222131D01*
X112851438Y-65972358D01*
X112966395Y-65694826D01*
X113025000Y-65400199D01*
X113025000Y-65099801D01*
X112966395Y-64805174D01*
X112851438Y-64527642D01*
X112684545Y-64277869D01*
X112472131Y-64065455D01*
X112222358Y-63898562D01*
X111944826Y-63783605D01*
X111650199Y-63725000D01*
X111349801Y-63725000D01*
X111055174Y-63783605D01*
X110777642Y-63898562D01*
X110527869Y-64065455D01*
X110315455Y-64277869D01*
X110148562Y-64527642D01*
X110033605Y-64805174D01*
X109975000Y-65099801D01*
X109289266Y-65099801D01*
X109226581Y-65023419D01*
X109198045Y-65000000D01*
X109226581Y-64976581D01*
X109354368Y-64820871D01*
X109449323Y-64643223D01*
X109479388Y-64544113D01*
X109489453Y-64519813D01*
X109494584Y-64494017D01*
X109507796Y-64450463D01*
X109512257Y-64405168D01*
X109525000Y-64341105D01*
X109525000Y-64275789D01*
X109527540Y-64250000D01*
X109527540Y-63250000D01*
X109525000Y-63224211D01*
X109525000Y-63158895D01*
X109512257Y-63094832D01*
X109507796Y-63049537D01*
X109494584Y-63005983D01*
X109489453Y-62980187D01*
X109479388Y-62955887D01*
X109449323Y-62856777D01*
X109432338Y-62825000D01*
X113575001Y-62825000D01*
X113575000Y-70738075D01*
X113575000Y-70738075D01*
G37*
X113575000Y-70738075D02*
X113434545Y-70527869D01*
X113222131Y-70315455D01*
X112972358Y-70148562D01*
X112694826Y-70033605D01*
X112400199Y-69975000D01*
X112099801Y-69975000D01*
X111805174Y-70033605D01*
X111527642Y-70148562D01*
X111277869Y-70315455D01*
X111065455Y-70527869D01*
X110898562Y-70777642D01*
X110783605Y-71055174D01*
X110725000Y-71349801D01*
X110725000Y-71650199D01*
X110783605Y-71944826D01*
X110898562Y-72222358D01*
X111065455Y-72472131D01*
X111277869Y-72684545D01*
X111527642Y-72851438D01*
X111805174Y-72966395D01*
X112099801Y-73025000D01*
X112400199Y-73025000D01*
X112694826Y-72966395D01*
X112972358Y-72851438D01*
X113222131Y-72684545D01*
X113434545Y-72472131D01*
X113575000Y-72261925D01*
X113575000Y-76475000D01*
X109375000Y-76475000D01*
X109375000Y-72750000D01*
X109372598Y-72725614D01*
X109365485Y-72702165D01*
X109353934Y-72680554D01*
X109338388Y-72661612D01*
X109319446Y-72646066D01*
X109297835Y-72634515D01*
X109274386Y-72627402D01*
X109250000Y-72625000D01*
X109116638Y-72625000D01*
X109081185Y-72595904D01*
X109226581Y-72476581D01*
X109354368Y-72320871D01*
X109449323Y-72143223D01*
X109507796Y-71950463D01*
X109527540Y-71750000D01*
X109527540Y-70750000D01*
X109507796Y-70549537D01*
X109449323Y-70356777D01*
X109391122Y-70247891D01*
X109449764Y-70199764D01*
X109528867Y-70103378D01*
X109587646Y-69993411D01*
X109623841Y-69874090D01*
X109636063Y-69750000D01*
X109633000Y-69037250D01*
X109474750Y-68879000D01*
X106879000Y-68879000D01*
X106879000Y-68899000D01*
X106621000Y-68899000D01*
X106621000Y-68879000D01*
X106601000Y-68879000D01*
X106601000Y-68621000D01*
X106621000Y-68621000D01*
X106621000Y-68601000D01*
X106879000Y-68601000D01*
X106879000Y-68621000D01*
X109474750Y-68621000D01*
X109633000Y-68462750D01*
X109636063Y-67750000D01*
X109623841Y-67625910D01*
X109587646Y-67506589D01*
X109528867Y-67396622D01*
X109449764Y-67300236D01*
X109391122Y-67252109D01*
X109449323Y-67143223D01*
X109507796Y-66950463D01*
X109527540Y-66750000D01*
X109527540Y-65750000D01*
X109507796Y-65549537D01*
X109449323Y-65356777D01*
X109354368Y-65179129D01*
X109289266Y-65099801D01*
X109975000Y-65099801D01*
X109975000Y-65400199D01*
X110033605Y-65694826D01*
X110148562Y-65972358D01*
X110315455Y-66222131D01*
X110527869Y-66434545D01*
X110777642Y-66601438D01*
X111055174Y-66716395D01*
X111349801Y-66775000D01*
X111650199Y-66775000D01*
X111944826Y-66716395D01*
X112222358Y-66601438D01*
X112472131Y-66434545D01*
X112684545Y-66222131D01*
X112851438Y-65972358D01*
X112966395Y-65694826D01*
X113025000Y-65400199D01*
X113025000Y-65099801D01*
X112966395Y-64805174D01*
X112851438Y-64527642D01*
X112684545Y-64277869D01*
X112472131Y-64065455D01*
X112222358Y-63898562D01*
X111944826Y-63783605D01*
X111650199Y-63725000D01*
X111349801Y-63725000D01*
X111055174Y-63783605D01*
X110777642Y-63898562D01*
X110527869Y-64065455D01*
X110315455Y-64277869D01*
X110148562Y-64527642D01*
X110033605Y-64805174D01*
X109975000Y-65099801D01*
X109289266Y-65099801D01*
X109226581Y-65023419D01*
X109198045Y-65000000D01*
X109226581Y-64976581D01*
X109354368Y-64820871D01*
X109449323Y-64643223D01*
X109479388Y-64544113D01*
X109489453Y-64519813D01*
X109494584Y-64494017D01*
X109507796Y-64450463D01*
X109512257Y-64405168D01*
X109525000Y-64341105D01*
X109525000Y-64275789D01*
X109527540Y-64250000D01*
X109527540Y-63250000D01*
X109525000Y-63224211D01*
X109525000Y-63158895D01*
X109512257Y-63094832D01*
X109507796Y-63049537D01*
X109494584Y-63005983D01*
X109489453Y-62980187D01*
X109479388Y-62955887D01*
X109449323Y-62856777D01*
X109432338Y-62825000D01*
X113575001Y-62825000D01*
X113575000Y-70738075D01*
M02*
